<?xml version="1.0" encoding="utf-8"?>
<!-- Generator: Adobe Illustrator 16.0.0, SVG Export Plug-In . SVG Version: 6.00 Build 0)  -->
<!DOCTYPE svg PUBLIC "-//W3C//DTD SVG 1.1//EN" "http://www.w3.org/Graphics/SVG/1.1/DTD/svg11.dtd">
<svg version="1.1" id="Default" xmlns="http://www.w3.org/2000/svg" xmlns:xlink="http://www.w3.org/1999/xlink" x="0px" y="0px"
	 width="595.28px" height="841.89px" viewBox="0 0 595.28 841.89" enable-background="new 0 0 595.28 841.89" xml:space="preserve">
<line fill="none" stroke="#000000" stroke-linecap="round" stroke-linejoin="round" x1="203.578" y1="79.104" x2="316.955" y2="79.104"/>
<path fill="none" stroke="#000000" stroke-linecap="round" stroke-linejoin="round" d="M443.361,267.012
	c0.001,0.213,0.002,0.426,0.002,0.64c0,0.026,0,0.053,0,0.079c0,0.028,0,0.057,0,0.085c0,0.062-0.003,0.124-0.01,0.186
	c-0.01,0.098-0.03,0.2-0.068,0.292c-0.029,0.07-0.069,0.134-0.126,0.186c-0.06,0.053-0.132,0.089-0.207,0.113
	c-0.096,0.032-0.2,0.047-0.3,0.055c-0.03,0.002-0.06,0.003-0.09,0.004c-0.038,0.001-0.076,0.001-0.114,0.001
	c-0.096,0-0.193,0-0.289,0c-0.226,0.001-0.452,0.001-0.678,0.001c-0.113,0-0.226,0-0.339,0c-0.028,0-0.056,0-0.084,0
	c-0.019,0-0.038,0-0.057,0c-0.035,0-0.07-0.002-0.105-0.005c-0.061-0.004-0.122-0.012-0.182-0.024
	c-0.052-0.011-0.102-0.024-0.151-0.044c-0.081-0.032-0.155-0.077-0.211-0.146c-0.061-0.073-0.096-0.164-0.119-0.254
	c-0.014-0.057-0.023-0.115-0.03-0.173c-0.008-0.068-0.011-0.136-0.011-0.205c0-0.054,0-0.107,0-0.161c0-0.053,0-0.106,0-0.159
	c0-0.106-0.001-0.213-0.001-0.319c0-0.027,0-0.054,0-0.08c0-0.028,0-0.057,0-0.085c0-0.06,0.003-0.12,0.01-0.179
	c0.01-0.098,0.031-0.198,0.069-0.291c0.029-0.071,0.07-0.138,0.126-0.192c0.059-0.057,0.13-0.096,0.206-0.123
	c0.095-0.035,0.198-0.052,0.298-0.061c0.029-0.002,0.059-0.004,0.089-0.005c0.038-0.001,0.076-0.001,0.114-0.002
	c0.095-0.001,0.19-0.002,0.286-0.003c0.226-0.002,0.452-0.005,0.678-0.007c0.113-0.001,0.226-0.003,0.338-0.004
	c0.028,0,0.057,0,0.085-0.001c0.019,0,0.038,0,0.057,0c0.035,0.001,0.07,0.002,0.105,0.005c0.062,0.004,0.122,0.012,0.183,0.025
	c0.052,0.011,0.103,0.026,0.152,0.047c0.044,0.019,0.084,0.041,0.122,0.069c0.035,0.027,0.065,0.058,0.092,0.092
	c0.06,0.079,0.096,0.171,0.12,0.266C443.35,266.756,443.36,266.887,443.361,267.012z"/>
<path fill="none" stroke="#000000" stroke-linecap="round" stroke-linejoin="round" d="M441.768,266.138
	c0.002,0.207,0.004,0.414,0.005,0.622c0.001,0.216,0.003,0.432,0.003,0.647c0.001,0.215,0.001,0.429,0.001,0.641
	c0,0.203,0,0.404,0.001,0.606"/>
<path fill="none" stroke="#000000" stroke-linecap="round" stroke-linejoin="round" d="M443.342,266.748
	c-1.046,0.008-2.092,0.015-3.137,0.022"/>
<path fill="none" stroke="#000000" stroke-linecap="round" stroke-linejoin="round" d="M443.363,267.401
	c-1.057,0.004-2.114,0.008-3.171,0.012"/>
<path fill="none" stroke="#000000" stroke-linecap="round" stroke-linejoin="round" d="M443.349,268.045
	c-1.047,0.002-2.094,0.003-3.141,0.005"/>
<path fill="none" stroke="#000000" stroke-linecap="round" stroke-linejoin="round" d="M458.645,254.783
	c0.024,0.37,0.034,0.739,0.023,1.109c-0.01,0.34-0.036,0.677-0.084,1.015c-0.084,0.597-0.236,1.186-0.484,1.739
	c-0.223,0.498-0.519,0.952-0.897,1.347c-0.092,0.096-0.188,0.188-0.288,0.275c-0.101,0.089-0.206,0.172-0.313,0.251
	c-0.229,0.169-0.47,0.316-0.721,0.449c-0.396,0.209-0.815,0.379-1.239,0.52c-0.488,0.162-0.992,0.288-1.496,0.388
	c-0.578,0.115-1.166,0.197-1.751,0.257c-0.666,0.068-1.339,0.108-2.007,0.129c-0.671,0.021-1.341,0.022-2.012-0.003
	c-0.588-0.022-1.181-0.065-1.766-0.138c-0.509-0.063-1.02-0.151-1.519-0.271c-0.432-0.104-0.862-0.234-1.274-0.401
	c-0.259-0.105-0.51-0.224-0.753-0.363c-0.113-0.065-0.224-0.133-0.332-0.207c-0.106-0.072-0.209-0.149-0.309-0.23
	c-0.402-0.326-0.737-0.71-1.011-1.149c-0.294-0.472-0.506-0.986-0.656-1.519c-0.084-0.297-0.148-0.597-0.198-0.9
	c-0.054-0.331-0.09-0.662-0.113-0.996c-0.012-0.171-0.02-0.341-0.024-0.513c-0.004-0.164-0.004-0.328,0-0.491
	c0.008-0.309,0.031-0.615,0.074-0.921c0.077-0.549,0.216-1.088,0.444-1.596c0.211-0.471,0.491-0.897,0.846-1.273
	c0.088-0.094,0.18-0.183,0.275-0.269c0.097-0.087,0.197-0.169,0.301-0.248c0.223-0.17,0.455-0.32,0.697-0.458
	c0.386-0.22,0.794-0.405,1.207-0.565c0.479-0.185,0.973-0.339,1.469-0.47c0.569-0.149,1.15-0.271,1.73-0.372
	c0.662-0.115,1.326-0.202,1.994-0.271c0.666-0.069,1.338-0.12,2.007-0.141c0.589-0.02,1.184-0.018,1.772,0.018
	c0.513,0.03,1.029,0.087,1.535,0.18c0.44,0.082,0.878,0.192,1.299,0.344c0.268,0.097,0.526,0.209,0.777,0.344
	c0.118,0.063,0.233,0.132,0.345,0.205c0.111,0.072,0.219,0.149,0.323,0.232c0.429,0.339,0.783,0.747,1.072,1.209
	c0.32,0.514,0.549,1.077,0.713,1.657c0.093,0.328,0.164,0.659,0.219,0.995C458.58,254.045,458.62,254.413,458.645,254.783z"/>
<path fill="none" stroke="#000000" stroke-linecap="round" stroke-linejoin="round" d="M456.579,254.921
	c0.017,0.253,0.021,0.505,0.008,0.758c-0.012,0.231-0.038,0.46-0.082,0.688c-0.079,0.409-0.216,0.802-0.431,1.161
	c-0.205,0.342-0.466,0.633-0.783,0.874c-0.167,0.127-0.343,0.236-0.528,0.333c-0.21,0.111-0.427,0.205-0.649,0.287
	c-0.306,0.114-0.624,0.208-0.94,0.286c-0.37,0.091-0.742,0.163-1.117,0.222c-0.43,0.068-0.861,0.12-1.294,0.161
	c-0.49,0.045-0.979,0.077-1.47,0.099s-0.981,0.033-1.472,0.031c-0.435-0.001-0.869-0.014-1.302-0.042
	c-0.379-0.024-0.756-0.061-1.133-0.115c-0.322-0.046-0.647-0.105-0.963-0.186c-0.229-0.058-0.454-0.126-0.675-0.21
	c-0.193-0.074-0.38-0.158-0.56-0.261c-0.333-0.191-0.625-0.432-0.869-0.73c-0.249-0.305-0.43-0.65-0.558-1.02
	c-0.146-0.423-0.221-0.869-0.252-1.312c-0.031-0.445-0.019-0.9,0.069-1.341c0.076-0.384,0.208-0.751,0.413-1.087
	c0.2-0.329,0.456-0.606,0.761-0.839c0.164-0.125,0.337-0.232,0.519-0.331c0.208-0.112,0.421-0.208,0.64-0.295
	c0.303-0.121,0.616-0.222,0.929-0.311c0.366-0.103,0.735-0.188,1.107-0.263c0.427-0.085,0.855-0.155,1.286-0.215
	c0.487-0.067,0.975-0.121,1.465-0.165c0.489-0.044,0.979-0.079,1.469-0.099c0.435-0.018,0.869-0.025,1.303-0.016
	c0.38,0.008,0.759,0.028,1.137,0.068c0.325,0.034,0.652,0.083,0.971,0.153c0.232,0.051,0.46,0.114,0.685,0.194
	c0.198,0.07,0.388,0.153,0.571,0.255c0.347,0.194,0.646,0.444,0.896,0.754c0.262,0.327,0.451,0.697,0.584,1.09
	c0.075,0.22,0.131,0.443,0.174,0.671C456.533,254.417,456.562,254.668,456.579,254.921z"/>
<path fill="none" stroke="#000000" stroke-linecap="round" stroke-linejoin="round" d="M448.465,248.635
	c0.084,0.82,0.164,1.641,0.238,2.461"/>
<path fill="none" stroke="#000000" stroke-linecap="round" stroke-linejoin="round" d="M449.285,259.79
	c0.036,0.823,0.067,1.647,0.092,2.471"/>
<path fill="none" stroke="#000000" stroke-linecap="round" stroke-linejoin="round" d="M458.646,254.798
	c-0.688,0.046-1.377,0.092-2.065,0.138"/>
<path fill="none" stroke="#000000" stroke-linecap="round" stroke-linejoin="round" d="M441.508,255.944
	c-0.688,0.046-1.377,0.092-2.065,0.138"/>
<path fill="none" stroke="#000000" stroke-linecap="round" stroke-linejoin="round" d="M446.93,234.813
	c-0.035,0.006-0.07,0.013-0.105,0.019"/>
<path fill="none" stroke="#000000" stroke-linecap="round" stroke-linejoin="round" d="M446.34,227.541
	c2.031-0.442,4.062-0.885,6.093-1.327"/>
<path fill="none" stroke="#000000" stroke-linecap="round" stroke-linejoin="round" d="M444.581,227.924
	c0.303,1.392,0.59,2.786,0.861,4.184"/>
<path fill="none" stroke="#000000" stroke-linecap="round" stroke-linejoin="round" d="M453.625,223.3
	c0.142,0.43,0.271,0.862,0.395,1.298c0.147,0.519,0.284,1.04,0.414,1.562c0.113,0.457,0.221,0.914,0.325,1.373
	c0.115,0.508,0.224,1.018,0.329,1.528c0.029,0.139,0.057,0.277,0.084,0.416c0.028,0.141,0.056,0.281,0.083,0.422
	c0.048,0.247,0.092,0.494,0.133,0.743c0.073,0.451,0.132,0.902,0.171,1.357c0.025,0.288,0.042,0.576,0.047,0.866
	c0.005,0.259,0.001,0.518-0.014,0.776c-0.014,0.23-0.037,0.459-0.074,0.688c-0.033,0.202-0.076,0.401-0.134,0.598
	c-0.063,0.216-0.146,0.429-0.253,0.627c-0.104,0.192-0.23,0.37-0.377,0.533c-0.153,0.17-0.324,0.32-0.509,0.453
	c-0.202,0.145-0.418,0.269-0.642,0.374c-0.197,0.094-0.398,0.172-0.604,0.242c-0.227,0.076-0.456,0.138-0.688,0.192
	c-0.239,0.055-0.485,0.1-0.727,0.136c-0.182,0.027-0.363,0.049-0.546,0.064c-0.256,0.021-0.511,0.03-0.768,0.021
	c-0.231-0.007-0.459-0.028-0.688-0.069c-0.398-0.07-0.787-0.198-1.136-0.41c-0.375-0.227-0.674-0.532-0.914-0.895
	c-0.132-0.199-0.244-0.411-0.339-0.63c-0.106-0.245-0.191-0.495-0.262-0.753"/>
<path fill="none" stroke="#000000" stroke-linecap="round" stroke-linejoin="round" d="M435.556,227.483
	c6.023-1.395,12.046-2.789,18.068-4.184"/>
<path fill="none" stroke="#000000" stroke-linecap="round" stroke-linejoin="round" d="M446.825,234.833
	c0.026,0.29,0.036,0.578,0.024,0.869c-0.01,0.259-0.039,0.519-0.09,0.773c-0.091,0.448-0.254,0.876-0.52,1.254
	c-0.127,0.181-0.266,0.334-0.43,0.484c-0.168,0.154-0.349,0.288-0.542,0.409c-0.209,0.132-0.427,0.244-0.653,0.343
	c-0.249,0.108-0.503,0.198-0.764,0.276c-0.419,0.125-0.853,0.215-1.285,0.281c-0.266,0.041-0.533,0.073-0.801,0.091
	c-0.243,0.017-0.486,0.024-0.73,0.017c-0.272-0.008-0.545-0.033-0.813-0.083c-0.239-0.045-0.476-0.109-0.703-0.198
	c-0.208-0.083-0.407-0.186-0.591-0.313c-0.183-0.126-0.336-0.265-0.485-0.43c-0.135-0.15-0.255-0.311-0.365-0.48
	c-0.124-0.19-0.232-0.387-0.331-0.59c-0.111-0.229-0.209-0.462-0.298-0.701c-0.1-0.267-0.188-0.538-0.267-0.812
	c-0.116-0.398-0.213-0.799-0.299-1.204c-0.023-0.11-0.046-0.219-0.067-0.33c-0.027-0.136-0.052-0.271-0.079-0.408
	c-0.057-0.297-0.113-0.594-0.17-0.891c-0.095-0.498-0.19-0.997-0.284-1.496c-0.085-0.45-0.168-0.9-0.25-1.352
	c-0.094-0.517-0.186-1.033-0.272-1.551c-0.073-0.436-0.142-0.872-0.203-1.308"/>
<path fill="none" stroke="#000000" stroke-linecap="round" stroke-linejoin="round" d="M452.434,226.214
	c0.189,0.87,0.373,1.74,0.55,2.612c0.083,0.404,0.164,0.809,0.243,1.214c0.011,0.056,0.022,0.112,0.033,0.167
	c0.012,0.063,0.024,0.127,0.036,0.191c0.022,0.123,0.043,0.246,0.062,0.369c0.036,0.228,0.067,0.456,0.091,0.686
	c0.029,0.28,0.049,0.564,0.05,0.847c0.002,0.234-0.008,0.472-0.039,0.705c-0.025,0.189-0.064,0.381-0.127,0.562
	c-0.056,0.16-0.125,0.301-0.226,0.438c-0.098,0.135-0.214,0.253-0.344,0.357c-0.145,0.115-0.304,0.212-0.47,0.293
	c-0.19,0.093-0.391,0.167-0.594,0.228c-0.236,0.071-0.475,0.123-0.718,0.164c-0.244,0.041-0.487,0.071-0.734,0.083
	c-0.211,0.011-0.426,0.008-0.637-0.015c-0.183-0.021-0.365-0.056-0.54-0.113c-0.156-0.052-0.305-0.12-0.443-0.21
	c-0.141-0.093-0.256-0.199-0.365-0.327c-0.123-0.145-0.228-0.306-0.319-0.472c-0.11-0.199-0.203-0.411-0.284-0.623
	c-0.097-0.252-0.179-0.513-0.25-0.772c-0.056-0.2-0.105-0.401-0.15-0.604c-0.012-0.054-0.023-0.108-0.035-0.162
	c-0.006-0.027-0.012-0.055-0.017-0.083c-0.006-0.027-0.011-0.054-0.016-0.081c-0.021-0.106-0.042-0.213-0.062-0.32
	c-0.084-0.427-0.169-0.853-0.256-1.279c-0.172-0.844-0.35-1.688-0.533-2.529"/>
<path fill="none" stroke="#000000" stroke-linecap="round" stroke-linejoin="round" d="M437.857,229.389
	c2.241-0.488,4.482-0.976,6.724-1.464"/>
<path fill="none" stroke="#000000" stroke-linecap="round" stroke-linejoin="round" d="M445.442,232.108
	c0.068,0.395,0.122,0.797,0.149,1.197c0.023,0.331,0.029,0.67,0.005,1.001c-0.015,0.208-0.042,0.417-0.088,0.62
	c-0.039,0.173-0.093,0.346-0.166,0.509c-0.068,0.151-0.146,0.282-0.251,0.41c-0.108,0.133-0.232,0.25-0.369,0.353
	c-0.118,0.089-0.241,0.167-0.371,0.237c-0.144,0.078-0.292,0.145-0.444,0.204c-0.169,0.066-0.341,0.122-0.517,0.17
	c-0.195,0.055-0.391,0.1-0.589,0.138c-0.203,0.04-0.406,0.072-0.611,0.097c-0.18,0.021-0.36,0.036-0.542,0.041
	c-0.162,0.004-0.323,0.001-0.484-0.013c-0.144-0.013-0.286-0.033-0.426-0.066c-0.168-0.039-0.332-0.095-0.486-0.175
	c-0.071-0.036-0.138-0.077-0.204-0.124c-0.063-0.045-0.122-0.094-0.177-0.148c-0.122-0.119-0.227-0.255-0.318-0.398
	c-0.109-0.172-0.203-0.357-0.284-0.544c-0.06-0.139-0.114-0.279-0.164-0.422c-0.055-0.159-0.105-0.319-0.151-0.481
	c-0.107-0.377-0.191-0.759-0.266-1.145c-0.135-0.697-0.273-1.394-0.413-2.091c-0.083-0.41-0.166-0.819-0.248-1.228
	c-0.058-0.287-0.116-0.574-0.171-0.861"/>
<path fill="none" stroke="#000000" stroke-linecap="round" stroke-linejoin="round" d="M444.59,225.392
	c0.839,3.624,1.571,7.272,2.195,10.938"/>
<path fill="none" stroke="#000000" stroke-linecap="round" stroke-linejoin="round" d="M455.335,230.337
	c-0.662,0.128-1.323,0.256-1.984,0.384"/>
<path fill="none" stroke="#000000" stroke-linecap="round" stroke-linejoin="round" d="M447.24,231.903
	c-0.592,0.114-1.183,0.229-1.775,0.343"/>
<path fill="none" stroke="#000000" stroke-linecap="round" stroke-linejoin="round" d="M438.687,233.558
	c-0.66,0.127-1.319,0.255-1.979,0.383"/>
<path fill="none" stroke="#000000" stroke-linecap="round" stroke-linejoin="round" d="M451.187,213.836
	c0.217,0.766,0.43,1.532,0.638,2.3c0.052,0.192,0.104,0.384,0.155,0.576c0.027,0.104,0.048,0.207,0.058,0.314
	c0.008,0.091,0.008,0.183-0.005,0.273c-0.027,0.193-0.11,0.357-0.26,0.486c-0.063,0.054-0.134,0.099-0.208,0.135
	c-0.086,0.042-0.176,0.072-0.268,0.097"/>
<path fill="none" stroke="#000000" stroke-linecap="round" stroke-linejoin="round" d="M450.096,212.959
	c0.561,0.004,0.926,0.297,1.091,0.877"/>
<path fill="none" stroke="#000000" stroke-linecap="round" stroke-linejoin="round" d="M435.571,212.666
	c0.092-0.003,0.185-0.006,0.277-0.009c0.138-0.005,0.276-0.01,0.414-0.015c0.184-0.007,0.367-0.014,0.551-0.021
	c0.189-0.007,0.378-0.013,0.567-0.017c0.171-0.004,0.343-0.006,0.515-0.007c0.074,0,0.147,0,0.221,0.001
	c0.034,0,0.068,0.001,0.102,0.001c0.011,0,0.022,0,0.034,0c0.044,0,0.089,0.001,0.134,0.002c0.089,0.001,0.179,0.002,0.269,0.003
	c0.18,0.002,0.359,0.005,0.538,0.008c1.21,0.018,2.42,0.042,3.629,0.074c2.426,0.063,4.851,0.154,7.275,0.272"/>
<path fill="none" stroke="#000000" stroke-linecap="round" stroke-linejoin="round" d="M435.419,212.187
	c0.051,0.16,0.102,0.319,0.152,0.479"/>
<path fill="none" stroke="#000000" stroke-linecap="round" stroke-linejoin="round" d="M437.576,210.726
	c-0.312,0.237-0.743,0.53-1.068,0.747c-0.142,0.094-0.401,0.265-0.543,0.359c-0.083,0.054-0.462,0.303-0.545,0.355"/>
<path fill="none" stroke="#000000" stroke-linecap="round" stroke-linejoin="round" d="M428.472,204.189
	c5.548-1.844,11.104-3.666,16.667-5.464c0.014-0.004,0.027-0.009,0.041-0.013c0.005-0.001,0.01-0.003,0.015-0.004
	c0.01-0.003,0.02-0.006,0.03-0.009c0.02-0.005,0.039-0.01,0.059-0.015c0.038-0.009,0.076-0.017,0.115-0.022
	c0.072-0.011,0.143-0.016,0.216-0.013c0.132,0.006,0.257,0.037,0.374,0.102c0.12,0.066,0.217,0.161,0.297,0.271
	c0.046,0.062,0.084,0.129,0.119,0.198c0.019,0.038,0.036,0.076,0.052,0.115c0.02,0.048,0.038,0.096,0.055,0.145
	c0.178,0.484,0.354,0.968,0.529,1.453c0.087,0.243,0.174,0.485,0.26,0.729c0.043,0.121,0.086,0.243,0.129,0.364
	c0.021,0.061,0.043,0.121,0.064,0.182c0.008,0.023,0.017,0.046,0.024,0.07c0.005,0.017,0.011,0.034,0.016,0.051
	c0.043,0.146,0.066,0.297,0.054,0.449c-0.011,0.142-0.052,0.274-0.121,0.398c-0.075,0.134-0.179,0.249-0.296,0.347
	c-0.016,0.014-0.033,0.027-0.049,0.04c-0.104,0.081-0.208,0.162-0.311,0.242c-0.238,0.186-0.476,0.37-0.715,0.555
	c-0.477,0.368-0.954,0.735-1.433,1.102c-2.338,1.788-4.7,3.542-7.087,5.265"/>
<path fill="none" stroke="#000000" stroke-linecap="round" stroke-linejoin="round" d="M429.312,206.444
	c-0.275-0.753-0.555-1.505-0.839-2.255"/>
<path fill="none" stroke="#000000" stroke-linecap="round" stroke-linejoin="round" d="M445.137,201.438
	c-5.282,1.649-10.557,3.318-15.826,5.006"/>
<path fill="none" stroke="#000000" stroke-linecap="round" stroke-linejoin="round" d="M445.339,202.001
	c-0.067-0.188-0.134-0.375-0.202-0.562"/>
<path fill="none" stroke="#000000" stroke-linecap="round" stroke-linejoin="round" d="M435.166,214.805
	c-0.181,0.005-0.365-0.018-0.534-0.093c-0.154-0.069-0.278-0.175-0.374-0.312c-0.052-0.075-0.093-0.154-0.128-0.238
	c-0.009-0.022-0.018-0.045-0.026-0.068c-0.009-0.025-0.017-0.051-0.024-0.076c-0.02-0.063-0.04-0.127-0.06-0.191
	c-0.08-0.255-0.16-0.51-0.241-0.765c-0.079-0.247-0.157-0.493-0.236-0.74c-0.04-0.123-0.08-0.246-0.12-0.369
	c-0.029-0.092-0.052-0.184-0.063-0.279c-0.046-0.366,0.074-0.667,0.345-0.912c0.027-0.024,0.054-0.047,0.082-0.069
	c0.015-0.011,0.029-0.023,0.044-0.034c0.029-0.021,0.058-0.041,0.086-0.062c0.065-0.047,0.13-0.093,0.194-0.14
	c0.518-0.373,1.035-0.747,1.55-1.122c0.653-0.476,1.304-0.954,1.953-1.435c2.605-1.928,5.179-3.894,7.725-5.898"/>
<path fill="none" stroke="#000000" stroke-linecap="round" stroke-linejoin="round" d="M449.542,215.235
	c-4.805-0.25-9.598-0.394-14.376-0.43"/>
<path fill="none" stroke="#000000" stroke-linecap="round" stroke-linejoin="round" d="M449.71,215.839
	c-0.056-0.201-0.112-0.402-0.168-0.604"/>
<path fill="none" stroke="#000000" stroke-linecap="round" stroke-linejoin="round" d="M433.902,220.906
	c5.275-1.669,10.544-3.358,15.808-5.067"/>
<path fill="none" stroke="#000000" stroke-linecap="round" stroke-linejoin="round" d="M434.517,223.233
	c-0.2-0.777-0.405-1.552-0.615-2.327"/>
<path fill="none" stroke="#000000" stroke-linecap="round" stroke-linejoin="round" d="M451.297,218.017
	c-5.586,1.764-11.18,3.502-16.78,5.216"/>
<path fill="none" stroke="#000000" stroke-linecap="round" stroke-linejoin="round" d="M437.375,201.252
	c0.295,0.782,0.584,1.565,0.869,2.352"/>
<path fill="none" stroke="#000000" stroke-linecap="round" stroke-linejoin="round" d="M439.313,206.634
	c0.259,0.755,0.513,1.512,0.763,2.27"/>
<path fill="none" stroke="#000000" stroke-linecap="round" stroke-linejoin="round" d="M441.265,212.649
	c0.232,0.758,0.459,1.518,0.682,2.278"/>
<path fill="none" stroke="#000000" stroke-linecap="round" stroke-linejoin="round" d="M442.834,218.06
	c0.219,0.801,0.434,1.604,0.643,2.408"/>
<path fill="none" stroke="#000000" stroke-linecap="round" stroke-linejoin="round" d="M435.5,212.439
	c-0.581,0.185-1.161,0.369-1.742,0.553"/>
<path fill="none" stroke="#000000" stroke-linecap="round" stroke-linejoin="round" d="M428.504,190.266
	c-0.895-1.935-1.823-3.854-2.784-5.757"/>
<path fill="none" stroke="#000000" stroke-linecap="round" stroke-linejoin="round" d="M427.291,183.684
	c0.658,1.303,1.301,2.613,1.929,3.931c0.157,0.329,0.313,0.659,0.468,0.99c0.034,0.073,0.068,0.145,0.102,0.218
	c0.017,0.036,0.034,0.073,0.051,0.109c0.011,0.022,0.021,0.044,0.032,0.066c0.035,0.07,0.073,0.138,0.115,0.204
	c0.077,0.119,0.167,0.228,0.275,0.32c0.131,0.112,0.278,0.192,0.444,0.24c0.178,0.051,0.363,0.061,0.546,0.045
	c0.158-0.014,0.315-0.047,0.467-0.092c0.179-0.052,0.354-0.121,0.522-0.198"/>
<path fill="none" stroke="#000000" stroke-linecap="round" stroke-linejoin="round" d="M425.129,194.997
	c-0.244-0.235-0.471-0.493-0.681-0.759c-0.245-0.309-0.473-0.635-0.686-0.966c-0.247-0.383-0.476-0.775-0.694-1.174
	c-0.249-0.453-0.482-0.914-0.707-1.38c-0.058-0.12-0.115-0.241-0.171-0.363c-0.054-0.119-0.107-0.238-0.158-0.358
	c-0.097-0.228-0.187-0.458-0.27-0.692c-0.148-0.42-0.273-0.853-0.356-1.291c-0.073-0.385-0.114-0.777-0.108-1.17
	c0.005-0.356,0.049-0.709,0.143-1.053c0.044-0.166,0.1-0.326,0.166-0.484c0.069-0.163,0.148-0.319,0.237-0.472
	c0.194-0.333,0.43-0.639,0.69-0.922c0.299-0.325,0.633-0.621,0.98-0.891c0.403-0.313,0.833-0.599,1.272-0.859
	c0.409-0.243,0.852-0.479,1.28-0.687c0.405-0.197,0.822-0.379,1.244-0.535c0.372-0.137,0.754-0.257,1.141-0.346
	c0.34-0.078,0.688-0.134,1.037-0.156c0.42-0.025,0.843-0.001,1.254,0.099c0.192,0.046,0.377,0.108,0.559,0.186
	c0.187,0.08,0.365,0.172,0.539,0.279c0.378,0.232,0.718,0.521,1.025,0.839c0.356,0.37,0.671,0.784,0.949,1.214
	c0.296,0.457,0.557,0.937,0.79,1.428c0.212,0.444,0.406,0.9,0.571,1.364c0.142,0.4,0.265,0.812,0.352,1.229
	c0.075,0.358,0.125,0.724,0.136,1.09c0.006,0.217-0.001,0.432-0.028,0.648c-0.024,0.199-0.063,0.394-0.121,0.586
	c-0.109,0.37-0.278,0.71-0.508,1.021c-0.24,0.322-0.532,0.593-0.859,0.822c-0.18,0.126-0.366,0.237-0.56,0.338
	c-0.103,0.053-0.207,0.103-0.312,0.151c-0.015,0.007-0.031,0.014-0.046,0.021c-0.023,0.01-0.046,0.021-0.069,0.031
	c-0.045,0.02-0.091,0.04-0.137,0.06c-0.089,0.038-0.179,0.074-0.27,0.107c-0.235,0.088-0.473,0.162-0.718,0.217
	c-0.218,0.049-0.44,0.082-0.664,0.094c-0.399,0.02-0.792-0.03-1.167-0.179c-0.37-0.147-0.684-0.377-0.953-0.666
	c-0.148-0.159-0.281-0.333-0.398-0.515c-0.132-0.204-0.246-0.417-0.348-0.637"/>
<path fill="none" stroke="#000000" stroke-linecap="round" stroke-linejoin="round" d="M426.429,194.149
	c-0.433,0.283-0.866,0.566-1.3,0.848"/>
<path fill="none" stroke="#000000" stroke-linecap="round" stroke-linejoin="round" d="M425.72,184.509
	c-0.207,0.128-0.41,0.263-0.607,0.406c-0.176,0.128-0.347,0.262-0.512,0.406c-0.187,0.164-0.366,0.34-0.525,0.531
	c-0.137,0.164-0.262,0.341-0.362,0.531c-0.055,0.104-0.102,0.21-0.14,0.321c-0.037,0.108-0.063,0.211-0.082,0.324
	c-0.041,0.238-0.044,0.481-0.024,0.72c0.019,0.219,0.057,0.438,0.108,0.652c0.059,0.246,0.133,0.486,0.22,0.723
	c0.076,0.21,0.16,0.417,0.251,0.621c0.049,0.11,0.1,0.22,0.152,0.329c0.055,0.117,0.112,0.233,0.168,0.349
	c0.208,0.425,0.423,0.847,0.646,1.265c0.445,0.837,0.918,1.656,1.416,2.462"/>
<path fill="none" stroke="#000000" stroke-linecap="round" stroke-linejoin="round" d="M432.243,189.519
	c0.227-0.11,0.448-0.242,0.643-0.404c0.168-0.139,0.317-0.3,0.432-0.487c0.06-0.097,0.108-0.197,0.147-0.304
	c0.039-0.108,0.066-0.217,0.083-0.33c0.018-0.124,0.023-0.247,0.019-0.371c-0.004-0.142-0.021-0.282-0.044-0.423
	c-0.039-0.227-0.099-0.453-0.168-0.672c-0.083-0.26-0.184-0.519-0.293-0.769c-0.046-0.106-0.094-0.212-0.144-0.316
	c-0.058-0.123-0.118-0.244-0.181-0.365c-0.119-0.227-0.246-0.448-0.386-0.661c-0.148-0.225-0.312-0.443-0.493-0.643
	c-0.156-0.171-0.328-0.33-0.517-0.465c-0.1-0.072-0.204-0.135-0.314-0.191c-0.104-0.052-0.21-0.096-0.321-0.13
	c-0.236-0.072-0.484-0.097-0.729-0.093c-0.217,0.004-0.435,0.031-0.648,0.071c-0.248,0.047-0.494,0.114-0.734,0.191
	c-0.211,0.068-0.419,0.145-0.625,0.229c-0.229,0.093-0.454,0.193-0.677,0.3"/>
<path fill="none" stroke="#000000" stroke-linecap="round" stroke-linejoin="round" d="M425.551,181.737
	c1.794,3.436,3.482,6.928,5.059,10.469"/>
<path fill="none" stroke="#000000" stroke-linecap="round" stroke-linejoin="round" d="M434.489,184.246
	c-0.582,0.28-1.165,0.56-1.747,0.841"/>
<path fill="none" stroke="#000000" stroke-linecap="round" stroke-linejoin="round" d="M428.895,186.937
	c-0.533,0.256-1.066,0.513-1.599,0.769"/>
<path fill="none" stroke="#000000" stroke-linecap="round" stroke-linejoin="round" d="M423.88,189.349
	c-0.587,0.282-1.174,0.565-1.761,0.847"/>
<path fill="none" stroke="#000000" stroke-linecap="round" stroke-linejoin="round" d="M430.35,176.814
	c-2.595,0.254-5.186,0.545-7.773,0.874c-1.289,0.164-2.575,0.337-3.861,0.52c-0.453,0.064-0.906,0.13-1.359,0.197
	c-0.113,0.017-0.226,0.033-0.339,0.05c-0.027,0.004-0.054,0.008-0.081,0.012c-0.005,0.001-0.01,0.001-0.015,0.002
	c-0.02,0.003-0.04,0.005-0.06,0.006c-0.075,0.006-0.149,0.005-0.224-0.007c-0.139-0.021-0.263-0.076-0.372-0.166
	c-0.057-0.047-0.105-0.1-0.149-0.159c-0.023-0.031-0.045-0.064-0.065-0.098c-0.007-0.013-0.015-0.026-0.022-0.039
	c-0.009-0.015-0.018-0.031-0.027-0.046c-0.018-0.031-0.036-0.062-0.054-0.093c-0.144-0.248-0.288-0.496-0.433-0.743
	c-0.145-0.247-0.291-0.494-0.437-0.741c-0.018-0.031-0.037-0.062-0.055-0.092c-0.009-0.016-0.018-0.031-0.027-0.046
	c-0.008-0.013-0.015-0.025-0.022-0.038c-0.02-0.034-0.038-0.069-0.054-0.105c-0.03-0.067-0.053-0.135-0.066-0.208
	c-0.025-0.139-0.012-0.274,0.038-0.405c0.026-0.071,0.062-0.135,0.104-0.198c0.011-0.017,0.022-0.033,0.035-0.049
	c0.003-0.004,0.006-0.008,0.009-0.012c0.016-0.022,0.033-0.043,0.05-0.064c0.07-0.091,0.14-0.181,0.209-0.271
	c0.28-0.363,0.559-0.726,0.836-1.089c0.788-1.032,1.568-2.07,2.341-3.113c1.552-2.096,3.073-4.213,4.564-6.353"/>
<path fill="none" stroke="#000000" stroke-linecap="round" stroke-linejoin="round" d="M429.086,174.497
	c0.426,0.77,0.848,1.542,1.264,2.318"/>
<path fill="none" stroke="#000000" stroke-linecap="round" stroke-linejoin="round" d="M417.023,176.45
	c0.499-0.092,0.999-0.182,1.499-0.271c0.174-0.031,0.349-0.062,0.523-0.092c0.087-0.016,0.174-0.031,0.262-0.046
	c0.239-0.042,0.478-0.084,0.716-0.125c1.002-0.174,2.006-0.342,3.01-0.505c2.015-0.327,4.032-0.632,6.053-0.915"/>
<path fill="none" stroke="#000000" stroke-linecap="round" stroke-linejoin="round" d="M416.842,176.141
	c0.061,0.103,0.121,0.206,0.182,0.31"/>
<path fill="none" stroke="#000000" stroke-linecap="round" stroke-linejoin="round" d="M424.461,166.599
	c-1.235,1.623-2.487,3.232-3.756,4.828c-0.633,0.796-1.27,1.588-1.912,2.377c-0.066,0.082-0.133,0.164-0.2,0.246
	c-0.034,0.041-0.067,0.082-0.101,0.123c-0.017,0.021-0.033,0.041-0.05,0.061c-0.015,0.018-0.029,0.036-0.043,0.054
	c-0.023,0.028-0.045,0.056-0.068,0.083c-0.049,0.061-0.1,0.122-0.149,0.183c-0.118,0.143-0.236,0.285-0.354,0.427
	c-0.326,0.389-0.654,0.775-0.985,1.16"/>
<path fill="none" stroke="#000000" stroke-linecap="round" stroke-linejoin="round" d="M423.042,164.338
	c0.478,0.75,0.951,1.504,1.419,2.261"/>
<path fill="none" stroke="#000000" stroke-linecap="round" stroke-linejoin="round" d="M418.881,170.145
	c0.415,0.672,0.825,1.346,1.231,2.023"/>
<path fill="none" stroke="#000000" stroke-linecap="round" stroke-linejoin="round" d="M422.102,175.564
	c0.387,0.677,0.77,1.357,1.148,2.039"/>
<path fill="none" stroke="#000000" stroke-linecap="round" stroke-linejoin="round" d="M416.933,176.295
	c-0.472,0.276-0.943,0.552-1.415,0.829"/>
<path fill="none" stroke="#000000" stroke-linecap="round" stroke-linejoin="round" d="M420.078,159.827
	c0.46,0.68,0.917,1.363,1.369,2.049"/>
<path fill="none" stroke="#000000" stroke-linecap="round" stroke-linejoin="round" d="M421.447,161.876
	c-3.644,2.401-7.288,4.801-10.931,7.202"/>
<path fill="none" stroke="#000000" stroke-linecap="round" stroke-linejoin="round" d="M410.516,169.078
	c-0.421-0.639-0.847-1.276-1.276-1.91"/>
<path fill="none" stroke="#000000" stroke-linecap="round" stroke-linejoin="round" d="M409.24,167.168
	c3.613-2.447,7.226-4.894,10.838-7.341"/>
<path fill="none" stroke="#000000" stroke-linecap="round" stroke-linejoin="round" d="M414.659,163.497
	c0.445,0.657,0.886,1.317,1.322,1.98"/>
<path fill="none" stroke="#000000" stroke-linecap="round" stroke-linejoin="round" d="M420.766,160.849
	c-3.628,2.424-7.257,4.847-10.885,7.271"/>
<path fill="none" stroke="#000000" stroke-linecap="round" stroke-linejoin="round" d="M425.056,157.257
	c0.125,0.185,0.249,0.37,0.373,0.556c0.062,0.093,0.124,0.186,0.186,0.279c0.031,0.046,0.062,0.093,0.092,0.139
	c0.018,0.027,0.036,0.054,0.053,0.081c0.018,0.029,0.034,0.058,0.05,0.088c0.049,0.095,0.088,0.199,0.099,0.307
	c0.009,0.093-0.002,0.184-0.039,0.271c-0.04,0.092-0.103,0.169-0.176,0.234c-0.021,0.019-0.043,0.036-0.066,0.053
	c-0.024,0.018-0.05,0.035-0.076,0.052c-0.056,0.036-0.111,0.073-0.167,0.109c-0.339,0.223-0.679,0.447-1.019,0.67
	c-0.014,0.009-0.028,0.018-0.042,0.028c-0.014,0.009-0.027,0.018-0.041,0.027c-0.025,0.016-0.05,0.031-0.076,0.045
	c-0.047,0.026-0.096,0.047-0.148,0.063c-0.091,0.028-0.185,0.037-0.28,0.018c-0.096-0.02-0.182-0.065-0.257-0.125
	c-0.094-0.074-0.171-0.17-0.236-0.269c-0.122-0.183-0.243-0.366-0.366-0.549c-0.061-0.091-0.122-0.183-0.183-0.274
	c-0.031-0.046-0.062-0.091-0.092-0.137c-0.018-0.026-0.035-0.052-0.052-0.08c-0.017-0.028-0.034-0.057-0.049-0.086
	c-0.049-0.094-0.088-0.196-0.099-0.302c-0.01-0.093,0.001-0.182,0.037-0.269c0.038-0.092,0.101-0.169,0.174-0.235
	c0.021-0.019,0.042-0.037,0.065-0.053c0.024-0.019,0.05-0.036,0.075-0.053c0.055-0.037,0.11-0.075,0.165-0.112
	c0.336-0.228,0.673-0.456,1.009-0.684c0.014-0.009,0.028-0.019,0.042-0.028c0.014-0.009,0.027-0.018,0.041-0.027
	c0.025-0.016,0.05-0.031,0.076-0.046c0.047-0.026,0.096-0.048,0.147-0.064c0.091-0.029,0.185-0.039,0.28-0.02
	c0.098,0.019,0.184,0.065,0.261,0.125C424.91,157.061,424.989,157.158,425.056,157.257z"/>
<path fill="none" stroke="#000000" stroke-linecap="round" stroke-linejoin="round" d="M423.405,157.429
	c0.516,0.76,1.026,1.524,1.531,2.292"/>
<path fill="none" stroke="#000000" stroke-linecap="round" stroke-linejoin="round" d="M425.392,157.759
	c-0.812,0.542-1.624,1.085-2.436,1.627"/>
<path fill="none" stroke="#000000" stroke-linecap="round" stroke-linejoin="round" d="M414.175,154.596
	c-1.688,1.244-3.375,2.488-5.063,3.733c-0.286,0.211-0.572,0.422-0.858,0.633c-0.072,0.053-0.143,0.105-0.214,0.158
	c-0.031,0.022-0.062,0.045-0.092,0.068c-0.033,0.025-0.066,0.051-0.099,0.077c-0.123,0.099-0.241,0.208-0.346,0.327
	c-0.088,0.101-0.168,0.211-0.23,0.33c-0.055,0.105-0.095,0.216-0.116,0.332s-0.02,0.233-0.002,0.349
	c0.016,0.108,0.044,0.211,0.082,0.313c0.043,0.118,0.096,0.23,0.156,0.34c0.069,0.127,0.147,0.248,0.23,0.366
	c0.023,0.032,0.046,0.065,0.07,0.097c0.023,0.033,0.047,0.066,0.071,0.098c0.047,0.066,0.094,0.131,0.142,0.197
	c0.314,0.438,0.626,0.877,0.937,1.317"/>
<path fill="none" stroke="#000000" stroke-linecap="round" stroke-linejoin="round" d="M416.805,158.253
	c-0.862-1.229-1.739-2.448-2.63-3.657"/>
<path fill="none" stroke="#000000" stroke-linecap="round" stroke-linejoin="round" d="M418.28,157.219
	c-0.491,0.345-0.983,0.689-1.475,1.034"/>
<path fill="none" stroke="#000000" stroke-linecap="round" stroke-linejoin="round" d="M415.625,153.527
	c0.899,1.22,1.784,2.45,2.655,3.691"/>
<path fill="none" stroke="#000000" stroke-linecap="round" stroke-linejoin="round" d="M418.74,151.23
	c-1.039,0.766-2.077,1.531-3.115,2.297"/>
<path fill="none" stroke="#000000" stroke-linecap="round" stroke-linejoin="round" d="M417.218,149.193
	c0.512,0.676,1.02,1.355,1.522,2.038"/>
<path fill="none" stroke="#000000" stroke-linecap="round" stroke-linejoin="round" d="M414.111,151.546
	c1.036-0.784,2.071-1.569,3.107-2.353"/>
<path fill="none" stroke="#000000" stroke-linecap="round" stroke-linejoin="round" d="M412.454,149.565
	c0.557,0.656,1.109,1.317,1.657,1.981"/>
<path fill="none" stroke="#000000" stroke-linecap="round" stroke-linejoin="round" d="M411.139,150.589
	c0.438-0.341,0.877-0.683,1.315-1.024"/>
<path fill="none" stroke="#000000" stroke-linecap="round" stroke-linejoin="round" d="M412.697,152.617
	c-0.515-0.68-1.034-1.356-1.558-2.028"/>
<path fill="none" stroke="#000000" stroke-linecap="round" stroke-linejoin="round" d="M407.573,164.562
	c-0.257-0.211-0.499-0.437-0.73-0.675c-0.258-0.265-0.501-0.542-0.734-0.828c-0.115-0.141-0.228-0.284-0.337-0.429
	c-0.057-0.075-0.114-0.15-0.169-0.226c-0.055-0.074-0.109-0.149-0.161-0.225c-0.188-0.273-0.353-0.564-0.478-0.873
	c-0.135-0.332-0.22-0.679-0.234-1.039c-0.014-0.344,0.039-0.682,0.152-1.006c0.107-0.307,0.265-0.589,0.458-0.849
	c0.22-0.296,0.482-0.559,0.765-0.794c0.066-0.055,0.134-0.11,0.203-0.162c0.03-0.022,0.06-0.045,0.089-0.067
	c0.041-0.031,0.082-0.062,0.123-0.093c0.082-0.062,0.164-0.124,0.246-0.186c0.328-0.249,0.656-0.497,0.984-0.745
	c0.55-0.416,1.099-0.833,1.649-1.249c1.1-0.833,2.199-1.665,3.298-2.498"/>
<path fill="none" stroke="#000000" stroke-linecap="round" stroke-linejoin="round" d="M408.843,163.332
	c-0.423,0.411-0.847,0.821-1.271,1.23"/>
<path fill="none" stroke="#000000" stroke-linecap="round" stroke-linejoin="round" d="M410.292,154.438
	c0.489,0.646,0.974,1.295,1.455,1.948"/>
<path fill="none" stroke="#000000" stroke-linecap="round" stroke-linejoin="round" d="M418.58,151.013
	c-4.561,3.373-9.123,6.745-13.684,10.117"/>
<path fill="none" stroke="#000000" stroke-linecap="round" stroke-linejoin="round" d="M401.763,139.689
	c0.366-0.437,0.731-0.874,1.097-1.312"/>
<path fill="none" stroke="#000000" stroke-linecap="round" stroke-linejoin="round" d="M397.934,145.32
	c0.174-0.156,0.37-0.299,0.581-0.404c0.107-0.053,0.217-0.095,0.333-0.125c0.116-0.029,0.236-0.045,0.356-0.042
	c0.507,0.009,0.948,0.377,1.254,0.709"/>
<path fill="none" stroke="#000000" stroke-linecap="round" stroke-linejoin="round" d="M405.252,148.402
	c0.161-0.133,0.322-0.266,0.483-0.399c0.081-0.066,0.161-0.133,0.242-0.199c0.04-0.033,0.081-0.066,0.121-0.1
	c0.026-0.021,0.052-0.042,0.077-0.064c0.042-0.035,0.083-0.071,0.123-0.107c0.184-0.166,0.358-0.351,0.499-0.556
	c0.116-0.171,0.21-0.357,0.262-0.559c0.026-0.101,0.041-0.201,0.043-0.306c0.003-0.109-0.009-0.214-0.031-0.32
	c-0.026-0.123-0.064-0.24-0.11-0.356c-0.054-0.135-0.119-0.264-0.19-0.391c-0.106-0.189-0.228-0.372-0.356-0.546
	c-0.073-0.1-0.149-0.198-0.227-0.294c-0.093-0.115-0.19-0.229-0.288-0.341c-0.62-0.715-1.348-1.473-2.017-2.142
	c-0.687-0.686-1.408-1.374-2.121-2.033"/>
<path fill="none" stroke="#000000" stroke-linecap="round" stroke-linejoin="round" d="M400.85,152.358
	c-0.493-0.055-0.978-0.157-1.454-0.293c-0.255-0.073-0.507-0.156-0.756-0.247c-0.129-0.047-0.258-0.097-0.386-0.148
	c-0.125-0.05-0.267-0.11-0.389-0.165c-0.469-0.213-0.909-0.475-1.32-0.786c-0.207-0.157-0.404-0.324-0.592-0.502
	c-0.193-0.182-0.379-0.379-0.552-0.58c-0.188-0.219-0.36-0.447-0.516-0.69c-0.142-0.223-0.265-0.453-0.368-0.697
	c-0.096-0.229-0.17-0.462-0.22-0.706c-0.049-0.235-0.074-0.476-0.073-0.716c0.001-0.521,0.129-1.008,0.376-1.465
	c0.13-0.243,0.29-0.468,0.468-0.677c0.097-0.113,0.198-0.22,0.305-0.324c0.044-0.043,0.09-0.086,0.136-0.128
	c0.023-0.021,0.047-0.043,0.07-0.064c0.273-0.25,0.547-0.501,0.82-0.751c0.034-0.031,0.068-0.062,0.103-0.094
	c0.023-0.021,0.046-0.043,0.07-0.064c0.036-0.033,0.073-0.065,0.111-0.096c0.143-0.12,0.292-0.23,0.452-0.328
	c0.292-0.18,0.606-0.312,0.944-0.379c0.24-0.048,0.482-0.061,0.726-0.042c0.125,0.01,0.249,0.028,0.372,0.054
	c0.126,0.027,0.249,0.061,0.37,0.103c0.256,0.088,0.5,0.208,0.729,0.352c0.254,0.159,0.492,0.345,0.713,0.547
	c0.137,0.125,0.268,0.257,0.394,0.394c0.033,0.036,0.065,0.072,0.097,0.108c0.049,0.056,0.098,0.112,0.147,0.167
	c0.103,0.117,0.205,0.234,0.307,0.352c0.409,0.469,0.816,0.941,1.221,1.414c0.706,0.826,1.405,1.658,2.097,2.497"/>
<path fill="none" stroke="#000000" stroke-linecap="round" stroke-linejoin="round" d="M399.363,153.936
	c0.496-0.525,0.992-1.051,1.487-1.578"/>
<path fill="none" stroke="#000000" stroke-linecap="round" stroke-linejoin="round" d="M400.518,155.358
	c-0.382-0.476-0.768-0.95-1.155-1.422"/>
<path fill="none" stroke="#000000" stroke-linecap="round" stroke-linejoin="round" d="M402.859,138.378
	c1.574,1.282,3.148,2.717,4.505,4.234c0.113,0.126,0.224,0.253,0.334,0.381c0.098,0.114,0.196,0.228,0.291,0.345
	c0.164,0.201,0.321,0.407,0.469,0.62c0.257,0.37,0.491,0.765,0.67,1.18c0.107,0.246,0.195,0.501,0.256,0.762
	c0.055,0.237,0.088,0.478,0.09,0.721c0.006,0.492-0.129,0.951-0.362,1.378c-0.182,0.333-0.417,0.636-0.675,0.911
	c-0.148,0.157-0.304,0.306-0.467,0.448c-0.087,0.076-0.175,0.15-0.266,0.223c-0.185,0.149-0.37,0.298-0.555,0.447
	c-0.737,0.592-1.474,1.184-2.211,1.777c-1.474,1.185-2.948,2.369-4.422,3.553"/>
<path fill="none" stroke="#000000" stroke-linecap="round" stroke-linejoin="round" d="M397.235,148.755
	c-0.224-0.257-0.444-0.559-0.577-0.879c-0.067-0.162-0.114-0.332-0.126-0.508c-0.012-0.176,0.012-0.346,0.067-0.512
	c0.109-0.327,0.332-0.613,0.57-0.848c0.028-0.028,0.057-0.055,0.085-0.082c0.023-0.021,0.047-0.043,0.07-0.064
	c0.025-0.022,0.05-0.044,0.075-0.067c0.05-0.044,0.1-0.089,0.149-0.133c0.128-0.114,0.256-0.228,0.384-0.342"/>
<path fill="none" stroke="#000000" stroke-linecap="round" stroke-linejoin="round" d="M401.873,151.191
	c-0.883-0.149-1.724-0.423-2.52-0.835c-0.191-0.099-0.397-0.216-0.582-0.329c-0.19-0.116-0.375-0.238-0.555-0.37
	c-0.357-0.261-0.698-0.56-0.981-0.902"/>
<path fill="none" stroke="#000000" stroke-linecap="round" stroke-linejoin="round" d="M403.904,149.514
	c-0.677,0.559-1.354,1.118-2.032,1.677"/>
<path fill="none" stroke="#000000" stroke-linecap="round" stroke-linejoin="round" d="M400.458,145.458
	c1.168,1.335,2.316,2.687,3.446,4.055"/>
<path fill="none" stroke="#000000" stroke-linecap="round" stroke-linejoin="round" d="M398.131,142.447
	c2.597,2.85,5.105,5.781,7.52,8.786"/>
<path fill="none" stroke="#000000" stroke-linecap="round" stroke-linejoin="round" d="M406.93,142.136
	c-0.485,0.416-0.97,0.833-1.455,1.249"/>
<path fill="none" stroke="#000000" stroke-linecap="round" stroke-linejoin="round" d="M402.894,145.601
	c-0.441,0.379-0.883,0.759-1.325,1.138"/>
<path fill="none" stroke="#000000" stroke-linecap="round" stroke-linejoin="round" d="M398.191,149.639
	c-0.479,0.411-0.957,0.822-1.436,1.233"/>
<path fill="none" stroke="#000000" stroke-linecap="round" stroke-linejoin="round" d="M403.804,130.995
	c-2.748,2.625-5.497,5.249-8.245,7.873c-1.374,1.312-2.748,2.625-4.122,3.937c-0.092,0.088-0.185,0.176-0.277,0.265
	c-0.032,0.03-0.062,0.06-0.094,0.09c-0.005,0.004-0.01,0.009-0.015,0.014c-0.02,0.018-0.039,0.035-0.059,0.052
	c-0.038,0.032-0.077,0.062-0.118,0.089c-0.073,0.049-0.15,0.091-0.234,0.119c-0.154,0.052-0.307,0.053-0.46-0.001
	c-0.082-0.029-0.157-0.071-0.228-0.12c-0.039-0.028-0.077-0.058-0.113-0.09c-0.019-0.017-0.038-0.034-0.056-0.052
	c-0.021-0.02-0.041-0.042-0.062-0.062c-0.189-0.196-0.379-0.392-0.57-0.587c-0.224-0.23-0.448-0.459-0.673-0.688
	c-0.112-0.114-0.225-0.228-0.338-0.342c-0.022-0.023-0.045-0.045-0.066-0.068c-0.017-0.018-0.033-0.036-0.049-0.055
	c-0.03-0.036-0.059-0.074-0.084-0.114c-0.1-0.153-0.157-0.321-0.167-0.504c-0.011-0.202,0.035-0.4,0.107-0.586"/>
<path fill="none" stroke="#000000" stroke-linecap="round" stroke-linejoin="round" d="M401.979,129.109
	c0.613,0.625,1.221,1.253,1.825,1.886"/>
<path fill="none" stroke="#000000" stroke-linecap="round" stroke-linejoin="round" d="M390.426,140.554
	c0.456-0.501,0.921-0.994,1.397-1.477c0.123-0.125,0.246-0.248,0.371-0.372c0.062-0.061,0.123-0.122,0.185-0.183
	c0.297-0.291,0.594-0.582,0.891-0.874c0.968-0.949,1.936-1.898,2.903-2.846c1.936-1.898,3.871-3.795,5.806-5.693"/>
<path fill="none" stroke="#000000" stroke-linecap="round" stroke-linejoin="round" d="M390.096,140.218
	c0.11,0.112,0.22,0.224,0.33,0.336"/>
<path fill="none" stroke="#000000" stroke-linecap="round" stroke-linejoin="round" d="M391.081,137.394
	c-0.29,0.952-0.619,1.893-0.985,2.824"/>
<path fill="none" stroke="#000000" stroke-linecap="round" stroke-linejoin="round" d="M395.271,123.611
	c-1.264,4.668-2.662,9.265-4.19,13.783"/>
<path fill="none" stroke="#000000" stroke-linecap="round" stroke-linejoin="round" d="M379.95,133.718
	c2.521-2.83,5.042-5.66,7.563-8.49c1.261-1.415,2.521-2.83,3.782-4.245c0.083-0.094,0.167-0.188,0.251-0.282
	c0.039-0.043,0.077-0.086,0.115-0.129c0.004-0.005,0.009-0.01,0.013-0.015c0.018-0.019,0.036-0.038,0.055-0.056
	c0.035-0.034,0.071-0.067,0.11-0.097c0.07-0.054,0.146-0.1,0.228-0.132c0.159-0.062,0.321-0.064,0.483-0.015
	c0.09,0.027,0.176,0.069,0.256,0.117c0.095,0.058,0.183,0.127,0.265,0.201c0.213,0.192,0.426,0.385,0.638,0.577
	c0.256,0.232,0.511,0.466,0.766,0.699c0.127,0.117,0.254,0.234,0.381,0.351c0.016,0.015,0.032,0.029,0.048,0.044
	c0.012,0.011,0.024,0.023,0.037,0.034c0.02,0.019,0.04,0.038,0.058,0.058c0.037,0.038,0.071,0.078,0.103,0.121
	c0.268,0.353,0.295,0.747,0.167,1.153"/>
<path fill="none" stroke="#000000" stroke-linecap="round" stroke-linejoin="round" d="M381.736,135.331
	c-0.592-0.542-1.187-1.079-1.786-1.613"/>
<path fill="none" stroke="#000000" stroke-linecap="round" stroke-linejoin="round" d="M392.681,123.194
	c-0.19,0.261-0.389,0.516-0.593,0.767c-0.226,0.278-0.459,0.549-0.697,0.816c-0.08,0.09-0.161,0.18-0.242,0.269
	c-0.063,0.07-0.127,0.139-0.191,0.209c-0.105,0.115-0.21,0.229-0.315,0.344c-0.21,0.229-0.42,0.459-0.63,0.688
	c-0.919,1.005-1.839,2.01-2.759,3.014c-1.839,2.01-3.678,4.02-5.518,6.03"/>
<path fill="none" stroke="#000000" stroke-linecap="round" stroke-linejoin="round" d="M393.033,123.516
	c-0.117-0.108-0.234-0.215-0.352-0.323"/>
<path fill="none" stroke="#000000" stroke-linecap="round" stroke-linejoin="round" d="M387.882,140.163
	c0.941-2.737,1.83-5.49,2.667-8.261c0.421-1.394,0.83-2.792,1.225-4.193c0.079-0.28,0.157-0.559,0.235-0.839
	c0.039-0.14,0.078-0.28,0.116-0.42c0.02-0.07,0.039-0.14,0.058-0.21c0.01-0.035,0.02-0.07,0.029-0.105
	c0.005-0.02,0.01-0.039,0.016-0.058c0.046-0.159,0.092-0.319,0.139-0.478c0.075-0.256,0.15-0.511,0.227-0.767
	c0.061-0.201,0.122-0.403,0.186-0.603c0.047-0.147,0.095-0.293,0.146-0.439c0.019-0.053,0.038-0.105,0.059-0.158
	c0.015-0.039,0.031-0.078,0.048-0.117"/>
<path fill="none" stroke="#000000" stroke-linecap="round" stroke-linejoin="round" d="M386.118,126.793
	c0.63,0.561,1.256,1.126,1.878,1.696"/>
<path fill="none" stroke="#000000" stroke-linecap="round" stroke-linejoin="round" d="M390.791,131.099
	c0.599,0.57,1.193,1.144,1.784,1.722"/>
<path fill="none" stroke="#000000" stroke-linecap="round" stroke-linejoin="round" d="M395.358,135.602
	c0.584,0.595,1.164,1.195,1.74,1.798"/>
<path fill="none" stroke="#000000" stroke-linecap="round" stroke-linejoin="round" d="M393.358,130.284
	c-1.13,1.169-2.26,2.339-3.389,3.509"/>
<path fill="none" stroke="#000000" stroke-linecap="round" stroke-linejoin="round" d="M383.021,119.114
	c0.634,0.522,1.265,1.049,1.892,1.579"/>
<path fill="none" stroke="#000000" stroke-linecap="round" stroke-linejoin="round" d="M384.913,120.694
	c-2.818,3.332-5.636,6.663-8.454,9.995"/>
<path fill="none" stroke="#000000" stroke-linecap="round" stroke-linejoin="round" d="M376.459,130.688
	c-0.584-0.494-1.172-0.985-1.763-1.472"/>
<path fill="none" stroke="#000000" stroke-linecap="round" stroke-linejoin="round" d="M374.696,129.216
	c2.775-3.367,5.55-6.735,8.325-10.102"/>
<path fill="none" stroke="#000000" stroke-linecap="round" stroke-linejoin="round" d="M378.859,124.165
	c0.612,0.505,1.222,1.013,1.828,1.526"/>
<path fill="none" stroke="#000000" stroke-linecap="round" stroke-linejoin="round" d="M383.97,119.901
	c-2.796,3.35-5.593,6.699-8.389,10.048"/>
<path fill="none" stroke="#000000" stroke-linecap="round" stroke-linejoin="round" d="M387.072,115.244
	c0.172,0.143,0.343,0.285,0.515,0.428c0.085,0.072,0.171,0.143,0.256,0.215c0.043,0.036,0.085,0.072,0.128,0.107
	c0.025,0.021,0.05,0.041,0.074,0.063c0.025,0.023,0.049,0.046,0.072,0.07c0.074,0.077,0.141,0.166,0.182,0.267
	c0.036,0.087,0.05,0.177,0.039,0.271c-0.012,0.099-0.051,0.191-0.103,0.274c-0.015,0.024-0.031,0.047-0.048,0.069
	c-0.019,0.024-0.038,0.048-0.058,0.071c-0.043,0.051-0.086,0.101-0.129,0.152c-0.262,0.31-0.525,0.62-0.788,0.93
	c-0.011,0.013-0.021,0.026-0.033,0.038c-0.01,0.013-0.021,0.025-0.032,0.038c-0.019,0.022-0.039,0.043-0.06,0.064
	c-0.039,0.038-0.08,0.072-0.125,0.102c-0.08,0.053-0.167,0.087-0.263,0.096c-0.098,0.009-0.193-0.011-0.283-0.048
	c-0.111-0.045-0.212-0.115-0.302-0.191c-0.168-0.141-0.337-0.282-0.506-0.423c-0.084-0.07-0.168-0.141-0.253-0.211
	c-0.042-0.035-0.084-0.07-0.126-0.105c-0.024-0.02-0.049-0.041-0.073-0.062c-0.024-0.022-0.049-0.045-0.072-0.069
	c-0.073-0.076-0.139-0.163-0.181-0.262c-0.036-0.086-0.051-0.175-0.041-0.268c0.011-0.099,0.049-0.191,0.101-0.275
	c0.015-0.024,0.031-0.047,0.047-0.07c0.018-0.025,0.038-0.049,0.057-0.072c0.042-0.051,0.084-0.102,0.126-0.154
	c0.258-0.314,0.517-0.627,0.775-0.941c0.011-0.013,0.021-0.026,0.032-0.039c0.01-0.012,0.021-0.025,0.031-0.038
	c0.019-0.022,0.039-0.044,0.06-0.065c0.038-0.038,0.079-0.073,0.124-0.103c0.079-0.054,0.167-0.089,0.263-0.098
	c0.099-0.009,0.195,0.01,0.286,0.047C386.876,115.097,386.98,115.167,387.072,115.244z"/>
<path fill="none" stroke="#000000" stroke-linecap="round" stroke-linejoin="round" d="M385.536,115.875
	c0.709,0.584,1.415,1.173,2.116,1.767"/>
<path fill="none" stroke="#000000" stroke-linecap="round" stroke-linejoin="round" d="M387.536,115.63
	c-0.626,0.75-1.252,1.499-1.878,2.249"/>
<path fill="none" stroke="#000000" stroke-linecap="round" stroke-linejoin="round" d="M363.801,105.167
	c-0.329,0.609-0.658,1.217-0.988,1.825"/>
<path fill="none" stroke="#000000" stroke-linecap="round" stroke-linejoin="round" d="M362.062,104.075
	c0.582,0.361,1.161,0.725,1.739,1.092"/>
<path fill="none" stroke="#000000" stroke-linecap="round" stroke-linejoin="round" d="M355.159,115.197
	c2.301-3.707,4.603-7.415,6.904-11.122"/>
<path fill="none" stroke="#000000" stroke-linecap="round" stroke-linejoin="round" d="M357.125,116.435
	c-0.653-0.417-1.309-0.83-1.967-1.239"/>
<path fill="none" stroke="#000000" stroke-linecap="round" stroke-linejoin="round" d="M362.219,108.462
	c-1.698,2.658-3.396,5.315-5.094,7.973"/>
<path fill="none" stroke="#000000" stroke-linecap="round" stroke-linejoin="round" d="M362.501,120.006
	c1.664-2.409,3.327-4.819,4.991-7.228c0.054-0.078,0.108-0.156,0.162-0.234c0.028-0.041,0.056-0.081,0.083-0.122
	c0.028-0.041,0.056-0.083,0.082-0.125c0.051-0.08,0.099-0.16,0.145-0.243c0.081-0.148,0.154-0.302,0.211-0.461
	c0.049-0.138,0.087-0.282,0.107-0.428c0.018-0.131,0.02-0.263,0.003-0.395c-0.021-0.165-0.073-0.324-0.147-0.472
	c-0.082-0.165-0.19-0.314-0.312-0.449c-0.143-0.158-0.307-0.299-0.478-0.426c-0.176-0.13-0.369-0.251-0.562-0.354
	c-0.326-0.174-0.669-0.305-1.027-0.395c-0.189-0.048-0.363-0.08-0.556-0.106c-0.224-0.031-0.449-0.052-0.674-0.068
	c-0.345-0.025-0.692-0.037-1.038-0.043c-0.424-0.007-0.848-0.005-1.272,0.004"/>
<path fill="none" stroke="#000000" stroke-linecap="round" stroke-linejoin="round" d="M364.338,121.292
	c-0.61-0.432-1.222-0.861-1.837-1.286"/>
<path fill="none" stroke="#000000" stroke-linecap="round" stroke-linejoin="round" d="M369.795,113.596
	c-1.819,2.565-3.638,5.131-5.457,7.696"/>
<path fill="none" stroke="#000000" stroke-linecap="round" stroke-linejoin="round" d="M375.101,117.837
	c0.111-0.152,0.213-0.308,0.306-0.472c0.081-0.143,0.151-0.289,0.209-0.443c0.066-0.176,0.114-0.361,0.129-0.55
	c0.014-0.172,0-0.336-0.047-0.503c-0.048-0.167-0.126-0.323-0.222-0.466c-0.112-0.168-0.25-0.319-0.397-0.456
	c-0.141-0.131-0.3-0.257-0.458-0.367c-0.151-0.105-0.306-0.2-0.468-0.287c-0.334-0.177-0.685-0.311-1.052-0.402
	c-0.163-0.041-0.328-0.072-0.494-0.099c-0.201-0.032-0.403-0.058-0.605-0.079c-0.705-0.075-1.498-0.107-2.205-0.118"/>
<path fill="none" stroke="#000000" stroke-linecap="round" stroke-linejoin="round" d="M369.535,125.119
	c1.855-2.427,3.71-4.855,5.566-7.282"/>
<path fill="none" stroke="#000000" stroke-linecap="round" stroke-linejoin="round" d="M371.351,126.525
	c-0.603-0.473-1.208-0.942-1.816-1.407"/>
<path fill="none" stroke="#000000" stroke-linecap="round" stroke-linejoin="round" d="M370.617,112.136
	c0.491-0.03,0.979-0.035,1.47-0.008c0.456,0.025,0.905,0.077,1.354,0.162c0.954,0.182,1.866,0.511,2.694,1.032
	c0.166,0.105,0.327,0.216,0.484,0.335c0.101,0.076,0.199,0.155,0.295,0.236c0.179,0.153,0.348,0.313,0.506,0.488
	c0.277,0.306,0.515,0.649,0.678,1.032c0.088,0.206,0.153,0.42,0.192,0.642c0.038,0.219,0.049,0.438,0.033,0.659
	c-0.034,0.478-0.191,0.927-0.416,1.344c-0.119,0.219-0.254,0.426-0.403,0.625c-0.02,0.026-0.04,0.053-0.06,0.079
	c-0.035,0.045-0.071,0.09-0.106,0.135c-0.114,0.146-0.229,0.291-0.342,0.436c-0.229,0.291-0.457,0.582-0.685,0.873
	c-0.551,0.702-1.103,1.405-1.653,2.107c-1.103,1.405-2.205,2.809-3.307,4.214"/>
<path fill="none" stroke="#000000" stroke-linecap="round" stroke-linejoin="round" d="M362.813,106.992
	c1.797-0.195,3.75-0.085,5.43,0.762c0.211,0.106,0.415,0.223,0.613,0.351c0.195,0.126,0.396,0.271,0.577,0.417
	c0.193,0.156,0.374,0.323,0.542,0.506c0.151,0.164,0.29,0.34,0.41,0.529c0.521,0.82,0.565,1.686,0.231,2.578"/>
<path fill="none" stroke="#000000" stroke-linecap="round" stroke-linejoin="round" d="M358.731,109.442
	c0.683,0.424,1.363,0.853,2.041,1.285"/>
<path fill="none" stroke="#000000" stroke-linecap="round" stroke-linejoin="round" d="M366.35,114.433
	c0.638,0.441,1.274,0.885,1.907,1.334"/>
<path fill="none" stroke="#000000" stroke-linecap="round" stroke-linejoin="round" d="M373.648,119.737
	c0.631,0.482,1.259,0.969,1.884,1.459"/>
<path fill="none" stroke="#000000" stroke-linecap="round" stroke-linejoin="round" d="M370.701,110.218
	c-2.43,3.474-4.86,6.947-7.291,10.421"/>
<path fill="none" stroke="#000000" stroke-linecap="round" stroke-linejoin="round" d="M358.146,101.708
	c-2.213,3.761-4.425,7.521-6.638,11.282"/>
<path fill="none" stroke="#000000" stroke-linecap="round" stroke-linejoin="round" d="M355.989,100.457
	c0.722,0.412,1.441,0.829,2.157,1.251"/>
<path fill="none" stroke="#000000" stroke-linecap="round" stroke-linejoin="round" d="M351.243,108.767
	c1.582-2.77,3.164-5.54,4.746-8.31"/>
<path fill="none" stroke="#000000" stroke-linecap="round" stroke-linejoin="round" d="M345.375,105.131
	c-0.094,0.17-0.179,0.343-0.251,0.523c-0.061,0.152-0.113,0.311-0.148,0.472c-0.04,0.186-0.058,0.379-0.035,0.57
	c0.021,0.173,0.076,0.331,0.163,0.482c0.083,0.146,0.192,0.277,0.312,0.394c0.143,0.138,0.304,0.26,0.47,0.367
	c0.154,0.099,0.326,0.195,0.491,0.275c0.163,0.079,0.328,0.149,0.498,0.21c0.347,0.125,0.704,0.212,1.068,0.267
	c0.174,0.026,0.34,0.044,0.515,0.059c0.194,0.016,0.388,0.027,0.582,0.035c0.71,0.028,1.496,0.011,2.205-0.017"/>
<path fill="none" stroke="#000000" stroke-linecap="round" stroke-linejoin="round" d="M349.63,96.982
	c-1.418,2.716-2.837,5.432-4.256,8.148"/>
<path fill="none" stroke="#000000" stroke-linecap="round" stroke-linejoin="round" d="M347.413,95.842
	c0.742,0.375,1.48,0.755,2.217,1.14"/>
<path fill="none" stroke="#000000" stroke-linecap="round" stroke-linejoin="round" d="M350.694,110.341
	c-0.479,0.054-0.959,0.091-1.442,0.104c-0.444,0.012-0.887,0.004-1.331-0.029c-0.477-0.036-0.953-0.103-1.42-0.207
	c-0.436-0.097-0.863-0.227-1.277-0.396c-0.196-0.08-0.387-0.167-0.575-0.264c-0.226-0.116-0.453-0.248-0.663-0.389
	c-0.199-0.134-0.388-0.279-0.564-0.441c-0.16-0.146-0.308-0.306-0.438-0.479c-0.27-0.359-0.449-0.76-0.52-1.206
	c-0.036-0.225-0.042-0.452-0.025-0.678c0.019-0.247,0.066-0.491,0.132-0.729c0.047-0.17,0.105-0.336,0.17-0.5
	c0.035-0.087,0.071-0.173,0.11-0.258c0.042-0.092,0.084-0.178,0.129-0.269c0.245-0.483,0.489-0.967,0.734-1.45
	c0.411-0.812,0.822-1.624,1.232-2.436c0.822-1.624,1.644-3.248,2.465-4.872"/>
<path fill="none" stroke="#000000" stroke-linecap="round" stroke-linejoin="round" d="M349.9,112.055
	c0.265-0.571,0.529-1.142,0.793-1.714"/>
<path fill="none" stroke="#000000" stroke-linecap="round" stroke-linejoin="round" d="M351.508,112.99
	c-0.534-0.314-1.07-0.626-1.607-0.935"/>
<path fill="none" stroke="#000000" stroke-linecap="round" stroke-linejoin="round" d="M344.349,101.898
	c0.715,0.362,1.429,0.729,2.14,1.1"/>
<path fill="none" stroke="#000000" stroke-linecap="round" stroke-linejoin="round" d="M352.623,106.351
	c0.696,0.398,1.39,0.8,2.081,1.207"/>
<path fill="none" stroke="#000000" stroke-linecap="round" stroke-linejoin="round" d="M347.417,108.587
	c-0.296,0.542-0.593,1.085-0.89,1.628"/>
<path fill="none" stroke="#000000" stroke-linecap="round" stroke-linejoin="round" d="M344.348,87.986
	c-2.146,4.595-4.291,9.19-6.437,13.785"/>
<path fill="none" stroke="#000000" stroke-linecap="round" stroke-linejoin="round" d="M342.015,86.915
	c0.78,0.352,1.558,0.709,2.333,1.071"/>
<path fill="none" stroke="#000000" stroke-linecap="round" stroke-linejoin="round" d="M339.469,106.39
	c-0.085-0.001-0.17-0.008-0.254-0.019c-0.096-0.012-0.19-0.029-0.285-0.05c-0.223-0.049-0.446-0.117-0.661-0.192
	c-0.265-0.093-0.527-0.201-0.784-0.314c-0.117-0.052-0.312-0.141-0.428-0.198c-0.126-0.062-0.25-0.129-0.371-0.203
	c-0.434-0.263-0.812-0.598-1.088-1.031c-0.128-0.202-0.232-0.422-0.306-0.65c-0.075-0.232-0.118-0.47-0.13-0.713
	c-0.016-0.321,0.021-0.639,0.097-0.95c0.042-0.171,0.094-0.338,0.156-0.503c0.033-0.087,0.068-0.173,0.105-0.259
	c0.013-0.029,0.026-0.058,0.039-0.087c0.049-0.108,0.098-0.217,0.146-0.325c0.098-0.217,0.195-0.433,0.293-0.65
	c0.401-0.889,0.802-1.778,1.203-2.666c1.604-3.555,3.208-7.11,4.813-10.665"/>
<path fill="none" stroke="#000000" stroke-linecap="round" stroke-linejoin="round" d="M339.99,104.699
	c-0.173,0.564-0.346,1.127-0.521,1.69"/>
<path fill="none" stroke="#000000" stroke-linecap="round" stroke-linejoin="round" d="M337.912,101.771
	c-0.153,0.301-0.264,0.645-0.237,0.994c0.014,0.176,0.062,0.342,0.143,0.499c0.082,0.158,0.191,0.296,0.319,0.417
	c0.128,0.122,0.273,0.225,0.425,0.315c0.043,0.026,0.087,0.05,0.131,0.073c0.045,0.024,0.091,0.046,0.137,0.068
	c0.068,0.033,0.137,0.066,0.205,0.099c0.319,0.153,0.637,0.308,0.955,0.463"/>
<path fill="none" stroke="#000000" stroke-linecap="round" stroke-linejoin="round" d="M338.056,95.687
	c0.743,0.335,1.483,0.675,2.221,1.019"/>
<path fill="none" stroke="#000000" stroke-linecap="round" stroke-linejoin="round" d="M337.822,103.273
	c-0.345,0.733-0.69,1.466-1.035,2.199"/>
<path fill="none" stroke="#000000" stroke-linecap="round" stroke-linejoin="round" d="M336.136,84.375
	c-1.936,4.687-3.872,9.374-5.808,14.062"/>
<path fill="none" stroke="#000000" stroke-linecap="round" stroke-linejoin="round" d="M333.757,83.411
	c0.795,0.316,1.588,0.638,2.379,0.965"/>
<path fill="none" stroke="#000000" stroke-linecap="round" stroke-linejoin="round" d="M332.093,102.98
	c-0.085,0.003-0.17,0-0.255-0.008c-0.096-0.008-0.192-0.021-0.287-0.037c-0.225-0.039-0.451-0.097-0.669-0.162
	c-0.269-0.081-0.536-0.177-0.796-0.279c-0.12-0.047-0.319-0.127-0.437-0.178c-0.129-0.057-0.256-0.118-0.38-0.186
	c-0.444-0.244-0.838-0.561-1.133-0.981c-0.138-0.196-0.251-0.411-0.335-0.635c-0.085-0.229-0.139-0.464-0.162-0.707
	c-0.031-0.32-0.008-0.639,0.054-0.953c0.034-0.173,0.079-0.342,0.133-0.51c0.029-0.089,0.06-0.176,0.093-0.263
	c0.011-0.03,0.023-0.059,0.035-0.089c0.044-0.11,0.088-0.221,0.132-0.331c0.088-0.221,0.176-0.441,0.264-0.662
	c0.36-0.906,0.721-1.812,1.082-2.718c1.442-3.624,2.884-7.248,4.327-10.871"/>
<path fill="none" stroke="#000000" stroke-linecap="round" stroke-linejoin="round" d="M332.537,101.268
	c-0.147,0.571-0.295,1.142-0.444,1.712"/>
<path fill="none" stroke="#000000" stroke-linecap="round" stroke-linejoin="round" d="M330.328,98.437
	c-0.139,0.308-0.234,0.656-0.191,1.003c0.021,0.176,0.077,0.339,0.165,0.492c0.088,0.154,0.204,0.287,0.337,0.402
	c0.134,0.116,0.284,0.213,0.439,0.295c0.044,0.024,0.089,0.046,0.134,0.067c0.046,0.022,0.093,0.042,0.14,0.062
	c0.069,0.03,0.139,0.059,0.209,0.089c0.325,0.139,0.65,0.278,0.975,0.419"/>
<path fill="none" stroke="#000000" stroke-linecap="round" stroke-linejoin="round" d="M330.198,92.353
	c0.756,0.301,1.511,0.607,2.264,0.918"/>
<path fill="none" stroke="#000000" stroke-linecap="round" stroke-linejoin="round" d="M330.307,99.942
	c-0.312,0.748-0.624,1.496-0.935,2.244"/>
<path fill="none" stroke="#000000" stroke-linecap="round" stroke-linejoin="round" d="M326.485,80.965
	c0.834,0.295,1.667,0.596,2.497,0.902"/>
<path fill="none" stroke="#000000" stroke-linecap="round" stroke-linejoin="round" d="M328.982,81.868
	c-2.141,5.8-4.281,11.6-6.421,17.399"/>
<path fill="none" stroke="#000000" stroke-linecap="round" stroke-linejoin="round" d="M322.561,99.267
	c-0.752-0.278-1.507-0.55-2.263-0.818"/>
<path fill="none" stroke="#000000" stroke-linecap="round" stroke-linejoin="round" d="M320.297,98.449
	c2.063-5.828,4.125-11.656,6.188-17.484"/>
<path fill="none" stroke="#000000" stroke-linecap="round" stroke-linejoin="round" d="M323.392,89.707
	c0.795,0.281,1.588,0.568,2.38,0.86"/>
<path fill="none" stroke="#000000" stroke-linecap="round" stroke-linejoin="round" d="M327.735,81.412
	c-2.102,5.814-4.203,11.628-6.305,17.442"/>
<line fill="none" stroke="#000000" stroke-linecap="round" stroke-linejoin="round" x1="333.124" y1="43.36" x2="569.922" y2="43.36"/>
<path fill="none" stroke="#000000" stroke-linecap="round" stroke-linejoin="round" d="M317.856,100.854
	c71.272,24.547,119.151,91.574,119.261,166.956"/>
<line fill="none" stroke="#000000" stroke-linecap="round" stroke-linejoin="round" x1="336.987" y1="40.285" x2="334.622" y2="40.285"/>
<line fill="none" stroke="#000000" stroke-linecap="round" stroke-linejoin="round" x1="336.987" y1="21.738" x2="336.987" y2="40.285"/>
<line fill="none" stroke="#000000" stroke-linecap="round" stroke-linejoin="round" x1="334.622" y1="21.738" x2="336.987" y2="21.738"/>
<line fill="none" stroke="#000000" stroke-linecap="round" stroke-linejoin="round" x1="334.622" y1="40.285" x2="334.622" y2="21.738"/>
<line fill="none" stroke="#000000" stroke-linecap="round" stroke-linejoin="round" x1="334.622" y1="31.011" x2="336.987" y2="31.011"/>
<line fill="none" stroke="#000000" stroke-linecap="round" stroke-linejoin="round" x1="335.805" y1="21.738" x2="335.805" y2="40.285"/>
<path fill="none" stroke="#000000" stroke-linecap="round" stroke-linejoin="round" d="M343.734,21.469c0,5.071,0,10.142,0,15.214"
	/>
<path fill="none" stroke="#000000" stroke-linecap="round" stroke-linejoin="round" d="M341.45,21.469c0.761,0,1.523,0,2.285,0"/>
<path fill="none" stroke="#000000" stroke-linecap="round" stroke-linejoin="round" d="M347.041,40.177
	c-0.484,0.233-1.281,0.349-2.393,0.349c-0.985,0-1.765-0.291-2.338-0.874c-0.573-0.582-0.86-1.402-0.86-2.459
	c0-5.241,0-10.483,0-15.724"/>
<path fill="none" stroke="#000000" stroke-linecap="round" stroke-linejoin="round" d="M346.771,38.43
	c0.09,0.582,0.179,1.165,0.269,1.747"/>
<path fill="none" stroke="#000000" stroke-linecap="round" stroke-linejoin="round" d="M343.734,36.683
	c-0.018,0.573,0.125,1.008,0.43,1.303c0.304,0.296,0.752,0.444,1.344,0.444c0.421,0,0.842,0,1.263,0"/>
<line fill="none" stroke="#000000" stroke-linecap="round" stroke-linejoin="round" x1="341.45" y1="30.998" x2="343.734" y2="30.998"/>
<line fill="none" stroke="#000000" stroke-linecap="round" stroke-linejoin="round" x1="344.245" y1="38.059" x2="344.245" y2="40.509"/>
<path fill="none" stroke="#000000" stroke-linecap="round" stroke-linejoin="round" d="M351.717,21.469c0,5.071,0,10.142,0,15.214"
	/>
<path fill="none" stroke="#000000" stroke-linecap="round" stroke-linejoin="round" d="M349.433,21.469c0.762,0,1.523,0,2.285,0"/>
<path fill="none" stroke="#000000" stroke-linecap="round" stroke-linejoin="round" d="M355.023,40.177
	c-0.484,0.233-1.281,0.349-2.392,0.349c-0.986,0-1.765-0.291-2.338-0.874c-0.574-0.582-0.86-1.402-0.86-2.459
	c0-5.241,0-10.483,0-15.724"/>
<path fill="none" stroke="#000000" stroke-linecap="round" stroke-linejoin="round" d="M354.755,38.43
	c0.089,0.582,0.179,1.165,0.269,1.747"/>
<path fill="none" stroke="#000000" stroke-linecap="round" stroke-linejoin="round" d="M351.717,36.683
	c-0.018,0.573,0.125,1.008,0.43,1.303c0.305,0.296,0.752,0.444,1.344,0.444c0.421,0,0.842,0,1.264,0"/>
<line fill="none" stroke="#000000" stroke-linecap="round" stroke-linejoin="round" x1="349.433" y1="30.998" x2="351.717" y2="30.998"/>
<line fill="none" stroke="#000000" stroke-linecap="round" stroke-linejoin="round" x1="352.228" y1="38.059" x2="352.228" y2="40.509"/>
<path fill="none" stroke="#000000" stroke-linecap="round" stroke-linejoin="round" d="M368.517,27.194c0,4.364,0,8.727,0,13.09"/>
<path fill="none" stroke="#000000" stroke-linecap="round" stroke-linejoin="round" d="M366.232,27.194c0.761,0,1.523,0,2.285,0"/>
<path fill="none" stroke="#000000" stroke-linecap="round" stroke-linejoin="round" d="M366.232,36.763c0-3.19,0-6.379,0-9.569"/>
<path fill="none" stroke="#000000" stroke-linecap="round" stroke-linejoin="round" d="M359.593,36.387
	c-0.018,0.824,0.134,1.406,0.457,1.747c0.323,0.34,0.86,0.511,1.613,0.511c0.663,0,1.335-0.148,2.016-0.444s1.532-0.775,2.554-1.438
	"/>
<path fill="none" stroke="#000000" stroke-linecap="round" stroke-linejoin="round" d="M359.593,27.194c0,3.064,0,6.128,0,9.193"/>
<path fill="none" stroke="#000000" stroke-linecap="round" stroke-linejoin="round" d="M357.308,27.194c0.762,0,1.523,0,2.285,0"/>
<path fill="none" stroke="#000000" stroke-linecap="round" stroke-linejoin="round" d="M366.528,38.403
	c-1.971,1.487-3.853,2.231-5.645,2.231c-2.383,0-3.575-1.201-3.575-3.602c0-3.279,0-6.559,0-9.838"/>
<path fill="none" stroke="#000000" stroke-linecap="round" stroke-linejoin="round" d="M366.689,40.285
	c-0.054-0.627-0.107-1.254-0.161-1.882"/>
<path fill="none" stroke="#000000" stroke-linecap="round" stroke-linejoin="round" d="M368.517,40.285c-0.609,0-1.219,0-1.828,0"/>
<line fill="none" stroke="#000000" stroke-linecap="round" stroke-linejoin="round" x1="357.308" y1="33.914" x2="359.593" y2="33.914"/>
<line fill="none" stroke="#000000" stroke-linecap="round" stroke-linejoin="round" x1="366.232" y1="33.914" x2="368.517" y2="33.914"/>
<line fill="none" stroke="#000000" stroke-linecap="round" stroke-linejoin="round" x1="362.913" y1="38.473" x2="362.913" y2="40.328"/>
<path fill="none" stroke="#000000" stroke-linecap="round" stroke-linejoin="round" d="M374.592,27.194
	c0.044,0.69,0.089,1.38,0.134,2.07"/>
<path fill="none" stroke="#000000" stroke-linecap="round" stroke-linejoin="round" d="M372.71,27.194c0.627,0,1.254,0,1.882,0"/>
<path fill="none" stroke="#000000" stroke-linecap="round" stroke-linejoin="round" d="M372.71,40.285c0-4.364,0-8.727,0-13.09"/>
<path fill="none" stroke="#000000" stroke-linecap="round" stroke-linejoin="round" d="M374.995,40.285c-0.761,0-1.523,0-2.285,0"/>
<path fill="none" stroke="#000000" stroke-linecap="round" stroke-linejoin="round" d="M374.995,30.823c0,3.154,0,6.308,0,9.462"/>
<path fill="none" stroke="#000000" stroke-linecap="round" stroke-linejoin="round" d="M381.338,40.285c0-3.055,0-6.111,0-9.166
	c0-0.824-0.166-1.416-0.497-1.774s-0.847-0.538-1.546-0.538c-0.627,0-1.232,0.143-1.814,0.43c-0.583,0.287-1.412,0.815-2.487,1.586"
	/>
<path fill="none" stroke="#000000" stroke-linecap="round" stroke-linejoin="round" d="M383.542,40.285c-0.735,0-1.469,0-2.204,0"/>
<path fill="none" stroke="#000000" stroke-linecap="round" stroke-linejoin="round" d="M383.542,30.85c0,3.145,0,6.29,0,9.435"/>
<path fill="none" stroke="#000000" stroke-linecap="round" stroke-linejoin="round" d="M389.886,31.119
	c-0.018-0.806-0.184-1.393-0.498-1.76s-0.829-0.551-1.545-0.551c-0.627,0-1.232,0.143-1.814,0.43
	c-0.583,0.287-1.411,0.824-2.486,1.613"/>
<path fill="none" stroke="#000000" stroke-linecap="round" stroke-linejoin="round" d="M389.886,40.285c0-3.055,0-6.111,0-9.166"/>
<path fill="none" stroke="#000000" stroke-linecap="round" stroke-linejoin="round" d="M392.144,40.285c-0.753,0-1.505,0-2.258,0"/>
<path fill="none" stroke="#000000" stroke-linecap="round" stroke-linejoin="round" d="M383.381,29.184
	c1.774-1.541,3.53-2.312,5.268-2.312c1.129,0,1.994,0.305,2.594,0.914c0.6,0.609,0.9,1.505,0.9,2.688c0,3.271,0,6.541,0,9.811"/>
<path fill="none" stroke="#000000" stroke-linecap="round" stroke-linejoin="round" d="M374.726,29.264
	c1.846-1.595,3.629-2.392,5.349-2.392c1.828,0,2.93,0.771,3.306,2.312"/>
<line fill="none" stroke="#000000" stroke-linecap="round" stroke-linejoin="round" x1="372.71" y1="33.578" x2="374.995" y2="33.578"/>
<line fill="none" stroke="#000000" stroke-linecap="round" stroke-linejoin="round" x1="381.338" y1="33.578" x2="383.542" y2="33.578"/>
<line fill="none" stroke="#000000" stroke-linecap="round" stroke-linejoin="round" x1="389.886" y1="33.578" x2="392.144" y2="33.578"/>
<line fill="none" stroke="#000000" stroke-linecap="round" stroke-linejoin="round" x1="382.427" y1="27.567" x2="382.427" y2="40.285"/>
<path fill="none" stroke="#000000" stroke-linecap="round" stroke-linejoin="round" d="M396.955,21.63c0.358,0,0.717,0,1.075,0
	c0.466,0,0.699,0.233,0.699,0.699c0,0.511,0,1.021,0,1.532c0,0.466-0.233,0.699-0.699,0.699c-0.358,0-0.717,0-1.075,0
	c-0.466,0-0.699-0.233-0.699-0.699c0-0.511,0-1.021,0-1.532C396.256,21.863,396.489,21.63,396.955,21.63z"/>
<line fill="none" stroke="#000000" stroke-linecap="round" stroke-linejoin="round" x1="396.256" y1="23.095" x2="398.729" y2="23.095"/>
<line fill="none" stroke="#000000" stroke-linecap="round" stroke-linejoin="round" x1="397.493" y1="21.63" x2="397.493" y2="24.56"/>
<line fill="none" stroke="#000000" stroke-linecap="round" stroke-linejoin="round" x1="398.622" y1="40.285" x2="396.364" y2="40.285"/>
<line fill="none" stroke="#000000" stroke-linecap="round" stroke-linejoin="round" x1="398.622" y1="27.194" x2="398.622" y2="40.285"/>
<line fill="none" stroke="#000000" stroke-linecap="round" stroke-linejoin="round" x1="396.364" y1="27.194" x2="398.622" y2="27.194"/>
<line fill="none" stroke="#000000" stroke-linecap="round" stroke-linejoin="round" x1="396.364" y1="40.285" x2="396.364" y2="27.194"/>
<line fill="none" stroke="#000000" stroke-linecap="round" stroke-linejoin="round" x1="396.364" y1="33.74" x2="398.622" y2="33.74"/>
<line fill="none" stroke="#000000" stroke-linecap="round" stroke-linejoin="round" x1="397.493" y1="27.194" x2="397.493" y2="40.285"/>
<path fill="none" stroke="#000000" stroke-linecap="round" stroke-linejoin="round" d="M417.437,21.738c0,5.869,0,11.737,0,17.606
	c0,0.627-0.304,0.941-0.914,0.941c-0.771,0-1.541,0-2.312,0c-0.484,0-0.833-0.251-1.048-0.753"/>
<path fill="none" stroke="#000000" stroke-linecap="round" stroke-linejoin="round" d="M415.099,21.738c0.78,0,1.559,0,2.338,0"/>
<path fill="none" stroke="#000000" stroke-linecap="round" stroke-linejoin="round" d="M415.179,38
	c-0.054-0.968-0.081-1.909-0.081-2.823c0-4.48,0-8.96,0-13.44"/>
<path fill="none" stroke="#000000" stroke-linecap="round" stroke-linejoin="round" d="M414.723,38c0.152,0,0.305,0,0.457,0"/>
<path fill="none" stroke="#000000" stroke-linecap="round" stroke-linejoin="round" d="M413.459,35.312
	c0.448,0.878,0.869,1.774,1.264,2.688"/>
<path fill="none" stroke="#000000" stroke-linecap="round" stroke-linejoin="round" d="M407.384,22.49
	c2.025,4.274,4.05,8.548,6.075,12.822"/>
<path fill="none" stroke="#000000" stroke-linecap="round" stroke-linejoin="round" d="M403.165,40.285c0-5.869,0-11.737,0-17.606
	c0-0.627,0.313-0.941,0.94-0.941c0.744,0,1.487,0,2.231,0c0.484,0,0.833,0.251,1.048,0.753"/>
<path fill="none" stroke="#000000" stroke-linecap="round" stroke-linejoin="round" d="M405.53,40.285c-0.789,0-1.577,0-2.365,0"/>
<path fill="none" stroke="#000000" stroke-linecap="round" stroke-linejoin="round" d="M405.422,23.942
	c0.072,0.717,0.107,1.532,0.107,2.446c0,4.632,0,9.264,0,13.897"/>
<path fill="none" stroke="#000000" stroke-linecap="round" stroke-linejoin="round" d="M405.853,23.942c-0.144,0-0.287,0-0.43,0"/>
<path fill="none" stroke="#000000" stroke-linecap="round" stroke-linejoin="round" d="M413.164,39.532
	c-2.088-4.381-4.175-8.763-6.263-13.144c-0.609-1.326-0.959-2.141-1.048-2.446"/>
<line fill="none" stroke="#000000" stroke-linecap="round" stroke-linejoin="round" x1="403.165" y1="31.011" x2="405.53" y2="31.011"/>
<line fill="none" stroke="#000000" stroke-linecap="round" stroke-linejoin="round" x1="409.104" y1="31.011" x2="411.421" y2="31.011"/>
<line fill="none" stroke="#000000" stroke-linecap="round" stroke-linejoin="round" x1="415.099" y1="31.011" x2="417.437" y2="31.011"/>
<line fill="none" stroke="#000000" stroke-linecap="round" stroke-linejoin="round" x1="410.301" y1="28.646" x2="410.301" y2="33.524"/>
<path fill="none" stroke="#000000" stroke-linecap="round" stroke-linejoin="round" d="M421.953,29.157
	c-0.072-0.565-0.144-1.129-0.215-1.694"/>
<path fill="none" stroke="#000000" stroke-linecap="round" stroke-linejoin="round" d="M423.485,35.769
	c0-0.573,0.13-1.012,0.39-1.317c0.26-0.304,0.694-0.466,1.304-0.484"/>
<path fill="none" stroke="#000000" stroke-linecap="round" stroke-linejoin="round" d="M430.232,32.221c0-0.385,0-0.771,0-1.156
	c0-0.824-0.188-1.407-0.564-1.747c-0.376-0.34-1.075-0.511-2.097-0.511c-1.29,0-3.163,0.116-5.618,0.35"/>
<path fill="none" stroke="#000000" stroke-linecap="round" stroke-linejoin="round" d="M430.474,38.134
	c-0.627,0.627-1.411,1.183-2.352,1.667c-0.94,0.484-1.958,0.726-3.051,0.726c-1.201,0-2.155-0.318-2.862-0.954
	c-0.708-0.636-1.062-1.537-1.062-2.701c0-0.475,0-0.95,0-1.425c0-1.021,0.318-1.814,0.955-2.379
	c0.636-0.564,1.527-0.847,2.674-0.847c1.819,0,3.638,0,5.457,0"/>
<path fill="none" stroke="#000000" stroke-linecap="round" stroke-linejoin="round" d="M430.743,40.285
	c-0.09-0.717-0.179-1.434-0.269-2.15"/>
<path fill="none" stroke="#000000" stroke-linecap="round" stroke-linejoin="round" d="M432.543,40.285c-0.601,0-1.201,0-1.801,0"/>
<path fill="none" stroke="#000000" stroke-linecap="round" stroke-linejoin="round" d="M421.738,27.463
	c2.401-0.394,4.507-0.591,6.317-0.591c1.523,0,2.652,0.318,3.387,0.954c0.735,0.636,1.102,1.716,1.102,3.239c0,3.073,0,6.146,0,9.22
	"/>
<path fill="none" stroke="#000000" stroke-linecap="round" stroke-linejoin="round" d="M425.528,38.564
	c-0.717,0-1.236-0.157-1.559-0.47c-0.322-0.313-0.483-0.811-0.483-1.492c0-0.278,0-0.555,0-0.833"/>
<path fill="none" stroke="#000000" stroke-linecap="round" stroke-linejoin="round" d="M430.232,36.602
	c-0.717,0.645-1.51,1.138-2.379,1.479c-0.869,0.34-1.644,0.502-2.325,0.484"/>
<path fill="none" stroke="#000000" stroke-linecap="round" stroke-linejoin="round" d="M430.232,33.968c0,0.878,0,1.756,0,2.634"/>
<path fill="none" stroke="#000000" stroke-linecap="round" stroke-linejoin="round" d="M425.179,33.968c1.684,0,3.369,0,5.053,0"/>
<line fill="none" stroke="#000000" stroke-linecap="round" stroke-linejoin="round" x1="421.576" y1="33.699" x2="432.543" y2="33.699"/>
<line fill="none" stroke="#000000" stroke-linecap="round" stroke-linejoin="round" x1="426.845" y1="26.899" x2="426.845" y2="28.818"/>
<line fill="none" stroke="#000000" stroke-linecap="round" stroke-linejoin="round" x1="426.845" y1="32.221" x2="426.845" y2="33.968"/>
<line fill="none" stroke="#000000" stroke-linecap="round" stroke-linejoin="round" x1="426.845" y1="38.406" x2="426.845" y2="40.296"/>
<path fill="none" stroke="#000000" stroke-linecap="round" stroke-linejoin="round" d="M439.908,28.995c0,2.562,0,5.125,0,7.688
	c0,0.627,0.134,1.075,0.403,1.344c0.269,0.269,0.726,0.403,1.371,0.403c0.663,0,1.326,0,1.989,0"/>
<path fill="none" stroke="#000000" stroke-linecap="round" stroke-linejoin="round" d="M444.075,28.995c-1.389,0-2.777,0-4.167,0"/>
<path fill="none" stroke="#000000" stroke-linecap="round" stroke-linejoin="round" d="M444.075,27.194c0,0.6,0,1.201,0,1.801"/>
<path fill="none" stroke="#000000" stroke-linecap="round" stroke-linejoin="round" d="M439.908,27.194c1.389,0,2.778,0,4.167,0"/>
<path fill="none" stroke="#000000" stroke-linecap="round" stroke-linejoin="round" d="M439.908,23.324c0,1.29,0,2.581,0,3.871"/>
<path fill="none" stroke="#000000" stroke-linecap="round" stroke-linejoin="round" d="M437.624,23.324c0.762,0,1.523,0,2.285,0"/>
<path fill="none" stroke="#000000" stroke-linecap="round" stroke-linejoin="round" d="M437.624,27.221c0-1.299,0-2.598,0-3.897"/>
<path fill="none" stroke="#000000" stroke-linecap="round" stroke-linejoin="round" d="M435.258,27.329
	c0.789-0.036,1.577-0.072,2.365-0.108"/>
<path fill="none" stroke="#000000" stroke-linecap="round" stroke-linejoin="round" d="M435.258,28.995c0-0.555,0-1.111,0-1.667"/>
<path fill="none" stroke="#000000" stroke-linecap="round" stroke-linejoin="round" d="M437.624,28.995c-0.789,0-1.577,0-2.365,0"/>
<path fill="none" stroke="#000000" stroke-linecap="round" stroke-linejoin="round" d="M443.94,40.177
	c-0.825,0.233-1.81,0.349-2.957,0.349c-1.093,0-1.926-0.304-2.5-0.914c-0.574-0.609-0.86-1.487-0.86-2.634c0-2.661,0-5.322,0-7.983"
	/>
<path fill="none" stroke="#000000" stroke-linecap="round" stroke-linejoin="round" d="M443.671,38.43
	c0.09,0.582,0.179,1.165,0.269,1.747"/>
<line fill="none" stroke="#000000" stroke-linecap="round" stroke-linejoin="round" x1="437.624" y1="31.925" x2="439.908" y2="31.925"/>
<line fill="none" stroke="#000000" stroke-linecap="round" stroke-linejoin="round" x1="439.667" y1="23.324" x2="439.667" y2="40.342"/>
<path fill="none" stroke="#000000" stroke-linecap="round" stroke-linejoin="round" d="M447.569,21.63c0.358,0,0.717,0,1.075,0
	c0.466,0,0.699,0.233,0.699,0.699c0,0.511,0,1.021,0,1.532c0,0.466-0.233,0.699-0.699,0.699c-0.358,0-0.717,0-1.075,0
	c-0.466,0-0.699-0.233-0.699-0.699c0-0.511,0-1.021,0-1.532C446.87,21.863,447.103,21.63,447.569,21.63z"/>
<line fill="none" stroke="#000000" stroke-linecap="round" stroke-linejoin="round" x1="446.87" y1="23.095" x2="449.343" y2="23.095"/>
<line fill="none" stroke="#000000" stroke-linecap="round" stroke-linejoin="round" x1="448.106" y1="21.63" x2="448.106" y2="24.56"/>
<line fill="none" stroke="#000000" stroke-linecap="round" stroke-linejoin="round" x1="449.235" y1="40.285" x2="446.978" y2="40.285"/>
<line fill="none" stroke="#000000" stroke-linecap="round" stroke-linejoin="round" x1="449.235" y1="27.194" x2="449.235" y2="40.285"/>
<line fill="none" stroke="#000000" stroke-linecap="round" stroke-linejoin="round" x1="446.978" y1="27.194" x2="449.235" y2="27.194"/>
<line fill="none" stroke="#000000" stroke-linecap="round" stroke-linejoin="round" x1="446.978" y1="40.285" x2="446.978" y2="27.194"/>
<line fill="none" stroke="#000000" stroke-linecap="round" stroke-linejoin="round" x1="446.978" y1="33.74" x2="449.235" y2="33.74"/>
<line fill="none" stroke="#000000" stroke-linecap="round" stroke-linejoin="round" x1="448.106" y1="27.194" x2="448.106" y2="40.285"/>
<path fill="none" stroke="#000000" stroke-linecap="round" stroke-linejoin="round" d="M465.175,27.194
	c-1.595,4.175-3.189,8.351-4.784,12.526c-0.144,0.376-0.413,0.564-0.807,0.564c-0.69,0-1.38,0-2.07,0
	c-0.394,0-0.663-0.188-0.806-0.564c-1.595-4.175-3.19-8.351-4.785-12.526"/>
<path fill="none" stroke="#000000" stroke-linecap="round" stroke-linejoin="round" d="M462.756,27.194c0.806,0,1.613,0,2.419,0"/>
<path fill="none" stroke="#000000" stroke-linecap="round" stroke-linejoin="round" d="M458.724,38.645
	c0.269-0.762,0.538-1.523,0.807-2.285c1.075-3.055,2.15-6.11,3.226-9.166"/>
<path fill="none" stroke="#000000" stroke-linecap="round" stroke-linejoin="round" d="M458.375,38.645c0.116,0,0.233,0,0.349,0"/>
<path fill="none" stroke="#000000" stroke-linecap="round" stroke-linejoin="round" d="M454.37,27.194
	c1.075,3.055,2.15,6.111,3.225,9.166c0.179,0.502,0.439,1.263,0.78,2.285"/>
<path fill="none" stroke="#000000" stroke-linecap="round" stroke-linejoin="round" d="M451.923,27.194c0.815,0,1.631,0,2.446,0"/>
<line fill="none" stroke="#000000" stroke-linecap="round" stroke-linejoin="round" x1="454.423" y1="33.74" x2="456.673" y2="33.74"/>
<line fill="none" stroke="#000000" stroke-linecap="round" stroke-linejoin="round" x1="460.453" y1="33.74" x2="462.675" y2="33.74"/>
<line fill="none" stroke="#000000" stroke-linecap="round" stroke-linejoin="round" x1="458.549" y1="38.645" x2="458.549" y2="40.285"/>
<path fill="none" stroke="#000000" stroke-linecap="round" stroke-linejoin="round" d="M475.658,34.855c-2.034,0-4.067,0-6.102,0"/>
<path fill="none" stroke="#000000" stroke-linecap="round" stroke-linejoin="round" d="M469.529,33.081c1.846,0,3.691,0,5.537,0
	c0.95,0,1.425-0.645,1.425-1.935"/>
<path fill="none" stroke="#000000" stroke-linecap="round" stroke-linejoin="round" d="M478.48,39.881
	c-1.165,0.484-2.858,0.726-5.08,0.726c-2.258,0-3.866-0.524-4.825-1.573c-0.959-1.048-1.438-2.827-1.438-5.335
	c0-2.527,0.466-4.296,1.397-5.309c0.932-1.012,2.473-1.519,4.624-1.519c1.953,0,3.378,0.354,4.273,1.062
	c0.896,0.708,1.344,1.779,1.344,3.212c0.036,2.473-1.003,3.709-3.118,3.709"/>
<path fill="none" stroke="#000000" stroke-linecap="round" stroke-linejoin="round" d="M478.238,38.349
	c0.081,0.51,0.161,1.021,0.242,1.532"/>
<path fill="none" stroke="#000000" stroke-linecap="round" stroke-linejoin="round" d="M469.556,34.855
	c0.125,1.505,0.493,2.518,1.102,3.037s1.622,0.78,3.038,0.78c1.487,0,3.001-0.108,4.542-0.323"/>
<path fill="none" stroke="#000000" stroke-linecap="round" stroke-linejoin="round" d="M476.491,31.146
	c-0.018-0.842-0.269-1.443-0.753-1.801s-1.308-0.538-2.473-0.538c-1.38,0-2.338,0.3-2.876,0.9c-0.538,0.6-0.824,1.725-0.86,3.374"/>
<line fill="none" stroke="#000000" stroke-linecap="round" stroke-linejoin="round" x1="467.137" y1="33.74" x2="478.167" y2="33.74"/>
<line fill="none" stroke="#000000" stroke-linecap="round" stroke-linejoin="round" x1="472.974" y1="26.873" x2="472.974" y2="28.812"/>
<line fill="none" stroke="#000000" stroke-linecap="round" stroke-linejoin="round" x1="472.974" y1="33.081" x2="472.974" y2="34.855"/>
<line fill="none" stroke="#000000" stroke-linecap="round" stroke-linejoin="round" x1="472.974" y1="38.647" x2="472.974" y2="40.601"/>
<path fill="none" stroke="#000000" stroke-linecap="round" stroke-linejoin="round" d="M503.317,21.738c0.887,0,1.774,0,2.661,0
	c0.645,0,0.968,0.332,0.968,0.995"/>
<path fill="none" stroke="#000000" stroke-linecap="round" stroke-linejoin="round" d="M502.295,22.544
	c0.143-0.538,0.483-0.807,1.021-0.807"/>
<path fill="none" stroke="#000000" stroke-linecap="round" stroke-linejoin="round" d="M498.129,36.36
	c0.054-0.197,0.157-0.587,0.309-1.169c0.152-0.582,0.282-1.044,0.39-1.384c1.156-3.754,2.312-7.508,3.468-11.262"/>
<path fill="none" stroke="#000000" stroke-linecap="round" stroke-linejoin="round" d="M497.645,36.36c0.161,0,0.323,0,0.484,0"/>
<path fill="none" stroke="#000000" stroke-linecap="round" stroke-linejoin="round" d="M496.946,33.86
	c0.107,0.323,0.247,0.802,0.417,1.438c0.17,0.636,0.264,0.99,0.282,1.062"/>
<path fill="none" stroke="#000000" stroke-linecap="round" stroke-linejoin="round" d="M488.076,40.285
	c0.242-5.851,0.484-11.701,0.726-17.552c0.036-0.663,0.367-0.995,0.995-0.995c0.896,0,1.792,0,2.688,0
	c0.501,0,0.833,0.269,0.995,0.807c1.156,3.772,2.312,7.544,3.467,11.316"/>
<path fill="none" stroke="#000000" stroke-linecap="round" stroke-linejoin="round" d="M490.441,40.285c-0.789,0-1.577,0-2.365,0"/>
<path fill="none" stroke="#000000" stroke-linecap="round" stroke-linejoin="round" d="M491.086,23.7
	c-0.215,5.528-0.43,11.056-0.645,16.584"/>
<path fill="none" stroke="#000000" stroke-linecap="round" stroke-linejoin="round" d="M491.624,23.7c-0.179,0-0.358,0-0.538,0"/>
<path fill="none" stroke="#000000" stroke-linecap="round" stroke-linejoin="round" d="M499.983,37.382
	c-0.143,0.538-0.484,0.806-1.021,0.806c-0.708,0-1.416,0-2.123,0c-0.556,0-0.914-0.269-1.075-0.806
	c-1.38-4.561-2.76-9.121-4.14-13.681"/>
<path fill="none" stroke="#000000" stroke-linecap="round" stroke-linejoin="round" d="M504.123,23.7
	c-1.38,4.56-2.76,9.121-4.14,13.681"/>
<path fill="none" stroke="#000000" stroke-linecap="round" stroke-linejoin="round" d="M504.688,23.7c-0.188,0-0.376,0-0.564,0"/>
<path fill="none" stroke="#000000" stroke-linecap="round" stroke-linejoin="round" d="M505.359,40.285
	c-0.224-5.528-0.448-11.056-0.672-16.584"/>
<path fill="none" stroke="#000000" stroke-linecap="round" stroke-linejoin="round" d="M507.725,40.285c-0.789,0-1.577,0-2.366,0"/>
<path fill="none" stroke="#000000" stroke-linecap="round" stroke-linejoin="round" d="M506.945,22.732
	c0.26,5.851,0.52,11.701,0.78,17.552"/>
<line fill="none" stroke="#000000" stroke-linecap="round" stroke-linejoin="round" x1="488.459" y1="31.011" x2="490.802" y2="31.011"/>
<line fill="none" stroke="#000000" stroke-linecap="round" stroke-linejoin="round" x1="493.836" y1="31.011" x2="496.073" y2="31.011"/>
<line fill="none" stroke="#000000" stroke-linecap="round" stroke-linejoin="round" x1="499.688" y1="31.011" x2="501.911" y2="31.011"/>
<line fill="none" stroke="#000000" stroke-linecap="round" stroke-linejoin="round" x1="504.984" y1="31.011" x2="507.313" y2="31.011"/>
<line fill="none" stroke="#000000" stroke-linecap="round" stroke-linejoin="round" x1="497.9" y1="36.36" x2="497.9" y2="38.188"/>
<path fill="none" stroke="#000000" stroke-linecap="round" stroke-linejoin="round" d="M521.084,30.608c0,0.036,0,0.072,0,0.107"/>
<path fill="none" stroke="#000000" stroke-linecap="round" stroke-linejoin="round" d="M514.337,29.775c0-2.079,0-4.157,0-6.236"/>
<path fill="none" stroke="#000000" stroke-linecap="round" stroke-linejoin="round" d="M514.337,31.576c1.335,0,2.67,0,4.005,0"/>
<path fill="none" stroke="#000000" stroke-linecap="round" stroke-linejoin="round" d="M512.025,21.738
	c1.416-0.143,3.423-0.215,6.021-0.215c2.312,0,3.92,0.336,4.825,1.008c0.905,0.672,1.357,1.949,1.357,3.83
	c0,1.344-0.25,2.361-0.752,3.051s-1.299,1.089-2.392,1.196"/>
<path fill="none" stroke="#000000" stroke-linecap="round" stroke-linejoin="round" d="M512.025,40.285c0-6.182,0-12.365,0-18.547"
	/>
<path fill="none" stroke="#000000" stroke-linecap="round" stroke-linejoin="round" d="M521.084,30.716
	c1.344,0.125,2.298,0.596,2.863,1.411c0.564,0.815,0.847,1.994,0.847,3.535c0,1.864-0.439,3.136-1.317,3.817
	s-2.41,1.021-4.596,1.021c-2.975,0-5.26-0.072-6.854-0.215"/>
<path fill="none" stroke="#000000" stroke-linecap="round" stroke-linejoin="round" d="M514.337,23.539c1.201,0,2.401,0,3.602,0
	c1.541,0,2.594,0.206,3.158,0.618c0.564,0.412,0.847,1.237,0.847,2.473c0,1.219-0.26,2.043-0.779,2.473
	c-0.52,0.43-1.469,0.654-2.849,0.672c-1.326,0-2.652,0-3.979,0"/>
<path fill="none" stroke="#000000" stroke-linecap="round" stroke-linejoin="round" d="M514.337,38.457c0-2.294,0-4.587,0-6.881"/>
<path fill="none" stroke="#000000" stroke-linecap="round" stroke-linejoin="round" d="M518.342,31.576
	c1.541,0.036,2.603,0.305,3.185,0.806s0.874,1.46,0.874,2.876c0,1.29-0.273,2.15-0.82,2.58c-0.546,0.43-1.572,0.645-3.078,0.645
	c-2.043,0-3.432-0.009-4.167-0.027"/>
<line fill="none" stroke="#000000" stroke-linecap="round" stroke-linejoin="round" x1="512.025" y1="31.011" x2="522.456" y2="31.011"/>
<line fill="none" stroke="#000000" stroke-linecap="round" stroke-linejoin="round" x1="518.409" y1="21.526" x2="518.409" y2="23.546"/>
<line fill="none" stroke="#000000" stroke-linecap="round" stroke-linejoin="round" x1="518.409" y1="29.773" x2="518.409" y2="31.577"/>
<line fill="none" stroke="#000000" stroke-linecap="round" stroke-linejoin="round" x1="518.409" y1="38.484" x2="518.409" y2="40.499"/>
<path fill="none" stroke="#000000" stroke-linecap="round" stroke-linejoin="round" d="M540.437,21.388c2.348,0,4,0.744,4.959,2.231
	c0.959,1.488,1.438,3.951,1.438,7.392s-0.479,5.905-1.438,7.392c-0.958,1.487-2.611,2.231-4.959,2.231s-3.996-0.744-4.946-2.231
	s-1.425-3.951-1.425-7.392s0.475-5.904,1.425-7.392C536.441,22.132,538.089,21.388,540.437,21.388z"/>
<path fill="none" stroke="#000000" stroke-linecap="round" stroke-linejoin="round" d="M540.437,23.458
	c1.523,0,2.585,0.564,3.185,1.693c0.6,1.129,0.9,3.082,0.9,5.86s-0.3,4.731-0.9,5.86c-0.6,1.129-1.662,1.693-3.185,1.693
	c-1.523,0-2.581-0.564-3.172-1.693c-0.591-1.129-0.887-3.082-0.887-5.86s0.296-4.731,0.887-5.86
	C537.856,24.022,538.914,23.458,540.437,23.458z"/>
<line fill="none" stroke="#000000" stroke-linecap="round" stroke-linejoin="round" x1="534.066" y1="31.011" x2="536.378" y2="31.011"/>
<line fill="none" stroke="#000000" stroke-linecap="round" stroke-linejoin="round" x1="544.522" y1="31.011" x2="546.834" y2="31.011"/>
<line fill="none" stroke="#000000" stroke-linecap="round" stroke-linejoin="round" x1="540.45" y1="21.388" x2="540.45" y2="23.458"/>
<line fill="none" stroke="#000000" stroke-linecap="round" stroke-linejoin="round" x1="540.45" y1="38.564" x2="540.45" y2="40.634"/>
<path fill="none" stroke="#000000" stroke-linecap="round" stroke-linejoin="round" d="M551.243,37.113c0.25,0,0.501,0,0.752,0
	c0.323,0,0.546,0.063,0.672,0.188c0.125,0.125,0.188,0.349,0.188,0.672c0,0.484,0,0.968,0,1.452c0,0.323-0.062,0.546-0.188,0.672
	s-0.349,0.188-0.672,0.188c-0.251,0-0.502,0-0.752,0c-0.305,0-0.524-0.063-0.659-0.188c-0.135-0.125-0.202-0.349-0.202-0.672
	c0-0.484,0-0.968,0-1.452c0-0.323,0.067-0.547,0.202-0.672C550.718,37.176,550.938,37.113,551.243,37.113z"/>
<line fill="none" stroke="#000000" stroke-linecap="round" stroke-linejoin="round" x1="550.382" y1="38.699" x2="552.855" y2="38.699"/>
<line fill="none" stroke="#000000" stroke-linecap="round" stroke-linejoin="round" x1="551.619" y1="37.113" x2="551.619" y2="40.285"/>
<path fill="none" stroke="#000000" stroke-linecap="round" stroke-linejoin="round" d="M556.618,23.7
	c-0.062-0.609-0.125-1.219-0.188-1.828"/>
<path fill="none" stroke="#000000" stroke-linecap="round" stroke-linejoin="round" d="M558.419,29.614c1.146,0,2.293,0,3.44,0
	c1.326-0.018,2.199-0.323,2.621-0.914c0.421-0.591,0.632-1.416,0.632-2.473c-0.018-1.129-0.287-1.868-0.807-2.217
	c-0.52-0.35-1.514-0.524-2.983-0.524c-1.487,0-3.055,0.072-4.704,0.215"/>
<path fill="none" stroke="#000000" stroke-linecap="round" stroke-linejoin="round" d="M558.419,31.468c0-0.618,0-1.236,0-1.855"/>
<path fill="none" stroke="#000000" stroke-linecap="round" stroke-linejoin="round" d="M556.269,38.242
	c2.024,0.179,3.736,0.269,5.134,0.269c1.505,0,2.571-0.269,3.199-0.806c0.627-0.538,0.941-1.478,0.941-2.822
	c0-1.129-0.256-1.98-0.767-2.553c-0.51-0.573-1.482-0.86-2.916-0.86c-1.147,0-2.294,0-3.44,0"/>
<path fill="none" stroke="#000000" stroke-linecap="round" stroke-linejoin="round" d="M556.107,40.15
	c0.054-0.636,0.107-1.272,0.162-1.908"/>
<path fill="none" stroke="#000000" stroke-linecap="round" stroke-linejoin="round" d="M564.655,30.474
	c1.147,0.197,1.962,0.681,2.446,1.452c0.484,0.771,0.744,1.837,0.78,3.198c0.036,1.917-0.399,3.315-1.304,4.193
	c-0.905,0.878-2.433,1.317-4.583,1.317c-1.667,0-3.629-0.161-5.887-0.484"/>
<path fill="none" stroke="#000000" stroke-linecap="round" stroke-linejoin="round" d="M564.655,30.366c0,0.036,0,0.072,0,0.107"/>
<path fill="none" stroke="#000000" stroke-linecap="round" stroke-linejoin="round" d="M556.43,21.872
	c1.828-0.323,3.566-0.484,5.214-0.484c2.079,0,3.553,0.314,4.422,0.941c0.869,0.627,1.304,1.747,1.304,3.36
	c0,2.76-0.905,4.319-2.715,4.677"/>
<line fill="none" stroke="#000000" stroke-linecap="round" stroke-linejoin="round" x1="558.419" y1="31.011" x2="566.171" y2="31.011"/>
<line fill="none" stroke="#000000" stroke-linecap="round" stroke-linejoin="round" x1="562.012" y1="21.392" x2="562.012" y2="23.5"/>
<line fill="none" stroke="#000000" stroke-linecap="round" stroke-linejoin="round" x1="562.012" y1="29.61" x2="562.012" y2="31.469"/>
<line fill="none" stroke="#000000" stroke-linecap="round" stroke-linejoin="round" x1="562.012" y1="38.495" x2="562.012" y2="40.634"/>
<line fill="none" stroke="#000000" stroke-linecap="round" stroke-linejoin="round" x1="203.578" y1="63.182" x2="203.578" y2="79.104"/>
<path fill="none" stroke="#000000" stroke-linecap="round" stroke-linejoin="round" d="M203.578,63.182
	C111.465,88.668,47.685,172.492,47.685,268.065s63.781,179.397,155.893,204.884"/>
<line fill="none" stroke="#000000" stroke-linecap="round" stroke-linejoin="round" x1="203.578" y1="457.027" x2="203.578" y2="472.949"/>
<line fill="none" stroke="#000000" stroke-linecap="round" stroke-linejoin="round" x1="316.955" y1="457.027" x2="203.578" y2="457.027"/>
<line fill="none" stroke="#000000" stroke-linecap="round" stroke-linejoin="round" x1="316.955" y1="472.949" x2="316.955" y2="457.027"/>
<path fill="none" stroke="#000000" stroke-linecap="round" stroke-linejoin="round" d="M316.955,472.949
	c92.112-25.486,155.893-109.311,155.893-204.884"/>
<path fill="none" stroke="#000000" stroke-linecap="round" stroke-linejoin="round" d="M472.848,268.065
	c0-95.573-63.781-179.397-155.893-204.884"/>
<line fill="none" stroke="#000000" stroke-linecap="round" stroke-linejoin="round" x1="316.955" y1="79.104" x2="316.955" y2="63.182"/>
<path fill="none" stroke="#000000" stroke-linecap="round" stroke-linejoin="round" d="M456.783,272.395
	c0.609-0.063,1.219-0.127,1.828-0.19"/>
<path fill="none" stroke="#000000" stroke-linecap="round" stroke-linejoin="round" d="M450.873,274.204
	c0.001,0.797,0.002,1.595,0.003,2.392c0,0.198,0,0.396,0.001,0.594c0,0.099,0,0.198,0,0.297c0,0.05,0,0.099,0,0.148
	c0,0.04,0.002,0.129,0.004,0.168c0.007,0.21,0.021,0.419,0.048,0.628c0.023,0.184,0.055,0.366,0.099,0.546
	c0.054,0.22,0.128,0.439,0.231,0.642c0.088,0.174,0.198,0.336,0.336,0.476c0.064,0.065,0.133,0.123,0.208,0.175
	s0.152,0.101,0.231,0.146c0.168,0.095,0.343,0.171,0.526,0.233c0.348,0.119,0.715,0.185,1.08,0.218
	c0.103,0.009,0.205,0.016,0.308,0.02c0.053,0.002,0.106,0.004,0.16,0.005c0.027,0.001,0.054,0.001,0.081,0.001
	c0.014,0,0.068,0.001,0.083,0c0.219-0.004,0.437-0.017,0.654-0.045c0.232-0.03,0.468-0.078,0.691-0.153
	c0.184-0.063,0.364-0.146,0.523-0.26c0.072-0.051,0.138-0.107,0.199-0.17c0.059-0.061,0.111-0.126,0.157-0.198
	c0.049-0.076,0.091-0.155,0.129-0.237c0.042-0.095,0.079-0.191,0.11-0.289c0.048-0.151,0.085-0.304,0.117-0.459
	c0.036-0.182,0.063-0.363,0.083-0.547c0.024-0.212,0.041-0.424,0.051-0.636c0.012-0.241,0.018-0.482,0.019-0.724
	c0-0.18-0.001-0.405-0.003-0.585c-0.003-0.198-0.006-0.396-0.011-0.594c-0.01-0.404-0.024-0.809-0.044-1.213
	c-0.038-0.797-0.093-1.592-0.164-2.387"/>
<path fill="none" stroke="#000000" stroke-linecap="round" stroke-linejoin="round" d="M449.018,274.207
	c0.618-0.001,1.236-0.002,1.854-0.003"/>
<path fill="none" stroke="#000000" stroke-linecap="round" stroke-linejoin="round" d="M442.241,272.066
	c-0.076,0.867-0.14,1.734-0.187,2.603c-0.025,0.458-0.045,0.915-0.058,1.373c-0.006,0.211-0.011,0.421-0.014,0.632
	c-0.001,0.101-0.002,0.202-0.003,0.302c0,0.1,0,0.199,0,0.299c0.002,0.256,0.012,0.512,0.033,0.768
	c0.019,0.228,0.045,0.455,0.085,0.681c0.035,0.201,0.08,0.398,0.138,0.594c0.052,0.174,0.114,0.343,0.191,0.508
	c0.089,0.189,0.197,0.37,0.33,0.532c0.062,0.076,0.129,0.147,0.202,0.214c0.074,0.068,0.153,0.131,0.236,0.188
	c0.178,0.123,0.372,0.219,0.574,0.296c0.229,0.087,0.469,0.148,0.709,0.19c0.233,0.041,0.467,0.065,0.703,0.078
	c0.129,0.007,0.258,0.01,0.388,0.011c0.113,0,0.226-0.002,0.339-0.007c0.206-0.009,0.41-0.027,0.613-0.058
	c0.185-0.028,0.367-0.067,0.546-0.119c0.209-0.061,0.414-0.141,0.606-0.244c0.178-0.095,0.346-0.209,0.497-0.344
	c0.156-0.14,0.281-0.306,0.384-0.487c0.119-0.21,0.206-0.438,0.27-0.669c0.054-0.192,0.093-0.386,0.123-0.583
	c0.033-0.224,0.054-0.448,0.065-0.674c0.006-0.124,0.01-0.248,0.011-0.372c0.001-0.061,0.001-0.121,0.001-0.181
	c0-0.052,0-0.104,0-0.156c0-0.208,0-0.417-0.001-0.625c-0.001-0.87-0.002-1.739-0.003-2.608"/>
<path fill="none" stroke="#000000" stroke-linecap="round" stroke-linejoin="round" d="M440.333,271.908
	c0.636,0.053,1.272,0.106,1.909,0.159"/>
<path fill="none" stroke="#000000" stroke-linecap="round" stroke-linejoin="round" d="M450.021,280.441
	c-0.042,0.249-0.1,0.493-0.179,0.733c-0.071,0.217-0.159,0.429-0.269,0.63c-0.201,0.372-0.466,0.694-0.806,0.95
	c-0.078,0.059-0.16,0.113-0.243,0.164c-0.086,0.053-0.174,0.102-0.264,0.146c-0.191,0.097-0.387,0.177-0.589,0.246
	c-0.221,0.075-0.445,0.134-0.672,0.183c-0.25,0.053-0.501,0.092-0.755,0.121c-0.182,0.021-0.364,0.035-0.546,0.045
	c-0.096,0.005-0.191,0.01-0.287,0.013c-0.063,0.002-0.126,0.002-0.19,0.003c-0.067,0-0.134,0-0.201,0
	c-0.488-0.005-0.982-0.043-1.463-0.133c-0.467-0.087-0.928-0.224-1.356-0.435c-0.381-0.188-0.728-0.43-1.025-0.736
	c-0.29-0.299-0.515-0.649-0.691-1.024c-0.099-0.211-0.18-0.426-0.25-0.647c-0.077-0.242-0.138-0.488-0.187-0.737
	c-0.086-0.432-0.137-0.875-0.165-1.314c-0.015-0.245-0.023-0.491-0.025-0.737c-0.001-0.108-0.001-0.218,0-0.326
	c0-0.103,0.002-0.205,0.003-0.307c0.031-1.758,0.226-3.632,0.471-5.37"/>
<path fill="none" stroke="#000000" stroke-linecap="round" stroke-linejoin="round" d="M450.129,280.441c-0.036,0-0.072,0-0.107,0"
	/>
<path fill="none" stroke="#000000" stroke-linecap="round" stroke-linejoin="round" d="M458.611,272.204
	c0.284,1.596,0.462,3.222,0.488,4.845c0.007,0.418,0.003,0.836-0.016,1.254c-0.019,0.393-0.052,0.789-0.107,1.178
	c-0.033,0.234-0.074,0.466-0.126,0.698c-0.047,0.208-0.102,0.413-0.169,0.615c-0.061,0.182-0.13,0.359-0.212,0.532
	c-0.075,0.157-0.158,0.306-0.255,0.45c-0.053,0.079-0.11,0.154-0.172,0.227c-0.061,0.072-0.126,0.141-0.195,0.206
	c-0.141,0.135-0.293,0.25-0.459,0.352c-0.176,0.108-0.359,0.196-0.552,0.27c-0.21,0.081-0.425,0.141-0.645,0.188
	c-0.313,0.066-0.635,0.104-0.954,0.121c-0.087,0.005-0.174,0.008-0.262,0.01c-0.115,0.002-0.229,0.002-0.344,0.001
	c-0.291-0.004-0.58-0.018-0.869-0.047c-0.435-0.042-0.874-0.118-1.294-0.245c-0.355-0.107-0.702-0.253-1.018-0.454
	c-0.729-0.461-1.156-1.126-1.323-1.962"/>
<path fill="none" stroke="#000000" stroke-linecap="round" stroke-linejoin="round" d="M449.475,274.206
	c0.004,2.584,0.008,5.168,0.011,7.752"/>
<path fill="none" stroke="#000000" stroke-linecap="round" stroke-linejoin="round" d="M459.1,277.768
	c-0.702,0.001-1.405,0.002-2.107,0.003"/>
<path fill="none" stroke="#000000" stroke-linecap="round" stroke-linejoin="round" d="M450.88,277.78
	c-0.619,0.001-1.239,0.002-1.858,0.002"/>
<path fill="none" stroke="#000000" stroke-linecap="round" stroke-linejoin="round" d="M441.996,277.793
	c-0.713,0.001-1.426,0.002-2.138,0.003"/>
</svg>
