solid OpenSCAD_Model
  facet normal 0.999914 -0 0.0130892
    outer loop
      vertex 57.9901 0 0.759131
      vertex 58 140 0
      vertex 57.9901 140 0.759131
    endloop
  endfacet
  facet normal 0.999914 0 0.0130892
    outer loop
      vertex 58 140 0
      vertex 57.9901 0 0.759131
      vertex 58 0 0
    endloop
  endfacet
  facet normal 0.999229 -0 0.0392626
    outer loop
      vertex 57.9603 0 1.51774
      vertex 57.9901 140 0.759131
      vertex 57.9603 140 1.51774
    endloop
  endfacet
  facet normal 0.999229 0 0.0392626
    outer loop
      vertex 57.9901 140 0.759131
      vertex 57.9603 0 1.51774
      vertex 57.9901 0 0.759131
    endloop
  endfacet
  facet normal -0.0130892 0 0.999914
    outer loop
      vertex 28.2409 140 28.9901
      vertex 29 0 29
      vertex 29 140 29
    endloop
  endfacet
  facet normal -0.0130892 0 0.999914
    outer loop
      vertex 29 0 29
      vertex 28.2409 140 28.9901
      vertex 28.2409 0 28.9901
    endloop
  endfacet
  facet normal 0.69779 0 0.716303
    outer loop
      vertex 48.9623 140 21.0359
      vertex 49.5061 0 20.5061
      vertex 49.5061 140 20.5061
    endloop
  endfacet
  facet normal 0.69779 0 0.716303
    outer loop
      vertex 49.5061 0 20.5061
      vertex 48.9623 140 21.0359
      vertex 48.9623 0 21.0359
    endloop
  endfacet
  facet normal -0.716302 0 0.697791
    outer loop
      vertex 7.96414 0 19.9623
      vertex 8.4939 140 20.5061
      vertex 7.96414 140 19.9623
    endloop
  endfacet
  facet normal -0.716302 0 0.697791
    outer loop
      vertex 8.4939 140 20.5061
      vertex 7.96414 0 19.9623
      vertex 8.4939 0 20.5061
    endloop
  endfacet
  facet normal 0.91879 -0 0.394746
    outer loop
      vertex 55.4928 0 11.7954
      vertex 55.7925 140 11.0978
      vertex 55.4928 140 11.7954
    endloop
  endfacet
  facet normal 0.91879 0 0.394746
    outer loop
      vertex 55.7925 140 11.0978
      vertex 55.4928 0 11.7954
      vertex 55.7925 0 11.0978
    endloop
  endfacet
  facet normal 0.0915039 0 0.995805
    outer loop
      vertex 31.2753 140 28.9106
      vertex 32.0313 0 28.8411
      vertex 32.0313 140 28.8411
    endloop
  endfacet
  facet normal 0.0915039 0 0.995805
    outer loop
      vertex 32.0313 0 28.8411
      vertex 31.2753 140 28.9106
      vertex 31.2753 0 28.9106
    endloop
  endfacet
  facet normal -0.95502 0 0.296541
    outer loop
      vertex 1.19423 0 8.23644
      vertex 1.41936 140 8.96149
      vertex 1.19423 140 8.23644
    endloop
  endfacet
  facet normal -0.95502 0 0.296541
    outer loop
      vertex 1.41936 140 8.96149
      vertex 1.19423 0 8.23644
      vertex 1.41936 0 8.96149
    endloop
  endfacet
  facet normal -0.995805 0 0.0915026
    outer loop
      vertex 0.0893965 0 2.27531
      vertex 0.158865 140 3.03133
      vertex 0.0893965 140 2.27531
    endloop
  endfacet
  facet normal -0.995805 0 0.0915026
    outer loop
      vertex 0.158865 140 3.03133
      vertex 0.0893965 0 2.27531
      vertex 0.158865 0 3.03133
    endloop
  endfacet
  facet normal 0.989651 -0 0.143494
    outer loop
      vertex 57.643 0 4.5366
      vertex 57.7519 140 3.78526
      vertex 57.643 140 4.5366
    endloop
  endfacet
  facet normal 0.989651 0 0.143494
    outer loop
      vertex 57.7519 140 3.78526
      vertex 57.643 0 4.5366
      vertex 57.7519 0 3.78526
    endloop
  endfacet
  facet normal 0.938191 -0 0.346118
    outer loop
      vertex 56.0738 0 10.3927
      vertex 56.3366 140 9.6804
      vertex 56.0738 140 10.3927
    endloop
  endfacet
  facet normal 0.938191 0 0.346118
    outer loop
      vertex 56.3366 140 9.6804
      vertex 56.0738 0 10.3927
      vertex 56.3366 0 9.6804
    endloop
  endfacet
  facet normal 0.95502 -0 0.29654
    outer loop
      vertex 56.5806 0 8.96149
      vertex 56.8058 140 8.23644
      vertex 56.5806 140 8.96149
    endloop
  endfacet
  facet normal 0.95502 0 0.29654
    outer loop
      vertex 56.8058 140 8.23644
      vertex 56.5806 0 8.96149
      vertex 56.8058 0 8.23644
    endloop
  endfacet
  facet normal 0.801253 -0 0.598325
    outer loop
      vertex 52.0072 0 17.6541
      vertex 52.4615 140 17.0458
      vertex 52.0072 140 17.6541
    endloop
  endfacet
  facet normal 0.801253 0 0.598325
    outer loop
      vertex 52.4615 140 17.0458
      vertex 52.0072 0 17.6541
      vertex 52.4615 0 17.0458
    endloop
  endfacet
  facet normal 0.734323 -0 0.6788
    outer loop
      vertex 50.0359 0 19.9623
      vertex 50.5512 140 19.4048
      vertex 50.0359 140 19.9623
    endloop
  endfacet
  facet normal 0.734323 0 0.6788
    outer loop
      vertex 50.5512 140 19.4048
      vertex 50.0359 0 19.9623
      vertex 50.5512 0 19.4048
    endloop
  endfacet
  facet normal 0.83147 -0 0.55557
    outer loop
      vertex 52.8997 0 16.4258
      vertex 53.3214 140 15.7945
      vertex 52.8997 140 16.4258
    endloop
  endfacet
  facet normal 0.83147 0 0.55557
    outer loop
      vertex 53.3214 140 15.7945
      vertex 52.8997 0 16.4258
      vertex 53.3214 0 15.7945
    endloop
  endfacet
  facet normal 0.884988 -0 0.465614
    outer loop
      vertex 54.4857 0 13.8376
      vertex 54.8392 140 13.1657
      vertex 54.4857 140 13.8376
    endloop
  endfacet
  facet normal 0.884988 0 0.465614
    outer loop
      vertex 54.8392 140 13.1657
      vertex 54.4857 0 13.8376
      vertex 54.8392 0 13.1657
    endloop
  endfacet
  facet normal 0.271443 0 0.962455
    outer loop
      vertex 36.5058 140 28.0118
      vertex 37.2364 0 27.8058
      vertex 37.2364 140 27.8058
    endloop
  endfacet
  facet normal 0.271443 0 0.962455
    outer loop
      vertex 37.2364 0 27.8058
      vertex 36.5058 140 28.0118
      vertex 36.5058 0 28.0118
    endloop
  endfacet
  facet normal 0.246152 0 0.969231
    outer loop
      vertex 35.7699 140 28.1987
      vertex 36.5058 0 28.0118
      vertex 36.5058 140 28.0118
    endloop
  endfacet
  facet normal 0.246152 0 0.969231
    outer loop
      vertex 36.5058 0 28.0118
      vertex 35.7699 140 28.1987
      vertex 35.7699 0 28.1987
    endloop
  endfacet
  facet normal 0.0654008 0 0.997859
    outer loop
      vertex 30.5177 140 28.9603
      vertex 31.2753 0 28.9106
      vertex 31.2753 140 28.9106
    endloop
  endfacet
  facet normal 0.0654008 0 0.997859
    outer loop
      vertex 31.2753 0 28.9106
      vertex 30.5177 140 28.9603
      vertex 30.5177 0 28.9603
    endloop
  endfacet
  facet normal 0.511293 0 0.859406
    outer loop
      vertex 43.5 140 25.1147
      vertex 44.1525 0 24.7266
      vertex 44.1525 140 24.7266
    endloop
  endfacet
  facet normal 0.511293 0 0.859406
    outer loop
      vertex 44.1525 0 24.7266
      vertex 43.5 140 25.1147
      vertex 43.5 0 25.1147
    endloop
  endfacet
  facet normal 0.41866 0 0.908143
    outer loop
      vertex 40.7954 140 26.4928
      vertex 41.4848 0 26.175
      vertex 41.4848 140 26.175
    endloop
  endfacet
  facet normal 0.41866 0 0.908143
    outer loop
      vertex 41.4848 0 26.175
      vertex 40.7954 140 26.4928
      vertex 40.7954 0 26.4928
    endloop
  endfacet
  facet normal 0.678802 0 0.734322
    outer loop
      vertex 48.4048 140 21.5512
      vertex 48.9623 0 21.0359
      vertex 48.9623 140 21.0359
    endloop
  endfacet
  facet normal 0.678802 0 0.734322
    outer loop
      vertex 48.9623 0 21.0359
      vertex 48.4048 140 21.5512
      vertex 48.4048 0 21.5512
    endloop
  endfacet
  facet normal 0.598324 0 0.801254
    outer loop
      vertex 46.0458 140 23.4615
      vertex 46.6541 0 23.0072
      vertex 46.6541 140 23.0072
    endloop
  endfacet
  facet normal 0.598324 0 0.801254
    outer loop
      vertex 46.6541 0 23.0072
      vertex 46.0458 140 23.4615
      vertex 46.0458 0 23.4615
    endloop
  endfacet
  facet normal -0.962455 0 0.27144
    outer loop
      vertex 0.988151 0 7.50575
      vertex 1.19423 140 8.23644
      vertex 0.988151 140 7.50575
    endloop
  endfacet
  facet normal -0.962455 0 0.27144
    outer loop
      vertex 1.19423 140 8.23644
      vertex 0.988151 0 7.50575
      vertex 1.19423 0 8.23644
    endloop
  endfacet
  facet normal -0.997859 0 0.0654021
    outer loop
      vertex 0.0397434 0 1.51774
      vertex 0.0893965 140 2.27531
      vertex 0.0397434 140 1.51774
    endloop
  endfacet
  facet normal -0.997859 0 0.0654021
    outer loop
      vertex 0.0893965 140 2.27531
      vertex 0.0397434 0 1.51774
      vertex 0.0893965 0 2.27531
    endloop
  endfacet
  facet normal -0.598325 0 0.801254
    outer loop
      vertex 11.3459 140 23.0072
      vertex 11.9542 0 23.4615
      vertex 11.9542 140 23.4615
    endloop
  endfacet
  facet normal -0.598325 0 0.801254
    outer loop
      vertex 11.9542 0 23.4615
      vertex 11.3459 140 23.0072
      vertex 11.3459 0 23.0072
    endloop
  endfacet
  facet normal -0.678802 0 0.734322
    outer loop
      vertex 9.03772 140 21.0359
      vertex 9.59521 0 21.5512
      vertex 9.59521 140 21.5512
    endloop
  endfacet
  facet normal -0.678802 0 0.734322
    outer loop
      vertex 9.59521 0 21.5512
      vertex 9.03772 140 21.0359
      vertex 9.03772 0 21.0359
    endloop
  endfacet
  facet normal -0.48862 0 0.872497
    outer loop
      vertex 14.5 140 25.1147
      vertex 15.1624 0 25.4857
      vertex 15.1624 140 25.4857
    endloop
  endfacet
  facet normal -0.48862 0 0.872497
    outer loop
      vertex 15.1624 0 25.4857
      vertex 14.5 140 25.1147
      vertex 14.5 0 25.1147
    endloop
  endfacet
  facet normal -0.555571 0 0.831469
    outer loop
      vertex 12.5742 140 23.8997
      vertex 13.2055 0 24.3214
      vertex 13.2055 140 24.3214
    endloop
  endfacet
  facet normal -0.555571 0 0.831469
    outer loop
      vertex 13.2055 0 24.3214
      vertex 12.5742 140 23.8997
      vertex 12.5742 0 23.8997
    endloop
  endfacet
  facet normal -0.511293 0 0.859407
    outer loop
      vertex 13.8475 140 24.7266
      vertex 14.5 0 25.1147
      vertex 14.5 140 25.1147
    endloop
  endfacet
  facet normal -0.511293 0 0.859407
    outer loop
      vertex 14.5 0 25.1147
      vertex 13.8475 140 24.7266
      vertex 13.8475 0 24.7266
    endloop
  endfacet
  facet normal -0.29654 0 0.95502
    outer loop
      vertex 20.0385 140 27.5806
      vertex 20.7636 0 27.8058
      vertex 20.7636 140 27.8058
    endloop
  endfacet
  facet normal -0.29654 0 0.95502
    outer loop
      vertex 20.7636 0 27.8058
      vertex 20.0385 140 27.5806
      vertex 20.0385 0 27.5806
    endloop
  endfacet
  facet normal -0.346118 0 0.938191
    outer loop
      vertex 18.6073 140 27.0738
      vertex 19.3196 0 27.3366
      vertex 19.3196 140 27.3366
    endloop
  endfacet
  facet normal -0.346118 0 0.938191
    outer loop
      vertex 19.3196 0 27.3366
      vertex 18.6073 140 27.0738
      vertex 18.6073 0 27.0738
    endloop
  endfacet
  facet normal -0.0654008 0 0.997859
    outer loop
      vertex 26.7247 140 28.9106
      vertex 27.4823 0 28.9603
      vertex 27.4823 140 28.9603
    endloop
  endfacet
  facet normal -0.0654008 0 0.997859
    outer loop
      vertex 27.4823 0 28.9603
      vertex 26.7247 140 28.9106
      vertex 26.7247 0 28.9106
    endloop
  endfacet
  facet normal 0.997859 -0 0.0654008
    outer loop
      vertex 57.9106 0 2.27531
      vertex 57.9603 140 1.51774
      vertex 57.9106 140 2.27531
    endloop
  endfacet
  facet normal 0.997859 0 0.0654008
    outer loop
      vertex 57.9603 140 1.51774
      vertex 57.9106 0 2.27531
      vertex 57.9603 0 1.51774
    endloop
  endfacet
  facet normal 0.993069 -0 0.117537
    outer loop
      vertex 57.7519 0 3.78526
      vertex 57.8411 140 3.03133
      vertex 57.7519 140 3.78526
    endloop
  endfacet
  facet normal 0.993069 0 0.117537
    outer loop
      vertex 57.8411 140 3.03133
      vertex 57.7519 0 3.78526
      vertex 57.8411 0 3.03133
    endloop
  endfacet
  facet normal 0.985557 -0 0.169346
    outer loop
      vertex 57.5144 0 5.28483
      vertex 57.643 140 4.5366
      vertex 57.5144 140 5.28483
    endloop
  endfacet
  facet normal 0.985557 0 0.169346
    outer loop
      vertex 57.643 140 4.5366
      vertex 57.5144 0 5.28483
      vertex 57.643 0 4.5366
    endloop
  endfacet
  facet normal 0.975342 -0 0.220698
    outer loop
      vertex 57.1987 0 6.76991
      vertex 57.3663 140 6.02944
      vertex 57.1987 140 6.76991
    endloop
  endfacet
  facet normal 0.975342 0 0.220698
    outer loop
      vertex 57.3663 140 6.02944
      vertex 57.1987 0 6.76991
      vertex 57.3663 0 6.02944
    endloop
  endfacet
  facet normal 0.946929 -0 0.321442
    outer loop
      vertex 56.3366 0 9.6804
      vertex 56.5806 140 8.96149
      vertex 56.3366 140 9.6804
    endloop
  endfacet
  facet normal 0.946929 0 0.321442
    outer loop
      vertex 56.5806 140 8.96149
      vertex 56.3366 0 9.6804
      vertex 56.5806 0 8.96149
    endloop
  endfacet
  facet normal 0.751841 -0 0.659345
    outer loop
      vertex 50.5512 0 19.4048
      vertex 51.0518 140 18.834
      vertex 50.5512 140 19.4048
    endloop
  endfacet
  facet normal 0.751841 0 0.659345
    outer loop
      vertex 51.0518 140 18.834
      vertex 50.5512 0 19.4048
      vertex 51.0518 0 18.834
    endloop
  endfacet
  facet normal 0.872498 0 0.488618
    outer loop
      vertex 54.4857 140 13.8376
      vertex 54.1147 0 14.5
      vertex 54.4857 0 13.8376
    endloop
  endfacet
  facet normal 0.0392627 0 0.999229
    outer loop
      vertex 29.7591 140 28.9901
      vertex 30.5177 0 28.9603
      vertex 30.5177 140 28.9603
    endloop
  endfacet
  facet normal 0.0392627 0 0.999229
    outer loop
      vertex 30.5177 0 28.9603
      vertex 29.7591 140 28.9901
      vertex 29.7591 0 28.9901
    endloop
  endfacet
  facet normal 0.220698 0 0.975342
    outer loop
      vertex 35.0294 140 28.3663
      vertex 35.7699 0 28.1987
      vertex 35.7699 140 28.1987
    endloop
  endfacet
  facet normal 0.220698 0 0.975342
    outer loop
      vertex 35.7699 0 28.1987
      vertex 35.0294 140 28.3663
      vertex 35.0294 0 28.3663
    endloop
  endfacet
  facet normal 0.169349 0 0.985556
    outer loop
      vertex 33.5366 140 28.643
      vertex 34.2848 0 28.5144
      vertex 34.2848 140 28.5144
    endloop
  endfacet
  facet normal 0.169349 0 0.985556
    outer loop
      vertex 34.2848 0 28.5144
      vertex 33.5366 140 28.643
      vertex 33.5366 0 28.643
    endloop
  endfacet
  facet normal 0.143492 0 0.989652
    outer loop
      vertex 32.7853 140 28.7519
      vertex 33.5366 0 28.643
      vertex 33.5366 140 28.643
    endloop
  endfacet
  facet normal 0.143492 0 0.989652
    outer loop
      vertex 33.5366 0 28.643
      vertex 32.7853 140 28.7519
      vertex 32.7853 0 28.7519
    endloop
  endfacet
  facet normal 0.370555 0 0.928811
    outer loop
      vertex 39.3927 140 27.0738
      vertex 40.0978 0 26.7925
      vertex 40.0978 140 26.7925
    endloop
  endfacet
  facet normal 0.370555 0 0.928811
    outer loop
      vertex 40.0978 0 26.7925
      vertex 39.3927 140 27.0738
      vertex 39.3927 0 27.0738
    endloop
  endfacet
  facet normal 0.442289 0 0.896873
    outer loop
      vertex 41.4848 140 26.175
      vertex 42.1657 0 25.8392
      vertex 42.1657 140 25.8392
    endloop
  endfacet
  facet normal 0.442289 0 0.896873
    outer loop
      vertex 42.1657 0 25.8392
      vertex 41.4848 140 26.175
      vertex 41.4848 0 26.175
    endloop
  endfacet
  facet normal 0.555571 0 0.831469
    outer loop
      vertex 44.7945 140 24.3214
      vertex 45.4258 0 23.8997
      vertex 45.4258 140 23.8997
    endloop
  endfacet
  facet normal 0.555571 0 0.831469
    outer loop
      vertex 45.4258 0 23.8997
      vertex 44.7945 140 24.3214
      vertex 44.7945 0 24.3214
    endloop
  endfacet
  facet normal 0.619096 0 0.785315
    outer loop
      vertex 46.6541 140 23.0072
      vertex 47.2503 0 22.5372
      vertex 47.2503 140 22.5372
    endloop
  endfacet
  facet normal 0.619096 0 0.785315
    outer loop
      vertex 47.2503 0 22.5372
      vertex 46.6541 140 23.0072
      vertex 46.6541 0 23.0072
    endloop
  endfacet
  facet normal -0.999229 0 0.0392601
    outer loop
      vertex 0.00993729 0 0.759131
      vertex 0.0397434 140 1.51774
      vertex 0.00993729 140 0.759131
    endloop
  endfacet
  facet normal -0.999229 0 0.0392601
    outer loop
      vertex 0.0397434 140 1.51774
      vertex 0.00993729 0 0.759131
      vertex 0.0397434 0 1.51774
    endloop
  endfacet
  facet normal 0 1 0
    outer loop
      vertex 29.7591 140 28.9901
      vertex 28.2409 140 28.9901
      vertex 29 140 29
    endloop
  endfacet
  facet normal 0 1 0
    outer loop
      vertex 30.5177 140 28.9603
      vertex 28.2409 140 28.9901
      vertex 29.7591 140 28.9901
    endloop
  endfacet
  facet normal 0 1 0
    outer loop
      vertex 30.5177 140 28.9603
      vertex 27.4823 140 28.9603
      vertex 28.2409 140 28.9901
    endloop
  endfacet
  facet normal 0 1 0
    outer loop
      vertex 31.2753 140 28.9106
      vertex 27.4823 140 28.9603
      vertex 30.5177 140 28.9603
    endloop
  endfacet
  facet normal 0 1 0
    outer loop
      vertex 31.2753 140 28.9106
      vertex 26.7247 140 28.9106
      vertex 27.4823 140 28.9603
    endloop
  endfacet
  facet normal 0 1 0
    outer loop
      vertex 32.0313 140 28.8411
      vertex 26.7247 140 28.9106
      vertex 31.2753 140 28.9106
    endloop
  endfacet
  facet normal 0 1 0
    outer loop
      vertex 32.0313 140 28.8411
      vertex 25.9687 140 28.8411
      vertex 26.7247 140 28.9106
    endloop
  endfacet
  facet normal 0 1 0
    outer loop
      vertex 32.7853 140 28.7519
      vertex 25.9687 140 28.8411
      vertex 32.0313 140 28.8411
    endloop
  endfacet
  facet normal 0 1 0
    outer loop
      vertex 32.7853 140 28.7519
      vertex 25.2147 140 28.7519
      vertex 25.9687 140 28.8411
    endloop
  endfacet
  facet normal 0 1 0
    outer loop
      vertex 33.5366 140 28.643
      vertex 25.2147 140 28.7519
      vertex 32.7853 140 28.7519
    endloop
  endfacet
  facet normal 0 1 0
    outer loop
      vertex 33.5366 140 28.643
      vertex 24.4634 140 28.643
      vertex 25.2147 140 28.7519
    endloop
  endfacet
  facet normal 0 1 0
    outer loop
      vertex 34.2848 140 28.5144
      vertex 24.4634 140 28.643
      vertex 33.5366 140 28.643
    endloop
  endfacet
  facet normal 0 1 0
    outer loop
      vertex 34.2848 140 28.5144
      vertex 23.7152 140 28.5144
      vertex 24.4634 140 28.643
    endloop
  endfacet
  facet normal 0 1 0
    outer loop
      vertex 35.0294 140 28.3663
      vertex 23.7152 140 28.5144
      vertex 34.2848 140 28.5144
    endloop
  endfacet
  facet normal 0 1 0
    outer loop
      vertex 35.0294 140 28.3663
      vertex 22.9706 140 28.3663
      vertex 23.7152 140 28.5144
    endloop
  endfacet
  facet normal 0 1 0
    outer loop
      vertex 35.7699 140 28.1987
      vertex 22.9706 140 28.3663
      vertex 35.0294 140 28.3663
    endloop
  endfacet
  facet normal 0 1 0
    outer loop
      vertex 35.7699 140 28.1987
      vertex 22.2301 140 28.1987
      vertex 22.9706 140 28.3663
    endloop
  endfacet
  facet normal 0 1 0
    outer loop
      vertex 36.5058 140 28.0118
      vertex 22.2301 140 28.1987
      vertex 35.7699 140 28.1987
    endloop
  endfacet
  facet normal 0 1 0
    outer loop
      vertex 36.5058 140 28.0118
      vertex 21.4942 140 28.0118
      vertex 22.2301 140 28.1987
    endloop
  endfacet
  facet normal 0 1 0
    outer loop
      vertex 37.2364 140 27.8058
      vertex 21.4942 140 28.0118
      vertex 36.5058 140 28.0118
    endloop
  endfacet
  facet normal 0 1 0
    outer loop
      vertex 37.2364 140 27.8058
      vertex 20.7636 140 27.8058
      vertex 21.4942 140 28.0118
    endloop
  endfacet
  facet normal 0 1 0
    outer loop
      vertex 37.9615 140 27.5806
      vertex 20.7636 140 27.8058
      vertex 37.2364 140 27.8058
    endloop
  endfacet
  facet normal 0 1 0
    outer loop
      vertex 37.9615 140 27.5806
      vertex 20.0385 140 27.5806
      vertex 20.7636 140 27.8058
    endloop
  endfacet
  facet normal 0 1 0
    outer loop
      vertex 38.6804 140 27.3366
      vertex 20.0385 140 27.5806
      vertex 37.9615 140 27.5806
    endloop
  endfacet
  facet normal 0 1 0
    outer loop
      vertex 38.6804 140 27.3366
      vertex 19.3196 140 27.3366
      vertex 20.0385 140 27.5806
    endloop
  endfacet
  facet normal 0 1 0
    outer loop
      vertex 39.3927 140 27.0738
      vertex 19.3196 140 27.3366
      vertex 38.6804 140 27.3366
    endloop
  endfacet
  facet normal 0 1 0
    outer loop
      vertex 39.3927 140 27.0738
      vertex 18.6073 140 27.0738
      vertex 19.3196 140 27.3366
    endloop
  endfacet
  facet normal 0 1 0
    outer loop
      vertex 40.0978 140 26.7925
      vertex 18.6073 140 27.0738
      vertex 39.3927 140 27.0738
    endloop
  endfacet
  facet normal 0 1 0
    outer loop
      vertex 40.0978 140 26.7925
      vertex 17.9022 140 26.7925
      vertex 18.6073 140 27.0738
    endloop
  endfacet
  facet normal 0 1 0
    outer loop
      vertex 40.7954 140 26.4928
      vertex 17.9022 140 26.7925
      vertex 40.0978 140 26.7925
    endloop
  endfacet
  facet normal 0 1 0
    outer loop
      vertex 40.7954 140 26.4928
      vertex 17.2046 140 26.4928
      vertex 17.9022 140 26.7925
    endloop
  endfacet
  facet normal 0 1 0
    outer loop
      vertex 41.4848 140 26.175
      vertex 17.2046 140 26.4928
      vertex 40.7954 140 26.4928
    endloop
  endfacet
  facet normal 0 1 0
    outer loop
      vertex 41.4848 140 26.175
      vertex 16.5152 140 26.175
      vertex 17.2046 140 26.4928
    endloop
  endfacet
  facet normal 0 1 0
    outer loop
      vertex 42.1657 140 25.8392
      vertex 16.5152 140 26.175
      vertex 41.4848 140 26.175
    endloop
  endfacet
  facet normal 0 1 0
    outer loop
      vertex 42.1657 140 25.8392
      vertex 15.8343 140 25.8392
      vertex 16.5152 140 26.175
    endloop
  endfacet
  facet normal 0 1 0
    outer loop
      vertex 42.8376 140 25.4857
      vertex 15.8343 140 25.8392
      vertex 42.1657 140 25.8392
    endloop
  endfacet
  facet normal 0 1 0
    outer loop
      vertex 42.8376 140 25.4857
      vertex 15.1624 140 25.4857
      vertex 15.8343 140 25.8392
    endloop
  endfacet
  facet normal 0 1 0
    outer loop
      vertex 43.5 140 25.1147
      vertex 15.1624 140 25.4857
      vertex 42.8376 140 25.4857
    endloop
  endfacet
  facet normal 0 1 0
    outer loop
      vertex 43.5 140 25.1147
      vertex 14.5 140 25.1147
      vertex 15.1624 140 25.4857
    endloop
  endfacet
  facet normal 0 1 0
    outer loop
      vertex 44.1525 140 24.7266
      vertex 14.5 140 25.1147
      vertex 43.5 140 25.1147
    endloop
  endfacet
  facet normal 0 1 0
    outer loop
      vertex 44.1525 140 24.7266
      vertex 13.8475 140 24.7266
      vertex 14.5 140 25.1147
    endloop
  endfacet
  facet normal 0 1 0
    outer loop
      vertex 44.7945 140 24.3214
      vertex 13.8475 140 24.7266
      vertex 44.1525 140 24.7266
    endloop
  endfacet
  facet normal 0 1 0
    outer loop
      vertex 44.7945 140 24.3214
      vertex 13.2055 140 24.3214
      vertex 13.8475 140 24.7266
    endloop
  endfacet
  facet normal 0 1 0
    outer loop
      vertex 45.4258 140 23.8997
      vertex 13.2055 140 24.3214
      vertex 44.7945 140 24.3214
    endloop
  endfacet
  facet normal 0 1 0
    outer loop
      vertex 45.4258 140 23.8997
      vertex 12.5742 140 23.8997
      vertex 13.2055 140 24.3214
    endloop
  endfacet
  facet normal 0 1 0
    outer loop
      vertex 46.0458 140 23.4615
      vertex 12.5742 140 23.8997
      vertex 45.4258 140 23.8997
    endloop
  endfacet
  facet normal 0 1 0
    outer loop
      vertex 46.0458 140 23.4615
      vertex 11.9542 140 23.4615
      vertex 12.5742 140 23.8997
    endloop
  endfacet
  facet normal 0 1 0
    outer loop
      vertex 46.6541 140 23.0072
      vertex 11.9542 140 23.4615
      vertex 46.0458 140 23.4615
    endloop
  endfacet
  facet normal 0 1 0
    outer loop
      vertex 46.6541 140 23.0072
      vertex 11.3459 140 23.0072
      vertex 11.9542 140 23.4615
    endloop
  endfacet
  facet normal 0 1 0
    outer loop
      vertex 47.2503 140 22.5372
      vertex 11.3459 140 23.0072
      vertex 46.6541 140 23.0072
    endloop
  endfacet
  facet normal 0 1 0
    outer loop
      vertex 47.2503 140 22.5372
      vertex 10.7497 140 22.5372
      vertex 11.3459 140 23.0072
    endloop
  endfacet
  facet normal 0 1 0
    outer loop
      vertex 47.834 140 22.0518
      vertex 10.7497 140 22.5372
      vertex 47.2503 140 22.5372
    endloop
  endfacet
  facet normal 0 1 0
    outer loop
      vertex 47.834 140 22.0518
      vertex 10.166 140 22.0518
      vertex 10.7497 140 22.5372
    endloop
  endfacet
  facet normal 0 1 0
    outer loop
      vertex 48.4048 140 21.5512
      vertex 10.166 140 22.0518
      vertex 47.834 140 22.0518
    endloop
  endfacet
  facet normal 0 1 0
    outer loop
      vertex 48.4048 140 21.5512
      vertex 9.59521 140 21.5512
      vertex 10.166 140 22.0518
    endloop
  endfacet
  facet normal 0 1 0
    outer loop
      vertex 48.9623 140 21.0359
      vertex 9.59521 140 21.5512
      vertex 48.4048 140 21.5512
    endloop
  endfacet
  facet normal 0 1 0
    outer loop
      vertex 48.9623 140 21.0359
      vertex 9.03772 140 21.0359
      vertex 9.59521 140 21.5512
    endloop
  endfacet
  facet normal 0 1 0
    outer loop
      vertex 49.5061 140 20.5061
      vertex 9.03772 140 21.0359
      vertex 48.9623 140 21.0359
    endloop
  endfacet
  facet normal 0 1 0
    outer loop
      vertex 49.5061 140 20.5061
      vertex 8.4939 140 20.5061
      vertex 9.03772 140 21.0359
    endloop
  endfacet
  facet normal 0 1 0
    outer loop
      vertex 50.0359 140 19.9623
      vertex 8.4939 140 20.5061
      vertex 49.5061 140 20.5061
    endloop
  endfacet
  facet normal 0 1 0
    outer loop
      vertex 50.0359 140 19.9623
      vertex 7.96414 140 19.9623
      vertex 8.4939 140 20.5061
    endloop
  endfacet
  facet normal 0 1 0
    outer loop
      vertex 50.5512 140 19.4048
      vertex 7.96414 140 19.9623
      vertex 50.0359 140 19.9623
    endloop
  endfacet
  facet normal 0 1 0
    outer loop
      vertex 50.5512 140 19.4048
      vertex 7.4488 140 19.4048
      vertex 7.96414 140 19.9623
    endloop
  endfacet
  facet normal 0 1 0
    outer loop
      vertex 51.0518 140 18.834
      vertex 7.4488 140 19.4048
      vertex 50.5512 140 19.4048
    endloop
  endfacet
  facet normal 0 1 0
    outer loop
      vertex 51.0518 140 18.834
      vertex 6.94823 140 18.834
      vertex 7.4488 140 19.4048
    endloop
  endfacet
  facet normal 0 1 0
    outer loop
      vertex 51.5372 140 18.2503
      vertex 6.94823 140 18.834
      vertex 51.0518 140 18.834
    endloop
  endfacet
  facet normal 0 1 0
    outer loop
      vertex 51.5372 140 18.2503
      vertex 6.46277 140 18.2503
      vertex 6.94823 140 18.834
    endloop
  endfacet
  facet normal 0 1 0
    outer loop
      vertex 52.0072 140 17.6541
      vertex 6.46277 140 18.2503
      vertex 51.5372 140 18.2503
    endloop
  endfacet
  facet normal 0 1 0
    outer loop
      vertex 52.0072 140 17.6541
      vertex 5.99275 140 17.6541
      vertex 6.46277 140 18.2503
    endloop
  endfacet
  facet normal 0 1 0
    outer loop
      vertex 52.4615 140 17.0458
      vertex 5.99275 140 17.6541
      vertex 52.0072 140 17.6541
    endloop
  endfacet
  facet normal 0 1 0
    outer loop
      vertex 52.4615 140 17.0458
      vertex 5.53851 140 17.0458
      vertex 5.99275 140 17.6541
    endloop
  endfacet
  facet normal 0 1 0
    outer loop
      vertex 52.8997 140 16.4258
      vertex 5.53851 140 17.0458
      vertex 52.4615 140 17.0458
    endloop
  endfacet
  facet normal 0 1 0
    outer loop
      vertex 52.8997 140 16.4258
      vertex 5.10034 140 16.4258
      vertex 5.53851 140 17.0458
    endloop
  endfacet
  facet normal 0 1 0
    outer loop
      vertex 53.3214 140 15.7945
      vertex 5.10034 140 16.4258
      vertex 52.8997 140 16.4258
    endloop
  endfacet
  facet normal 0 1 0
    outer loop
      vertex 53.3214 140 15.7945
      vertex 4.67855 140 15.7945
      vertex 5.10034 140 16.4258
    endloop
  endfacet
  facet normal 0 1 0
    outer loop
      vertex 53.7266 140 15.1525
      vertex 4.67855 140 15.7945
      vertex 53.3214 140 15.7945
    endloop
  endfacet
  facet normal 0 1 0
    outer loop
      vertex 53.7266 140 15.1525
      vertex 4.27343 140 15.1525
      vertex 4.67855 140 15.7945
    endloop
  endfacet
  facet normal 0 1 0
    outer loop
      vertex 54.1147 140 14.5
      vertex 4.27343 140 15.1525
      vertex 53.7266 140 15.1525
    endloop
  endfacet
  facet normal 0 1 0
    outer loop
      vertex 54.1147 140 14.5
      vertex 3.88526 140 14.5
      vertex 4.27343 140 15.1525
    endloop
  endfacet
  facet normal 0 1 0
    outer loop
      vertex 54.4857 140 13.8376
      vertex 3.88526 140 14.5
      vertex 54.1147 140 14.5
    endloop
  endfacet
  facet normal 0 1 0
    outer loop
      vertex 54.4857 140 13.8376
      vertex 3.5143 140 13.8376
      vertex 3.88526 140 14.5
    endloop
  endfacet
  facet normal 0 1 0
    outer loop
      vertex 54.8392 140 13.1657
      vertex 3.5143 140 13.8376
      vertex 54.4857 140 13.8376
    endloop
  endfacet
  facet normal 0 1 0
    outer loop
      vertex 54.8392 140 13.1657
      vertex 3.16081 140 13.1657
      vertex 3.5143 140 13.8376
    endloop
  endfacet
  facet normal 0 1 0
    outer loop
      vertex 55.175 140 12.4848
      vertex 3.16081 140 13.1657
      vertex 54.8392 140 13.1657
    endloop
  endfacet
  facet normal 0 1 0
    outer loop
      vertex 55.175 140 12.4848
      vertex 2.82503 140 12.4848
      vertex 3.16081 140 13.1657
    endloop
  endfacet
  facet normal 0 1 0
    outer loop
      vertex 55.4928 140 11.7954
      vertex 2.82503 140 12.4848
      vertex 55.175 140 12.4848
    endloop
  endfacet
  facet normal 0 1 0
    outer loop
      vertex 55.4928 140 11.7954
      vertex 2.50718 140 11.7954
      vertex 2.82503 140 12.4848
    endloop
  endfacet
  facet normal 0 1 0
    outer loop
      vertex 55.7925 140 11.0978
      vertex 2.50718 140 11.7954
      vertex 55.4928 140 11.7954
    endloop
  endfacet
  facet normal 0 1 0
    outer loop
      vertex 55.7925 140 11.0978
      vertex 2.20749 140 11.0978
      vertex 2.50718 140 11.7954
    endloop
  endfacet
  facet normal 0 1 0
    outer loop
      vertex 56.0738 140 10.3927
      vertex 2.20749 140 11.0978
      vertex 55.7925 140 11.0978
    endloop
  endfacet
  facet normal 0 1 0
    outer loop
      vertex 56.0738 140 10.3927
      vertex 1.92617 140 10.3927
      vertex 2.20749 140 11.0978
    endloop
  endfacet
  facet normal 0 1 0
    outer loop
      vertex 56.3366 140 9.6804
      vertex 1.92617 140 10.3927
      vertex 56.0738 140 10.3927
    endloop
  endfacet
  facet normal 0 1 0
    outer loop
      vertex 56.3366 140 9.6804
      vertex 1.6634 140 9.6804
      vertex 1.92617 140 10.3927
    endloop
  endfacet
  facet normal 0 1 0
    outer loop
      vertex 56.5806 140 8.96149
      vertex 1.6634 140 9.6804
      vertex 56.3366 140 9.6804
    endloop
  endfacet
  facet normal 0 1 0
    outer loop
      vertex 56.5806 140 8.96149
      vertex 1.41936 140 8.96149
      vertex 1.6634 140 9.6804
    endloop
  endfacet
  facet normal 0 1 0
    outer loop
      vertex 56.8058 140 8.23644
      vertex 1.41936 140 8.96149
      vertex 56.5806 140 8.96149
    endloop
  endfacet
  facet normal 0 1 0
    outer loop
      vertex 56.8058 140 8.23644
      vertex 1.19423 140 8.23644
      vertex 1.41936 140 8.96149
    endloop
  endfacet
  facet normal 0 1 0
    outer loop
      vertex 57.0118 140 7.50575
      vertex 1.19423 140 8.23644
      vertex 56.8058 140 8.23644
    endloop
  endfacet
  facet normal 0 1 0
    outer loop
      vertex 57.0118 140 7.50575
      vertex 0.988151 140 7.50575
      vertex 1.19423 140 8.23644
    endloop
  endfacet
  facet normal 0 1 0
    outer loop
      vertex 57.1987 140 6.76991
      vertex 0.988151 140 7.50575
      vertex 57.0118 140 7.50575
    endloop
  endfacet
  facet normal 0 1 0
    outer loop
      vertex 57.1987 140 6.76991
      vertex 0.801271 140 6.76991
      vertex 0.988151 140 7.50575
    endloop
  endfacet
  facet normal 0 1 0
    outer loop
      vertex 57.3663 140 6.02944
      vertex 0.801271 140 6.76991
      vertex 57.1987 140 6.76991
    endloop
  endfacet
  facet normal 0 1 0
    outer loop
      vertex 57.3663 140 6.02944
      vertex 0.633719 140 6.02944
      vertex 0.801271 140 6.76991
    endloop
  endfacet
  facet normal 0 1 0
    outer loop
      vertex 57.5144 140 5.28483
      vertex 0.633719 140 6.02944
      vertex 57.3663 140 6.02944
    endloop
  endfacet
  facet normal 0 1 0
    outer loop
      vertex 57.5144 140 5.28483
      vertex 0.485607 140 5.28483
      vertex 0.633719 140 6.02944
    endloop
  endfacet
  facet normal 0 1 0
    outer loop
      vertex 57.643 140 4.5366
      vertex 0.485607 140 5.28483
      vertex 57.5144 140 5.28483
    endloop
  endfacet
  facet normal 0 1 0
    outer loop
      vertex 57.643 140 4.5366
      vertex 0.357038 140 4.5366
      vertex 0.485607 140 5.28483
    endloop
  endfacet
  facet normal 0 1 0
    outer loop
      vertex 57.7519 140 3.78526
      vertex 0.357038 140 4.5366
      vertex 57.643 140 4.5366
    endloop
  endfacet
  facet normal 0 1 0
    outer loop
      vertex 57.7519 140 3.78526
      vertex 0.248098 140 3.78526
      vertex 0.357038 140 4.5366
    endloop
  endfacet
  facet normal 0 1 0
    outer loop
      vertex 57.8411 140 3.03133
      vertex 0.248098 140 3.78526
      vertex 57.7519 140 3.78526
    endloop
  endfacet
  facet normal 0 1 0
    outer loop
      vertex 57.8411 140 3.03133
      vertex 0.158865 140 3.03133
      vertex 0.248098 140 3.78526
    endloop
  endfacet
  facet normal 0 1 0
    outer loop
      vertex 57.9106 140 2.27531
      vertex 0.158865 140 3.03133
      vertex 57.8411 140 3.03133
    endloop
  endfacet
  facet normal 0 1 0
    outer loop
      vertex 57.9106 140 2.27531
      vertex 0.0893965 140 2.27531
      vertex 0.158865 140 3.03133
    endloop
  endfacet
  facet normal 0 1 0
    outer loop
      vertex 57.9603 140 1.51774
      vertex 0.0893965 140 2.27531
      vertex 57.9106 140 2.27531
    endloop
  endfacet
  facet normal 0 1 0
    outer loop
      vertex 57.9603 140 1.51774
      vertex 0.0397434 140 1.51774
      vertex 0.0893965 140 2.27531
    endloop
  endfacet
  facet normal 0 1 0
    outer loop
      vertex 57.9901 140 0.759131
      vertex 0.0397434 140 1.51774
      vertex 57.9603 140 1.51774
    endloop
  endfacet
  facet normal 0 1 0
    outer loop
      vertex 57.9901 140 0.759131
      vertex 0.00993729 140 0.759131
      vertex 0.0397434 140 1.51774
    endloop
  endfacet
  facet normal 0 1 0
    outer loop
      vertex 58 140 0
      vertex 0.00993729 140 0.759131
      vertex 57.9901 140 0.759131
    endloop
  endfacet
  facet normal 0 1 0
    outer loop
      vertex 0.00993729 140 0.759131
      vertex 58 140 0
      vertex 0 140 0
    endloop
  endfacet
  facet normal -0.768842 0 0.639439
    outer loop
      vertex 6.46277 0 18.2503
      vertex 6.94823 140 18.834
      vertex 6.46277 140 18.2503
    endloop
  endfacet
  facet normal -0.768842 0 0.639439
    outer loop
      vertex 6.94823 140 18.834
      vertex 6.46277 0 18.2503
      vertex 6.94823 0 18.834
    endloop
  endfacet
  facet normal -0.83147 0 0.55557
    outer loop
      vertex 4.67855 0 15.7945
      vertex 5.10034 140 16.4258
      vertex 4.67855 140 15.7945
    endloop
  endfacet
  facet normal -0.83147 0 0.55557
    outer loop
      vertex 5.10034 140 16.4258
      vertex 4.67855 0 15.7945
      vertex 5.10034 0 16.4258
    endloop
  endfacet
  facet normal -0.859407 3.48291e-09 0.511293
    outer loop
      vertex 3.88526 140 14.5
      vertex 3.88526 0 14.5
      vertex 4.27343 140 15.1525
    endloop
  endfacet
  facet normal -0.92881 0 0.370556
    outer loop
      vertex 1.92617 0 10.3927
      vertex 2.20749 140 11.0978
      vertex 1.92617 140 10.3927
    endloop
  endfacet
  facet normal -0.92881 0 0.370556
    outer loop
      vertex 2.20749 140 11.0978
      vertex 1.92617 0 10.3927
      vertex 2.20749 0 11.0978
    endloop
  endfacet
  facet normal -0.918791 0 0.394744
    outer loop
      vertex 2.20749 0 11.0978
      vertex 2.50718 140 11.7954
      vertex 2.20749 140 11.0978
    endloop
  endfacet
  facet normal -0.918791 0 0.394744
    outer loop
      vertex 2.50718 140 11.7954
      vertex 2.20749 0 11.0978
      vertex 2.50718 0 11.7954
    endloop
  endfacet
  facet normal -0.94693 0 0.32144
    outer loop
      vertex 1.41936 0 8.96149
      vertex 1.6634 140 9.6804
      vertex 1.41936 140 8.96149
    endloop
  endfacet
  facet normal -0.94693 0 0.32144
    outer loop
      vertex 1.6634 140 9.6804
      vertex 1.41936 0 8.96149
      vertex 1.6634 0 9.6804
    endloop
  endfacet
  facet normal -0.969231 0 0.246154
    outer loop
      vertex 0.801271 0 6.76991
      vertex 0.988151 140 7.50575
      vertex 0.801271 140 6.76991
    endloop
  endfacet
  facet normal -0.969231 0 0.246154
    outer loop
      vertex 0.988151 140 7.50575
      vertex 0.801271 0 6.76991
      vertex 0.988151 0 7.50575
    endloop
  endfacet
  facet normal -0.980785 0 0.195091
    outer loop
      vertex 0.485607 0 5.28483
      vertex 0.633719 140 6.02944
      vertex 0.485607 140 5.28483
    endloop
  endfacet
  facet normal -0.980785 0 0.195091
    outer loop
      vertex 0.633719 140 6.02944
      vertex 0.485607 0 5.28483
      vertex 0.633719 0 6.02944
    endloop
  endfacet
  facet normal -0.989651 0 0.143493
    outer loop
      vertex 0.248098 0 3.78526
      vertex 0.357038 140 4.5366
      vertex 0.248098 140 3.78526
    endloop
  endfacet
  facet normal -0.989651 0 0.143493
    outer loop
      vertex 0.357038 140 4.5366
      vertex 0.248098 0 3.78526
      vertex 0.357038 0 4.5366
    endloop
  endfacet
  facet normal 0 -1 0
    outer loop
      vertex 28.2409 0 28.9901
      vertex 29.7591 0 28.9901
      vertex 29 0 29
    endloop
  endfacet
  facet normal 0 -1 0
    outer loop
      vertex 27.4823 0 28.9603
      vertex 29.7591 0 28.9901
      vertex 28.2409 0 28.9901
    endloop
  endfacet
  facet normal 0 -1 0
    outer loop
      vertex 27.4823 0 28.9603
      vertex 30.5177 0 28.9603
      vertex 29.7591 0 28.9901
    endloop
  endfacet
  facet normal 0 -1 0
    outer loop
      vertex 26.7247 0 28.9106
      vertex 30.5177 0 28.9603
      vertex 27.4823 0 28.9603
    endloop
  endfacet
  facet normal 0 -1 0
    outer loop
      vertex 26.7247 0 28.9106
      vertex 31.2753 0 28.9106
      vertex 30.5177 0 28.9603
    endloop
  endfacet
  facet normal 0 -1 0
    outer loop
      vertex 25.9687 0 28.8411
      vertex 31.2753 0 28.9106
      vertex 26.7247 0 28.9106
    endloop
  endfacet
  facet normal 0 -1 0
    outer loop
      vertex 25.9687 0 28.8411
      vertex 32.0313 0 28.8411
      vertex 31.2753 0 28.9106
    endloop
  endfacet
  facet normal 0 -1 0
    outer loop
      vertex 25.2147 0 28.7519
      vertex 32.0313 0 28.8411
      vertex 25.9687 0 28.8411
    endloop
  endfacet
  facet normal 0 -1 0
    outer loop
      vertex 25.2147 0 28.7519
      vertex 32.7853 0 28.7519
      vertex 32.0313 0 28.8411
    endloop
  endfacet
  facet normal 0 -1 0
    outer loop
      vertex 24.4634 0 28.643
      vertex 32.7853 0 28.7519
      vertex 25.2147 0 28.7519
    endloop
  endfacet
  facet normal 0 -1 0
    outer loop
      vertex 24.4634 0 28.643
      vertex 33.5366 0 28.643
      vertex 32.7853 0 28.7519
    endloop
  endfacet
  facet normal 0 -1 0
    outer loop
      vertex 23.7152 0 28.5144
      vertex 33.5366 0 28.643
      vertex 24.4634 0 28.643
    endloop
  endfacet
  facet normal 0 -1 0
    outer loop
      vertex 23.7152 0 28.5144
      vertex 34.2848 0 28.5144
      vertex 33.5366 0 28.643
    endloop
  endfacet
  facet normal 0 -1 0
    outer loop
      vertex 22.9706 0 28.3663
      vertex 34.2848 0 28.5144
      vertex 23.7152 0 28.5144
    endloop
  endfacet
  facet normal 0 -1 0
    outer loop
      vertex 22.9706 0 28.3663
      vertex 35.0294 0 28.3663
      vertex 34.2848 0 28.5144
    endloop
  endfacet
  facet normal 0 -1 0
    outer loop
      vertex 22.2301 0 28.1987
      vertex 35.0294 0 28.3663
      vertex 22.9706 0 28.3663
    endloop
  endfacet
  facet normal 0 -1 0
    outer loop
      vertex 22.2301 0 28.1987
      vertex 35.7699 0 28.1987
      vertex 35.0294 0 28.3663
    endloop
  endfacet
  facet normal 0 -1 0
    outer loop
      vertex 21.4942 0 28.0118
      vertex 35.7699 0 28.1987
      vertex 22.2301 0 28.1987
    endloop
  endfacet
  facet normal 0 -1 0
    outer loop
      vertex 21.4942 0 28.0118
      vertex 36.5058 0 28.0118
      vertex 35.7699 0 28.1987
    endloop
  endfacet
  facet normal 0 -1 0
    outer loop
      vertex 20.7636 0 27.8058
      vertex 36.5058 0 28.0118
      vertex 21.4942 0 28.0118
    endloop
  endfacet
  facet normal 0 -1 0
    outer loop
      vertex 20.7636 0 27.8058
      vertex 37.2364 0 27.8058
      vertex 36.5058 0 28.0118
    endloop
  endfacet
  facet normal 0 -1 0
    outer loop
      vertex 20.0385 0 27.5806
      vertex 37.2364 0 27.8058
      vertex 20.7636 0 27.8058
    endloop
  endfacet
  facet normal 0 -1 0
    outer loop
      vertex 20.0385 0 27.5806
      vertex 37.9615 0 27.5806
      vertex 37.2364 0 27.8058
    endloop
  endfacet
  facet normal 0 -1 0
    outer loop
      vertex 19.3196 0 27.3366
      vertex 37.9615 0 27.5806
      vertex 20.0385 0 27.5806
    endloop
  endfacet
  facet normal 0 -1 0
    outer loop
      vertex 19.3196 0 27.3366
      vertex 38.6804 0 27.3366
      vertex 37.9615 0 27.5806
    endloop
  endfacet
  facet normal 0 -1 0
    outer loop
      vertex 18.6073 0 27.0738
      vertex 38.6804 0 27.3366
      vertex 19.3196 0 27.3366
    endloop
  endfacet
  facet normal 0 -1 0
    outer loop
      vertex 18.6073 0 27.0738
      vertex 39.3927 0 27.0738
      vertex 38.6804 0 27.3366
    endloop
  endfacet
  facet normal 0 -1 0
    outer loop
      vertex 17.9022 0 26.7925
      vertex 39.3927 0 27.0738
      vertex 18.6073 0 27.0738
    endloop
  endfacet
  facet normal 0 -1 0
    outer loop
      vertex 17.9022 0 26.7925
      vertex 40.0978 0 26.7925
      vertex 39.3927 0 27.0738
    endloop
  endfacet
  facet normal 0 -1 0
    outer loop
      vertex 17.2046 0 26.4928
      vertex 40.0978 0 26.7925
      vertex 17.9022 0 26.7925
    endloop
  endfacet
  facet normal 0 -1 0
    outer loop
      vertex 17.2046 0 26.4928
      vertex 40.7954 0 26.4928
      vertex 40.0978 0 26.7925
    endloop
  endfacet
  facet normal 0 -1 0
    outer loop
      vertex 16.5152 0 26.175
      vertex 40.7954 0 26.4928
      vertex 17.2046 0 26.4928
    endloop
  endfacet
  facet normal 0 -1 0
    outer loop
      vertex 16.5152 0 26.175
      vertex 41.4848 0 26.175
      vertex 40.7954 0 26.4928
    endloop
  endfacet
  facet normal 0 -1 0
    outer loop
      vertex 15.8343 0 25.8392
      vertex 41.4848 0 26.175
      vertex 16.5152 0 26.175
    endloop
  endfacet
  facet normal 0 -1 0
    outer loop
      vertex 15.8343 0 25.8392
      vertex 42.1657 0 25.8392
      vertex 41.4848 0 26.175
    endloop
  endfacet
  facet normal 0 -1 0
    outer loop
      vertex 15.1624 0 25.4857
      vertex 42.1657 0 25.8392
      vertex 15.8343 0 25.8392
    endloop
  endfacet
  facet normal 0 -1 0
    outer loop
      vertex 15.1624 0 25.4857
      vertex 42.8376 0 25.4857
      vertex 42.1657 0 25.8392
    endloop
  endfacet
  facet normal 0 -1 0
    outer loop
      vertex 14.5 0 25.1147
      vertex 42.8376 0 25.4857
      vertex 15.1624 0 25.4857
    endloop
  endfacet
  facet normal 0 -1 0
    outer loop
      vertex 14.5 0 25.1147
      vertex 43.5 0 25.1147
      vertex 42.8376 0 25.4857
    endloop
  endfacet
  facet normal 0 -1 0
    outer loop
      vertex 13.8475 0 24.7266
      vertex 43.5 0 25.1147
      vertex 14.5 0 25.1147
    endloop
  endfacet
  facet normal 0 -1 0
    outer loop
      vertex 13.8475 0 24.7266
      vertex 44.1525 0 24.7266
      vertex 43.5 0 25.1147
    endloop
  endfacet
  facet normal 0 -1 0
    outer loop
      vertex 13.2055 0 24.3214
      vertex 44.1525 0 24.7266
      vertex 13.8475 0 24.7266
    endloop
  endfacet
  facet normal 0 -1 0
    outer loop
      vertex 13.2055 0 24.3214
      vertex 44.7945 0 24.3214
      vertex 44.1525 0 24.7266
    endloop
  endfacet
  facet normal 0 -1 0
    outer loop
      vertex 12.5742 0 23.8997
      vertex 44.7945 0 24.3214
      vertex 13.2055 0 24.3214
    endloop
  endfacet
  facet normal 0 -1 0
    outer loop
      vertex 12.5742 0 23.8997
      vertex 45.4258 0 23.8997
      vertex 44.7945 0 24.3214
    endloop
  endfacet
  facet normal 0 -1 0
    outer loop
      vertex 11.9542 0 23.4615
      vertex 45.4258 0 23.8997
      vertex 12.5742 0 23.8997
    endloop
  endfacet
  facet normal 0 -1 0
    outer loop
      vertex 11.9542 0 23.4615
      vertex 46.0458 0 23.4615
      vertex 45.4258 0 23.8997
    endloop
  endfacet
  facet normal 0 -1 0
    outer loop
      vertex 11.3459 0 23.0072
      vertex 46.0458 0 23.4615
      vertex 11.9542 0 23.4615
    endloop
  endfacet
  facet normal 0 -1 0
    outer loop
      vertex 11.3459 0 23.0072
      vertex 46.6541 0 23.0072
      vertex 46.0458 0 23.4615
    endloop
  endfacet
  facet normal 0 -1 0
    outer loop
      vertex 10.7497 0 22.5372
      vertex 46.6541 0 23.0072
      vertex 11.3459 0 23.0072
    endloop
  endfacet
  facet normal 0 -1 0
    outer loop
      vertex 10.7497 0 22.5372
      vertex 47.2503 0 22.5372
      vertex 46.6541 0 23.0072
    endloop
  endfacet
  facet normal 0 -1 0
    outer loop
      vertex 10.166 0 22.0518
      vertex 47.2503 0 22.5372
      vertex 10.7497 0 22.5372
    endloop
  endfacet
  facet normal 0 -1 0
    outer loop
      vertex 10.166 0 22.0518
      vertex 47.834 0 22.0518
      vertex 47.2503 0 22.5372
    endloop
  endfacet
  facet normal 0 -1 0
    outer loop
      vertex 9.59521 0 21.5512
      vertex 47.834 0 22.0518
      vertex 10.166 0 22.0518
    endloop
  endfacet
  facet normal 0 -1 0
    outer loop
      vertex 9.59521 0 21.5512
      vertex 48.4048 0 21.5512
      vertex 47.834 0 22.0518
    endloop
  endfacet
  facet normal 0 -1 0
    outer loop
      vertex 9.03772 0 21.0359
      vertex 48.4048 0 21.5512
      vertex 9.59521 0 21.5512
    endloop
  endfacet
  facet normal 0 -1 0
    outer loop
      vertex 9.03772 0 21.0359
      vertex 48.9623 0 21.0359
      vertex 48.4048 0 21.5512
    endloop
  endfacet
  facet normal 0 -1 0
    outer loop
      vertex 8.4939 0 20.5061
      vertex 48.9623 0 21.0359
      vertex 9.03772 0 21.0359
    endloop
  endfacet
  facet normal 0 -1 0
    outer loop
      vertex 8.4939 0 20.5061
      vertex 49.5061 0 20.5061
      vertex 48.9623 0 21.0359
    endloop
  endfacet
  facet normal 0 -1 0
    outer loop
      vertex 7.96414 0 19.9623
      vertex 49.5061 0 20.5061
      vertex 8.4939 0 20.5061
    endloop
  endfacet
  facet normal 0 -1 0
    outer loop
      vertex 7.96414 0 19.9623
      vertex 50.0359 0 19.9623
      vertex 49.5061 0 20.5061
    endloop
  endfacet
  facet normal 0 -1 0
    outer loop
      vertex 7.4488 0 19.4048
      vertex 50.0359 0 19.9623
      vertex 7.96414 0 19.9623
    endloop
  endfacet
  facet normal 0 -1 0
    outer loop
      vertex 7.4488 0 19.4048
      vertex 50.5512 0 19.4048
      vertex 50.0359 0 19.9623
    endloop
  endfacet
  facet normal 0 -1 0
    outer loop
      vertex 6.94823 0 18.834
      vertex 50.5512 0 19.4048
      vertex 7.4488 0 19.4048
    endloop
  endfacet
  facet normal 0 -1 0
    outer loop
      vertex 6.94823 0 18.834
      vertex 51.0518 0 18.834
      vertex 50.5512 0 19.4048
    endloop
  endfacet
  facet normal 0 -1 0
    outer loop
      vertex 6.46277 0 18.2503
      vertex 51.0518 0 18.834
      vertex 6.94823 0 18.834
    endloop
  endfacet
  facet normal 0 -1 0
    outer loop
      vertex 6.46277 0 18.2503
      vertex 51.5372 0 18.2503
      vertex 51.0518 0 18.834
    endloop
  endfacet
  facet normal 0 -1 0
    outer loop
      vertex 5.99275 0 17.6541
      vertex 51.5372 0 18.2503
      vertex 6.46277 0 18.2503
    endloop
  endfacet
  facet normal 0 -1 0
    outer loop
      vertex 5.99275 0 17.6541
      vertex 52.0072 0 17.6541
      vertex 51.5372 0 18.2503
    endloop
  endfacet
  facet normal 0 -1 0
    outer loop
      vertex 5.53851 0 17.0458
      vertex 52.0072 0 17.6541
      vertex 5.99275 0 17.6541
    endloop
  endfacet
  facet normal 0 -1 0
    outer loop
      vertex 5.53851 0 17.0458
      vertex 52.4615 0 17.0458
      vertex 52.0072 0 17.6541
    endloop
  endfacet
  facet normal 0 -1 0
    outer loop
      vertex 5.10034 0 16.4258
      vertex 52.4615 0 17.0458
      vertex 5.53851 0 17.0458
    endloop
  endfacet
  facet normal 0 -1 0
    outer loop
      vertex 5.10034 0 16.4258
      vertex 52.8997 0 16.4258
      vertex 52.4615 0 17.0458
    endloop
  endfacet
  facet normal 0 -1 0
    outer loop
      vertex 4.67855 0 15.7945
      vertex 52.8997 0 16.4258
      vertex 5.10034 0 16.4258
    endloop
  endfacet
  facet normal 0 -1 0
    outer loop
      vertex 4.67855 0 15.7945
      vertex 53.3214 0 15.7945
      vertex 52.8997 0 16.4258
    endloop
  endfacet
  facet normal 0 -1 0
    outer loop
      vertex 4.27343 0 15.1525
      vertex 53.3214 0 15.7945
      vertex 4.67855 0 15.7945
    endloop
  endfacet
  facet normal 0 -1 0
    outer loop
      vertex 4.27343 0 15.1525
      vertex 53.7266 0 15.1525
      vertex 53.3214 0 15.7945
    endloop
  endfacet
  facet normal 0 -1 0
    outer loop
      vertex 3.88526 0 14.5
      vertex 53.7266 0 15.1525
      vertex 4.27343 0 15.1525
    endloop
  endfacet
  facet normal 0 -1 0
    outer loop
      vertex 3.88526 0 14.5
      vertex 54.1147 0 14.5
      vertex 53.7266 0 15.1525
    endloop
  endfacet
  facet normal 0 -1 0
    outer loop
      vertex 3.5143 0 13.8376
      vertex 54.1147 0 14.5
      vertex 3.88526 0 14.5
    endloop
  endfacet
  facet normal 0 -1 0
    outer loop
      vertex 3.5143 0 13.8376
      vertex 54.4857 0 13.8376
      vertex 54.1147 0 14.5
    endloop
  endfacet
  facet normal 0 -1 0
    outer loop
      vertex 3.16081 0 13.1657
      vertex 54.4857 0 13.8376
      vertex 3.5143 0 13.8376
    endloop
  endfacet
  facet normal 0 -1 0
    outer loop
      vertex 3.16081 0 13.1657
      vertex 54.8392 0 13.1657
      vertex 54.4857 0 13.8376
    endloop
  endfacet
  facet normal 0 -1 0
    outer loop
      vertex 2.82503 0 12.4848
      vertex 54.8392 0 13.1657
      vertex 3.16081 0 13.1657
    endloop
  endfacet
  facet normal 0 -1 0
    outer loop
      vertex 2.82503 0 12.4848
      vertex 55.175 0 12.4848
      vertex 54.8392 0 13.1657
    endloop
  endfacet
  facet normal 0 -1 0
    outer loop
      vertex 2.50718 0 11.7954
      vertex 55.175 0 12.4848
      vertex 2.82503 0 12.4848
    endloop
  endfacet
  facet normal 0 -1 0
    outer loop
      vertex 2.50718 0 11.7954
      vertex 55.4928 0 11.7954
      vertex 55.175 0 12.4848
    endloop
  endfacet
  facet normal 0 -1 0
    outer loop
      vertex 2.20749 0 11.0978
      vertex 55.4928 0 11.7954
      vertex 2.50718 0 11.7954
    endloop
  endfacet
  facet normal 0 -1 0
    outer loop
      vertex 2.20749 0 11.0978
      vertex 55.7925 0 11.0978
      vertex 55.4928 0 11.7954
    endloop
  endfacet
  facet normal 0 -1 0
    outer loop
      vertex 1.92617 0 10.3927
      vertex 55.7925 0 11.0978
      vertex 2.20749 0 11.0978
    endloop
  endfacet
  facet normal 0 -1 0
    outer loop
      vertex 1.92617 0 10.3927
      vertex 56.0738 0 10.3927
      vertex 55.7925 0 11.0978
    endloop
  endfacet
  facet normal 0 -1 0
    outer loop
      vertex 1.6634 0 9.6804
      vertex 56.0738 0 10.3927
      vertex 1.92617 0 10.3927
    endloop
  endfacet
  facet normal 0 -1 0
    outer loop
      vertex 1.6634 0 9.6804
      vertex 56.3366 0 9.6804
      vertex 56.0738 0 10.3927
    endloop
  endfacet
  facet normal 0 -1 0
    outer loop
      vertex 1.41936 0 8.96149
      vertex 56.3366 0 9.6804
      vertex 1.6634 0 9.6804
    endloop
  endfacet
  facet normal 0 -1 0
    outer loop
      vertex 1.41936 0 8.96149
      vertex 56.5806 0 8.96149
      vertex 56.3366 0 9.6804
    endloop
  endfacet
  facet normal 0 -1 0
    outer loop
      vertex 1.19423 0 8.23644
      vertex 56.5806 0 8.96149
      vertex 1.41936 0 8.96149
    endloop
  endfacet
  facet normal 0 -1 0
    outer loop
      vertex 1.19423 0 8.23644
      vertex 56.8058 0 8.23644
      vertex 56.5806 0 8.96149
    endloop
  endfacet
  facet normal 0 -1 0
    outer loop
      vertex 0.988151 0 7.50575
      vertex 56.8058 0 8.23644
      vertex 1.19423 0 8.23644
    endloop
  endfacet
  facet normal 0 -1 0
    outer loop
      vertex 0.988151 0 7.50575
      vertex 57.0118 0 7.50575
      vertex 56.8058 0 8.23644
    endloop
  endfacet
  facet normal 0 -1 0
    outer loop
      vertex 0.801271 0 6.76991
      vertex 57.0118 0 7.50575
      vertex 0.988151 0 7.50575
    endloop
  endfacet
  facet normal 0 -1 0
    outer loop
      vertex 0.801271 0 6.76991
      vertex 57.1987 0 6.76991
      vertex 57.0118 0 7.50575
    endloop
  endfacet
  facet normal 0 -1 0
    outer loop
      vertex 0.633719 0 6.02944
      vertex 57.1987 0 6.76991
      vertex 0.801271 0 6.76991
    endloop
  endfacet
  facet normal 0 -1 0
    outer loop
      vertex 0.633719 0 6.02944
      vertex 57.3663 0 6.02944
      vertex 57.1987 0 6.76991
    endloop
  endfacet
  facet normal 0 -1 0
    outer loop
      vertex 0.485607 0 5.28483
      vertex 57.3663 0 6.02944
      vertex 0.633719 0 6.02944
    endloop
  endfacet
  facet normal 0 -1 0
    outer loop
      vertex 0.485607 0 5.28483
      vertex 57.5144 0 5.28483
      vertex 57.3663 0 6.02944
    endloop
  endfacet
  facet normal 0 -1 0
    outer loop
      vertex 0.357038 0 4.5366
      vertex 57.5144 0 5.28483
      vertex 0.485607 0 5.28483
    endloop
  endfacet
  facet normal 0 -1 0
    outer loop
      vertex 0.357038 0 4.5366
      vertex 57.643 0 4.5366
      vertex 57.5144 0 5.28483
    endloop
  endfacet
  facet normal 0 -1 0
    outer loop
      vertex 0.248098 0 3.78526
      vertex 57.643 0 4.5366
      vertex 0.357038 0 4.5366
    endloop
  endfacet
  facet normal 0 -1 0
    outer loop
      vertex 0.248098 0 3.78526
      vertex 57.7519 0 3.78526
      vertex 57.643 0 4.5366
    endloop
  endfacet
  facet normal 0 -1 0
    outer loop
      vertex 0.158865 0 3.03133
      vertex 57.7519 0 3.78526
      vertex 0.248098 0 3.78526
    endloop
  endfacet
  facet normal 0 -1 0
    outer loop
      vertex 0.158865 0 3.03133
      vertex 57.8411 0 3.03133
      vertex 57.7519 0 3.78526
    endloop
  endfacet
  facet normal 0 -1 0
    outer loop
      vertex 0.0893965 0 2.27531
      vertex 57.8411 0 3.03133
      vertex 0.158865 0 3.03133
    endloop
  endfacet
  facet normal 0 -1 0
    outer loop
      vertex 0.0893965 0 2.27531
      vertex 57.9106 0 2.27531
      vertex 57.8411 0 3.03133
    endloop
  endfacet
  facet normal 0 -1 0
    outer loop
      vertex 0.0397434 0 1.51774
      vertex 57.9106 0 2.27531
      vertex 0.0893965 0 2.27531
    endloop
  endfacet
  facet normal 0 -1 0
    outer loop
      vertex 0.0397434 0 1.51774
      vertex 57.9603 0 1.51774
      vertex 57.9106 0 2.27531
    endloop
  endfacet
  facet normal 0 -1 0
    outer loop
      vertex 0.00993729 0 0.759131
      vertex 57.9603 0 1.51774
      vertex 0.0397434 0 1.51774
    endloop
  endfacet
  facet normal 0 -1 0
    outer loop
      vertex 0.00993729 0 0.759131
      vertex 57.9901 0 0.759131
      vertex 57.9603 0 1.51774
    endloop
  endfacet
  facet normal 0 -1 0
    outer loop
      vertex 0 0 0
      vertex 57.9901 0 0.759131
      vertex 0.00993729 0 0.759131
    endloop
  endfacet
  facet normal 0 -1 -0
    outer loop
      vertex 57.9901 0 0.759131
      vertex 0 0 0
      vertex 58 0 0
    endloop
  endfacet
  facet normal -0.659345 0 0.75184
    outer loop
      vertex 9.59521 140 21.5512
      vertex 10.166 0 22.0518
      vertex 10.166 140 22.0518
    endloop
  endfacet
  facet normal -0.659345 0 0.75184
    outer loop
      vertex 10.166 0 22.0518
      vertex 9.59521 140 21.5512
      vertex 9.59521 0 21.5512
    endloop
  endfacet
  facet normal -0.533615 0 0.845727
    outer loop
      vertex 13.2055 140 24.3214
      vertex 13.8475 0 24.7266
      vertex 13.8475 140 24.7266
    endloop
  endfacet
  facet normal -0.533615 0 0.845727
    outer loop
      vertex 13.8475 0 24.7266
      vertex 13.2055 140 24.3214
      vertex 13.2055 0 24.3214
    endloop
  endfacet
  facet normal -0.394746 0 0.91879
    outer loop
      vertex 17.2046 140 26.4928
      vertex 17.9022 0 26.7925
      vertex 17.9022 140 26.7925
    endloop
  endfacet
  facet normal -0.394746 0 0.91879
    outer loop
      vertex 17.9022 0 26.7925
      vertex 17.2046 140 26.4928
      vertex 17.2046 0 26.4928
    endloop
  endfacet
  facet normal -0.32144 0 0.94693
    outer loop
      vertex 19.3196 140 27.3366
      vertex 20.0385 0 27.5806
      vertex 20.0385 140 27.5806
    endloop
  endfacet
  facet normal -0.32144 0 0.94693
    outer loop
      vertex 20.0385 0 27.5806
      vertex 19.3196 140 27.3366
      vertex 19.3196 0 27.3366
    endloop
  endfacet
  facet normal -0.271441 0 0.962455
    outer loop
      vertex 20.7636 140 27.8058
      vertex 21.4942 0 28.0118
      vertex 21.4942 140 28.0118
    endloop
  endfacet
  facet normal -0.271441 0 0.962455
    outer loop
      vertex 21.4942 0 28.0118
      vertex 20.7636 140 27.8058
      vertex 20.7636 0 27.8058
    endloop
  endfacet
  facet normal -0.220698 0 0.975342
    outer loop
      vertex 22.2301 140 28.1987
      vertex 22.9706 0 28.3663
      vertex 22.9706 140 28.3663
    endloop
  endfacet
  facet normal -0.220698 0 0.975342
    outer loop
      vertex 22.9706 0 28.3663
      vertex 22.2301 140 28.1987
      vertex 22.2301 0 28.1987
    endloop
  endfacet
  facet normal -0.143491 0 0.989652
    outer loop
      vertex 24.4634 140 28.643
      vertex 25.2147 0 28.7519
      vertex 25.2147 140 28.7519
    endloop
  endfacet
  facet normal -0.143491 0 0.989652
    outer loop
      vertex 25.2147 0 28.7519
      vertex 24.4634 140 28.643
      vertex 24.4634 0 28.643
    endloop
  endfacet
  facet normal -0.169348 0 0.985556
    outer loop
      vertex 23.7152 140 28.5144
      vertex 24.4634 0 28.643
      vertex 24.4634 140 28.643
    endloop
  endfacet
  facet normal -0.169348 0 0.985556
    outer loop
      vertex 24.4634 0 28.643
      vertex 23.7152 140 28.5144
      vertex 23.7152 0 28.5144
    endloop
  endfacet
  facet normal -0.0392627 0 0.999229
    outer loop
      vertex 27.4823 140 28.9603
      vertex 28.2409 0 28.9901
      vertex 28.2409 140 28.9901
    endloop
  endfacet
  facet normal -0.0392627 0 0.999229
    outer loop
      vertex 28.2409 0 28.9901
      vertex 27.4823 140 28.9603
      vertex 27.4823 0 28.9603
    endloop
  endfacet
  facet normal 0.995805 -0 0.0915039
    outer loop
      vertex 57.8411 0 3.03133
      vertex 57.9106 140 2.27531
      vertex 57.8411 140 3.03133
    endloop
  endfacet
  facet normal 0.995805 0 0.0915039
    outer loop
      vertex 57.9106 140 2.27531
      vertex 57.8411 0 3.03133
      vertex 57.9106 0 2.27531
    endloop
  endfacet
  facet normal 0.980785 -0 0.195092
    outer loop
      vertex 57.3663 0 6.02944
      vertex 57.5144 140 5.28483
      vertex 57.3663 140 6.02944
    endloop
  endfacet
  facet normal 0.980785 0 0.195092
    outer loop
      vertex 57.5144 140 5.28483
      vertex 57.3663 0 6.02944
      vertex 57.5144 0 5.28483
    endloop
  endfacet
  facet normal 0.928811 -0 0.370553
    outer loop
      vertex 55.7925 0 11.0978
      vertex 56.0738 140 10.3927
      vertex 55.7925 140 11.0978
    endloop
  endfacet
  facet normal 0.928811 0 0.370553
    outer loop
      vertex 56.0738 140 10.3927
      vertex 55.7925 0 11.0978
      vertex 56.0738 0 10.3927
    endloop
  endfacet
  facet normal 0.969231 -0 0.246153
    outer loop
      vertex 57.0118 0 7.50575
      vertex 57.1987 140 6.76991
      vertex 57.0118 140 7.50575
    endloop
  endfacet
  facet normal 0.969231 0 0.246153
    outer loop
      vertex 57.1987 140 6.76991
      vertex 57.0118 0 7.50575
      vertex 57.1987 0 6.76991
    endloop
  endfacet
  facet normal 0.962455 -0 0.271442
    outer loop
      vertex 56.8058 0 8.23644
      vertex 57.0118 140 7.50575
      vertex 56.8058 140 8.23644
    endloop
  endfacet
  facet normal 0.962455 0 0.271442
    outer loop
      vertex 57.0118 140 7.50575
      vertex 56.8058 0 8.23644
      vertex 57.0118 0 7.50575
    endloop
  endfacet
  facet normal 0.7163 -0 0.697792
    outer loop
      vertex 49.5061 0 20.5061
      vertex 50.0359 140 19.9623
      vertex 49.5061 140 20.5061
    endloop
  endfacet
  facet normal 0.7163 0 0.697792
    outer loop
      vertex 50.0359 140 19.9623
      vertex 49.5061 0 20.5061
      vertex 50.0359 0 19.9623
    endloop
  endfacet
  facet normal 0.816643 -0 0.577143
    outer loop
      vertex 52.4615 0 17.0458
      vertex 52.8997 140 16.4258
      vertex 52.4615 140 17.0458
    endloop
  endfacet
  facet normal 0.816643 0 0.577143
    outer loop
      vertex 52.8997 140 16.4258
      vertex 52.4615 0 17.0458
      vertex 52.8997 0 16.4258
    endloop
  endfacet
  facet normal 0.785315 -0 0.619097
    outer loop
      vertex 51.5372 0 18.2503
      vertex 52.0072 140 17.6541
      vertex 51.5372 140 18.2503
    endloop
  endfacet
  facet normal 0.785315 0 0.619097
    outer loop
      vertex 52.0072 140 17.6541
      vertex 51.5372 0 18.2503
      vertex 52.0072 0 17.6541
    endloop
  endfacet
  facet normal 0.768843 -0 0.639438
    outer loop
      vertex 51.0518 0 18.834
      vertex 51.5372 140 18.2503
      vertex 51.0518 140 18.834
    endloop
  endfacet
  facet normal 0.768843 0 0.639438
    outer loop
      vertex 51.5372 140 18.2503
      vertex 51.0518 0 18.834
      vertex 51.5372 0 18.2503
    endloop
  endfacet
  facet normal 0.872498 3.32845e-09 0.488618
    outer loop
      vertex 54.1147 140 14.5
      vertex 54.1147 0 14.5
      vertex 54.4857 140 13.8376
    endloop
  endfacet
  facet normal 0.896872 -0 0.44229
    outer loop
      vertex 54.8392 0 13.1657
      vertex 55.175 140 12.4848
      vertex 54.8392 140 13.1657
    endloop
  endfacet
  facet normal 0.896872 0 0.44229
    outer loop
      vertex 55.175 140 12.4848
      vertex 54.8392 0 13.1657
      vertex 55.175 0 12.4848
    endloop
  endfacet
  facet normal 0.845729 -0 0.533613
    outer loop
      vertex 53.3214 0 15.7945
      vertex 53.7266 140 15.1525
      vertex 53.3214 140 15.7945
    endloop
  endfacet
  facet normal 0.845729 0 0.533613
    outer loop
      vertex 53.7266 140 15.1525
      vertex 53.3214 0 15.7945
      vertex 53.7266 0 15.1525
    endloop
  endfacet
  facet normal 0.859404 0 0.511297
    outer loop
      vertex 53.7266 140 15.1525
      vertex 53.7266 0 15.1525
      vertex 54.1147 0 14.5
    endloop
  endfacet
  facet normal 0.859404 3.48293e-09 0.511297
    outer loop
      vertex 54.1147 140 14.5
      vertex 53.7266 140 15.1525
      vertex 54.1147 0 14.5
    endloop
  endfacet
  facet normal 0.296538 0 0.955021
    outer loop
      vertex 37.2364 140 27.8058
      vertex 37.9615 0 27.5806
      vertex 37.9615 140 27.5806
    endloop
  endfacet
  facet normal 0.296538 0 0.955021
    outer loop
      vertex 37.9615 0 27.5806
      vertex 37.2364 140 27.8058
      vertex 37.2364 0 27.8058
    endloop
  endfacet
  facet normal 0.321441 0 0.94693
    outer loop
      vertex 37.9615 140 27.5806
      vertex 38.6804 0 27.3366
      vertex 38.6804 140 27.3366
    endloop
  endfacet
  facet normal 0.321441 0 0.94693
    outer loop
      vertex 38.6804 0 27.3366
      vertex 37.9615 140 27.5806
      vertex 37.9615 0 27.5806
    endloop
  endfacet
  facet normal 0.195092 0 0.980785
    outer loop
      vertex 34.2848 140 28.5144
      vertex 35.0294 0 28.3663
      vertex 35.0294 140 28.3663
    endloop
  endfacet
  facet normal 0.195092 0 0.980785
    outer loop
      vertex 35.0294 0 28.3663
      vertex 34.2848 140 28.5144
      vertex 34.2848 0 28.5144
    endloop
  endfacet
  facet normal 0.117537 0 0.993069
    outer loop
      vertex 32.0313 140 28.8411
      vertex 32.7853 0 28.7519
      vertex 32.7853 140 28.7519
    endloop
  endfacet
  facet normal 0.117537 0 0.993069
    outer loop
      vertex 32.7853 0 28.7519
      vertex 32.0313 140 28.8411
      vertex 32.0313 0 28.8411
    endloop
  endfacet
  facet normal 0.0130892 0 0.999914
    outer loop
      vertex 29 140 29
      vertex 29.7591 0 28.9901
      vertex 29.7591 140 28.9901
    endloop
  endfacet
  facet normal 0.0130892 0 0.999914
    outer loop
      vertex 29.7591 0 28.9901
      vertex 29 140 29
      vertex 29 0 29
    endloop
  endfacet
  facet normal 0.394746 0 0.91879
    outer loop
      vertex 40.0978 140 26.7925
      vertex 40.7954 0 26.4928
      vertex 40.7954 140 26.4928
    endloop
  endfacet
  facet normal 0.394746 0 0.91879
    outer loop
      vertex 40.7954 0 26.4928
      vertex 40.0978 140 26.7925
      vertex 40.0978 0 26.7925
    endloop
  endfacet
  facet normal 0.533615 0 0.845728
    outer loop
      vertex 44.1525 140 24.7266
      vertex 44.7945 0 24.3214
      vertex 44.7945 140 24.3214
    endloop
  endfacet
  facet normal 0.533615 0 0.845728
    outer loop
      vertex 44.7945 0 24.3214
      vertex 44.1525 140 24.7266
      vertex 44.1525 0 24.7266
    endloop
  endfacet
  facet normal 0.48862 0 0.872497
    outer loop
      vertex 42.8376 140 25.4857
      vertex 43.5 0 25.1147
      vertex 43.5 140 25.1147
    endloop
  endfacet
  facet normal 0.48862 0 0.872497
    outer loop
      vertex 43.5 0 25.1147
      vertex 42.8376 140 25.4857
      vertex 42.8376 0 25.4857
    endloop
  endfacet
  facet normal 0.465615 0 0.884988
    outer loop
      vertex 42.1657 140 25.8392
      vertex 42.8376 0 25.4857
      vertex 42.8376 140 25.4857
    endloop
  endfacet
  facet normal 0.465615 0 0.884988
    outer loop
      vertex 42.8376 0 25.4857
      vertex 42.1657 140 25.8392
      vertex 42.1657 0 25.8392
    endloop
  endfacet
  facet normal 0.577144 0 0.816642
    outer loop
      vertex 45.4258 140 23.8997
      vertex 46.0458 0 23.4615
      vertex 46.0458 140 23.4615
    endloop
  endfacet
  facet normal 0.577144 0 0.816642
    outer loop
      vertex 46.0458 0 23.4615
      vertex 45.4258 140 23.8997
      vertex 45.4258 0 23.8997
    endloop
  endfacet
  facet normal 0.659346 0 0.75184
    outer loop
      vertex 47.834 140 22.0518
      vertex 48.4048 0 21.5512
      vertex 48.4048 140 21.5512
    endloop
  endfacet
  facet normal 0.659346 0 0.75184
    outer loop
      vertex 48.4048 0 21.5512
      vertex 47.834 140 22.0518
      vertex 47.834 0 22.0518
    endloop
  endfacet
  facet normal 0.639438 0 0.768843
    outer loop
      vertex 47.2503 140 22.5372
      vertex 47.834 0 22.0518
      vertex 47.834 140 22.0518
    endloop
  endfacet
  facet normal 0.639438 0 0.768843
    outer loop
      vertex 47.834 0 22.0518
      vertex 47.2503 140 22.5372
      vertex 47.2503 0 22.5372
    endloop
  endfacet
  facet normal -0.816642 0 0.577145
    outer loop
      vertex 5.10034 0 16.4258
      vertex 5.53851 140 17.0458
      vertex 5.10034 140 16.4258
    endloop
  endfacet
  facet normal -0.816642 0 0.577145
    outer loop
      vertex 5.53851 140 17.0458
      vertex 5.10034 0 16.4258
      vertex 5.53851 0 17.0458
    endloop
  endfacet
  facet normal -0.734322 0 0.678801
    outer loop
      vertex 7.4488 0 19.4048
      vertex 7.96414 140 19.9623
      vertex 7.4488 140 19.4048
    endloop
  endfacet
  facet normal -0.734322 0 0.678801
    outer loop
      vertex 7.96414 140 19.9623
      vertex 7.4488 0 19.4048
      vertex 7.96414 0 19.9623
    endloop
  endfacet
  facet normal -0.845728 0 0.533614
    outer loop
      vertex 4.27343 0 15.1525
      vertex 4.67855 140 15.7945
      vertex 4.27343 140 15.1525
    endloop
  endfacet
  facet normal -0.845728 0 0.533614
    outer loop
      vertex 4.67855 140 15.7945
      vertex 4.27343 0 15.1525
      vertex 4.67855 0 15.7945
    endloop
  endfacet
  facet normal -0.859406 0 0.511293
    outer loop
      vertex 4.27343 140 15.1525
      vertex 3.88526 0 14.5
      vertex 4.27343 0 15.1525
    endloop
  endfacet
  facet normal -0.872496 0 0.488621
    outer loop
      vertex 3.5143 140 13.8376
      vertex 3.5143 0 13.8376
      vertex 3.88526 0 14.5
    endloop
  endfacet
  facet normal -0.896873 0 0.442289
    outer loop
      vertex 2.82503 0 12.4848
      vertex 3.16081 140 13.1657
      vertex 2.82503 140 12.4848
    endloop
  endfacet
  facet normal -0.896873 0 0.442289
    outer loop
      vertex 3.16081 140 13.1657
      vertex 2.82503 0 12.4848
      vertex 3.16081 0 13.1657
    endloop
  endfacet
  facet normal -0.938191 0 0.346118
    outer loop
      vertex 1.6634 0 9.6804
      vertex 1.92617 140 10.3927
      vertex 1.6634 140 9.6804
    endloop
  endfacet
  facet normal -0.938191 0 0.346118
    outer loop
      vertex 1.92617 140 10.3927
      vertex 1.6634 0 9.6804
      vertex 1.92617 0 10.3927
    endloop
  endfacet
  facet normal -0.975342 0 0.220697
    outer loop
      vertex 0.633719 0 6.02944
      vertex 0.801271 140 6.76991
      vertex 0.633719 140 6.02944
    endloop
  endfacet
  facet normal -0.975342 0 0.220697
    outer loop
      vertex 0.801271 140 6.76991
      vertex 0.633719 0 6.02944
      vertex 0.801271 0 6.76991
    endloop
  endfacet
  facet normal -0.985556 0 0.16935
    outer loop
      vertex 0.357038 0 4.5366
      vertex 0.485607 140 5.28483
      vertex 0.357038 140 4.5366
    endloop
  endfacet
  facet normal -0.985556 0 0.16935
    outer loop
      vertex 0.485607 140 5.28483
      vertex 0.357038 0 4.5366
      vertex 0.485607 0 5.28483
    endloop
  endfacet
  facet normal -0.993069 0 0.117537
    outer loop
      vertex 0.158865 0 3.03133
      vertex 0.248098 140 3.78526
      vertex 0.158865 140 3.03133
    endloop
  endfacet
  facet normal -0.993069 0 0.117537
    outer loop
      vertex 0.248098 140 3.78526
      vertex 0.158865 0 3.03133
      vertex 0.248098 0 3.78526
    endloop
  endfacet
  facet normal -0.999914 0 0.0130892
    outer loop
      vertex 0 0 0
      vertex 0.00993729 140 0.759131
      vertex 0 140 0
    endloop
  endfacet
  facet normal -0.999914 0 0.0130892
    outer loop
      vertex 0.00993729 140 0.759131
      vertex 0 0 0
      vertex 0.00993729 0 0.759131
    endloop
  endfacet
  facet normal -0.697791 0 0.716302
    outer loop
      vertex 8.4939 140 20.5061
      vertex 9.03772 0 21.0359
      vertex 9.03772 140 21.0359
    endloop
  endfacet
  facet normal -0.697791 0 0.716302
    outer loop
      vertex 9.03772 0 21.0359
      vertex 8.4939 140 20.5061
      vertex 8.4939 0 20.5061
    endloop
  endfacet
  facet normal -0.465614 0 0.884988
    outer loop
      vertex 15.1624 140 25.4857
      vertex 15.8343 0 25.8392
      vertex 15.8343 140 25.8392
    endloop
  endfacet
  facet normal -0.465614 0 0.884988
    outer loop
      vertex 15.8343 0 25.8392
      vertex 15.1624 140 25.4857
      vertex 15.1624 0 25.4857
    endloop
  endfacet
  facet normal -0.442289 0 0.896872
    outer loop
      vertex 15.8343 140 25.8392
      vertex 16.5152 0 26.175
      vertex 16.5152 140 26.175
    endloop
  endfacet
  facet normal -0.442289 0 0.896872
    outer loop
      vertex 16.5152 0 26.175
      vertex 15.8343 140 25.8392
      vertex 15.8343 0 25.8392
    endloop
  endfacet
  facet normal -0.577144 0 0.816642
    outer loop
      vertex 11.9542 140 23.4615
      vertex 12.5742 0 23.8997
      vertex 12.5742 140 23.8997
    endloop
  endfacet
  facet normal -0.577144 0 0.816642
    outer loop
      vertex 12.5742 0 23.8997
      vertex 11.9542 140 23.4615
      vertex 11.9542 0 23.4615
    endloop
  endfacet
  facet normal -0.619095 0 0.785316
    outer loop
      vertex 10.7497 140 22.5372
      vertex 11.3459 0 23.0072
      vertex 11.3459 140 23.0072
    endloop
  endfacet
  facet normal -0.619095 0 0.785316
    outer loop
      vertex 11.3459 0 23.0072
      vertex 10.7497 140 22.5372
      vertex 10.7497 0 22.5372
    endloop
  endfacet
  facet normal -0.639438 0 0.768843
    outer loop
      vertex 10.166 140 22.0518
      vertex 10.7497 0 22.5372
      vertex 10.7497 140 22.5372
    endloop
  endfacet
  facet normal -0.639438 0 0.768843
    outer loop
      vertex 10.7497 0 22.5372
      vertex 10.166 140 22.0518
      vertex 10.166 0 22.0518
    endloop
  endfacet
  facet normal -0.370555 0 0.928811
    outer loop
      vertex 17.9022 140 26.7925
      vertex 18.6073 0 27.0738
      vertex 18.6073 140 27.0738
    endloop
  endfacet
  facet normal -0.370555 0 0.928811
    outer loop
      vertex 18.6073 0 27.0738
      vertex 17.9022 140 26.7925
      vertex 17.9022 0 26.7925
    endloop
  endfacet
  facet normal -0.246153 0 0.969231
    outer loop
      vertex 21.4942 140 28.0118
      vertex 22.2301 0 28.1987
      vertex 22.2301 140 28.1987
    endloop
  endfacet
  facet normal -0.246153 0 0.969231
    outer loop
      vertex 22.2301 0 28.1987
      vertex 21.4942 140 28.0118
      vertex 21.4942 0 28.0118
    endloop
  endfacet
  facet normal -0.195092 0 0.980785
    outer loop
      vertex 22.9706 140 28.3663
      vertex 23.7152 0 28.5144
      vertex 23.7152 140 28.5144
    endloop
  endfacet
  facet normal -0.195092 0 0.980785
    outer loop
      vertex 23.7152 0 28.5144
      vertex 22.9706 140 28.3663
      vertex 22.9706 0 28.3663
    endloop
  endfacet
  facet normal -0.0915039 0 0.995805
    outer loop
      vertex 25.9687 140 28.8411
      vertex 26.7247 0 28.9106
      vertex 26.7247 140 28.9106
    endloop
  endfacet
  facet normal -0.0915039 0 0.995805
    outer loop
      vertex 26.7247 0 28.9106
      vertex 25.9687 140 28.8411
      vertex 25.9687 0 28.8411
    endloop
  endfacet
  facet normal -0.117537 0 0.993069
    outer loop
      vertex 25.2147 140 28.7519
      vertex 25.9687 0 28.8411
      vertex 25.9687 140 28.8411
    endloop
  endfacet
  facet normal -0.117537 0 0.993069
    outer loop
      vertex 25.9687 0 28.8411
      vertex 25.2147 140 28.7519
      vertex 25.2147 0 28.7519
    endloop
  endfacet
  facet normal 0.908143 -0 0.418659
    outer loop
      vertex 55.175 0 12.4848
      vertex 55.4928 140 11.7954
      vertex 55.175 140 12.4848
    endloop
  endfacet
  facet normal 0.908143 0 0.418659
    outer loop
      vertex 55.4928 140 11.7954
      vertex 55.175 0 12.4848
      vertex 55.4928 0 11.7954
    endloop
  endfacet
  facet normal 0.346117 0 0.938191
    outer loop
      vertex 38.6804 140 27.3366
      vertex 39.3927 0 27.0738
      vertex 39.3927 140 27.0738
    endloop
  endfacet
  facet normal 0.346117 0 0.938191
    outer loop
      vertex 39.3927 0 27.0738
      vertex 38.6804 140 27.3366
      vertex 38.6804 0 27.3366
    endloop
  endfacet
  facet normal -0.785316 0 0.619095
    outer loop
      vertex 5.99275 0 17.6541
      vertex 6.46277 140 18.2503
      vertex 5.99275 140 17.6541
    endloop
  endfacet
  facet normal -0.785316 0 0.619095
    outer loop
      vertex 6.46277 140 18.2503
      vertex 5.99275 0 17.6541
      vertex 6.46277 0 18.2503
    endloop
  endfacet
  facet normal -0.801253 0 0.598325
    outer loop
      vertex 5.53851 0 17.0458
      vertex 5.99275 140 17.6541
      vertex 5.53851 140 17.0458
    endloop
  endfacet
  facet normal -0.801253 0 0.598325
    outer loop
      vertex 5.99275 140 17.6541
      vertex 5.53851 0 17.0458
      vertex 5.99275 0 17.6541
    endloop
  endfacet
  facet normal -0.751841 0 0.659345
    outer loop
      vertex 6.94823 0 18.834
      vertex 7.4488 140 19.4048
      vertex 6.94823 140 18.834
    endloop
  endfacet
  facet normal -0.751841 0 0.659345
    outer loop
      vertex 7.4488 140 19.4048
      vertex 6.94823 0 18.834
      vertex 7.4488 0 19.4048
    endloop
  endfacet
  facet normal -0.872496 3.32847e-09 0.488621
    outer loop
      vertex 3.88526 140 14.5
      vertex 3.5143 140 13.8376
      vertex 3.88526 0 14.5
    endloop
  endfacet
  facet normal -0.908143 0 0.41866
    outer loop
      vertex 2.50718 0 11.7954
      vertex 2.82503 140 12.4848
      vertex 2.50718 140 11.7954
    endloop
  endfacet
  facet normal -0.908143 0 0.41866
    outer loop
      vertex 2.82503 140 12.4848
      vertex 2.50718 0 11.7954
      vertex 2.82503 0 12.4848
    endloop
  endfacet
  facet normal -0.41866 0 0.908143
    outer loop
      vertex 16.5152 140 26.175
      vertex 17.2046 0 26.4928
      vertex 17.2046 140 26.4928
    endloop
  endfacet
  facet normal -0.41866 0 0.908143
    outer loop
      vertex 17.2046 0 26.4928
      vertex 16.5152 140 26.175
      vertex 16.5152 0 26.175
    endloop
  endfacet
  facet normal -0.884988 0 0.465614
    outer loop
      vertex 3.16081 0 13.1657
      vertex 3.5143 140 13.8376
      vertex 3.16081 140 13.1657
    endloop
  endfacet
  facet normal -0.884988 0 0.465614
    outer loop
      vertex 3.5143 140 13.8376
      vertex 3.16081 0 13.1657
      vertex 3.5143 0 13.8376
    endloop
  endfacet
  facet normal 0 0 -1
    outer loop
      vertex 0 0 0
      vertex 58 140 0
      vertex 58 0 0
    endloop
  endfacet
  facet normal -0 0 -1
    outer loop
      vertex 58 140 0
      vertex 0 0 0
      vertex 0 140 0
    endloop
  endfacet
endsolid OpenSCAD_Model
