solid OpenSCAD_Model
  facet normal -1 0 0
    outer loop
      vertex 0 0 0
      vertex 0 140 40
      vertex 0 140 0
    endloop
  endfacet
  facet normal -1 -0 0
    outer loop
      vertex 0 140 40
      vertex 0 0 0
      vertex 0 0 40
    endloop
  endfacet
  facet normal -0 0 1
    outer loop
      vertex 0 140 40
      vertex 10 0 40
      vertex 10 140 40
    endloop
  endfacet
  facet normal 0 0 1
    outer loop
      vertex 10 0 40
      vertex 0 140 40
      vertex 0 0 40
    endloop
  endfacet
  facet normal -0 0 1
    outer loop
      vertex 70 140 40
      vertex 80 0 40
      vertex 80 140 40
    endloop
  endfacet
  facet normal 0 0 1
    outer loop
      vertex 80 0 40
      vertex 70 140 40
      vertex 70 0 40
    endloop
  endfacet
  facet normal 1 -0 0
    outer loop
      vertex 80 0 40
      vertex 80 140 0
      vertex 80 140 40
    endloop
  endfacet
  facet normal 1 0 0
    outer loop
      vertex 80 140 0
      vertex 80 0 40
      vertex 80 0 0
    endloop
  endfacet
  facet normal 0 0 -1
    outer loop
      vertex 0 0 0
      vertex 80 140 0
      vertex 80 0 0
    endloop
  endfacet
  facet normal -0 0 -1
    outer loop
      vertex 80 140 0
      vertex 0 0 0
      vertex 0 140 0
    endloop
  endfacet
  facet normal 0 -1 0
    outer loop
      vertex 0 0 40
      vertex 10.0103 0 39.2147
      vertex 10 0 40
    endloop
  endfacet
  facet normal 0 -1 0
    outer loop
      vertex 0 0 40
      vertex 10.0411 0 38.4299
      vertex 10.0103 0 39.2147
    endloop
  endfacet
  facet normal 0 -1 0
    outer loop
      vertex 0 0 40
      vertex 10.0925 0 37.6462
      vertex 10.0411 0 38.4299
    endloop
  endfacet
  facet normal 0 -1 0
    outer loop
      vertex 0 0 40
      vertex 10.1643 0 36.8641
      vertex 10.0925 0 37.6462
    endloop
  endfacet
  facet normal 0 -1 0
    outer loop
      vertex 0 0 40
      vertex 10.2567 0 36.0842
      vertex 10.1643 0 36.8641
    endloop
  endfacet
  facet normal 0 -1 0
    outer loop
      vertex 0 0 40
      vertex 10.3693 0 35.307
      vertex 10.2567 0 36.0842
    endloop
  endfacet
  facet normal 0 -1 0
    outer loop
      vertex 0 0 40
      vertex 10.5024 0 34.5329
      vertex 10.3693 0 35.307
    endloop
  endfacet
  facet normal 0 -1 0
    outer loop
      vertex 0 0 40
      vertex 10.6556 0 33.7626
      vertex 10.5024 0 34.5329
    endloop
  endfacet
  facet normal 0 -1 0
    outer loop
      vertex 0 0 40
      vertex 10.8289 0 32.9966
      vertex 10.6556 0 33.7626
    endloop
  endfacet
  facet normal 0 -1 0
    outer loop
      vertex 0 0 40
      vertex 11.0222 0 32.2354
      vertex 10.8289 0 32.9966
    endloop
  endfacet
  facet normal 0 -1 0
    outer loop
      vertex 0 0 40
      vertex 11.2354 0 31.4795
      vertex 11.0222 0 32.2354
    endloop
  endfacet
  facet normal 0 -1 0
    outer loop
      vertex 0 0 40
      vertex 11.4683 0 30.7295
      vertex 11.2354 0 31.4795
    endloop
  endfacet
  facet normal 0 -1 0
    outer loop
      vertex 0 0 40
      vertex 11.7208 0 29.9858
      vertex 11.4683 0 30.7295
    endloop
  endfacet
  facet normal 0 -1 0
    outer loop
      vertex 0 0 40
      vertex 11.9926 0 29.249
      vertex 11.7208 0 29.9858
    endloop
  endfacet
  facet normal 0 -1 0
    outer loop
      vertex 0 0 40
      vertex 12.2836 0 28.5195
      vertex 11.9926 0 29.249
    endloop
  endfacet
  facet normal 0 -1 0
    outer loop
      vertex 0 0 0
      vertex 12.2836 0 28.5195
      vertex 0 0 40
    endloop
  endfacet
  facet normal 0 -1 -0
    outer loop
      vertex 12.2836 0 28.5195
      vertex 0 0 0
      vertex 12.5936 0 27.7979
    endloop
  endfacet
  facet normal 0 -1 -0
    outer loop
      vertex 12.5936 0 27.7979
      vertex 0 0 0
      vertex 12.9224 0 27.0847
    endloop
  endfacet
  facet normal 0 -1 -0
    outer loop
      vertex 12.9224 0 27.0847
      vertex 0 0 0
      vertex 13.2698 0 26.3803
    endloop
  endfacet
  facet normal 0 -1 -0
    outer loop
      vertex 13.2698 0 26.3803
      vertex 0 0 0
      vertex 13.6355 0 25.6852
    endloop
  endfacet
  facet normal 0 -1 -0
    outer loop
      vertex 13.6355 0 25.6852
      vertex 0 0 0
      vertex 14.0192 0 25
    endloop
  endfacet
  facet normal 0 -1 -0
    outer loop
      vertex 14.0192 0 25
      vertex 0 0 0
      vertex 14.4208 0 24.325
    endloop
  endfacet
  facet normal 0 -1 -0
    outer loop
      vertex 14.4208 0 24.325
      vertex 0 0 0
      vertex 14.8399 0 23.6608
    endloop
  endfacet
  facet normal 0 -1 -0
    outer loop
      vertex 14.8399 0 23.6608
      vertex 0 0 0
      vertex 15.2762 0 23.0078
    endloop
  endfacet
  facet normal 0 -1 -0
    outer loop
      vertex 15.2762 0 23.0078
      vertex 0 0 0
      vertex 15.7295 0 22.3664
    endloop
  endfacet
  facet normal 0 -1 -0
    outer loop
      vertex 15.7295 0 22.3664
      vertex 0 0 0
      vertex 16.1994 0 21.7372
    endloop
  endfacet
  facet normal 0 -1 -0
    outer loop
      vertex 16.1994 0 21.7372
      vertex 0 0 0
      vertex 16.6856 0 21.1204
    endloop
  endfacet
  facet normal 0 -1 -0
    outer loop
      vertex 16.6856 0 21.1204
      vertex 0 0 0
      vertex 17.1878 0 20.5166
    endloop
  endfacet
  facet normal 0 -1 -0
    outer loop
      vertex 39.2147 0 10.0103
      vertex 0 0 0
      vertex 40 0 10
    endloop
  endfacet
  facet normal 0 -1 -0
    outer loop
      vertex 38.4299 0 10.0411
      vertex 0 0 0
      vertex 39.2147 0 10.0103
    endloop
  endfacet
  facet normal 0 -1 -0
    outer loop
      vertex 37.6462 0 10.0925
      vertex 0 0 0
      vertex 38.4299 0 10.0411
    endloop
  endfacet
  facet normal 0 -1 -0
    outer loop
      vertex 36.8641 0 10.1643
      vertex 0 0 0
      vertex 37.6462 0 10.0925
    endloop
  endfacet
  facet normal 0 -1 -0
    outer loop
      vertex 36.0842 0 10.2567
      vertex 0 0 0
      vertex 36.8641 0 10.1643
    endloop
  endfacet
  facet normal 0 -1 -0
    outer loop
      vertex 35.307 0 10.3693
      vertex 0 0 0
      vertex 36.0842 0 10.2567
    endloop
  endfacet
  facet normal 0 -1 -0
    outer loop
      vertex 34.5329 0 10.5024
      vertex 0 0 0
      vertex 35.307 0 10.3693
    endloop
  endfacet
  facet normal 0 -1 -0
    outer loop
      vertex 33.7626 0 10.6556
      vertex 0 0 0
      vertex 34.5329 0 10.5024
    endloop
  endfacet
  facet normal 0 -1 -0
    outer loop
      vertex 32.9966 0 10.8289
      vertex 0 0 0
      vertex 33.7626 0 10.6556
    endloop
  endfacet
  facet normal 0 -1 -0
    outer loop
      vertex 32.2354 0 11.0222
      vertex 0 0 0
      vertex 32.9966 0 10.8289
    endloop
  endfacet
  facet normal 0 -1 -0
    outer loop
      vertex 31.4795 0 11.2354
      vertex 0 0 0
      vertex 32.2354 0 11.0222
    endloop
  endfacet
  facet normal 0 -1 -0
    outer loop
      vertex 30.7295 0 11.4683
      vertex 0 0 0
      vertex 31.4795 0 11.2354
    endloop
  endfacet
  facet normal 0 -1 -0
    outer loop
      vertex 29.9858 0 11.7208
      vertex 0 0 0
      vertex 30.7295 0 11.4683
    endloop
  endfacet
  facet normal 0 -1 -0
    outer loop
      vertex 29.249 0 11.9926
      vertex 0 0 0
      vertex 29.9858 0 11.7208
    endloop
  endfacet
  facet normal 0 -1 -0
    outer loop
      vertex 28.5195 0 12.2836
      vertex 0 0 0
      vertex 29.249 0 11.9926
    endloop
  endfacet
  facet normal 0 -1 -0
    outer loop
      vertex 27.7979 0 12.5936
      vertex 0 0 0
      vertex 28.5195 0 12.2836
    endloop
  endfacet
  facet normal 0 -1 -0
    outer loop
      vertex 27.0847 0 12.9224
      vertex 0 0 0
      vertex 27.7979 0 12.5936
    endloop
  endfacet
  facet normal 0 -1 -0
    outer loop
      vertex 26.3803 0 13.2698
      vertex 0 0 0
      vertex 27.0847 0 12.9224
    endloop
  endfacet
  facet normal 0 -1 -0
    outer loop
      vertex 25.6852 0 13.6355
      vertex 0 0 0
      vertex 26.3803 0 13.2698
    endloop
  endfacet
  facet normal 0 -1 -0
    outer loop
      vertex 25 0 14.0192
      vertex 0 0 0
      vertex 25.6852 0 13.6355
    endloop
  endfacet
  facet normal 0 -1 -0
    outer loop
      vertex 24.325 0 14.4208
      vertex 0 0 0
      vertex 25 0 14.0192
    endloop
  endfacet
  facet normal 0 -1 -0
    outer loop
      vertex 23.6608 0 14.8399
      vertex 0 0 0
      vertex 24.325 0 14.4208
    endloop
  endfacet
  facet normal 0 -1 -0
    outer loop
      vertex 23.0078 0 15.2762
      vertex 0 0 0
      vertex 23.6608 0 14.8399
    endloop
  endfacet
  facet normal 0 -1 -0
    outer loop
      vertex 22.3664 0 15.7295
      vertex 0 0 0
      vertex 23.0078 0 15.2762
    endloop
  endfacet
  facet normal 0 -1 -0
    outer loop
      vertex 21.7372 0 16.1994
      vertex 0 0 0
      vertex 22.3664 0 15.7295
    endloop
  endfacet
  facet normal 0 -1 -0
    outer loop
      vertex 21.1204 0 16.6856
      vertex 0 0 0
      vertex 21.7372 0 16.1994
    endloop
  endfacet
  facet normal 0 -1 -0
    outer loop
      vertex 20.5166 0 17.1878
      vertex 0 0 0
      vertex 21.1204 0 16.6856
    endloop
  endfacet
  facet normal 0 -1 -0
    outer loop
      vertex 19.9261 0 17.7057
      vertex 0 0 0
      vertex 20.5166 0 17.1878
    endloop
  endfacet
  facet normal 0 -1 -0
    outer loop
      vertex 19.3494 0 18.2388
      vertex 0 0 0
      vertex 19.9261 0 17.7057
    endloop
  endfacet
  facet normal 0 -1 -0
    outer loop
      vertex 18.7868 0 18.7868
      vertex 0 0 0
      vertex 19.3494 0 18.2388
    endloop
  endfacet
  facet normal 0 -1 -0
    outer loop
      vertex 18.2388 0 19.3494
      vertex 0 0 0
      vertex 18.7868 0 18.7868
    endloop
  endfacet
  facet normal 0 -1 -0
    outer loop
      vertex 17.7057 0 19.9261
      vertex 0 0 0
      vertex 18.2388 0 19.3494
    endloop
  endfacet
  facet normal 0 -1 -0
    outer loop
      vertex 17.1878 0 20.5166
      vertex 0 0 0
      vertex 17.7057 0 19.9261
    endloop
  endfacet
  facet normal 0 -1 0
    outer loop
      vertex 69.9897 0 39.2147
      vertex 80 0 40
      vertex 70 0 40
    endloop
  endfacet
  facet normal 0 -1 0
    outer loop
      vertex 69.9589 0 38.4299
      vertex 80 0 40
      vertex 69.9897 0 39.2147
    endloop
  endfacet
  facet normal 0 -1 0
    outer loop
      vertex 69.9075 0 37.6462
      vertex 80 0 40
      vertex 69.9589 0 38.4299
    endloop
  endfacet
  facet normal 0 -1 0
    outer loop
      vertex 69.8357 0 36.8641
      vertex 80 0 40
      vertex 69.9075 0 37.6462
    endloop
  endfacet
  facet normal 0 -1 0
    outer loop
      vertex 69.7433 0 36.0842
      vertex 80 0 40
      vertex 69.8357 0 36.8641
    endloop
  endfacet
  facet normal 0 -1 0
    outer loop
      vertex 69.6306 0 35.307
      vertex 80 0 40
      vertex 69.7433 0 36.0842
    endloop
  endfacet
  facet normal 0 -1 0
    outer loop
      vertex 69.4977 0 34.5329
      vertex 80 0 40
      vertex 69.6306 0 35.307
    endloop
  endfacet
  facet normal 0 -1 0
    outer loop
      vertex 69.3444 0 33.7626
      vertex 80 0 40
      vertex 69.4977 0 34.5329
    endloop
  endfacet
  facet normal 0 -1 0
    outer loop
      vertex 69.1711 0 32.9966
      vertex 80 0 40
      vertex 69.3444 0 33.7626
    endloop
  endfacet
  facet normal 0 -1 0
    outer loop
      vertex 68.9778 0 32.2354
      vertex 80 0 40
      vertex 69.1711 0 32.9966
    endloop
  endfacet
  facet normal 0 -1 0
    outer loop
      vertex 68.7646 0 31.4795
      vertex 80 0 40
      vertex 68.9778 0 32.2354
    endloop
  endfacet
  facet normal 0 -1 0
    outer loop
      vertex 68.5317 0 30.7295
      vertex 80 0 40
      vertex 68.7646 0 31.4795
    endloop
  endfacet
  facet normal 0 -1 0
    outer loop
      vertex 68.2792 0 29.9858
      vertex 80 0 40
      vertex 68.5317 0 30.7295
    endloop
  endfacet
  facet normal 0 -1 0
    outer loop
      vertex 68.0074 0 29.249
      vertex 80 0 40
      vertex 68.2792 0 29.9858
    endloop
  endfacet
  facet normal 0 -1 0
    outer loop
      vertex 67.7164 0 28.5195
      vertex 80 0 40
      vertex 68.0074 0 29.249
    endloop
  endfacet
  facet normal 0 -1 0
    outer loop
      vertex 80 0 0
      vertex 67.7164 0 28.5195
      vertex 67.4064 0 27.7979
    endloop
  endfacet
  facet normal 0 -1 0
    outer loop
      vertex 80 0 0
      vertex 67.4064 0 27.7979
      vertex 67.0776 0 27.0847
    endloop
  endfacet
  facet normal 0 -1 0
    outer loop
      vertex 80 0 0
      vertex 67.0776 0 27.0847
      vertex 66.7302 0 26.3803
    endloop
  endfacet
  facet normal 0 -1 0
    outer loop
      vertex 80 0 0
      vertex 66.7302 0 26.3803
      vertex 66.3645 0 25.6852
    endloop
  endfacet
  facet normal 0 -1 0
    outer loop
      vertex 80 0 0
      vertex 66.3645 0 25.6852
      vertex 65.9808 0 25
    endloop
  endfacet
  facet normal 0 -1 0
    outer loop
      vertex 80 0 0
      vertex 65.9808 0 25
      vertex 65.5792 0 24.325
    endloop
  endfacet
  facet normal 0 -1 0
    outer loop
      vertex 80 0 0
      vertex 65.5792 0 24.325
      vertex 65.1601 0 23.6608
    endloop
  endfacet
  facet normal 0 -1 0
    outer loop
      vertex 80 0 0
      vertex 65.1601 0 23.6608
      vertex 64.7238 0 23.0078
    endloop
  endfacet
  facet normal 0 -1 0
    outer loop
      vertex 80 0 0
      vertex 64.7238 0 23.0078
      vertex 64.2705 0 22.3664
    endloop
  endfacet
  facet normal 0 -1 0
    outer loop
      vertex 80 0 0
      vertex 64.2705 0 22.3664
      vertex 63.8006 0 21.7372
    endloop
  endfacet
  facet normal 0 -1 0
    outer loop
      vertex 80 0 0
      vertex 63.8006 0 21.7372
      vertex 63.3144 0 21.1204
    endloop
  endfacet
  facet normal 0 -1 0
    outer loop
      vertex 80 0 0
      vertex 63.3144 0 21.1204
      vertex 62.8122 0 20.5166
    endloop
  endfacet
  facet normal 0 -1 0
    outer loop
      vertex 80 0 0
      vertex 62.8122 0 20.5166
      vertex 62.2943 0 19.9261
    endloop
  endfacet
  facet normal 0 -1 0
    outer loop
      vertex 80 0 0
      vertex 40 0 10
      vertex 0 0 0
    endloop
  endfacet
  facet normal 0 -1 0
    outer loop
      vertex 40 0 10
      vertex 80 0 0
      vertex 40.7853 0 10.0103
    endloop
  endfacet
  facet normal 0 -1 0
    outer loop
      vertex 40.7853 0 10.0103
      vertex 80 0 0
      vertex 41.5701 0 10.0411
    endloop
  endfacet
  facet normal 0 -1 0
    outer loop
      vertex 41.5701 0 10.0411
      vertex 80 0 0
      vertex 42.3538 0 10.0925
    endloop
  endfacet
  facet normal 0 -1 0
    outer loop
      vertex 42.3538 0 10.0925
      vertex 80 0 0
      vertex 43.1359 0 10.1643
    endloop
  endfacet
  facet normal 0 -1 0
    outer loop
      vertex 43.1359 0 10.1643
      vertex 80 0 0
      vertex 43.9158 0 10.2567
    endloop
  endfacet
  facet normal 0 -1 0
    outer loop
      vertex 43.9158 0 10.2567
      vertex 80 0 0
      vertex 44.693 0 10.3693
    endloop
  endfacet
  facet normal 0 -1 0
    outer loop
      vertex 44.693 0 10.3693
      vertex 80 0 0
      vertex 45.4671 0 10.5024
    endloop
  endfacet
  facet normal 0 -1 0
    outer loop
      vertex 45.4671 0 10.5024
      vertex 80 0 0
      vertex 46.2374 0 10.6556
    endloop
  endfacet
  facet normal 0 -1 0
    outer loop
      vertex 67.7164 0 28.5195
      vertex 80 0 0
      vertex 80 0 40
    endloop
  endfacet
  facet normal 0 -1 0
    outer loop
      vertex 61.7612 0 19.3494
      vertex 80 0 0
      vertex 62.2943 0 19.9261
    endloop
  endfacet
  facet normal 0 -1 0
    outer loop
      vertex 61.2132 0 18.7868
      vertex 80 0 0
      vertex 61.7612 0 19.3494
    endloop
  endfacet
  facet normal 0 -1 0
    outer loop
      vertex 60.6506 0 18.2388
      vertex 80 0 0
      vertex 61.2132 0 18.7868
    endloop
  endfacet
  facet normal 0 -1 0
    outer loop
      vertex 60.0739 0 17.7057
      vertex 80 0 0
      vertex 60.6506 0 18.2388
    endloop
  endfacet
  facet normal 0 -1 0
    outer loop
      vertex 59.4834 0 17.1878
      vertex 80 0 0
      vertex 60.0739 0 17.7057
    endloop
  endfacet
  facet normal 0 -1 0
    outer loop
      vertex 58.8796 0 16.6856
      vertex 80 0 0
      vertex 59.4834 0 17.1878
    endloop
  endfacet
  facet normal 0 -1 0
    outer loop
      vertex 58.2628 0 16.1994
      vertex 80 0 0
      vertex 58.8796 0 16.6856
    endloop
  endfacet
  facet normal 0 -1 0
    outer loop
      vertex 57.6336 0 15.7295
      vertex 80 0 0
      vertex 58.2628 0 16.1994
    endloop
  endfacet
  facet normal 0 -1 0
    outer loop
      vertex 56.9922 0 15.2762
      vertex 80 0 0
      vertex 57.6336 0 15.7295
    endloop
  endfacet
  facet normal 0 -1 0
    outer loop
      vertex 56.3392 0 14.8399
      vertex 80 0 0
      vertex 56.9922 0 15.2762
    endloop
  endfacet
  facet normal 0 -1 0
    outer loop
      vertex 55.675 0 14.4208
      vertex 80 0 0
      vertex 56.3392 0 14.8399
    endloop
  endfacet
  facet normal 0 -1 0
    outer loop
      vertex 55 0 14.0192
      vertex 80 0 0
      vertex 55.675 0 14.4208
    endloop
  endfacet
  facet normal 0 -1 0
    outer loop
      vertex 54.3148 0 13.6355
      vertex 80 0 0
      vertex 55 0 14.0192
    endloop
  endfacet
  facet normal 0 -1 0
    outer loop
      vertex 53.6197 0 13.2698
      vertex 80 0 0
      vertex 54.3148 0 13.6355
    endloop
  endfacet
  facet normal 0 -1 0
    outer loop
      vertex 52.9153 0 12.9224
      vertex 80 0 0
      vertex 53.6197 0 13.2698
    endloop
  endfacet
  facet normal 0 -1 0
    outer loop
      vertex 52.2021 0 12.5936
      vertex 80 0 0
      vertex 52.9153 0 12.9224
    endloop
  endfacet
  facet normal 0 -1 0
    outer loop
      vertex 51.4805 0 12.2836
      vertex 80 0 0
      vertex 52.2021 0 12.5936
    endloop
  endfacet
  facet normal 0 -1 0
    outer loop
      vertex 50.751 0 11.9926
      vertex 80 0 0
      vertex 51.4805 0 12.2836
    endloop
  endfacet
  facet normal 0 -1 0
    outer loop
      vertex 50.0142 0 11.7208
      vertex 80 0 0
      vertex 50.751 0 11.9926
    endloop
  endfacet
  facet normal 0 -1 0
    outer loop
      vertex 49.2705 0 11.4683
      vertex 80 0 0
      vertex 50.0142 0 11.7208
    endloop
  endfacet
  facet normal 0 -1 0
    outer loop
      vertex 48.5205 0 11.2354
      vertex 80 0 0
      vertex 49.2705 0 11.4683
    endloop
  endfacet
  facet normal 0 -1 0
    outer loop
      vertex 47.7646 0 11.0222
      vertex 80 0 0
      vertex 48.5205 0 11.2354
    endloop
  endfacet
  facet normal 0 -1 0
    outer loop
      vertex 47.0034 0 10.8289
      vertex 80 0 0
      vertex 47.7646 0 11.0222
    endloop
  endfacet
  facet normal 0 -1 0
    outer loop
      vertex 46.2374 0 10.6556
      vertex 80 0 0
      vertex 47.0034 0 10.8289
    endloop
  endfacet
  facet normal 0 1 0
    outer loop
      vertex 80 140 40
      vertex 69.9897 140 39.2147
      vertex 70 140 40
    endloop
  endfacet
  facet normal 0 1 0
    outer loop
      vertex 80 140 40
      vertex 69.9589 140 38.4299
      vertex 69.9897 140 39.2147
    endloop
  endfacet
  facet normal 0 1 0
    outer loop
      vertex 80 140 40
      vertex 69.9075 140 37.6462
      vertex 69.9589 140 38.4299
    endloop
  endfacet
  facet normal 0 1 0
    outer loop
      vertex 80 140 40
      vertex 69.8357 140 36.8641
      vertex 69.9075 140 37.6462
    endloop
  endfacet
  facet normal 0 1 0
    outer loop
      vertex 80 140 40
      vertex 69.7433 140 36.0842
      vertex 69.8357 140 36.8641
    endloop
  endfacet
  facet normal 0 1 0
    outer loop
      vertex 80 140 40
      vertex 69.6306 140 35.307
      vertex 69.7433 140 36.0842
    endloop
  endfacet
  facet normal 0 1 0
    outer loop
      vertex 80 140 40
      vertex 69.4977 140 34.5329
      vertex 69.6306 140 35.307
    endloop
  endfacet
  facet normal 0 1 0
    outer loop
      vertex 80 140 40
      vertex 69.3444 140 33.7626
      vertex 69.4977 140 34.5329
    endloop
  endfacet
  facet normal 0 1 0
    outer loop
      vertex 80 140 40
      vertex 69.1711 140 32.9966
      vertex 69.3444 140 33.7626
    endloop
  endfacet
  facet normal 0 1 0
    outer loop
      vertex 80 140 40
      vertex 68.9778 140 32.2354
      vertex 69.1711 140 32.9966
    endloop
  endfacet
  facet normal 0 1 0
    outer loop
      vertex 80 140 40
      vertex 68.7646 140 31.4795
      vertex 68.9778 140 32.2354
    endloop
  endfacet
  facet normal 0 1 0
    outer loop
      vertex 80 140 40
      vertex 68.5317 140 30.7295
      vertex 68.7646 140 31.4795
    endloop
  endfacet
  facet normal 0 1 0
    outer loop
      vertex 80 140 40
      vertex 68.2792 140 29.9858
      vertex 68.5317 140 30.7295
    endloop
  endfacet
  facet normal 0 1 0
    outer loop
      vertex 80 140 40
      vertex 68.0074 140 29.249
      vertex 68.2792 140 29.9858
    endloop
  endfacet
  facet normal 0 1 0
    outer loop
      vertex 80 140 40
      vertex 67.7164 140 28.5195
      vertex 68.0074 140 29.249
    endloop
  endfacet
  facet normal 0 1 -0
    outer loop
      vertex 80 140 0
      vertex 67.7164 140 28.5195
      vertex 80 140 40
    endloop
  endfacet
  facet normal 0 1 0
    outer loop
      vertex 67.7164 140 28.5195
      vertex 80 140 0
      vertex 67.4064 140 27.7979
    endloop
  endfacet
  facet normal 0 1 0
    outer loop
      vertex 67.4064 140 27.7979
      vertex 80 140 0
      vertex 67.0776 140 27.0847
    endloop
  endfacet
  facet normal 0 1 0
    outer loop
      vertex 67.0776 140 27.0847
      vertex 80 140 0
      vertex 66.7302 140 26.3803
    endloop
  endfacet
  facet normal 0 1 0
    outer loop
      vertex 66.7302 140 26.3803
      vertex 80 140 0
      vertex 66.3645 140 25.6852
    endloop
  endfacet
  facet normal 0 1 0
    outer loop
      vertex 66.3645 140 25.6852
      vertex 80 140 0
      vertex 65.9808 140 25
    endloop
  endfacet
  facet normal 0 1 0
    outer loop
      vertex 65.9808 140 25
      vertex 80 140 0
      vertex 65.5792 140 24.325
    endloop
  endfacet
  facet normal 0 1 0
    outer loop
      vertex 65.5792 140 24.325
      vertex 80 140 0
      vertex 65.1601 140 23.6608
    endloop
  endfacet
  facet normal 0 1 0
    outer loop
      vertex 65.1601 140 23.6608
      vertex 80 140 0
      vertex 64.7238 140 23.0078
    endloop
  endfacet
  facet normal 0 1 0
    outer loop
      vertex 64.7238 140 23.0078
      vertex 80 140 0
      vertex 64.2705 140 22.3664
    endloop
  endfacet
  facet normal 0 1 0
    outer loop
      vertex 64.2705 140 22.3664
      vertex 80 140 0
      vertex 63.8006 140 21.7372
    endloop
  endfacet
  facet normal 0 1 0
    outer loop
      vertex 63.8006 140 21.7372
      vertex 80 140 0
      vertex 63.3144 140 21.1204
    endloop
  endfacet
  facet normal 0 1 0
    outer loop
      vertex 63.3144 140 21.1204
      vertex 80 140 0
      vertex 62.8122 140 20.5166
    endloop
  endfacet
  facet normal 0 1 0
    outer loop
      vertex 40.7853 140 10.0103
      vertex 80 140 0
      vertex 40 140 10
    endloop
  endfacet
  facet normal 0 1 0
    outer loop
      vertex 41.5701 140 10.0411
      vertex 80 140 0
      vertex 40.7853 140 10.0103
    endloop
  endfacet
  facet normal 0 1 0
    outer loop
      vertex 42.3538 140 10.0925
      vertex 80 140 0
      vertex 41.5701 140 10.0411
    endloop
  endfacet
  facet normal 0 1 0
    outer loop
      vertex 43.1359 140 10.1643
      vertex 80 140 0
      vertex 42.3538 140 10.0925
    endloop
  endfacet
  facet normal 0 1 0
    outer loop
      vertex 43.9158 140 10.2567
      vertex 80 140 0
      vertex 43.1359 140 10.1643
    endloop
  endfacet
  facet normal 0 1 0
    outer loop
      vertex 44.693 140 10.3693
      vertex 80 140 0
      vertex 43.9158 140 10.2567
    endloop
  endfacet
  facet normal 0 1 0
    outer loop
      vertex 45.4671 140 10.5024
      vertex 80 140 0
      vertex 44.693 140 10.3693
    endloop
  endfacet
  facet normal 0 1 0
    outer loop
      vertex 46.2374 140 10.6556
      vertex 80 140 0
      vertex 45.4671 140 10.5024
    endloop
  endfacet
  facet normal 0 1 0
    outer loop
      vertex 47.0034 140 10.8289
      vertex 80 140 0
      vertex 46.2374 140 10.6556
    endloop
  endfacet
  facet normal 0 1 0
    outer loop
      vertex 47.7646 140 11.0222
      vertex 80 140 0
      vertex 47.0034 140 10.8289
    endloop
  endfacet
  facet normal 0 1 0
    outer loop
      vertex 48.5205 140 11.2354
      vertex 80 140 0
      vertex 47.7646 140 11.0222
    endloop
  endfacet
  facet normal 0 1 0
    outer loop
      vertex 49.2705 140 11.4683
      vertex 80 140 0
      vertex 48.5205 140 11.2354
    endloop
  endfacet
  facet normal 0 1 0
    outer loop
      vertex 50.0142 140 11.7208
      vertex 80 140 0
      vertex 49.2705 140 11.4683
    endloop
  endfacet
  facet normal 0 1 0
    outer loop
      vertex 50.751 140 11.9926
      vertex 80 140 0
      vertex 50.0142 140 11.7208
    endloop
  endfacet
  facet normal 0 1 0
    outer loop
      vertex 51.4805 140 12.2836
      vertex 80 140 0
      vertex 50.751 140 11.9926
    endloop
  endfacet
  facet normal 0 1 0
    outer loop
      vertex 52.2021 140 12.5936
      vertex 80 140 0
      vertex 51.4805 140 12.2836
    endloop
  endfacet
  facet normal 0 1 0
    outer loop
      vertex 52.9153 140 12.9224
      vertex 80 140 0
      vertex 52.2021 140 12.5936
    endloop
  endfacet
  facet normal 0 1 0
    outer loop
      vertex 53.6197 140 13.2698
      vertex 80 140 0
      vertex 52.9153 140 12.9224
    endloop
  endfacet
  facet normal 0 1 0
    outer loop
      vertex 54.3148 140 13.6355
      vertex 80 140 0
      vertex 53.6197 140 13.2698
    endloop
  endfacet
  facet normal 0 1 0
    outer loop
      vertex 55 140 14.0192
      vertex 80 140 0
      vertex 54.3148 140 13.6355
    endloop
  endfacet
  facet normal 0 1 0
    outer loop
      vertex 55.675 140 14.4208
      vertex 80 140 0
      vertex 55 140 14.0192
    endloop
  endfacet
  facet normal 0 1 0
    outer loop
      vertex 56.3392 140 14.8399
      vertex 80 140 0
      vertex 55.675 140 14.4208
    endloop
  endfacet
  facet normal 0 1 0
    outer loop
      vertex 56.9922 140 15.2762
      vertex 80 140 0
      vertex 56.3392 140 14.8399
    endloop
  endfacet
  facet normal 0 1 0
    outer loop
      vertex 57.6336 140 15.7295
      vertex 80 140 0
      vertex 56.9922 140 15.2762
    endloop
  endfacet
  facet normal 0 1 0
    outer loop
      vertex 58.2628 140 16.1994
      vertex 80 140 0
      vertex 57.6336 140 15.7295
    endloop
  endfacet
  facet normal 0 1 0
    outer loop
      vertex 58.8796 140 16.6856
      vertex 80 140 0
      vertex 58.2628 140 16.1994
    endloop
  endfacet
  facet normal 0 1 0
    outer loop
      vertex 59.4834 140 17.1878
      vertex 80 140 0
      vertex 58.8796 140 16.6856
    endloop
  endfacet
  facet normal 0 1 0
    outer loop
      vertex 60.0739 140 17.7057
      vertex 80 140 0
      vertex 59.4834 140 17.1878
    endloop
  endfacet
  facet normal 0 1 0
    outer loop
      vertex 60.6506 140 18.2388
      vertex 80 140 0
      vertex 60.0739 140 17.7057
    endloop
  endfacet
  facet normal 0 1 0
    outer loop
      vertex 61.2132 140 18.7868
      vertex 80 140 0
      vertex 60.6506 140 18.2388
    endloop
  endfacet
  facet normal 0 1 0
    outer loop
      vertex 61.7612 140 19.3494
      vertex 80 140 0
      vertex 61.2132 140 18.7868
    endloop
  endfacet
  facet normal 0 1 0
    outer loop
      vertex 62.2943 140 19.9261
      vertex 80 140 0
      vertex 61.7612 140 19.3494
    endloop
  endfacet
  facet normal 0 1 0
    outer loop
      vertex 62.8122 140 20.5166
      vertex 80 140 0
      vertex 62.2943 140 19.9261
    endloop
  endfacet
  facet normal 0 1 0
    outer loop
      vertex 10.0103 140 39.2147
      vertex 0 140 40
      vertex 10 140 40
    endloop
  endfacet
  facet normal 0 1 0
    outer loop
      vertex 10.0411 140 38.4299
      vertex 0 140 40
      vertex 10.0103 140 39.2147
    endloop
  endfacet
  facet normal 0 1 0
    outer loop
      vertex 10.0925 140 37.6462
      vertex 0 140 40
      vertex 10.0411 140 38.4299
    endloop
  endfacet
  facet normal 0 1 0
    outer loop
      vertex 10.1643 140 36.8641
      vertex 0 140 40
      vertex 10.0925 140 37.6462
    endloop
  endfacet
  facet normal 0 1 0
    outer loop
      vertex 10.2567 140 36.0842
      vertex 0 140 40
      vertex 10.1643 140 36.8641
    endloop
  endfacet
  facet normal 0 1 0
    outer loop
      vertex 10.3693 140 35.307
      vertex 0 140 40
      vertex 10.2567 140 36.0842
    endloop
  endfacet
  facet normal 0 1 0
    outer loop
      vertex 10.5024 140 34.5329
      vertex 0 140 40
      vertex 10.3693 140 35.307
    endloop
  endfacet
  facet normal 0 1 0
    outer loop
      vertex 10.6556 140 33.7626
      vertex 0 140 40
      vertex 10.5024 140 34.5329
    endloop
  endfacet
  facet normal 0 1 0
    outer loop
      vertex 10.8289 140 32.9966
      vertex 0 140 40
      vertex 10.6556 140 33.7626
    endloop
  endfacet
  facet normal 0 1 0
    outer loop
      vertex 11.0222 140 32.2354
      vertex 0 140 40
      vertex 10.8289 140 32.9966
    endloop
  endfacet
  facet normal 0 1 0
    outer loop
      vertex 11.2354 140 31.4795
      vertex 0 140 40
      vertex 11.0222 140 32.2354
    endloop
  endfacet
  facet normal 0 1 0
    outer loop
      vertex 11.4683 140 30.7295
      vertex 0 140 40
      vertex 11.2354 140 31.4795
    endloop
  endfacet
  facet normal 0 1 0
    outer loop
      vertex 11.7208 140 29.9858
      vertex 0 140 40
      vertex 11.4683 140 30.7295
    endloop
  endfacet
  facet normal 0 1 0
    outer loop
      vertex 11.9926 140 29.249
      vertex 0 140 40
      vertex 11.7208 140 29.9858
    endloop
  endfacet
  facet normal 0 1 0
    outer loop
      vertex 12.2836 140 28.5195
      vertex 0 140 40
      vertex 11.9926 140 29.249
    endloop
  endfacet
  facet normal 0 1 0
    outer loop
      vertex 0 140 0
      vertex 12.2836 140 28.5195
      vertex 12.5936 140 27.7979
    endloop
  endfacet
  facet normal 0 1 0
    outer loop
      vertex 0 140 0
      vertex 12.5936 140 27.7979
      vertex 12.9224 140 27.0847
    endloop
  endfacet
  facet normal 0 1 0
    outer loop
      vertex 0 140 0
      vertex 12.9224 140 27.0847
      vertex 13.2698 140 26.3803
    endloop
  endfacet
  facet normal 0 1 0
    outer loop
      vertex 0 140 0
      vertex 13.2698 140 26.3803
      vertex 13.6355 140 25.6852
    endloop
  endfacet
  facet normal 0 1 0
    outer loop
      vertex 0 140 0
      vertex 13.6355 140 25.6852
      vertex 14.0192 140 25
    endloop
  endfacet
  facet normal 0 1 0
    outer loop
      vertex 0 140 0
      vertex 14.0192 140 25
      vertex 14.4208 140 24.325
    endloop
  endfacet
  facet normal 0 1 0
    outer loop
      vertex 0 140 0
      vertex 14.4208 140 24.325
      vertex 14.8399 140 23.6608
    endloop
  endfacet
  facet normal 0 1 0
    outer loop
      vertex 0 140 0
      vertex 14.8399 140 23.6608
      vertex 15.2762 140 23.0078
    endloop
  endfacet
  facet normal 0 1 0
    outer loop
      vertex 0 140 0
      vertex 15.2762 140 23.0078
      vertex 15.7295 140 22.3664
    endloop
  endfacet
  facet normal 0 1 0
    outer loop
      vertex 0 140 0
      vertex 15.7295 140 22.3664
      vertex 16.1994 140 21.7372
    endloop
  endfacet
  facet normal 0 1 0
    outer loop
      vertex 0 140 0
      vertex 16.1994 140 21.7372
      vertex 16.6856 140 21.1204
    endloop
  endfacet
  facet normal 0 1 0
    outer loop
      vertex 0 140 0
      vertex 16.6856 140 21.1204
      vertex 17.1878 140 20.5166
    endloop
  endfacet
  facet normal 0 1 0
    outer loop
      vertex 0 140 0
      vertex 17.1878 140 20.5166
      vertex 17.7057 140 19.9261
    endloop
  endfacet
  facet normal 0 1 0
    outer loop
      vertex 0 140 0
      vertex 40 140 10
      vertex 80 140 0
    endloop
  endfacet
  facet normal 0 1 0
    outer loop
      vertex 40 140 10
      vertex 0 140 0
      vertex 39.2147 140 10.0103
    endloop
  endfacet
  facet normal 0 1 0
    outer loop
      vertex 39.2147 140 10.0103
      vertex 0 140 0
      vertex 38.4299 140 10.0411
    endloop
  endfacet
  facet normal 0 1 0
    outer loop
      vertex 38.4299 140 10.0411
      vertex 0 140 0
      vertex 37.6462 140 10.0925
    endloop
  endfacet
  facet normal 0 1 0
    outer loop
      vertex 37.6462 140 10.0925
      vertex 0 140 0
      vertex 36.8641 140 10.1643
    endloop
  endfacet
  facet normal 0 1 0
    outer loop
      vertex 36.8641 140 10.1643
      vertex 0 140 0
      vertex 36.0842 140 10.2567
    endloop
  endfacet
  facet normal 0 1 0
    outer loop
      vertex 36.0842 140 10.2567
      vertex 0 140 0
      vertex 35.307 140 10.3693
    endloop
  endfacet
  facet normal 0 1 0
    outer loop
      vertex 35.307 140 10.3693
      vertex 0 140 0
      vertex 34.5329 140 10.5024
    endloop
  endfacet
  facet normal 0 1 0
    outer loop
      vertex 34.5329 140 10.5024
      vertex 0 140 0
      vertex 33.7626 140 10.6556
    endloop
  endfacet
  facet normal 0 1 0
    outer loop
      vertex 12.2836 140 28.5195
      vertex 0 140 0
      vertex 0 140 40
    endloop
  endfacet
  facet normal 0 1 0
    outer loop
      vertex 18.2388 140 19.3494
      vertex 0 140 0
      vertex 17.7057 140 19.9261
    endloop
  endfacet
  facet normal 0 1 0
    outer loop
      vertex 18.7868 140 18.7868
      vertex 0 140 0
      vertex 18.2388 140 19.3494
    endloop
  endfacet
  facet normal 0 1 0
    outer loop
      vertex 19.3494 140 18.2388
      vertex 0 140 0
      vertex 18.7868 140 18.7868
    endloop
  endfacet
  facet normal 0 1 0
    outer loop
      vertex 19.9261 140 17.7057
      vertex 0 140 0
      vertex 19.3494 140 18.2388
    endloop
  endfacet
  facet normal 0 1 0
    outer loop
      vertex 20.5166 140 17.1878
      vertex 0 140 0
      vertex 19.9261 140 17.7057
    endloop
  endfacet
  facet normal 0 1 0
    outer loop
      vertex 21.1204 140 16.6856
      vertex 0 140 0
      vertex 20.5166 140 17.1878
    endloop
  endfacet
  facet normal 0 1 0
    outer loop
      vertex 21.7372 140 16.1994
      vertex 0 140 0
      vertex 21.1204 140 16.6856
    endloop
  endfacet
  facet normal 0 1 0
    outer loop
      vertex 22.3664 140 15.7295
      vertex 0 140 0
      vertex 21.7372 140 16.1994
    endloop
  endfacet
  facet normal 0 1 0
    outer loop
      vertex 23.0078 140 15.2762
      vertex 0 140 0
      vertex 22.3664 140 15.7295
    endloop
  endfacet
  facet normal 0 1 0
    outer loop
      vertex 23.6608 140 14.8399
      vertex 0 140 0
      vertex 23.0078 140 15.2762
    endloop
  endfacet
  facet normal 0 1 0
    outer loop
      vertex 24.325 140 14.4208
      vertex 0 140 0
      vertex 23.6608 140 14.8399
    endloop
  endfacet
  facet normal 0 1 0
    outer loop
      vertex 25 140 14.0192
      vertex 0 140 0
      vertex 24.325 140 14.4208
    endloop
  endfacet
  facet normal 0 1 0
    outer loop
      vertex 25.6852 140 13.6355
      vertex 0 140 0
      vertex 25 140 14.0192
    endloop
  endfacet
  facet normal 0 1 0
    outer loop
      vertex 26.3803 140 13.2698
      vertex 0 140 0
      vertex 25.6852 140 13.6355
    endloop
  endfacet
  facet normal 0 1 0
    outer loop
      vertex 27.0847 140 12.9224
      vertex 0 140 0
      vertex 26.3803 140 13.2698
    endloop
  endfacet
  facet normal 0 1 0
    outer loop
      vertex 27.7979 140 12.5936
      vertex 0 140 0
      vertex 27.0847 140 12.9224
    endloop
  endfacet
  facet normal 0 1 0
    outer loop
      vertex 28.5195 140 12.2836
      vertex 0 140 0
      vertex 27.7979 140 12.5936
    endloop
  endfacet
  facet normal 0 1 0
    outer loop
      vertex 29.249 140 11.9926
      vertex 0 140 0
      vertex 28.5195 140 12.2836
    endloop
  endfacet
  facet normal 0 1 0
    outer loop
      vertex 29.9858 140 11.7208
      vertex 0 140 0
      vertex 29.249 140 11.9926
    endloop
  endfacet
  facet normal 0 1 0
    outer loop
      vertex 30.7295 140 11.4683
      vertex 0 140 0
      vertex 29.9858 140 11.7208
    endloop
  endfacet
  facet normal 0 1 0
    outer loop
      vertex 31.4795 140 11.2354
      vertex 0 140 0
      vertex 30.7295 140 11.4683
    endloop
  endfacet
  facet normal 0 1 0
    outer loop
      vertex 32.2354 140 11.0222
      vertex 0 140 0
      vertex 31.4795 140 11.2354
    endloop
  endfacet
  facet normal 0 1 0
    outer loop
      vertex 32.9966 140 10.8289
      vertex 0 140 0
      vertex 32.2354 140 11.0222
    endloop
  endfacet
  facet normal 0 1 0
    outer loop
      vertex 33.7626 140 10.6556
      vertex 0 140 0
      vertex 32.9966 140 10.8289
    endloop
  endfacet
  facet normal -0.0392606 0 0.999229
    outer loop
      vertex 40.7853 140 10.0103
      vertex 41.5701 0 10.0411
      vertex 41.5701 140 10.0411
    endloop
  endfacet
  facet normal -0.0392606 0 0.999229
    outer loop
      vertex 41.5701 0 10.0411
      vertex 40.7853 140 10.0103
      vertex 40.7853 0 10.0103
    endloop
  endfacet
  facet normal -0.734325 0 0.678798
    outer loop
      vertex 61.7612 0 19.3494
      vertex 62.2943 140 19.9261
      vertex 61.7612 140 19.3494
    endloop
  endfacet
  facet normal -0.734325 0 0.678798
    outer loop
      vertex 62.2943 140 19.9261
      vertex 61.7612 0 19.3494
      vertex 62.2943 0 19.9261
    endloop
  endfacet
  facet normal 0.678801 0 0.734323
    outer loop
      vertex 19.3494 140 18.2388
      vertex 19.9261 0 17.7057
      vertex 19.9261 140 17.7057
    endloop
  endfacet
  facet normal 0.678801 0 0.734323
    outer loop
      vertex 19.9261 0 17.7057
      vertex 19.3494 140 18.2388
      vertex 19.3494 0 18.2388
    endloop
  endfacet
  facet normal -0.938193 0 0.346113
    outer loop
      vertex 68.0074 0 29.249
      vertex 68.2792 140 29.9858
      vertex 68.0074 140 29.249
    endloop
  endfacet
  facet normal -0.938193 0 0.346113
    outer loop
      vertex 68.2792 140 29.9858
      vertex 68.0074 0 29.249
      vertex 68.2792 0 29.9858
    endloop
  endfacet
  facet normal -0.98965 0 0.1435
    outer loop
      vertex 69.6306 0 35.307
      vertex 69.7433 140 36.0842
      vertex 69.6306 140 35.307
    endloop
  endfacet
  facet normal -0.98965 0 0.1435
    outer loop
      vertex 69.7433 140 36.0842
      vertex 69.6306 0 35.307
      vertex 69.7433 0 36.0842
    endloop
  endfacet
  facet normal 0.370556 0 0.92881
    outer loop
      vertex 28.5195 140 12.2836
      vertex 29.249 0 11.9926
      vertex 29.249 140 11.9926
    endloop
  endfacet
  facet normal 0.370556 0 0.92881
    outer loop
      vertex 29.249 0 11.9926
      vertex 28.5195 140 12.2836
      vertex 28.5195 0 12.2836
    endloop
  endfacet
  facet normal -0.246152 0 0.969231
    outer loop
      vertex 47.0034 140 10.8289
      vertex 47.7646 0 11.0222
      vertex 47.7646 140 11.0222
    endloop
  endfacet
  facet normal -0.246152 0 0.969231
    outer loop
      vertex 47.7646 0 11.0222
      vertex 47.0034 140 10.8289
      vertex 47.0034 0 10.8289
    endloop
  endfacet
  facet normal -0.639441 0 0.76884
    outer loop
      vertex 58.8796 140 16.6856
      vertex 59.4834 0 17.1878
      vertex 59.4834 140 17.1878
    endloop
  endfacet
  facet normal -0.639441 0 0.76884
    outer loop
      vertex 59.4834 0 17.1878
      vertex 58.8796 140 16.6856
      vertex 58.8796 0 16.6856
    endloop
  endfacet
  facet normal -0.659345 0 0.75184
    outer loop
      vertex 59.4834 140 17.1878
      vertex 60.0739 0 17.7057
      vertex 60.0739 140 17.7057
    endloop
  endfacet
  facet normal -0.659345 0 0.75184
    outer loop
      vertex 60.0739 0 17.7057
      vertex 59.4834 140 17.1878
      vertex 59.4834 0 17.1878
    endloop
  endfacet
  facet normal -0.908144 0 0.418658
    outer loop
      vertex 67.0776 0 27.0847
      vertex 67.4064 140 27.7979
      vertex 67.0776 140 27.0847
    endloop
  endfacet
  facet normal -0.908144 0 0.418658
    outer loop
      vertex 67.4064 140 27.7979
      vertex 67.0776 0 27.0847
      vertex 67.4064 0 27.7979
    endloop
  endfacet
  facet normal 0.598324 0 0.801255
    outer loop
      vertex 21.7372 140 16.1994
      vertex 22.3664 0 15.7295
      vertex 22.3664 140 15.7295
    endloop
  endfacet
  facet normal 0.598324 0 0.801255
    outer loop
      vertex 22.3664 0 15.7295
      vertex 21.7372 140 16.1994
      vertex 21.7372 0 16.1994
    endloop
  endfacet
  facet normal 0.271441 0 0.962455
    outer loop
      vertex 31.4795 140 11.2354
      vertex 32.2354 0 11.0222
      vertex 32.2354 140 11.0222
    endloop
  endfacet
  facet normal 0.271441 0 0.962455
    outer loop
      vertex 32.2354 0 11.0222
      vertex 31.4795 140 11.2354
      vertex 31.4795 0 11.2354
    endloop
  endfacet
  facet normal 0.0654028 0 0.997859
    outer loop
      vertex 37.6462 140 10.0925
      vertex 38.4299 0 10.0411
      vertex 38.4299 140 10.0411
    endloop
  endfacet
  facet normal 0.0654028 0 0.997859
    outer loop
      vertex 38.4299 0 10.0411
      vertex 37.6462 140 10.0925
      vertex 37.6462 0 10.0925
    endloop
  endfacet
  facet normal 0.872496 -0 0.488621
    outer loop
      vertex 13.6355 0 25.6852
      vertex 14.0192 140 25
      vertex 13.6355 140 25.6852
    endloop
  endfacet
  facet normal 0.872496 0 0.488621
    outer loop
      vertex 14.0192 140 25
      vertex 13.6355 0 25.6852
      vertex 14.0192 0 25
    endloop
  endfacet
  facet normal 0.859407 -0 0.511293
    outer loop
      vertex 14.0192 0 25
      vertex 14.4208 140 24.325
      vertex 14.0192 140 25
    endloop
  endfacet
  facet normal 0.859407 0 0.511293
    outer loop
      vertex 14.4208 140 24.325
      vertex 14.0192 0 25
      vertex 14.4208 0 24.325
    endloop
  endfacet
  facet normal 0.768841 -0 0.63944
    outer loop
      vertex 16.6856 0 21.1204
      vertex 17.1878 140 20.5166
      vertex 16.6856 140 21.1204
    endloop
  endfacet
  facet normal 0.768841 0 0.63944
    outer loop
      vertex 17.1878 140 20.5166
      vertex 16.6856 0 21.1204
      vertex 17.1878 0 20.5166
    endloop
  endfacet
  facet normal 0.751839 -0 0.659347
    outer loop
      vertex 17.1878 0 20.5166
      vertex 17.7057 140 19.9261
      vertex 17.1878 140 20.5166
    endloop
  endfacet
  facet normal 0.751839 0 0.659347
    outer loop
      vertex 17.7057 140 19.9261
      vertex 17.1878 0 20.5166
      vertex 17.7057 0 19.9261
    endloop
  endfacet
  facet normal 0.975342 -0 0.220697
    outer loop
      vertex 10.6556 0 33.7626
      vertex 10.8289 140 32.9966
      vertex 10.6556 140 33.7626
    endloop
  endfacet
  facet normal 0.975342 0 0.220697
    outer loop
      vertex 10.8289 140 32.9966
      vertex 10.6556 0 33.7626
      vertex 10.8289 0 32.9966
    endloop
  endfacet
  facet normal -0.999914 0 0.0130949
    outer loop
      vertex 69.9897 0 39.2147
      vertex 70 140 40
      vertex 69.9897 140 39.2147
    endloop
  endfacet
  facet normal -0.999914 0 0.0130949
    outer loop
      vertex 70 140 40
      vertex 69.9897 0 39.2147
      vertex 70 0 40
    endloop
  endfacet
  facet normal -0.0915016 0 0.995805
    outer loop
      vertex 42.3538 140 10.0925
      vertex 43.1359 0 10.1643
      vertex 43.1359 140 10.1643
    endloop
  endfacet
  facet normal -0.0915016 0 0.995805
    outer loop
      vertex 43.1359 0 10.1643
      vertex 42.3538 140 10.0925
      vertex 42.3538 0 10.0925
    endloop
  endfacet
  facet normal -0.346118 0 0.938191
    outer loop
      vertex 50.0142 140 11.7208
      vertex 50.751 0 11.9926
      vertex 50.751 140 11.9926
    endloop
  endfacet
  facet normal -0.346118 0 0.938191
    outer loop
      vertex 50.751 0 11.9926
      vertex 50.0142 140 11.7208
      vertex 50.0142 0 11.7208
    endloop
  endfacet
  facet normal -0.271441 0 0.962455
    outer loop
      vertex 47.7646 140 11.0222
      vertex 48.5205 0 11.2354
      vertex 48.5205 140 11.2354
    endloop
  endfacet
  facet normal -0.271441 0 0.962455
    outer loop
      vertex 48.5205 0 11.2354
      vertex 47.7646 140 11.0222
      vertex 47.7646 0 11.0222
    endloop
  endfacet
  facet normal -0.296542 0 0.95502
    outer loop
      vertex 48.5205 140 11.2354
      vertex 49.2705 0 11.4683
      vertex 49.2705 140 11.4683
    endloop
  endfacet
  facet normal -0.296542 0 0.95502
    outer loop
      vertex 49.2705 0 11.4683
      vertex 48.5205 140 11.2354
      vertex 48.5205 0 11.2354
    endloop
  endfacet
  facet normal -0.598325 0 0.801254
    outer loop
      vertex 57.6336 140 15.7295
      vertex 58.2628 0 16.1994
      vertex 58.2628 140 16.1994
    endloop
  endfacet
  facet normal -0.598325 0 0.801254
    outer loop
      vertex 58.2628 0 16.1994
      vertex 57.6336 140 15.7295
      vertex 57.6336 0 15.7295
    endloop
  endfacet
  facet normal -0.511293 0 0.859407
    outer loop
      vertex 55 140 14.0192
      vertex 55.675 0 14.4208
      vertex 55.675 140 14.4208
    endloop
  endfacet
  facet normal -0.511293 0 0.859407
    outer loop
      vertex 55.675 0 14.4208
      vertex 55 140 14.0192
      vertex 55 0 14.0192
    endloop
  endfacet
  facet normal -0.418659 0 0.908143
    outer loop
      vertex 52.2021 140 12.5936
      vertex 52.9153 0 12.9224
      vertex 52.9153 140 12.9224
    endloop
  endfacet
  facet normal -0.418659 0 0.908143
    outer loop
      vertex 52.9153 0 12.9224
      vertex 52.2021 140 12.5936
      vertex 52.2021 0 12.5936
    endloop
  endfacet
  facet normal -0.801254 0 0.598324
    outer loop
      vertex 63.8006 0 21.7372
      vertex 64.2705 140 22.3664
      vertex 63.8006 140 21.7372
    endloop
  endfacet
  facet normal -0.801254 0 0.598324
    outer loop
      vertex 64.2705 140 22.3664
      vertex 63.8006 0 21.7372
      vertex 64.2705 0 22.3664
    endloop
  endfacet
  facet normal -0.928808 0 0.370561
    outer loop
      vertex 67.7164 0 28.5195
      vertex 68.0074 140 29.249
      vertex 67.7164 140 28.5195
    endloop
  endfacet
  facet normal -0.928808 0 0.370561
    outer loop
      vertex 68.0074 140 29.249
      vertex 67.7164 0 28.5195
      vertex 68.0074 0 29.249
    endloop
  endfacet
  facet normal -0.85941 0 0.511286
    outer loop
      vertex 65.5792 0 24.325
      vertex 65.9808 140 25
      vertex 65.5792 140 24.325
    endloop
  endfacet
  facet normal -0.85941 0 0.511286
    outer loop
      vertex 65.9808 140 25
      vertex 65.5792 0 24.325
      vertex 65.9808 0 25
    endloop
  endfacet
  facet normal -0.969231 0 0.246151
    outer loop
      vertex 68.9778 0 32.2354
      vertex 69.1711 140 32.9966
      vertex 68.9778 140 32.2354
    endloop
  endfacet
  facet normal -0.969231 0 0.246151
    outer loop
      vertex 69.1711 140 32.9966
      vertex 68.9778 0 32.2354
      vertex 69.1711 0 32.9966
    endloop
  endfacet
  facet normal 0.418659 0 0.908143
    outer loop
      vertex 27.0847 140 12.9224
      vertex 27.7979 0 12.5936
      vertex 27.7979 140 12.5936
    endloop
  endfacet
  facet normal 0.418659 0 0.908143
    outer loop
      vertex 27.7979 0 12.5936
      vertex 27.0847 140 12.9224
      vertex 27.0847 0 12.9224
    endloop
  endfacet
  facet normal 0.511293 0 0.859407
    outer loop
      vertex 24.325 140 14.4208
      vertex 25 0 14.0192
      vertex 25 140 14.0192
    endloop
  endfacet
  facet normal 0.511293 0 0.859407
    outer loop
      vertex 25 0 14.0192
      vertex 24.325 140 14.4208
      vertex 24.325 0 14.4208
    endloop
  endfacet
  facet normal 0.296541 0 0.95502
    outer loop
      vertex 30.7295 140 11.4683
      vertex 31.4795 0 11.2354
      vertex 31.4795 140 11.2354
    endloop
  endfacet
  facet normal 0.296541 0 0.95502
    outer loop
      vertex 31.4795 0 11.2354
      vertex 30.7295 140 11.4683
      vertex 30.7295 0 11.4683
    endloop
  endfacet
  facet normal 0.19509 0 0.980785
    outer loop
      vertex 33.7626 140 10.6556
      vertex 34.5329 0 10.5024
      vertex 34.5329 140 10.5024
    endloop
  endfacet
  facet normal 0.19509 0 0.980785
    outer loop
      vertex 34.5329 0 10.5024
      vertex 33.7626 140 10.6556
      vertex 33.7626 0 10.6556
    endloop
  endfacet
  facet normal 0.16935 0 0.985556
    outer loop
      vertex 34.5329 140 10.5024
      vertex 35.307 0 10.3693
      vertex 35.307 140 10.3693
    endloop
  endfacet
  facet normal 0.16935 0 0.985556
    outer loop
      vertex 35.307 0 10.3693
      vertex 34.5329 140 10.5024
      vertex 34.5329 0 10.5024
    endloop
  endfacet
  facet normal 0.246152 0 0.969231
    outer loop
      vertex 32.2354 140 11.0222
      vertex 32.9966 0 10.8289
      vertex 32.9966 140 10.8289
    endloop
  endfacet
  facet normal 0.246152 0 0.969231
    outer loop
      vertex 32.9966 0 10.8289
      vertex 32.2354 140 11.0222
      vertex 32.2354 0 11.0222
    endloop
  endfacet
  facet normal 0.143493 0 0.989651
    outer loop
      vertex 35.307 140 10.3693
      vertex 36.0842 0 10.2567
      vertex 36.0842 140 10.2567
    endloop
  endfacet
  facet normal 0.143493 0 0.989651
    outer loop
      vertex 36.0842 0 10.2567
      vertex 35.307 140 10.3693
      vertex 35.307 0 10.3693
    endloop
  endfacet
  facet normal 0.884987 -0 0.465616
    outer loop
      vertex 13.2698 0 26.3803
      vertex 13.6355 140 25.6852
      vertex 13.2698 140 26.3803
    endloop
  endfacet
  facet normal 0.884987 0 0.465616
    outer loop
      vertex 13.6355 140 25.6852
      vertex 13.2698 0 26.3803
      vertex 13.6355 0 25.6852
    endloop
  endfacet
  facet normal 0.83147 -0 0.55557
    outer loop
      vertex 14.8399 0 23.6608
      vertex 15.2762 140 23.0078
      vertex 14.8399 140 23.6608
    endloop
  endfacet
  facet normal 0.83147 0 0.55557
    outer loop
      vertex 15.2762 140 23.0078
      vertex 14.8399 0 23.6608
      vertex 15.2762 0 23.0078
    endloop
  endfacet
  facet normal 0.816642 -0 0.577145
    outer loop
      vertex 15.2762 0 23.0078
      vertex 15.7295 140 22.3664
      vertex 15.2762 140 23.0078
    endloop
  endfacet
  facet normal 0.816642 0 0.577145
    outer loop
      vertex 15.7295 140 22.3664
      vertex 15.2762 0 23.0078
      vertex 15.7295 0 22.3664
    endloop
  endfacet
  facet normal 0.785316 -0 0.619095
    outer loop
      vertex 16.1994 0 21.7372
      vertex 16.6856 140 21.1204
      vertex 16.1994 140 21.7372
    endloop
  endfacet
  facet normal 0.785316 0 0.619095
    outer loop
      vertex 16.6856 140 21.1204
      vertex 16.1994 0 21.7372
      vertex 16.6856 0 21.1204
    endloop
  endfacet
  facet normal 0.94693 -0 0.32144
    outer loop
      vertex 11.4683 0 30.7295
      vertex 11.7208 140 29.9858
      vertex 11.4683 140 30.7295
    endloop
  endfacet
  facet normal 0.94693 0 0.32144
    outer loop
      vertex 11.7208 140 29.9858
      vertex 11.4683 0 30.7295
      vertex 11.7208 0 29.9858
    endloop
  endfacet
  facet normal 0.969231 -0 0.246152
    outer loop
      vertex 10.8289 0 32.9966
      vertex 11.0222 140 32.2354
      vertex 10.8289 140 32.9966
    endloop
  endfacet
  facet normal 0.969231 0 0.246152
    outer loop
      vertex 11.0222 140 32.2354
      vertex 10.8289 0 32.9966
      vertex 11.0222 0 32.2354
    endloop
  endfacet
  facet normal 0.989651 -0 0.143493
    outer loop
      vertex 10.2567 0 36.0842
      vertex 10.3693 140 35.307
      vertex 10.2567 140 36.0842
    endloop
  endfacet
  facet normal 0.989651 0 0.143493
    outer loop
      vertex 10.3693 140 35.307
      vertex 10.2567 0 36.0842
      vertex 10.3693 0 35.307
    endloop
  endfacet
  facet normal 0.999229 -0 0.0392604
    outer loop
      vertex 10.0103 0 39.2147
      vertex 10.0411 140 38.4299
      vertex 10.0103 140 39.2147
    endloop
  endfacet
  facet normal 0.999229 0 0.0392604
    outer loop
      vertex 10.0411 140 38.4299
      vertex 10.0103 0 39.2147
      vertex 10.0411 0 38.4299
    endloop
  endfacet
  facet normal 0.999914 -0 0.0130888
    outer loop
      vertex 10 0 40
      vertex 10.0103 140 39.2147
      vertex 10 140 40
    endloop
  endfacet
  facet normal 0.999914 0 0.0130888
    outer loop
      vertex 10.0103 140 39.2147
      vertex 10 0 40
      vertex 10.0103 0 39.2147
    endloop
  endfacet
  facet normal -0.0654028 0 0.997859
    outer loop
      vertex 41.5701 140 10.0411
      vertex 42.3538 0 10.0925
      vertex 42.3538 140 10.0925
    endloop
  endfacet
  facet normal -0.0654028 0 0.997859
    outer loop
      vertex 42.3538 0 10.0925
      vertex 41.5701 140 10.0411
      vertex 41.5701 0 10.0411
    endloop
  endfacet
  facet normal -0.117537 0 0.993069
    outer loop
      vertex 43.1359 140 10.1643
      vertex 43.9158 0 10.2567
      vertex 43.9158 140 10.2567
    endloop
  endfacet
  facet normal -0.117537 0 0.993069
    outer loop
      vertex 43.9158 0 10.2567
      vertex 43.1359 140 10.1643
      vertex 43.1359 0 10.1643
    endloop
  endfacet
  facet normal -0.19509 0 0.980785
    outer loop
      vertex 45.4671 140 10.5024
      vertex 46.2374 0 10.6556
      vertex 46.2374 140 10.6556
    endloop
  endfacet
  facet normal -0.19509 0 0.980785
    outer loop
      vertex 46.2374 0 10.6556
      vertex 45.4671 140 10.5024
      vertex 45.4671 0 10.5024
    endloop
  endfacet
  facet normal -0.220697 0 0.975342
    outer loop
      vertex 46.2374 140 10.6556
      vertex 47.0034 0 10.8289
      vertex 47.0034 140 10.8289
    endloop
  endfacet
  facet normal -0.220697 0 0.975342
    outer loop
      vertex 47.0034 0 10.8289
      vertex 46.2374 140 10.6556
      vertex 46.2374 0 10.6556
    endloop
  endfacet
  facet normal -0.143493 0 0.989651
    outer loop
      vertex 43.9158 140 10.2567
      vertex 44.693 0 10.3693
      vertex 44.693 140 10.3693
    endloop
  endfacet
  facet normal -0.143493 0 0.989651
    outer loop
      vertex 44.693 0 10.3693
      vertex 43.9158 140 10.2567
      vertex 43.9158 0 10.2567
    endloop
  endfacet
  facet normal -0.16935 0 0.985556
    outer loop
      vertex 44.693 140 10.3693
      vertex 45.4671 0 10.5024
      vertex 45.4671 140 10.5024
    endloop
  endfacet
  facet normal -0.16935 0 0.985556
    outer loop
      vertex 45.4671 0 10.5024
      vertex 44.693 140 10.3693
      vertex 44.693 0 10.3693
    endloop
  endfacet
  facet normal -0.321439 0 0.94693
    outer loop
      vertex 49.2705 140 11.4683
      vertex 50.0142 0 11.7208
      vertex 50.0142 140 11.7208
    endloop
  endfacet
  facet normal -0.321439 0 0.94693
    outer loop
      vertex 50.0142 0 11.7208
      vertex 49.2705 140 11.4683
      vertex 49.2705 0 11.4683
    endloop
  endfacet
  facet normal -0.370556 0 0.92881
    outer loop
      vertex 50.751 140 11.9926
      vertex 51.4805 0 12.2836
      vertex 51.4805 140 12.2836
    endloop
  endfacet
  facet normal -0.370556 0 0.92881
    outer loop
      vertex 51.4805 0 12.2836
      vertex 50.751 140 11.9926
      vertex 50.751 0 11.9926
    endloop
  endfacet
  facet normal -0.394744 0 0.918791
    outer loop
      vertex 51.4805 140 12.2836
      vertex 52.2021 0 12.5936
      vertex 52.2021 140 12.5936
    endloop
  endfacet
  facet normal -0.394744 0 0.918791
    outer loop
      vertex 52.2021 0 12.5936
      vertex 51.4805 140 12.2836
      vertex 51.4805 0 12.2836
    endloop
  endfacet
  facet normal -0.619092 0 0.785318
    outer loop
      vertex 58.2628 140 16.1994
      vertex 58.8796 0 16.6856
      vertex 58.8796 140 16.6856
    endloop
  endfacet
  facet normal -0.619092 0 0.785318
    outer loop
      vertex 58.8796 0 16.6856
      vertex 58.2628 140 16.1994
      vertex 58.2628 0 16.1994
    endloop
  endfacet
  facet normal -0.678803 0 0.73432
    outer loop
      vertex 60.0739 140 17.7057
      vertex 60.6506 0 18.2388
      vertex 60.6506 140 18.2388
    endloop
  endfacet
  facet normal -0.678803 0 0.73432
    outer loop
      vertex 60.6506 0 18.2388
      vertex 60.0739 140 17.7057
      vertex 60.0739 0 17.7057
    endloop
  endfacet
  facet normal -0.697788 0 0.716304
    outer loop
      vertex 60.6506 140 18.2388
      vertex 61.2132 0 18.7868
      vertex 61.2132 140 18.7868
    endloop
  endfacet
  facet normal -0.697788 0 0.716304
    outer loop
      vertex 61.2132 0 18.7868
      vertex 60.6506 140 18.2388
      vertex 60.6506 0 18.2388
    endloop
  endfacet
  facet normal -0.716302 0 0.697791
    outer loop
      vertex 61.2132 0 18.7868
      vertex 61.7612 140 19.3494
      vertex 61.2132 140 18.7868
    endloop
  endfacet
  facet normal -0.716302 0 0.697791
    outer loop
      vertex 61.7612 140 19.3494
      vertex 61.2132 0 18.7868
      vertex 61.7612 0 19.3494
    endloop
  endfacet
  facet normal -0.55557 0 0.83147
    outer loop
      vertex 56.3392 140 14.8399
      vertex 56.9922 0 15.2762
      vertex 56.9922 140 15.2762
    endloop
  endfacet
  facet normal -0.55557 0 0.83147
    outer loop
      vertex 56.9922 0 15.2762
      vertex 56.3392 140 14.8399
      vertex 56.3392 0 14.8399
    endloop
  endfacet
  facet normal -0.577146 0 0.816641
    outer loop
      vertex 56.9922 140 15.2762
      vertex 57.6336 0 15.7295
      vertex 57.6336 140 15.7295
    endloop
  endfacet
  facet normal -0.577146 0 0.816641
    outer loop
      vertex 57.6336 0 15.7295
      vertex 56.9922 140 15.2762
      vertex 56.9922 0 15.2762
    endloop
  endfacet
  facet normal -0.533614 0 0.845728
    outer loop
      vertex 55.675 140 14.4208
      vertex 56.3392 0 14.8399
      vertex 56.3392 140 14.8399
    endloop
  endfacet
  facet normal -0.533614 0 0.845728
    outer loop
      vertex 56.3392 0 14.8399
      vertex 55.675 140 14.4208
      vertex 55.675 0 14.4208
    endloop
  endfacet
  facet normal -0.465614 0 0.884988
    outer loop
      vertex 53.6197 140 13.2698
      vertex 54.3148 0 13.6355
      vertex 54.3148 140 13.6355
    endloop
  endfacet
  facet normal -0.465614 0 0.884988
    outer loop
      vertex 54.3148 0 13.6355
      vertex 53.6197 140 13.2698
      vertex 53.6197 0 13.2698
    endloop
  endfacet
  facet normal -0.488621 0 0.872496
    outer loop
      vertex 54.3148 140 13.6355
      vertex 55 0 14.0192
      vertex 55 140 14.0192
    endloop
  endfacet
  facet normal -0.488621 0 0.872496
    outer loop
      vertex 55 0 14.0192
      vertex 54.3148 140 13.6355
      vertex 54.3148 0 13.6355
    endloop
  endfacet
  facet normal -0.44229 0 0.896872
    outer loop
      vertex 52.9153 140 12.9224
      vertex 53.6197 0 13.2698
      vertex 53.6197 140 13.2698
    endloop
  endfacet
  facet normal -0.44229 0 0.896872
    outer loop
      vertex 53.6197 0 13.2698
      vertex 52.9153 140 12.9224
      vertex 52.9153 0 12.9224
    endloop
  endfacet
  facet normal -0.751837 0 0.659349
    outer loop
      vertex 62.2943 0 19.9261
      vertex 62.8122 140 20.5166
      vertex 62.2943 140 19.9261
    endloop
  endfacet
  facet normal -0.751837 0 0.659349
    outer loop
      vertex 62.8122 140 20.5166
      vertex 62.2943 0 19.9261
      vertex 62.8122 0 20.5166
    endloop
  endfacet
  facet normal -0.768844 0 0.639437
    outer loop
      vertex 62.8122 0 20.5166
      vertex 63.3144 140 21.1204
      vertex 62.8122 140 20.5166
    endloop
  endfacet
  facet normal -0.768844 0 0.639437
    outer loop
      vertex 63.3144 140 21.1204
      vertex 62.8122 0 20.5166
      vertex 63.3144 0 21.1204
    endloop
  endfacet
  facet normal -0.785316 0 0.619095
    outer loop
      vertex 63.3144 0 21.1204
      vertex 63.8006 140 21.7372
      vertex 63.3144 140 21.1204
    endloop
  endfacet
  facet normal -0.785316 0 0.619095
    outer loop
      vertex 63.8006 140 21.7372
      vertex 63.3144 0 21.1204
      vertex 63.8006 0 21.7372
    endloop
  endfacet
  facet normal -0.831468 0 0.555572
    outer loop
      vertex 64.7238 0 23.0078
      vertex 65.1601 140 23.6608
      vertex 64.7238 140 23.0078
    endloop
  endfacet
  facet normal -0.831468 0 0.555572
    outer loop
      vertex 65.1601 140 23.6608
      vertex 64.7238 0 23.0078
      vertex 65.1601 0 23.6608
    endloop
  endfacet
  facet normal -0.845727 0 0.533616
    outer loop
      vertex 65.1601 0 23.6608
      vertex 65.5792 140 24.325
      vertex 65.1601 140 23.6608
    endloop
  endfacet
  facet normal -0.845727 0 0.533616
    outer loop
      vertex 65.5792 140 24.325
      vertex 65.1601 0 23.6608
      vertex 65.5792 0 24.325
    endloop
  endfacet
  facet normal -0.816641 0 0.577146
    outer loop
      vertex 64.2705 0 22.3664
      vertex 64.7238 140 23.0078
      vertex 64.2705 140 22.3664
    endloop
  endfacet
  facet normal -0.816641 0 0.577146
    outer loop
      vertex 64.7238 140 23.0078
      vertex 64.2705 0 22.3664
      vertex 64.7238 0 23.0078
    endloop
  endfacet
  facet normal -0.918792 0 0.394742
    outer loop
      vertex 67.4064 0 27.7979
      vertex 67.7164 140 28.5195
      vertex 67.4064 140 27.7979
    endloop
  endfacet
  facet normal -0.918792 0 0.394742
    outer loop
      vertex 67.7164 140 28.5195
      vertex 67.4064 0 27.7979
      vertex 67.7164 0 28.5195
    endloop
  endfacet
  facet normal -0.884986 0 0.465618
    outer loop
      vertex 66.3645 0 25.6852
      vertex 66.7302 140 26.3803
      vertex 66.3645 140 25.6852
    endloop
  endfacet
  facet normal -0.884986 0 0.465618
    outer loop
      vertex 66.7302 140 26.3803
      vertex 66.3645 0 25.6852
      vertex 66.7302 0 26.3803
    endloop
  endfacet
  facet normal -0.896871 0 0.442291
    outer loop
      vertex 66.7302 0 26.3803
      vertex 67.0776 140 27.0847
      vertex 66.7302 140 26.3803
    endloop
  endfacet
  facet normal -0.896871 0 0.442291
    outer loop
      vertex 67.0776 140 27.0847
      vertex 66.7302 0 26.3803
      vertex 67.0776 0 27.0847
    endloop
  endfacet
  facet normal -0.872496 0 0.488621
    outer loop
      vertex 65.9808 0 25
      vertex 66.3645 140 25.6852
      vertex 65.9808 140 25
    endloop
  endfacet
  facet normal -0.872496 0 0.488621
    outer loop
      vertex 66.3645 140 25.6852
      vertex 65.9808 0 25
      vertex 66.3645 0 25.6852
    endloop
  endfacet
  facet normal -0.946931 0 0.321438
    outer loop
      vertex 68.2792 0 29.9858
      vertex 68.5317 140 30.7295
      vertex 68.2792 140 29.9858
    endloop
  endfacet
  facet normal -0.946931 0 0.321438
    outer loop
      vertex 68.5317 140 30.7295
      vertex 68.2792 0 29.9858
      vertex 68.5317 0 30.7295
    endloop
  endfacet
  facet normal -0.955021 0 0.29654
    outer loop
      vertex 68.5317 0 30.7295
      vertex 68.7646 140 31.4795
      vertex 68.5317 140 30.7295
    endloop
  endfacet
  facet normal -0.955021 0 0.29654
    outer loop
      vertex 68.7646 140 31.4795
      vertex 68.5317 0 30.7295
      vertex 68.7646 0 31.4795
    endloop
  endfacet
  facet normal -0.962454 0 0.271447
    outer loop
      vertex 68.7646 0 31.4795
      vertex 68.9778 140 32.2354
      vertex 68.7646 140 31.4795
    endloop
  endfacet
  facet normal -0.962454 0 0.271447
    outer loop
      vertex 68.9778 140 32.2354
      vertex 68.7646 0 31.4795
      vertex 68.9778 0 32.2354
    endloop
  endfacet
  facet normal -0.980785 0 0.195092
    outer loop
      vertex 69.3444 0 33.7626
      vertex 69.4977 140 34.5329
      vertex 69.3444 140 33.7626
    endloop
  endfacet
  facet normal -0.980785 0 0.195092
    outer loop
      vertex 69.4977 140 34.5329
      vertex 69.3444 0 33.7626
      vertex 69.4977 0 34.5329
    endloop
  endfacet
  facet normal -0.985558 0 0.169341
    outer loop
      vertex 69.4977 0 34.5329
      vertex 69.6306 140 35.307
      vertex 69.4977 140 34.5329
    endloop
  endfacet
  facet normal -0.985558 0 0.169341
    outer loop
      vertex 69.6306 140 35.307
      vertex 69.4977 0 34.5329
      vertex 69.6306 0 35.307
    endloop
  endfacet
  facet normal -0.975342 0 0.2207
    outer loop
      vertex 69.1711 0 32.9966
      vertex 69.3444 140 33.7626
      vertex 69.1711 140 32.9966
    endloop
  endfacet
  facet normal -0.975342 0 0.2207
    outer loop
      vertex 69.3444 140 33.7626
      vertex 69.1711 0 32.9966
      vertex 69.3444 0 33.7626
    endloop
  endfacet
  facet normal -0.993069 0 0.117534
    outer loop
      vertex 69.7433 0 36.0842
      vertex 69.8357 140 36.8641
      vertex 69.7433 140 36.0842
    endloop
  endfacet
  facet normal -0.993069 0 0.117534
    outer loop
      vertex 69.8357 140 36.8641
      vertex 69.7433 0 36.0842
      vertex 69.8357 0 36.8641
    endloop
  endfacet
  facet normal 0.659347 0 0.751839
    outer loop
      vertex 19.9261 140 17.7057
      vertex 20.5166 0 17.1878
      vertex 20.5166 140 17.1878
    endloop
  endfacet
  facet normal 0.659347 0 0.751839
    outer loop
      vertex 20.5166 0 17.1878
      vertex 19.9261 140 17.7057
      vertex 19.9261 0 17.7057
    endloop
  endfacet
  facet normal 0.63944 0 0.768841
    outer loop
      vertex 20.5166 140 17.1878
      vertex 21.1204 0 16.6856
      vertex 21.1204 140 16.6856
    endloop
  endfacet
  facet normal 0.63944 0 0.768841
    outer loop
      vertex 21.1204 0 16.6856
      vertex 20.5166 140 17.1878
      vertex 20.5166 0 17.1878
    endloop
  endfacet
  facet normal 0.619095 0 0.785316
    outer loop
      vertex 21.1204 140 16.6856
      vertex 21.7372 0 16.1994
      vertex 21.7372 140 16.1994
    endloop
  endfacet
  facet normal 0.619095 0 0.785316
    outer loop
      vertex 21.7372 0 16.1994
      vertex 21.1204 140 16.6856
      vertex 21.1204 0 16.6856
    endloop
  endfacet
  facet normal 0.577145 0 0.816642
    outer loop
      vertex 22.3664 140 15.7295
      vertex 23.0078 0 15.2762
      vertex 23.0078 140 15.2762
    endloop
  endfacet
  facet normal 0.577145 0 0.816642
    outer loop
      vertex 23.0078 0 15.2762
      vertex 22.3664 140 15.7295
      vertex 22.3664 0 15.7295
    endloop
  endfacet
  facet normal 0.55557 0 0.83147
    outer loop
      vertex 23.0078 140 15.2762
      vertex 23.6608 0 14.8399
      vertex 23.6608 140 14.8399
    endloop
  endfacet
  facet normal 0.55557 0 0.83147
    outer loop
      vertex 23.6608 0 14.8399
      vertex 23.0078 140 15.2762
      vertex 23.0078 0 15.2762
    endloop
  endfacet
  facet normal 0.533614 0 0.845728
    outer loop
      vertex 23.6608 140 14.8399
      vertex 24.325 0 14.4208
      vertex 24.325 140 14.4208
    endloop
  endfacet
  facet normal 0.533614 0 0.845728
    outer loop
      vertex 24.325 0 14.4208
      vertex 23.6608 140 14.8399
      vertex 23.6608 0 14.8399
    endloop
  endfacet
  facet normal 0.394744 0 0.918791
    outer loop
      vertex 27.7979 140 12.5936
      vertex 28.5195 0 12.2836
      vertex 28.5195 140 12.2836
    endloop
  endfacet
  facet normal 0.394744 0 0.918791
    outer loop
      vertex 28.5195 0 12.2836
      vertex 27.7979 140 12.5936
      vertex 27.7979 0 12.5936
    endloop
  endfacet
  facet normal 0.488621 0 0.872496
    outer loop
      vertex 25 140 14.0192
      vertex 25.6852 0 13.6355
      vertex 25.6852 140 13.6355
    endloop
  endfacet
  facet normal 0.488621 0 0.872496
    outer loop
      vertex 25.6852 0 13.6355
      vertex 25 140 14.0192
      vertex 25 0 14.0192
    endloop
  endfacet
  facet normal 0.465616 0 0.884987
    outer loop
      vertex 25.6852 140 13.6355
      vertex 26.3803 0 13.2698
      vertex 26.3803 140 13.2698
    endloop
  endfacet
  facet normal 0.465616 0 0.884987
    outer loop
      vertex 26.3803 0 13.2698
      vertex 25.6852 140 13.6355
      vertex 25.6852 0 13.6355
    endloop
  endfacet
  facet normal 0.442288 0 0.896873
    outer loop
      vertex 26.3803 140 13.2698
      vertex 27.0847 0 12.9224
      vertex 27.0847 140 12.9224
    endloop
  endfacet
  facet normal 0.442288 0 0.896873
    outer loop
      vertex 27.0847 0 12.9224
      vertex 26.3803 140 13.2698
      vertex 26.3803 0 13.2698
    endloop
  endfacet
  facet normal 0.346118 0 0.938191
    outer loop
      vertex 29.249 140 11.9926
      vertex 29.9858 0 11.7208
      vertex 29.9858 140 11.7208
    endloop
  endfacet
  facet normal 0.346118 0 0.938191
    outer loop
      vertex 29.9858 0 11.7208
      vertex 29.249 140 11.9926
      vertex 29.249 0 11.9926
    endloop
  endfacet
  facet normal 0.220697 0 0.975342
    outer loop
      vertex 32.9966 140 10.8289
      vertex 33.7626 0 10.6556
      vertex 33.7626 140 10.6556
    endloop
  endfacet
  facet normal 0.220697 0 0.975342
    outer loop
      vertex 33.7626 0 10.6556
      vertex 32.9966 140 10.8289
      vertex 32.9966 0 10.8289
    endloop
  endfacet
  facet normal 0.117538 0 0.993068
    outer loop
      vertex 36.0842 140 10.2567
      vertex 36.8641 0 10.1643
      vertex 36.8641 140 10.1643
    endloop
  endfacet
  facet normal 0.117538 0 0.993068
    outer loop
      vertex 36.8641 0 10.1643
      vertex 36.0842 140 10.2567
      vertex 36.0842 0 10.2567
    endloop
  endfacet
  facet normal 0.0915016 0 0.995805
    outer loop
      vertex 36.8641 140 10.1643
      vertex 37.6462 0 10.0925
      vertex 37.6462 140 10.0925
    endloop
  endfacet
  facet normal 0.0915016 0 0.995805
    outer loop
      vertex 37.6462 0 10.0925
      vertex 36.8641 140 10.1643
      vertex 36.8641 0 10.1643
    endloop
  endfacet
  facet normal 0.0392604 0 0.999229
    outer loop
      vertex 38.4299 140 10.0411
      vertex 39.2147 0 10.0103
      vertex 39.2147 140 10.0103
    endloop
  endfacet
  facet normal 0.0392604 0 0.999229
    outer loop
      vertex 39.2147 0 10.0103
      vertex 38.4299 140 10.0411
      vertex 38.4299 0 10.0411
    endloop
  endfacet
  facet normal 0.0130888 0 0.999914
    outer loop
      vertex 39.2147 140 10.0103
      vertex 40 0 10
      vertex 40 140 10
    endloop
  endfacet
  facet normal 0.0130888 0 0.999914
    outer loop
      vertex 40 0 10
      vertex 39.2147 140 10.0103
      vertex 39.2147 0 10.0103
    endloop
  endfacet
  facet normal -0.0130888 0 0.999914
    outer loop
      vertex 40 140 10
      vertex 40.7853 0 10.0103
      vertex 40.7853 140 10.0103
    endloop
  endfacet
  facet normal -0.0130888 0 0.999914
    outer loop
      vertex 40.7853 0 10.0103
      vertex 40 140 10
      vertex 40 0 10
    endloop
  endfacet
  facet normal 0.908143 -0 0.418659
    outer loop
      vertex 12.5936 0 27.7979
      vertex 12.9224 140 27.0847
      vertex 12.5936 140 27.7979
    endloop
  endfacet
  facet normal 0.908143 0 0.418659
    outer loop
      vertex 12.9224 140 27.0847
      vertex 12.5936 0 27.7979
      vertex 12.9224 0 27.0847
    endloop
  endfacet
  facet normal 0.896873 -0 0.442288
    outer loop
      vertex 12.9224 0 27.0847
      vertex 13.2698 140 26.3803
      vertex 12.9224 140 27.0847
    endloop
  endfacet
  facet normal 0.896873 0 0.442288
    outer loop
      vertex 13.2698 140 26.3803
      vertex 12.9224 0 27.0847
      vertex 13.2698 0 26.3803
    endloop
  endfacet
  facet normal 0.845728 -0 0.533614
    outer loop
      vertex 14.4208 0 24.325
      vertex 14.8399 140 23.6608
      vertex 14.4208 140 24.325
    endloop
  endfacet
  facet normal 0.845728 0 0.533614
    outer loop
      vertex 14.8399 140 23.6608
      vertex 14.4208 0 24.325
      vertex 14.8399 0 23.6608
    endloop
  endfacet
  facet normal 0.801255 -0 0.598324
    outer loop
      vertex 15.7295 0 22.3664
      vertex 16.1994 140 21.7372
      vertex 15.7295 140 22.3664
    endloop
  endfacet
  facet normal 0.801255 0 0.598324
    outer loop
      vertex 16.1994 140 21.7372
      vertex 15.7295 0 22.3664
      vertex 16.1994 0 21.7372
    endloop
  endfacet
  facet normal 0.734323 -0 0.678801
    outer loop
      vertex 17.7057 0 19.9261
      vertex 18.2388 140 19.3494
      vertex 17.7057 140 19.9261
    endloop
  endfacet
  facet normal 0.734323 0 0.678801
    outer loop
      vertex 18.2388 140 19.3494
      vertex 17.7057 0 19.9261
      vertex 18.2388 0 19.3494
    endloop
  endfacet
  facet normal 0.716302 -0 0.697791
    outer loop
      vertex 18.2388 0 19.3494
      vertex 18.7868 140 18.7868
      vertex 18.2388 140 19.3494
    endloop
  endfacet
  facet normal 0.716302 0 0.697791
    outer loop
      vertex 18.7868 140 18.7868
      vertex 18.2388 0 19.3494
      vertex 18.7868 0 18.7868
    endloop
  endfacet
  facet normal 0.697791 0 0.716302
    outer loop
      vertex 18.7868 140 18.7868
      vertex 19.3494 0 18.2388
      vertex 19.3494 140 18.2388
    endloop
  endfacet
  facet normal 0.697791 0 0.716302
    outer loop
      vertex 19.3494 0 18.2388
      vertex 18.7868 140 18.7868
      vertex 18.7868 0 18.7868
    endloop
  endfacet
  facet normal 0.92881 -0 0.370556
    outer loop
      vertex 11.9926 0 29.249
      vertex 12.2836 140 28.5195
      vertex 11.9926 140 29.249
    endloop
  endfacet
  facet normal 0.92881 0 0.370556
    outer loop
      vertex 12.2836 140 28.5195
      vertex 11.9926 0 29.249
      vertex 12.2836 0 28.5195
    endloop
  endfacet
  facet normal 0.918791 -0 0.394744
    outer loop
      vertex 12.2836 0 28.5195
      vertex 12.5936 140 27.7979
      vertex 12.2836 140 28.5195
    endloop
  endfacet
  facet normal 0.918791 0 0.394744
    outer loop
      vertex 12.5936 140 27.7979
      vertex 12.2836 0 28.5195
      vertex 12.5936 0 27.7979
    endloop
  endfacet
  facet normal 0.962455 -0 0.271441
    outer loop
      vertex 11.0222 0 32.2354
      vertex 11.2354 140 31.4795
      vertex 11.0222 140 32.2354
    endloop
  endfacet
  facet normal 0.962455 0 0.271441
    outer loop
      vertex 11.2354 140 31.4795
      vertex 11.0222 0 32.2354
      vertex 11.2354 0 31.4795
    endloop
  endfacet
  facet normal 0.95502 -0 0.296541
    outer loop
      vertex 11.2354 0 31.4795
      vertex 11.4683 140 30.7295
      vertex 11.2354 140 31.4795
    endloop
  endfacet
  facet normal 0.95502 0 0.296541
    outer loop
      vertex 11.4683 140 30.7295
      vertex 11.2354 0 31.4795
      vertex 11.4683 0 30.7295
    endloop
  endfacet
  facet normal 0.938191 -0 0.346118
    outer loop
      vertex 11.7208 0 29.9858
      vertex 11.9926 140 29.249
      vertex 11.7208 140 29.9858
    endloop
  endfacet
  facet normal 0.938191 0 0.346118
    outer loop
      vertex 11.9926 140 29.249
      vertex 11.7208 0 29.9858
      vertex 11.9926 0 29.249
    endloop
  endfacet
  facet normal 0.980785 -0 0.19509
    outer loop
      vertex 10.5024 0 34.5329
      vertex 10.6556 140 33.7626
      vertex 10.5024 140 34.5329
    endloop
  endfacet
  facet normal 0.980785 0 0.19509
    outer loop
      vertex 10.6556 140 33.7626
      vertex 10.5024 0 34.5329
      vertex 10.6556 0 33.7626
    endloop
  endfacet
  facet normal 0.985556 -0 0.16935
    outer loop
      vertex 10.3693 0 35.307
      vertex 10.5024 140 34.5329
      vertex 10.3693 140 35.307
    endloop
  endfacet
  facet normal 0.985556 0 0.16935
    outer loop
      vertex 10.5024 140 34.5329
      vertex 10.3693 0 35.307
      vertex 10.5024 0 34.5329
    endloop
  endfacet
  facet normal 0.995805 -0 0.0915016
    outer loop
      vertex 10.0925 0 37.6462
      vertex 10.1643 140 36.8641
      vertex 10.0925 140 37.6462
    endloop
  endfacet
  facet normal 0.995805 0 0.0915016
    outer loop
      vertex 10.1643 140 36.8641
      vertex 10.0925 0 37.6462
      vertex 10.1643 0 36.8641
    endloop
  endfacet
  facet normal 0.993068 -0 0.117538
    outer loop
      vertex 10.1643 0 36.8641
      vertex 10.2567 140 36.0842
      vertex 10.1643 140 36.8641
    endloop
  endfacet
  facet normal 0.993068 0 0.117538
    outer loop
      vertex 10.2567 140 36.0842
      vertex 10.1643 0 36.8641
      vertex 10.2567 0 36.0842
    endloop
  endfacet
  facet normal 0.997859 -0 0.0654028
    outer loop
      vertex 10.0411 0 38.4299
      vertex 10.0925 140 37.6462
      vertex 10.0411 140 38.4299
    endloop
  endfacet
  facet normal 0.997859 0 0.0654028
    outer loop
      vertex 10.0925 140 37.6462
      vertex 10.0411 0 38.4299
      vertex 10.0925 0 37.6462
    endloop
  endfacet
  facet normal -0.997859 0 0.0654064
    outer loop
      vertex 69.9075 0 37.6462
      vertex 69.9589 140 38.4299
      vertex 69.9075 140 37.6462
    endloop
  endfacet
  facet normal -0.997859 0 0.0654064
    outer loop
      vertex 69.9589 140 38.4299
      vertex 69.9075 0 37.6462
      vertex 69.9589 0 38.4299
    endloop
  endfacet
  facet normal -0.999229 0 0.0392556
    outer loop
      vertex 69.9589 0 38.4299
      vertex 69.9897 140 39.2147
      vertex 69.9589 140 38.4299
    endloop
  endfacet
  facet normal -0.999229 0 0.0392556
    outer loop
      vertex 69.9897 140 39.2147
      vertex 69.9589 0 38.4299
      vertex 69.9897 0 39.2147
    endloop
  endfacet
  facet normal -0.995805 0 0.0914992
    outer loop
      vertex 69.8357 0 36.8641
      vertex 69.9075 140 37.6462
      vertex 69.8357 140 36.8641
    endloop
  endfacet
  facet normal -0.995805 0 0.0914992
    outer loop
      vertex 69.9075 140 37.6462
      vertex 69.8357 0 36.8641
      vertex 69.9075 0 37.6462
    endloop
  endfacet
  facet normal 0.32144 0 0.94693
    outer loop
      vertex 29.9858 140 11.7208
      vertex 30.7295 0 11.4683
      vertex 30.7295 140 11.4683
    endloop
  endfacet
  facet normal 0.32144 0 0.94693
    outer loop
      vertex 30.7295 0 11.4683
      vertex 29.9858 140 11.7208
      vertex 29.9858 0 11.7208
    endloop
  endfacet
endsolid OpenSCAD_Model
