%FSLAX33Y33*%
%MOMM*%
%ADD10C,0.15*%
%ADD11C,0.2032*%
%ADD12C,0.5*%
%ADD13C,1.*%
%ADD14C,0.3*%
%ADD15C,0.5*%
%ADD16C,0.5*%
%ADD17C,0.5*%
%ADD18C,0.5*%
%ADD19C,0.5*%
D10*
%LNtop silkscreen_traces*%
%LNtop silkscreen component 70a06d2615890944*%
G01*
X-1410Y-11340D02*
X-1410Y-13070D01*
X0190Y-11340D02*
X0190Y-13070D01*
D11*
X-2093Y-14117D02*
X-2093Y-14117D01*
X-2093Y-14117*
X-2093Y-14006*
X-2093Y-14006*
X-2093Y-13989*
X-2093Y-13989*
X-2093Y-13975*
X-2093Y-13975*
X-2091Y-13963*
X-2091Y-13963*
X-2090Y-13954*
X-2090Y-13954*
X-2087Y-13943*
X-2087Y-13943*
X-2082Y-13932*
X-2082Y-13932*
X-2077Y-13921*
X-2077Y-13921*
X-2071Y-13910*
X-2071Y-13910*
X-2063Y-13899*
X-2063Y-13899*
X-2052Y-13888*
X-2052Y-13887*
X-2039Y-13875*
X-2039Y-13875*
X-2023Y-13862*
X-2023Y-13862*
X-2004Y-13848*
X-2004Y-13848*
X-1981Y-13831*
X-1981Y-13831*
X-1955Y-13813*
X-1955Y-13813*
X-1924Y-13794*
X-1924Y-13794*
X-1776Y-13699*
X-1776Y-13581*
X-1970Y-13705*
X-1997Y-13724*
X-2022Y-13743*
X-2044Y-13763*
X-2065Y-13784*
X-2073Y-13794*
X-2082Y-13808*
X-2091Y-13823*
X-2100Y-13841*
X-2101Y-13841*
X-2111Y-13792*
X-2125Y-13751*
X-2144Y-13716*
X-2167Y-13688*
X-2195Y-13667*
X-2226Y-13652*
X-2259Y-13642*
X-2296Y-13639*
X-2324Y-13641*
X-2352Y-13647*
X-2378Y-13656*
X-2403Y-13669*
X-2426Y-13685*
X-2444Y-13704*
X-2460Y-13725*
X-2471Y-13748*
X-2479Y-13776*
X-2485Y-13809*
X-2489Y-13849*
X-2490Y-13894*
X-2490Y-14211*
X-1776Y-14211*
X-1776Y-14117*
X-2093Y-14117*
X-2175Y-14116D02*
X-2175Y-14116D01*
X-2175Y-13913*
X-2176Y-13882*
X-2178Y-13855*
X-2182Y-13831*
X-2188Y-13811*
X-2196Y-13794*
X-2206Y-13779*
X-2218Y-13766*
X-2231Y-13755*
X-2246Y-13747*
X-2262Y-13741*
X-2278Y-13738*
X-2296Y-13736*
X-2320Y-13739*
X-2342Y-13746*
X-2362Y-13757*
X-2379Y-13773*
X-2393Y-13794*
X-2404Y-13821*
X-2410Y-13853*
X-2412Y-13890*
X-2412Y-14116*
X-2175Y-14116*
X-1859Y-13065D02*
X-1859Y-13065D01*
X-1859Y-13415*
X-1859Y-13416*
X-1872Y-13408*
X-1872Y-13408*
X-1884Y-13399*
X-1884Y-13399*
X-1896Y-13389*
X-1896Y-13389*
X-1907Y-13378*
X-1907Y-13378*
X-1922Y-13364*
X-1922Y-13364*
X-1942Y-13342*
X-1942Y-13342*
X-1967Y-13313*
X-1967Y-13313*
X-1998Y-13277*
X-2035Y-13233*
X-2069Y-13196*
X-2098Y-13165*
X-2123Y-13141*
X-2146Y-13122*
X-2168Y-13106*
X-2190Y-13093*
X-2211Y-13083*
X-2232Y-13075*
X-2253Y-13070*
X-2274Y-13067*
X-2295Y-13066*
X-2335Y-13069*
X-2372Y-13081*
X-2406Y-13099*
X-2436Y-13125*
X-2461Y-13158*
X-2479Y-13196*
X-2490Y-13239*
X-2493Y-13288*
X-2490Y-13337*
X-2480Y-13380*
X-2464Y-13418*
X-2440Y-13450*
X-2411Y-13477*
X-2376Y-13498*
X-2334Y-13512*
X-2287Y-13520*
X-2278Y-13431*
X-2309Y-13428*
X-2309Y-13428*
X-2338Y-13421*
X-2338Y-13421*
X-2362Y-13409*
X-2362Y-13409*
X-2383Y-13392*
X-2383Y-13392*
X-2400Y-13371*
X-2400Y-13371*
X-2412Y-13347*
X-2412Y-13347*
X-2419Y-13320*
X-2419Y-13320*
X-2422Y-13290*
X-2422Y-13290*
X-2419Y-13261*
X-2419Y-13261*
X-2413Y-13236*
X-2412Y-13236*
X-2401Y-13213*
X-2401Y-13213*
X-2385Y-13192*
X-2385Y-13192*
X-2366Y-13176*
X-2366Y-13176*
X-2345Y-13164*
X-2345Y-13164*
X-2322Y-13157*
X-2322Y-13157*
X-2297Y-13155*
X-2297Y-13155*
X-2272Y-13157*
X-2272Y-13157*
X-2245Y-13165*
X-2245Y-13165*
X-2219Y-13178*
X-2219Y-13178*
X-2191Y-13196*
X-2191Y-13196*
X-2160Y-13221*
X-2160Y-13221*
X-2125Y-13256*
X-2125Y-13256*
X-2085Y-13300*
X-2085Y-13300*
X-2039Y-13354*
X-2039Y-13354*
X-2009Y-13389*
X-1981Y-13420*
X-1955Y-13447*
X-1931Y-13469*
X-1907Y-13487*
X-1884Y-13503*
X-1860Y-13516*
X-1836Y-13526*
X-1821Y-13531*
X-1806Y-13535*
X-1791Y-13536*
X-1776Y-13537*
X-1776Y-13065*
X-1859Y-13065*
%LNtop silkscreen component 315c781489eea96b*%
D10*
X3000Y-3000D02*
X-3000Y-3000D01*
X-3000Y3000*
X3000Y3000*
X3000Y-3000*
D11*
X-5168Y-4566D02*
X-5168Y-4566D01*
X-5176Y-4522*
X-5188Y-4483*
X-5206Y-4449*
X-5227Y-4419*
X-5251Y-4395*
X-5278Y-4375*
X-5309Y-4361*
X-5343Y-4350*
X-5383Y-4342*
X-5429Y-4338*
X-5480Y-4336*
X-5893Y-4336*
X-5893Y-4430*
X-5480Y-4430*
X-5480Y-4430*
X-5418Y-4433*
X-5418Y-4433*
X-5367Y-4441*
X-5367Y-4441*
X-5327Y-4455*
X-5327Y-4455*
X-5298Y-4475*
X-5298Y-4475*
X-5277Y-4501*
X-5277Y-4501*
X-5262Y-4534*
X-5262Y-4534*
X-5253Y-4575*
X-5253Y-4575*
X-5250Y-4624*
X-5250Y-4624*
X-5252Y-4653*
X-5252Y-4653*
X-5256Y-4680*
X-5256Y-4680*
X-5264Y-4705*
X-5264Y-4705*
X-5274Y-4727*
X-5274Y-4728*
X-5287Y-4747*
X-5288Y-4747*
X-5303Y-4764*
X-5303Y-4764*
X-5322Y-4777*
X-5322Y-4777*
X-5343Y-4787*
X-5343Y-4787*
X-5368Y-4795*
X-5368Y-4795*
X-5399Y-4800*
X-5399Y-4800*
X-5437Y-4804*
X-5437Y-4804*
X-5480Y-4805*
X-5480Y-4805*
X-5893Y-4805*
X-5893Y-4898*
X-5480Y-4898*
X-5426Y-4897*
X-5378Y-4892*
X-5336Y-4883*
X-5300Y-4871*
X-5270Y-4855*
X-5243Y-4835*
X-5220Y-4810*
X-5200Y-4780*
X-5185Y-4746*
X-5174Y-4707*
X-5168Y-4664*
X-5166Y-4616*
X-5168Y-4566*
X-5896Y-3883D02*
X-5896Y-3883D01*
X-5896Y-3939*
X-5873Y-3952*
X-5873Y-3952*
X-5849Y-3970*
X-5849Y-3970*
X-5825Y-3992*
X-5825Y-3992*
X-5800Y-4017*
X-5800Y-4017*
X-5776Y-4046*
X-5776Y-4046*
X-5754Y-4077*
X-5754Y-4077*
X-5734Y-4110*
X-5734Y-4110*
X-5716Y-4146*
X-5632Y-4146*
X-5641Y-4125*
X-5651Y-4103*
X-5663Y-4079*
X-5677Y-4054*
X-5693Y-4030*
X-5708Y-4008*
X-5723Y-3988*
X-5738Y-3971*
X-5738Y-3970*
X-5178Y-3970*
X-5178Y-3883*
X-5896Y-3883*
D12*
X-3650Y-4200D03*
D13*
X-2200Y-2200D03*
%LNtop silkscreen component 525862a972a7dcfc*%
D10*
X14043Y5377D02*
X12820Y4154D01*
X15175Y4246D02*
X13952Y3023D01*
D14*
X13889Y5124D02*
X14921Y4091D01*
D11*
X11950Y3728D02*
X11950Y3728D01*
X11969Y3750*
X11986Y3773*
X12001Y3795*
X12013Y3817*
X12023Y3838*
X12031Y3859*
X12036Y3880*
X12039Y3902*
X12040Y3924*
X12039Y3948*
X12036Y3972*
X12031Y3998*
X12022Y4024*
X12011Y4052*
X11997Y4080*
X11980Y4109*
X11959Y4138*
X11936Y4167*
X11908Y4196*
X11874Y4227*
X11840Y4255*
X11804Y4278*
X11768Y4296*
X11732Y4310*
X11696Y4319*
X11659Y4323*
X11622Y4323*
X11594Y4319*
X11566Y4311*
X11539Y4300*
X11512Y4285*
X11492Y4271*
X11468Y4252*
X11443Y4229*
X11415Y4202*
X11241Y4028*
X11746Y3523*
X11928Y3705*
X11950Y3728*
X11753Y3649D02*
X11753Y3649D01*
X11861Y3757*
X11885Y3781*
X11904Y3804*
X11919Y3825*
X11931Y3844*
X11939Y3863*
X11945Y3881*
X11949Y3899*
X11950Y3916*
X11948Y3940*
X11943Y3965*
X11935Y3991*
X11923Y4017*
X11908Y4044*
X11888Y4072*
X11865Y4100*
X11839Y4128*
X11800Y4164*
X11762Y4192*
X11726Y4212*
X11691Y4224*
X11657Y4230*
X11626Y4231*
X11597Y4227*
X11570Y4218*
X11550Y4207*
X11527Y4191*
X11501Y4169*
X11473Y4142*
X11367Y4035*
X11753Y3649*
X11957Y4749D02*
X11957Y4749D01*
X11918Y4709*
X11925Y4684*
X11925Y4684*
X11929Y4654*
X11929Y4654*
X11931Y4622*
X11931Y4622*
X11930Y4587*
X11930Y4587*
X11927Y4549*
X11927Y4549*
X11920Y4512*
X11920Y4512*
X11911Y4474*
X11911Y4474*
X11899Y4436*
X11958Y4377*
X11967Y4397*
X11975Y4420*
X11983Y4446*
X11991Y4474*
X11998Y4502*
X12002Y4528*
X12006Y4552*
X12007Y4576*
X12008Y4576*
X12403Y4180*
X12465Y4241*
X11957Y4749*
D15*
X15843Y6046D03*
%LNtop silkscreen component c0c249d9fb733c24*%
D11*
X1433Y-11009D02*
X1433Y-11009D01*
X1477Y-11002*
X1516Y-10989*
X1551Y-10972*
X1580Y-10951*
X1604Y-10926*
X1624Y-10899*
X1639Y-10869*
X1649Y-10835*
X1657Y-10794*
X1661Y-10749*
X1663Y-10698*
X1663Y-10285*
X1569Y-10285*
X1569Y-10697*
X1569Y-10697*
X1567Y-10759*
X1567Y-10759*
X1558Y-10810*
X1558Y-10810*
X1544Y-10850*
X1544Y-10851*
X1525Y-10880*
X1525Y-10880*
X1499Y-10901*
X1499Y-10901*
X1465Y-10915*
X1465Y-10915*
X1424Y-10924*
X1424Y-10924*
X1375Y-10927*
X1375Y-10927*
X1346Y-10926*
X1346Y-10926*
X1319Y-10921*
X1319Y-10921*
X1294Y-10914*
X1294Y-10914*
X1272Y-10903*
X1272Y-10903*
X1252Y-10890*
X1252Y-10890*
X1236Y-10874*
X1236Y-10874*
X1222Y-10856*
X1222Y-10856*
X1212Y-10835*
X1212Y-10835*
X1204Y-10810*
X1204Y-10810*
X1199Y-10778*
X1199Y-10778*
X1196Y-10741*
X1196Y-10741*
X1195Y-10697*
X1195Y-10697*
X1195Y-10285*
X1101Y-10285*
X1101Y-10698*
X1103Y-10752*
X1108Y-10799*
X1116Y-10841*
X1128Y-10877*
X1144Y-10908*
X1165Y-10935*
X1190Y-10958*
X1219Y-10977*
X1254Y-10992*
X1292Y-11003*
X1336Y-11010*
X1384Y-11012*
X1433Y-11009*
X2247Y-10916D02*
X2247Y-10916D01*
X1896Y-10916*
X1896Y-10916*
X1904Y-10903*
X1904Y-10903*
X1913Y-10891*
X1913Y-10891*
X1922Y-10879*
X1922Y-10879*
X1933Y-10868*
X1933Y-10868*
X1948Y-10853*
X1948Y-10853*
X1970Y-10833*
X1970Y-10833*
X1999Y-10808*
X1999Y-10808*
X2035Y-10777*
X2079Y-10740*
X2116Y-10706*
X2146Y-10677*
X2170Y-10652*
X2189Y-10629*
X2205Y-10607*
X2218Y-10585*
X2228Y-10564*
X2236Y-10543*
X2242Y-10522*
X2245Y-10501*
X2246Y-10480*
X2242Y-10440*
X2231Y-10403*
X2212Y-10369*
X2186Y-10339*
X2153Y-10314*
X2115Y-10296*
X2072Y-10285*
X2023Y-10282*
X1975Y-10285*
X1932Y-10295*
X1894Y-10311*
X1861Y-10335*
X1834Y-10364*
X1814Y-10399*
X1799Y-10441*
X1792Y-10488*
X1881Y-10497*
X1883Y-10466*
X1883Y-10466*
X1891Y-10437*
X1891Y-10437*
X1903Y-10413*
X1903Y-10413*
X1919Y-10392*
X1920Y-10392*
X1940Y-10375*
X1940Y-10375*
X1964Y-10363*
X1964Y-10363*
X1991Y-10356*
X1991Y-10356*
X2021Y-10353*
X2021Y-10353*
X2050Y-10356*
X2050Y-10356*
X2076Y-10362*
X2076Y-10363*
X2099Y-10374*
X2099Y-10374*
X2119Y-10390*
X2119Y-10390*
X2136Y-10409*
X2136Y-10409*
X2147Y-10430*
X2147Y-10430*
X2154Y-10453*
X2154Y-10453*
X2157Y-10478*
X2157Y-10478*
X2154Y-10503*
X2154Y-10503*
X2146Y-10530*
X2146Y-10530*
X2134Y-10556*
X2134Y-10556*
X2116Y-10584*
X2116Y-10584*
X2090Y-10615*
X2090Y-10615*
X2056Y-10650*
X2056Y-10650*
X2011Y-10690*
X2011Y-10690*
X1958Y-10736*
X1958Y-10736*
X1922Y-10766*
X1891Y-10794*
X1865Y-10820*
X1843Y-10844*
X1824Y-10868*
X1809Y-10891*
X1795Y-10915*
X1785Y-10939*
X1780Y-10954*
X1777Y-10969*
X1775Y-10984*
X1775Y-10999*
X2247Y-10999*
X2247Y-10916*
D10*
X2463Y-14305D02*
X2463Y-11355D01*
X3263Y-11355*
X3263Y-14305*
X2463Y-14305*
D16*
X0463Y-11880D03*
%LNtop silkscreen component bc8831d1917e43a4*%
D11*
X-4550Y-15460D02*
X-4550Y-15460D01*
X-4521Y-15455*
X-4495Y-15447*
X-4470Y-15436*
X-4448Y-15422*
X-4430Y-15404*
X-4414Y-15384*
X-4402Y-15361*
X-4392Y-15334*
X-4385Y-15302*
X-4381Y-15264*
X-4380Y-15222*
X-4380Y-14735*
X-4474Y-14735*
X-4474Y-15227*
X-4474Y-15227*
X-4474Y-15256*
X-4474Y-15256*
X-4476Y-15281*
X-4476Y-15281*
X-4479Y-15301*
X-4479Y-15301*
X-4484Y-15317*
X-4484Y-15317*
X-4489Y-15330*
X-4490Y-15331*
X-4497Y-15342*
X-4497Y-15342*
X-4507Y-15353*
X-4507Y-15353*
X-4519Y-15362*
X-4519Y-15362*
X-4533Y-15369*
X-4533Y-15369*
X-4548Y-15374*
X-4548Y-15374*
X-4564Y-15377*
X-4564Y-15377*
X-4581Y-15378*
X-4581Y-15378*
X-4604Y-15376*
X-4604Y-15376*
X-4624Y-15371*
X-4625Y-15371*
X-4642Y-15361*
X-4642Y-15361*
X-4657Y-15348*
X-4657Y-15348*
X-4670Y-15329*
X-4670Y-15329*
X-4679Y-15304*
X-4679Y-15304*
X-4685Y-15273*
X-4685Y-15273*
X-4688Y-15236*
X-4773Y-15247*
X-4770Y-15297*
X-4762Y-15340*
X-4746Y-15377*
X-4725Y-15408*
X-4697Y-15431*
X-4664Y-15448*
X-4625Y-15458*
X-4581Y-15462*
X-4550Y-15460*
X-3799Y-15366D02*
X-3799Y-15366D01*
X-4150Y-15366*
X-4150Y-15366*
X-4142Y-15353*
X-4142Y-15353*
X-4133Y-15341*
X-4133Y-15341*
X-4124Y-15329*
X-4124Y-15329*
X-4113Y-15318*
X-4113Y-15318*
X-4098Y-15303*
X-4098Y-15303*
X-4076Y-15283*
X-4076Y-15283*
X-4047Y-15258*
X-4047Y-15258*
X-4011Y-15227*
X-3967Y-15190*
X-3930Y-15156*
X-3899Y-15127*
X-3876Y-15102*
X-3857Y-15079*
X-3841Y-15057*
X-3828Y-15035*
X-3817Y-15014*
X-3810Y-14993*
X-3804Y-14972*
X-3801Y-14951*
X-3800Y-14930*
X-3804Y-14890*
X-3815Y-14853*
X-3834Y-14819*
X-3860Y-14789*
X-3892Y-14764*
X-3930Y-14746*
X-3974Y-14735*
X-4023Y-14732*
X-4071Y-14735*
X-4114Y-14745*
X-4152Y-14761*
X-4185Y-14785*
X-4212Y-14814*
X-4232Y-14849*
X-4247Y-14891*
X-4254Y-14938*
X-4165Y-14947*
X-4163Y-14916*
X-4163Y-14916*
X-4155Y-14887*
X-4155Y-14887*
X-4143Y-14863*
X-4143Y-14863*
X-4126Y-14842*
X-4126Y-14842*
X-4106Y-14825*
X-4106Y-14825*
X-4082Y-14813*
X-4082Y-14813*
X-4055Y-14806*
X-4055Y-14806*
X-4025Y-14803*
X-4025Y-14803*
X-3996Y-14806*
X-3996Y-14806*
X-3970Y-14812*
X-3970Y-14813*
X-3947Y-14824*
X-3947Y-14824*
X-3927Y-14840*
X-3927Y-14840*
X-3910Y-14859*
X-3910Y-14859*
X-3899Y-14880*
X-3899Y-14880*
X-3892Y-14903*
X-3892Y-14903*
X-3889Y-14928*
X-3889Y-14928*
X-3892Y-14953*
X-3892Y-14953*
X-3900Y-14980*
X-3900Y-14980*
X-3912Y-15006*
X-3912Y-15006*
X-3930Y-15034*
X-3930Y-15034*
X-3956Y-15065*
X-3956Y-15065*
X-3990Y-15100*
X-3990Y-15100*
X-4035Y-15140*
X-4035Y-15140*
X-4088Y-15186*
X-4088Y-15186*
X-4124Y-15216*
X-4155Y-15244*
X-4181Y-15270*
X-4203Y-15294*
X-4222Y-15318*
X-4237Y-15341*
X-4251Y-15365*
X-4261Y-15389*
X-4266Y-15404*
X-4269Y-15419*
X-4271Y-15434*
X-4271Y-15449*
X-3799Y-15449*
X-3799Y-15366*
D10*
X5230Y-19600D02*
X-5230Y-19600D01*
X-5230Y-14600*
X5230Y-14600*
X5230Y-19600*
D13*
X-5950Y-15104D03*
%LNtop silkscreen component d76f67c5665ae18d*%
D11*
X7486Y-11325D02*
X7486Y-11325D01*
X7513Y-11282*
X7531Y-11236*
X7541Y-11188*
X7542Y-11139*
X7534Y-11089*
X7517Y-11038*
X7491Y-10988*
X7408Y-11037*
X7429Y-11075*
X7429Y-11075*
X7444Y-11113*
X7444Y-11113*
X7451Y-11150*
X7451Y-11150*
X7451Y-11186*
X7451Y-11186*
X7445Y-11221*
X7445Y-11221*
X7432Y-11254*
X7432Y-11254*
X7414Y-11285*
X7414Y-11285*
X7388Y-11314*
X7388Y-11314*
X7364Y-11335*
X7364Y-11335*
X7338Y-11353*
X7338Y-11353*
X7309Y-11367*
X7309Y-11367*
X7278Y-11376*
X7278Y-11376*
X7246Y-11382*
X7246Y-11382*
X7214Y-11381*
X7214Y-11381*
X7181Y-11375*
X7181Y-11375*
X7148Y-11363*
X7148Y-11363*
X7114Y-11346*
X7114Y-11346*
X7081Y-11325*
X7081Y-11325*
X7048Y-11299*
X7048Y-11299*
X7016Y-11269*
X7016Y-11269*
X6992Y-11243*
X6992Y-11243*
X6970Y-11216*
X6970Y-11216*
X6951Y-11186*
X6951Y-11186*
X6934Y-11156*
X6934Y-11156*
X6921Y-11124*
X6921Y-11124*
X6914Y-11092*
X6914Y-11091*
X6911Y-11059*
X6911Y-11059*
X6914Y-11025*
X6914Y-11025*
X6923Y-10992*
X6923Y-10992*
X6937Y-10960*
X6937Y-10960*
X6958Y-10929*
X6958Y-10929*
X6984Y-10899*
X6984Y-10899*
X7010Y-10877*
X7010Y-10877*
X7037Y-10859*
X7037Y-10859*
X7065Y-10847*
X7065Y-10847*
X7094Y-10840*
X7094Y-10840*
X7124Y-10839*
X7124Y-10839*
X7156Y-10843*
X7156Y-10843*
X7190Y-10854*
X7190Y-10854*
X7225Y-10869*
X7275Y-10789*
X7230Y-10768*
X7185Y-10755*
X7140Y-10750*
X7095Y-10753*
X7051Y-10763*
X7008Y-10781*
X6968Y-10807*
X6929Y-10841*
X6898Y-10876*
X6872Y-10913*
X6852Y-10953*
X6837Y-10995*
X6828Y-11038*
X6825Y-11081*
X6829Y-11125*
X6840Y-11170*
X6858Y-11213*
X6881Y-11256*
X6912Y-11297*
X6948Y-11338*
X6985Y-11372*
X7025Y-11401*
X7066Y-11426*
X7110Y-11446*
X7155Y-11461*
X7199Y-11469*
X7242Y-11470*
X7284Y-11465*
X7326Y-11452*
X7368Y-11431*
X7410Y-11402*
X7451Y-11365*
X7486Y-11325*
X7435Y-10348D02*
X7435Y-10348D01*
X7396Y-10388*
X7402Y-10414*
X7402Y-10414*
X7407Y-10443*
X7407Y-10443*
X7409Y-10475*
X7409Y-10475*
X7408Y-10511*
X7408Y-10511*
X7404Y-10548*
X7404Y-10548*
X7398Y-10585*
X7398Y-10585*
X7388Y-10623*
X7388Y-10623*
X7376Y-10661*
X7436Y-10720*
X7444Y-10700*
X7453Y-10677*
X7461Y-10651*
X7469Y-10624*
X7475Y-10596*
X7480Y-10569*
X7483Y-10545*
X7485Y-10522*
X7485Y-10521*
X7881Y-10917*
X7943Y-10856*
X7435Y-10348*
X8137Y-10521D02*
X8137Y-10521D01*
X8067Y-10591*
X8137Y-10661*
X8207Y-10591*
X8137Y-10521*
X8025Y-9759D02*
X8025Y-9759D01*
X7985Y-9798*
X7992Y-9824*
X7992Y-9824*
X7997Y-9853*
X7997Y-9853*
X7998Y-9886*
X7998Y-9886*
X7998Y-9921*
X7998Y-9921*
X7994Y-9958*
X7994Y-9958*
X7988Y-9996*
X7988Y-9996*
X7978Y-10033*
X7978Y-10033*
X7966Y-10071*
X8025Y-10131*
X8034Y-10110*
X8042Y-10087*
X8051Y-10062*
X8058Y-10034*
X8065Y-10006*
X8070Y-9980*
X8073Y-9955*
X8074Y-9932*
X8075Y-9932*
X8471Y-10328*
X8532Y-10266*
X8025Y-9759*
D10*
X7901Y-12200D02*
X12143Y-7957D01*
X15679Y-11493*
X15679Y-12907*
X12851Y-15736*
X11436Y-15736*
X7901Y-12200*
D17*
X9845Y-8558D03*
%LNtop silkscreen component 2765b29b619f0f72*%
D10*
X0835Y-8075D02*
X2565Y-8075D01*
X0835Y-6475D02*
X2565Y-6475D01*
D11*
X2825Y-6233D02*
X2825Y-6233D01*
X2875Y-6221*
X2920Y-6202*
X2960Y-6176*
X2996Y-6141*
X3026Y-6101*
X3050Y-6053*
X3067Y-5998*
X2974Y-5975*
X2962Y-6017*
X2962Y-6017*
X2945Y-6053*
X2945Y-6054*
X2924Y-6085*
X2924Y-6085*
X2899Y-6111*
X2899Y-6111*
X2870Y-6131*
X2870Y-6131*
X2837Y-6145*
X2837Y-6145*
X2802Y-6154*
X2802Y-6154*
X2764Y-6157*
X2764Y-6157*
X2732Y-6155*
X2732Y-6155*
X2701Y-6148*
X2701Y-6148*
X2671Y-6138*
X2671Y-6138*
X2642Y-6123*
X2642Y-6123*
X2616Y-6104*
X2616Y-6104*
X2593Y-6081*
X2593Y-6080*
X2574Y-6053*
X2574Y-6053*
X2559Y-6021*
X2559Y-6021*
X2547Y-5985*
X2547Y-5985*
X2539Y-5947*
X2539Y-5947*
X2534Y-5905*
X2534Y-5905*
X2532Y-5861*
X2532Y-5861*
X2534Y-5826*
X2534Y-5826*
X2538Y-5791*
X2538Y-5791*
X2545Y-5757*
X2545Y-5757*
X2555Y-5724*
X2555Y-5724*
X2568Y-5692*
X2568Y-5692*
X2586Y-5664*
X2586Y-5664*
X2607Y-5639*
X2607Y-5639*
X2633Y-5617*
X2633Y-5617*
X2662Y-5600*
X2662Y-5600*
X2695Y-5587*
X2695Y-5587*
X2731Y-5580*
X2731Y-5580*
X2771Y-5578*
X2771Y-5578*
X2806Y-5580*
X2806Y-5580*
X2837Y-5586*
X2837Y-5586*
X2865Y-5598*
X2865Y-5598*
X2891Y-5613*
X2891Y-5613*
X2913Y-5634*
X2913Y-5634*
X2932Y-5660*
X2932Y-5660*
X2949Y-5691*
X2949Y-5691*
X2963Y-5727*
X3055Y-5705*
X3038Y-5659*
X3015Y-5618*
X2987Y-5582*
X2953Y-5552*
X2915Y-5528*
X2872Y-5511*
X2825Y-5501*
X2773Y-5497*
X2727Y-5500*
X2682Y-5508*
X2640Y-5522*
X2600Y-5541*
X2563Y-5565*
X2530Y-5594*
X2502Y-5628*
X2478Y-5667*
X2460Y-5710*
X2446Y-5757*
X2438Y-5808*
X2436Y-5862*
X2438Y-5912*
X2445Y-5961*
X2457Y-6008*
X2473Y-6053*
X2495Y-6095*
X2520Y-6132*
X2550Y-6164*
X2584Y-6190*
X2623Y-6210*
X2667Y-6225*
X2716Y-6234*
X2772Y-6237*
X2825Y-6233*
X3610Y-6141D02*
X3610Y-6141D01*
X3260Y-6141*
X3259Y-6141*
X3267Y-6128*
X3267Y-6128*
X3276Y-6116*
X3276Y-6116*
X3286Y-6104*
X3286Y-6104*
X3297Y-6093*
X3297Y-6093*
X3311Y-6078*
X3311Y-6078*
X3333Y-6058*
X3333Y-6058*
X3362Y-6033*
X3362Y-6033*
X3398Y-6002*
X3442Y-5965*
X3479Y-5931*
X3510Y-5902*
X3534Y-5877*
X3553Y-5854*
X3569Y-5832*
X3582Y-5810*
X3592Y-5789*
X3600Y-5768*
X3605Y-5747*
X3608Y-5726*
X3609Y-5705*
X3606Y-5665*
X3594Y-5628*
X3576Y-5594*
X3550Y-5564*
X3517Y-5539*
X3479Y-5521*
X3436Y-5510*
X3387Y-5507*
X3338Y-5510*
X3295Y-5520*
X3257Y-5536*
X3225Y-5560*
X3198Y-5589*
X3177Y-5624*
X3163Y-5666*
X3155Y-5713*
X3244Y-5722*
X3247Y-5691*
X3247Y-5691*
X3254Y-5662*
X3254Y-5662*
X3266Y-5638*
X3266Y-5638*
X3283Y-5617*
X3283Y-5617*
X3304Y-5600*
X3304Y-5600*
X3328Y-5588*
X3328Y-5588*
X3355Y-5581*
X3355Y-5581*
X3385Y-5578*
X3385Y-5578*
X3414Y-5581*
X3414Y-5581*
X3439Y-5587*
X3439Y-5588*
X3462Y-5599*
X3462Y-5599*
X3483Y-5615*
X3483Y-5615*
X3499Y-5634*
X3499Y-5634*
X3511Y-5655*
X3511Y-5655*
X3518Y-5678*
X3518Y-5678*
X3520Y-5703*
X3520Y-5703*
X3518Y-5728*
X3518Y-5728*
X3510Y-5755*
X3510Y-5755*
X3497Y-5781*
X3497Y-5781*
X3479Y-5809*
X3479Y-5809*
X3454Y-5840*
X3454Y-5840*
X3419Y-5875*
X3419Y-5875*
X3375Y-5915*
X3375Y-5915*
X3321Y-5961*
X3321Y-5961*
X3286Y-5991*
X3255Y-6019*
X3228Y-6045*
X3206Y-6069*
X3188Y-6093*
X3172Y-6116*
X3159Y-6140*
X3149Y-6164*
X3144Y-6179*
X3140Y-6194*
X3139Y-6209*
X3138Y-6224*
X3610Y-6224*
X3610Y-6141*
%LNtop silkscreen component ed86c8aca3bfac96*%
D10*
X10543Y-0386D02*
X11766Y0837D01*
X9412Y0746D02*
X10635Y1968D01*
D11*
X8239Y0339D02*
X8239Y0339D01*
X8239Y0340*
X8317Y0418*
X8317Y0418*
X8329Y0430*
X8329Y0430*
X8340Y0439*
X8340Y0439*
X8349Y0447*
X8349Y0447*
X8356Y0453*
X8356Y0453*
X8367Y0458*
X8367Y0458*
X8377Y0463*
X8377Y0463*
X8389Y0467*
X8389Y0467*
X8401Y0470*
X8401Y0470*
X8414Y0472*
X8414Y0472*
X8430Y0473*
X8430Y0473*
X8448Y0472*
X8448Y0472*
X8469Y0470*
X8469Y0470*
X8492Y0467*
X8492Y0467*
X8520Y0462*
X8520Y0462*
X8551Y0456*
X8551Y0456*
X8587Y0449*
X8587Y0449*
X8759Y0410*
X8842Y0494*
X8617Y0543*
X8585Y0549*
X8553Y0553*
X8523Y0555*
X8495Y0555*
X8481Y0553*
X8465Y0550*
X8448Y0546*
X8429Y0540*
X8428Y0540*
X8456Y0581*
X8475Y0621*
X8486Y0658*
X8489Y0695*
X8485Y0730*
X8474Y0762*
X8457Y0792*
X8433Y0820*
X8412Y0839*
X8388Y0855*
X8363Y0867*
X8336Y0875*
X8309Y0880*
X8283Y0880*
X8257Y0876*
X8232Y0867*
X8207Y0854*
X8179Y0834*
X8148Y0809*
X8116Y0778*
X7892Y0554*
X8397Y0049*
X8463Y0115*
X8239Y0339*
X8181Y0398D02*
X8181Y0398D01*
X8325Y0542*
X8346Y0564*
X8364Y0585*
X8378Y0605*
X8388Y0623*
X8394Y0641*
X8398Y0658*
X8399Y0675*
X8397Y0693*
X8392Y0709*
X8385Y0725*
X8376Y0739*
X8365Y0752*
X8346Y0767*
X8325Y0778*
X8303Y0784*
X8280Y0785*
X8255Y0780*
X8229Y0768*
X8202Y0750*
X8174Y0725*
X8014Y0565*
X8181Y0398*
X8607Y1274D02*
X8607Y1274D01*
X8568Y1234*
X8575Y1209*
X8575Y1209*
X8579Y1179*
X8579Y1179*
X8581Y1147*
X8581Y1147*
X8580Y1112*
X8580Y1112*
X8577Y1074*
X8577Y1074*
X8570Y1037*
X8570Y1037*
X8561Y0999*
X8561Y0999*
X8549Y0961*
X8608Y0902*
X8617Y0922*
X8625Y0945*
X8633Y0971*
X8641Y0999*
X8648Y1027*
X8652Y1053*
X8656Y1078*
X8657Y1101*
X8658Y1101*
X9054Y0705*
X9115Y0766*
X8607Y1274*
%LNtop silkscreen component e0be6c5e092cf7dd*%
X11939Y-6538D02*
X11939Y-6538D01*
X11943Y-6488*
X11939Y-6439*
X11926Y-6392*
X11905Y-6348*
X11875Y-6307*
X11837Y-6269*
X11791Y-6236*
X11739Y-6317*
X11775Y-6342*
X11775Y-6342*
X11805Y-6369*
X11805Y-6369*
X11829Y-6398*
X11829Y-6398*
X11845Y-6431*
X11845Y-6431*
X11856Y-6465*
X11856Y-6465*
X11859Y-6500*
X11859Y-6500*
X11857Y-6536*
X11857Y-6536*
X11847Y-6573*
X11847Y-6573*
X11836Y-6603*
X11835Y-6603*
X11820Y-6631*
X11820Y-6631*
X11801Y-6656*
X11801Y-6656*
X11778Y-6679*
X11778Y-6679*
X11751Y-6698*
X11751Y-6698*
X11722Y-6712*
X11722Y-6712*
X11690Y-6722*
X11690Y-6722*
X11655Y-6726*
X11655Y-6726*
X11618Y-6726*
X11618Y-6726*
X11578Y-6722*
X11578Y-6722*
X11538Y-6714*
X11538Y-6714*
X11495Y-6702*
X11495Y-6702*
X11462Y-6690*
X11462Y-6690*
X11430Y-6675*
X11430Y-6675*
X11400Y-6658*
X11400Y-6658*
X11371Y-6638*
X11371Y-6638*
X11345Y-6616*
X11345Y-6616*
X11323Y-6590*
X11323Y-6590*
X11306Y-6562*
X11306Y-6562*
X11294Y-6531*
X11294Y-6531*
X11287Y-6498*
X11287Y-6498*
X11285Y-6463*
X11285Y-6463*
X11289Y-6426*
X11289Y-6426*
X11299Y-6387*
X11299Y-6387*
X11312Y-6355*
X11312Y-6355*
X11328Y-6328*
X11328Y-6327*
X11347Y-6304*
X11347Y-6304*
X11370Y-6285*
X11370Y-6285*
X11396Y-6270*
X11396Y-6270*
X11427Y-6259*
X11427Y-6259*
X11462Y-6253*
X11462Y-6253*
X11500Y-6251*
X11508Y-6157*
X11459Y-6159*
X11413Y-6167*
X11370Y-6183*
X11331Y-6206*
X11296Y-6235*
X11267Y-6271*
X11243Y-6313*
X11223Y-6361*
X11212Y-6406*
X11206Y-6450*
X11205Y-6495*
X11211Y-6539*
X11222Y-6582*
X11240Y-6622*
X11264Y-6659*
X11293Y-6693*
X11329Y-6725*
X11369Y-6752*
X11415Y-6775*
X11466Y-6794*
X11514Y-6807*
X11563Y-6816*
X11611Y-6819*
X11660Y-6817*
X11706Y-6810*
X11749Y-6798*
X11788Y-6779*
X11823Y-6755*
X11855Y-6724*
X11882Y-6687*
X11906Y-6642*
X11926Y-6591*
X11939Y-6538*
X11451Y-5692D02*
X11451Y-5692D01*
X11433Y-5745*
X11451Y-5765*
X11451Y-5765*
X11468Y-5789*
X11468Y-5789*
X11485Y-5817*
X11485Y-5817*
X11500Y-5849*
X11500Y-5849*
X11514Y-5883*
X11514Y-5883*
X11525Y-5920*
X11525Y-5920*
X11534Y-5958*
X11534Y-5958*
X11540Y-5997*
X11620Y-6023*
X11618Y-6001*
X11615Y-5976*
X11611Y-5950*
X11605Y-5922*
X11599Y-5894*
X11591Y-5868*
X11583Y-5845*
X11573Y-5824*
X11574Y-5823*
X12106Y-5996*
X12133Y-5913*
X11451Y-5692*
X12155Y-5527D02*
X12155Y-5527D01*
X12124Y-5621*
X12218Y-5651*
X12249Y-5557*
X12155Y-5527*
X12352Y-4970D02*
X12352Y-4970D01*
X12244Y-5304*
X12243Y-5304*
X12234Y-5292*
X12234Y-5292*
X12225Y-5280*
X12225Y-5280*
X12217Y-5267*
X12217Y-5267*
X12209Y-5254*
X12209Y-5254*
X12200Y-5235*
X12200Y-5235*
X12188Y-5208*
X12187Y-5208*
X12172Y-5173*
X12172Y-5173*
X12155Y-5129*
X12132Y-5076*
X12112Y-5030*
X12093Y-4992*
X12077Y-4961*
X12061Y-4936*
X12045Y-4914*
X12028Y-4895*
X12012Y-4879*
X11994Y-4865*
X11976Y-4854*
X11957Y-4844*
X11937Y-4836*
X11897Y-4827*
X11859Y-4827*
X11821Y-4834*
X11784Y-4850*
X11750Y-4873*
X11722Y-4903*
X11698Y-4941*
X11680Y-4987*
X11668Y-5034*
X11664Y-5078*
X11668Y-5119*
X11680Y-5157*
X11699Y-5192*
X11727Y-5223*
X11762Y-5249*
X11804Y-5271*
X11840Y-5189*
X11811Y-5177*
X11811Y-5177*
X11787Y-5161*
X11787Y-5161*
X11767Y-5142*
X11767Y-5142*
X11752Y-5120*
X11752Y-5119*
X11743Y-5095*
X11743Y-5095*
X11739Y-5068*
X11739Y-5068*
X11740Y-5040*
X11740Y-5040*
X11747Y-5011*
X11747Y-5011*
X11758Y-4984*
X11758Y-4984*
X11773Y-4962*
X11773Y-4962*
X11790Y-4943*
X11791Y-4943*
X11812Y-4929*
X11812Y-4929*
X11835Y-4919*
X11835Y-4919*
X11859Y-4915*
X11859Y-4915*
X11883Y-4915*
X11883Y-4915*
X11907Y-4921*
X11908Y-4921*
X11931Y-4931*
X11931Y-4931*
X11953Y-4946*
X11953Y-4946*
X11975Y-4967*
X11975Y-4967*
X11996Y-4992*
X11996Y-4992*
X12017Y-5026*
X12017Y-5026*
X12040Y-5070*
X12040Y-5070*
X12065Y-5124*
X12065Y-5124*
X12091Y-5189*
X12091Y-5189*
X12109Y-5232*
X12126Y-5270*
X12142Y-5304*
X12159Y-5332*
X12175Y-5357*
X12193Y-5379*
X12212Y-5399*
X12231Y-5416*
X12244Y-5426*
X12257Y-5433*
X12271Y-5440*
X12285Y-5445*
X12431Y-4996*
X12352Y-4970*
D10*
X12620Y-7226D02*
X14474Y-1520D01*
X19229Y-3065*
X19871Y-4325*
X18635Y-8129*
X17375Y-8771*
X12620Y-7226*
D18*
X12699Y-3099D03*
%LNtop silkscreen component 9deb23392e05f969*%
D10*
X15992Y6268D02*
X6268Y15992D01*
X8808Y18532*
X18532Y8808*
X15992Y6268*
D11*
X8135Y18156D02*
X8135Y18156D01*
X8151Y18180*
X8165Y18204*
X8174Y18230*
X8179Y18255*
X8180Y18281*
X8177Y18306*
X8169Y18331*
X8157Y18357*
X8139Y18385*
X8116Y18414*
X8087Y18445*
X7742Y18789*
X7676Y18723*
X8024Y18375*
X8024Y18375*
X8044Y18354*
X8044Y18354*
X8060Y18335*
X8060Y18335*
X8072Y18319*
X8072Y18319*
X8081Y18304*
X8081Y18304*
X8086Y18291*
X8086Y18291*
X8089Y18277*
X8089Y18277*
X8089Y18262*
X8089Y18262*
X8087Y18247*
X8087Y18247*
X8082Y18233*
X8082Y18233*
X8075Y18219*
X8075Y18219*
X8066Y18205*
X8066Y18205*
X8055Y18192*
X8055Y18192*
X8037Y18177*
X8037Y18177*
X8019Y18167*
X8019Y18167*
X8000Y18161*
X8000Y18161*
X7980Y18160*
X7979Y18160*
X7958Y18164*
X7958Y18164*
X7934Y18175*
X7934Y18175*
X7907Y18193*
X7907Y18193*
X7878Y18217*
X7827Y18149*
X7864Y18116*
X7901Y18091*
X7937Y18076*
X7974Y18070*
X8010Y18073*
X8046Y18084*
X8080Y18105*
X8114Y18133*
X8135Y18156*
X8535Y18559D02*
X8535Y18559D01*
X8558Y18600*
X8573Y18643*
X8578Y18689*
X8575Y18734*
X8563Y18776*
X8543Y18814*
X8514Y18849*
X8489Y18871*
X8463Y18888*
X8436Y18899*
X8408Y18906*
X8380Y18907*
X8351Y18903*
X8323Y18894*
X8295Y18879*
X8295Y18879*
X8303Y18905*
X8307Y18929*
X8307Y18952*
X8304Y18974*
X8298Y18996*
X8289Y19016*
X8277Y19034*
X8262Y19051*
X8244Y19067*
X8224Y19080*
X8202Y19091*
X8179Y19098*
X8154Y19102*
X8129Y19103*
X8103Y19100*
X8077Y19093*
X8052Y19083*
X8027Y19070*
X8005Y19054*
X7983Y19035*
X7957Y19004*
X7937Y18971*
X7924Y18937*
X7917Y18900*
X7918Y18863*
X7926Y18826*
X7940Y18789*
X7962Y18753*
X8034Y18803*
X8018Y18829*
X8018Y18829*
X8006Y18854*
X8006Y18854*
X7999Y18878*
X7999Y18878*
X7997Y18902*
X7997Y18902*
X8000Y18925*
X8000Y18925*
X8007Y18947*
X8007Y18947*
X8019Y18967*
X8019Y18967*
X8035Y18986*
X8035Y18986*
X8054Y19002*
X8054Y19002*
X8074Y19014*
X8074Y19014*
X8095Y19021*
X8095Y19021*
X8118Y19023*
X8118Y19023*
X8140Y19022*
X8140Y19022*
X8161Y19015*
X8161Y19015*
X8180Y19005*
X8180Y19005*
X8198Y18990*
X8198Y18990*
X8216Y18967*
X8216Y18967*
X8227Y18944*
X8227Y18944*
X8232Y18919*
X8232Y18919*
X8230Y18894*
X8230Y18894*
X8223Y18868*
X8223Y18868*
X8212Y18844*
X8212Y18844*
X8197Y18822*
X8197Y18822*
X8179Y18801*
X8179Y18801*
X8177Y18799*
X8177Y18799*
X8175Y18797*
X8175Y18797*
X8172Y18794*
X8172Y18794*
X8169Y18792*
X8216Y18732*
X8225Y18747*
X8225Y18747*
X8234Y18760*
X8234Y18760*
X8243Y18772*
X8243Y18772*
X8252Y18782*
X8252Y18782*
X8275Y18801*
X8275Y18801*
X8299Y18814*
X8299Y18814*
X8324Y18823*
X8324Y18823*
X8352Y18825*
X8352Y18825*
X8379Y18823*
X8379Y18823*
X8404Y18815*
X8404Y18815*
X8428Y18801*
X8428Y18801*
X8450Y18783*
X8451Y18783*
X8470Y18759*
X8470Y18759*
X8484Y18734*
X8484Y18734*
X8493Y18706*
X8493Y18706*
X8496Y18677*
X8496Y18677*
X8493Y18647*
X8493Y18647*
X8485Y18620*
X8485Y18620*
X8471Y18595*
X8471Y18595*
X8452Y18572*
X8452Y18572*
X8433Y18556*
X8433Y18556*
X8412Y18544*
X8412Y18543*
X8389Y18536*
X8389Y18536*
X8366Y18532*
X8366Y18532*
X8340Y18534*
X8340Y18534*
X8313Y18541*
X8313Y18541*
X8284Y18554*
X8284Y18554*
X8253Y18572*
X8200Y18502*
X8235Y18478*
X8272Y18461*
X8311Y18452*
X8352Y18450*
X8393Y18456*
X8431Y18470*
X8468Y18491*
X8502Y18521*
X8535Y18559*
D17*
X7184Y14368D03*
%LNtop silkscreen component f05bc982b390cfb7*%
D11*
X-8989Y15323D02*
X-8989Y15323D01*
X-8965Y15306*
X-8941Y15293*
X-8916Y15284*
X-8890Y15278*
X-8865Y15277*
X-8839Y15280*
X-8814Y15288*
X-8788Y15301*
X-8761Y15318*
X-8731Y15342*
X-8700Y15371*
X-8356Y15716*
X-8422Y15782*
X-8771Y15433*
X-8771Y15433*
X-8791Y15414*
X-8791Y15414*
X-8810Y15398*
X-8810Y15398*
X-8826Y15385*
X-8826Y15385*
X-8841Y15377*
X-8841Y15377*
X-8855Y15372*
X-8855Y15372*
X-8869Y15369*
X-8869Y15369*
X-8883Y15368*
X-8883Y15368*
X-8898Y15371*
X-8898Y15371*
X-8913Y15375*
X-8913Y15375*
X-8927Y15382*
X-8927Y15382*
X-8940Y15391*
X-8940Y15391*
X-8953Y15403*
X-8953Y15403*
X-8968Y15420*
X-8968Y15420*
X-8978Y15439*
X-8978Y15439*
X-8984Y15458*
X-8984Y15458*
X-8985Y15478*
X-8985Y15478*
X-8981Y15500*
X-8981Y15500*
X-8970Y15524*
X-8970Y15524*
X-8952Y15550*
X-8952Y15550*
X-8928Y15579*
X-8996Y15631*
X-9030Y15594*
X-9054Y15557*
X-9069Y15520*
X-9075Y15483*
X-9073Y15447*
X-9061Y15412*
X-9041Y15377*
X-9012Y15343*
X-8989Y15323*
X-8036Y15399D02*
X-8036Y15399D01*
X-8075Y15439*
X-8101Y15432*
X-8101Y15432*
X-8130Y15427*
X-8130Y15427*
X-8162Y15426*
X-8162Y15426*
X-8198Y15426*
X-8198Y15426*
X-8235Y15430*
X-8235Y15430*
X-8272Y15436*
X-8272Y15436*
X-8310Y15446*
X-8310Y15446*
X-8348Y15458*
X-8407Y15399*
X-8387Y15390*
X-8364Y15382*
X-8338Y15373*
X-8311Y15366*
X-8283Y15359*
X-8256Y15354*
X-8232Y15351*
X-8209Y15350*
X-8209Y15349*
X-8604Y14953*
X-8543Y14892*
X-8036Y15399*
D10*
X-13365Y9552D02*
X-7977Y14940D01*
X-4385Y11348*
X-9773Y5960*
X-13365Y9552*
D19*
X-7838Y13083D03*
M02*