<?xml version="1.0" encoding="UTF-8"?>
<svg width="199px" height="259px" viewBox="0 0 199 259" version="1.1" xmlns="http://www.w3.org/2000/svg" xmlns:xlink="http://www.w3.org/1999/xlink">
    <!-- Generator: Sketch 41.2 (35397) - http://www.bohemiancoding.com/sketch -->
    <title>fabgrid-logo</title>
    <desc>Created with Sketch.</desc>
    <defs></defs>
    <g id="Page-1" stroke="none" stroke-width="1" fill="none" fill-rule="evenodd">
        <g id="fabgrid-logo" stroke="#FFFFFF" stroke-width="5">
            <g id="Top" transform="translate(53.000000, 22.000000)">
                <path d="M23.2183191,27.7779158 L0.74966218,13.4736899 C0.74966218,13.4736899 29.0036371,-6.05090229 64.3832663,1.99778322 C99.7628955,10.0464687 115.997974,37.8217594 115.997974,37.8217594" id="Path"></path>
                <path d="M21.5765268,30.1698309 C15.4923224,35.1719464 15.4845082,42.1826585 15.4923224,42.9482975 C15.6050273,53.7956011 30.2927322,62.0417763 46.3043443,61.8758428 C62.3159563,61.7099093 73.7198907,52.0079078 73.6390437,42.4628217 C73.5476776,31.6158186 63.1187158,23.1231479 47.1131148,22.6457884 C41.6945628,22.4840633 36.4713661,23.5662386 34.0928415,24.0207522 C34.0928415,24.0207522 27.702829,24.7242289 21.5765268,30.1698309 Z" id="path7"></path>
            </g>
            <g id="Left" transform="translate(17.000000, 64.000000)" stroke-dasharray="8,3">
                <path d="M64.8630328,82.7712658 C72.1591853,78.3143437 75.188306,61.610231 67.054918,47.8146011 C58.9224317,34.01837 44.7555738,27.3013685 35.4127869,32.8108428 C26.0696995,38.3206177 25.0878142,53.9715769 33.2196995,67.7675075 C34.5318852,69.9928806 38.3965791,76.6631231 46.4643335,80.7806171 C54.5320879,84.8981111 58.1318334,85.5425517 64.8630328,82.7712658 Z" id="path5"></path>
                <path d="M47.8670545,81.7192398 L47.1464918,112.851552 C47.1464918,112.851552 16.3352302,101.052738 4.88388741,67.7323169 C-6.56745535,34.4118958 10.315329,0.95456782 10.315329,0.95456782" id="Path-3"></path>
            </g>
            <g id="Bottom" transform="translate(83.000000, 94.000000)">
                <path d="M68.1437978,5.40625972 C67.3153607,4.59371753 64.6878142,2.54390625 64.0193989,2.17055579 C54.5443716,-3.10895629 40.5954098,3.87167513 32.802541,17.8623972 C25.0093716,31.852518 25.6738798,47.8485709 35.148306,53.1292854 C44.6236339,58.4084969 58.7321858,52.0744652 66.5262568,38.0843443 C67.7831421,35.8274078 69.461694,30.587876 70.2464208,28.2969712 C74.6826607,14.064011 69.5438969,8.14924719 68.1437978,5.40625972 Z" id="path9"></path>
                <path d="M71.4882428,17.2579278 L98.1938982,5.18209731 C98.1938982,5.18209731 98.7303171,40.094962 78.1630554,64.4179567 C57.5957937,88.7409514 19.9776164,91.0347427 19.9776164,91.0347427 L19.9776164,122.330123" id="Path-2"></path>
                <path d="M2.84217094e-14,122 L40,122" id="Path-4"></path>
                <path d="M5,132 L35,132" id="Path-4-Copy"></path>
                <path d="M15,142 L25,142" id="Path-4-Copy-2"></path>
            </g>
        </g>
    </g>
</svg>