%FSLAX33Y33*%
%MOMM*%
%AMRect-W1500000-H550000-RO1.500*
21,1,1.5,0.55,0.,0.,90*%
%AMRect-W550000-H1500000-RO1.500*
21,1,0.55,1.5,0.,0.,90*%
%AMRect-W2500000-H4000000-RO0.250*
21,1,2.5,4.,0.,0.,315*%
%AMRR-H1300000-W4000000-R120000-RO1.500*
21,1,3.76,1.3,0.,0.,90*
21,1,4.,1.06,0.,0.,90*
1,1,0.24,-0.53,-1.88*
1,1,0.24,-0.53,1.88*
1,1,0.24,0.53,1.88*
1,1,0.24,0.53,-1.88*%
%AMRect-W1000000-H1800000-RO1.000*
21,1,1.,1.8,0.,0.,180*%
%AMRect-W2540000-H1270000-RO0.250*
21,1,2.54,1.27,0.,0.,315*%
%ADD10Rect-W1500000-H550000-RO1.500*%
%ADD11Rect-W550000-H1500000-RO1.500*%
%ADD12R,1.X0.66*%
%ADD13Rect-W2500000-H4000000-RO0.250*%
%ADD14RR-H1300000-W4000000-R120000-RO1.500*%
%ADD15Rect-W1000000-H1800000-RO1.000*%
%ADD16Rect-W2540000-H1270000-RO0.250*%
D10*
%LNtop paste_traces*%
%LNtop paste component 315c781489eea96b*%
G01*
X-2800Y-4200D03*
X-2000Y-4200D03*
X-1200Y-4200D03*
X-0400Y-4200D03*
X0400Y-4200D03*
X1200Y-4200D03*
X2000Y-4200D03*
X2800Y-4200D03*
X2800Y4200D03*
X2000Y4200D03*
X1200Y4200D03*
X0400Y4200D03*
X-0400Y4200D03*
X-1200Y4200D03*
X-2000Y4200D03*
X-2800Y4200D03*
D11*
X4200Y-2800D03*
X4200Y-2000D03*
X4200Y-1200D03*
X4200Y-0400D03*
X4200Y0400D03*
X4200Y1200D03*
X4200Y2000D03*
X4200Y2800D03*
X-4200Y2800D03*
X-4200Y2000D03*
X-4200Y1200D03*
X-4200Y0400D03*
X-4200Y-0400D03*
X-4200Y-1200D03*
X-4200Y-2000D03*
X-4200Y-2800D03*
%LNtop paste component c0c249d9fb733c24*%
D12*
X-0965Y-11450D03*
X-0965Y-12400D03*
X-0965Y-13350D03*
X1665Y-13350D03*
X1665Y-11450D03*
%LNtop paste component c3475cd38de9d97d*%
D13*
X14228Y-7972D03*
X8572Y-13628D03*
%LNtop paste component 23fd299b85ccb8f3*%
D14*
X3810Y-17522D03*
X1270Y-17522D03*
X-1270Y-17522D03*
X-3810Y-17522D03*
%LNtop paste component b4e2aa1a051a6d91*%
D15*
X3185Y-7275D03*
X0185Y-7275D03*
%LNtop paste component f05bc982b390cfb7*%
D16*
X-9144Y14311D03*
X-10940Y12515D03*
X-12736Y10719D03*
X-8606Y6589D03*
X-6810Y8385D03*
X-5014Y10181D03*
M02*