%FSLAX33Y33*%
%MOMM*%
%ADD10C,0.15*%
%ADD11C,0.2032*%
%ADD12C,0.5*%
%ADD13C,1.*%
%ADD14C,0.5*%
%ADD15C,0.5*%
%ADD16C,0.5*%
D10*
%LNtop silkscreen_traces*%
%LNtop silkscreen component 315c781489eea96b*%
G01*
X3000Y-3000D02*
X-3000Y-3000D01*
X-3000Y3000*
X3000Y3000*
X3000Y-3000*
D11*
X-5168Y-4566D02*
X-5168Y-4566D01*
X-5176Y-4522*
X-5188Y-4483*
X-5206Y-4449*
X-5227Y-4419*
X-5251Y-4395*
X-5278Y-4375*
X-5309Y-4361*
X-5343Y-4350*
X-5383Y-4342*
X-5429Y-4338*
X-5480Y-4336*
X-5893Y-4336*
X-5893Y-4430*
X-5480Y-4430*
X-5480Y-4430*
X-5418Y-4433*
X-5418Y-4433*
X-5367Y-4441*
X-5367Y-4441*
X-5327Y-4455*
X-5327Y-4455*
X-5298Y-4475*
X-5298Y-4475*
X-5277Y-4501*
X-5277Y-4501*
X-5262Y-4534*
X-5262Y-4534*
X-5253Y-4575*
X-5253Y-4575*
X-5250Y-4624*
X-5250Y-4624*
X-5252Y-4653*
X-5252Y-4653*
X-5256Y-4680*
X-5256Y-4680*
X-5264Y-4705*
X-5264Y-4705*
X-5274Y-4727*
X-5274Y-4728*
X-5287Y-4747*
X-5288Y-4747*
X-5303Y-4764*
X-5303Y-4764*
X-5322Y-4777*
X-5322Y-4777*
X-5343Y-4787*
X-5343Y-4787*
X-5368Y-4795*
X-5368Y-4795*
X-5399Y-4800*
X-5399Y-4800*
X-5437Y-4804*
X-5437Y-4804*
X-5480Y-4805*
X-5480Y-4805*
X-5893Y-4805*
X-5893Y-4898*
X-5480Y-4898*
X-5426Y-4897*
X-5378Y-4892*
X-5336Y-4883*
X-5300Y-4871*
X-5270Y-4855*
X-5243Y-4835*
X-5220Y-4810*
X-5200Y-4780*
X-5185Y-4746*
X-5174Y-4707*
X-5168Y-4664*
X-5166Y-4616*
X-5168Y-4566*
X-5896Y-3883D02*
X-5896Y-3883D01*
X-5896Y-3939*
X-5873Y-3952*
X-5873Y-3952*
X-5849Y-3970*
X-5849Y-3970*
X-5825Y-3992*
X-5825Y-3992*
X-5800Y-4017*
X-5800Y-4017*
X-5776Y-4046*
X-5776Y-4046*
X-5754Y-4077*
X-5754Y-4077*
X-5734Y-4110*
X-5734Y-4110*
X-5716Y-4146*
X-5632Y-4146*
X-5641Y-4125*
X-5651Y-4103*
X-5663Y-4079*
X-5677Y-4054*
X-5693Y-4030*
X-5708Y-4008*
X-5723Y-3988*
X-5738Y-3971*
X-5738Y-3970*
X-5178Y-3970*
X-5178Y-3883*
X-5896Y-3883*
D12*
X-3650Y-4200D03*
D13*
X-2200Y-2200D03*
%LNtop silkscreen component c0c249d9fb733c24*%
D11*
X-1092Y-10534D02*
X-1092Y-10534D01*
X-1048Y-10527*
X-1009Y-10514*
X-0974Y-10497*
X-0945Y-10476*
X-0921Y-10451*
X-0901Y-10424*
X-0886Y-10394*
X-0876Y-10360*
X-0868Y-10319*
X-0864Y-10274*
X-0862Y-10223*
X-0862Y-9810*
X-0956Y-9810*
X-0956Y-10222*
X-0956Y-10222*
X-0958Y-10284*
X-0958Y-10284*
X-0967Y-10335*
X-0967Y-10335*
X-0981Y-10375*
X-0981Y-10376*
X-1000Y-10405*
X-1000Y-10405*
X-1026Y-10426*
X-1026Y-10426*
X-1060Y-10440*
X-1060Y-10440*
X-1101Y-10449*
X-1101Y-10449*
X-1150Y-10452*
X-1150Y-10452*
X-1179Y-10451*
X-1179Y-10451*
X-1206Y-10446*
X-1206Y-10446*
X-1231Y-10439*
X-1231Y-10439*
X-1253Y-10428*
X-1253Y-10428*
X-1273Y-10415*
X-1273Y-10415*
X-1289Y-10399*
X-1289Y-10399*
X-1303Y-10381*
X-1303Y-10381*
X-1313Y-10360*
X-1313Y-10360*
X-1321Y-10335*
X-1321Y-10335*
X-1326Y-10303*
X-1326Y-10303*
X-1329Y-10266*
X-1329Y-10266*
X-1330Y-10222*
X-1330Y-10222*
X-1330Y-9810*
X-1424Y-9810*
X-1424Y-10223*
X-1422Y-10277*
X-1417Y-10324*
X-1409Y-10366*
X-1397Y-10402*
X-1381Y-10433*
X-1360Y-10460*
X-1335Y-10483*
X-1306Y-10502*
X-1271Y-10517*
X-1233Y-10528*
X-1189Y-10535*
X-1141Y-10537*
X-1092Y-10534*
X-0370Y-10353D02*
X-0370Y-10353D01*
X-0370Y-10353*
X-0274Y-10353*
X-0274Y-10274*
X-0370Y-10274*
X-0370Y-10273*
X-0370Y-9810*
X-0441Y-9810*
X-0768Y-10273*
X-0768Y-10353*
X-0457Y-10353*
X-0457Y-10353*
X-0457Y-10524*
X-0370Y-10524*
X-0370Y-10353*
X-0458Y-9952D02*
X-0458Y-9952D01*
X-0681Y-10273*
X-0458Y-10273*
X-0458Y-9952*
X0088Y-10534D02*
X0088Y-10534D01*
X0122Y-10526*
X0153Y-10513*
X0180Y-10495*
X0204Y-10471*
X0225Y-10444*
X0243Y-10412*
X0257Y-10375*
X0268Y-10334*
X0277Y-10286*
X0281Y-10232*
X0283Y-10172*
X0282Y-10122*
X0279Y-10077*
X0274Y-10037*
X0267Y-10003*
X0258Y-9973*
X0248Y-9945*
X0236Y-9920*
X0223Y-9897*
X0207Y-9876*
X0191Y-9858*
X0172Y-9843*
X0151Y-9830*
X0128Y-9820*
X0104Y-9813*
X0078Y-9808*
X0050Y-9807*
X0013Y-9809*
X-0021Y-9817*
X-0052Y-9830*
X-0079Y-9849*
X-0103Y-9872*
X-0124Y-9899*
X-0142Y-9931*
X-0157Y-9968*
X-0168Y-10010*
X-0176Y-10057*
X-0181Y-10112*
X-0183Y-10172*
X-0178Y-10266*
X-0165Y-10345*
X-0143Y-10411*
X-0112Y-10463*
X-0080Y-10495*
X-0042Y-10518*
X0001Y-10532*
X0050Y-10537*
X0088Y-10534*
X-0093Y-10172D02*
X-0093Y-10172D01*
X-0090Y-10253*
X-0083Y-10319*
X-0070Y-10370*
X-0052Y-10407*
X-0030Y-10432*
X-0006Y-10450*
X0021Y-10461*
X0050Y-10465*
X0079Y-10461*
X0106Y-10450*
X0130Y-10432*
X0152Y-10406*
X0170Y-10370*
X0183Y-10318*
X0191Y-10253*
X0193Y-10172*
X0191Y-10091*
X0183Y-10025*
X0170Y-9974*
X0152Y-9937*
X0130Y-9912*
X0106Y-9894*
X0079Y-9883*
X0049Y-9879*
X0020Y-9882*
X-0005Y-9892*
X-0028Y-9908*
X-0048Y-9930*
X-0067Y-9970*
X-0082Y-10023*
X-0090Y-10091*
X-0093Y-10172*
D10*
X-0050Y-13875D02*
X-0050Y-10925D01*
X0750Y-10925*
X0750Y-13875*
X-0050Y-13875*
D14*
X-2050Y-11450D03*
%LNtop silkscreen component c3475cd38de9d97d*%
D11*
X15453Y-15430D02*
X15453Y-15430D01*
X15496Y-15457*
X15542Y-15475*
X15589Y-15485*
X15639Y-15486*
X15689Y-15478*
X15739Y-15461*
X15790Y-15435*
X15741Y-15352*
X15703Y-15374*
X15703Y-15374*
X15665Y-15388*
X15665Y-15388*
X15628Y-15395*
X15628Y-15395*
X15592Y-15396*
X15592Y-15396*
X15557Y-15389*
X15557Y-15389*
X15524Y-15377*
X15524Y-15377*
X15493Y-15358*
X15493Y-15358*
X15464Y-15333*
X15464Y-15333*
X15442Y-15308*
X15442Y-15308*
X15425Y-15282*
X15425Y-15282*
X15411Y-15253*
X15411Y-15253*
X15401Y-15223*
X15401Y-15223*
X15396Y-15191*
X15396Y-15190*
X15397Y-15158*
X15397Y-15158*
X15403Y-15125*
X15403Y-15125*
X15415Y-15092*
X15415Y-15092*
X15432Y-15058*
X15432Y-15058*
X15453Y-15025*
X15453Y-15025*
X15479Y-14993*
X15479Y-14992*
X15509Y-14960*
X15509Y-14960*
X15535Y-14936*
X15535Y-14936*
X15562Y-14915*
X15562Y-14915*
X15591Y-14895*
X15591Y-14895*
X15622Y-14879*
X15622Y-14879*
X15654Y-14866*
X15654Y-14866*
X15686Y-14858*
X15686Y-14858*
X15719Y-14856*
X15719Y-14856*
X15752Y-14859*
X15753Y-14859*
X15786Y-14867*
X15786Y-14867*
X15818Y-14882*
X15818Y-14882*
X15848Y-14902*
X15849Y-14902*
X15878Y-14928*
X15878Y-14928*
X15901Y-14954*
X15901Y-14954*
X15918Y-14981*
X15919Y-14981*
X15931Y-15009*
X15931Y-15009*
X15937Y-15038*
X15937Y-15038*
X15939Y-15068*
X15939Y-15068*
X15934Y-15100*
X15934Y-15100*
X15924Y-15134*
X15924Y-15134*
X15908Y-15169*
X15989Y-15219*
X16010Y-15175*
X16023Y-15129*
X16028Y-15084*
X16025Y-15039*
X16015Y-14995*
X15996Y-14953*
X15970Y-14912*
X15936Y-14873*
X15902Y-14842*
X15865Y-14817*
X15825Y-14796*
X15783Y-14781*
X15740Y-14772*
X15696Y-14769*
X15652Y-14774*
X15608Y-14784*
X15564Y-14802*
X15522Y-14826*
X15480Y-14856*
X15440Y-14892*
X15406Y-14929*
X15377Y-14969*
X15352Y-15010*
X15331Y-15054*
X15317Y-15099*
X15309Y-15143*
X15307Y-15186*
X15313Y-15229*
X15326Y-15271*
X15347Y-15312*
X15376Y-15354*
X15412Y-15395*
X15453Y-15430*
X15867Y-15758D02*
X15867Y-15758D01*
X15867Y-15758*
X15907Y-15728*
X15907Y-15728*
X15948Y-15700*
X15948Y-15700*
X15989Y-15676*
X15989Y-15676*
X16048Y-15646*
X16048Y-15646*
X16109Y-15619*
X16109Y-15619*
X16173Y-15595*
X16173Y-15595*
X16238Y-15574*
X16238Y-15574*
X16302Y-15558*
X16302Y-15558*
X16363Y-15545*
X16363Y-15545*
X16419Y-15537*
X16419Y-15537*
X16471Y-15533*
X16518Y-15486*
X16191Y-15159*
X16132Y-15218*
X16380Y-15465*
X16380Y-15466*
X16328Y-15471*
X16274Y-15480*
X16217Y-15493*
X16158Y-15509*
X16099Y-15529*
X16041Y-15552*
X15985Y-15578*
X15931Y-15608*
X15880Y-15639*
X15835Y-15669*
X15796Y-15699*
X15763Y-15728*
X15826Y-15791*
X15867Y-15758*
D10*
X11400Y-3517D02*
X4824Y-10093D01*
X18683Y-10800D02*
X12107Y-17376D01*
X4824Y-10093D02*
X4824Y-11507D01*
X12107Y-17376D02*
X10693Y-17376D01*
X4824Y-11507D02*
X6486Y-13169D01*
X10693Y-17376D02*
X9031Y-15714D01*
X11400Y-3517D02*
X13769Y-5886D01*
X18683Y-10800D02*
X16314Y-8431D01*
D15*
X16120Y-6080D03*
%LNtop silkscreen component 23fd299b85ccb8f3*%
D11*
X-6640Y-25550D02*
X-6640Y-25550D01*
X-6645Y-25521*
X-6653Y-25495*
X-6664Y-25470*
X-6678Y-25448*
X-6696Y-25430*
X-6716Y-25414*
X-6739Y-25402*
X-6766Y-25392*
X-6798Y-25385*
X-6836Y-25381*
X-6878Y-25380*
X-7365Y-25380*
X-7365Y-25474*
X-6873Y-25474*
X-6873Y-25474*
X-6844Y-25474*
X-6844Y-25474*
X-6819Y-25476*
X-6819Y-25476*
X-6799Y-25479*
X-6799Y-25479*
X-6783Y-25484*
X-6783Y-25484*
X-6770Y-25489*
X-6769Y-25490*
X-6758Y-25497*
X-6758Y-25497*
X-6747Y-25507*
X-6747Y-25507*
X-6738Y-25519*
X-6738Y-25519*
X-6731Y-25533*
X-6731Y-25533*
X-6726Y-25548*
X-6726Y-25548*
X-6723Y-25564*
X-6723Y-25564*
X-6722Y-25581*
X-6722Y-25581*
X-6724Y-25604*
X-6724Y-25604*
X-6729Y-25624*
X-6729Y-25625*
X-6739Y-25642*
X-6739Y-25642*
X-6752Y-25657*
X-6752Y-25657*
X-6771Y-25670*
X-6771Y-25670*
X-6796Y-25679*
X-6796Y-25679*
X-6827Y-25685*
X-6827Y-25685*
X-6864Y-25688*
X-6853Y-25773*
X-6803Y-25770*
X-6760Y-25762*
X-6723Y-25746*
X-6692Y-25725*
X-6669Y-25697*
X-6652Y-25664*
X-6642Y-25625*
X-6638Y-25581*
X-6640Y-25550*
X-6822Y-24891D02*
X-6822Y-24891D01*
X-6822Y-24891*
X-6822Y-24795*
X-6901Y-24795*
X-6901Y-24891*
X-6902Y-24891*
X-7365Y-24891*
X-7365Y-24962*
X-6902Y-25289*
X-6822Y-25289*
X-6822Y-24978*
X-6822Y-24978*
X-6651Y-24978*
X-6651Y-24891*
X-6822Y-24891*
X-7223Y-24979D02*
X-7223Y-24979D01*
X-6902Y-25202*
X-6902Y-24979*
X-7223Y-24979*
D10*
X5230Y-19600D02*
X-5230Y-19600D01*
X-5230Y-14600*
X5230Y-14600*
X5230Y-19600*
D13*
X-5950Y-15104D03*
%LNtop silkscreen component 9deb23392e05f969*%
D10*
X15992Y6268D02*
X6268Y15992D01*
X8808Y18532*
X18532Y8808*
X15992Y6268*
D11*
X6135Y16481D02*
X6135Y16481D01*
X6152Y16505*
X6165Y16529*
X6174Y16555*
X6179Y16580*
X6180Y16606*
X6177Y16631*
X6169Y16656*
X6157Y16682*
X6139Y16710*
X6116Y16739*
X6087Y16770*
X5742Y17114*
X5676Y17048*
X6024Y16700*
X6024Y16700*
X6044Y16679*
X6044Y16679*
X6060Y16660*
X6060Y16660*
X6072Y16644*
X6072Y16644*
X6081Y16629*
X6081Y16629*
X6086Y16616*
X6086Y16616*
X6089Y16602*
X6089Y16602*
X6089Y16587*
X6089Y16587*
X6087Y16572*
X6087Y16572*
X6082Y16558*
X6082Y16558*
X6075Y16544*
X6075Y16544*
X6066Y16530*
X6066Y16530*
X6055Y16517*
X6055Y16517*
X6037Y16502*
X6037Y16502*
X6019Y16492*
X6019Y16492*
X6000Y16486*
X6000Y16486*
X5980Y16485*
X5979Y16485*
X5958Y16489*
X5958Y16489*
X5934Y16500*
X5934Y16500*
X5907Y16518*
X5907Y16518*
X5878Y16542*
X5827Y16474*
X5864Y16441*
X5901Y16416*
X5937Y16401*
X5974Y16395*
X6010Y16398*
X6046Y16409*
X6080Y16430*
X6114Y16458*
X6135Y16481*
X6534Y16881D02*
X6534Y16881D01*
X6551Y16906*
X6564Y16933*
X6573Y16961*
X6578Y16990*
X6579Y17019*
X6575Y17049*
X6567Y17080*
X6555Y17110*
X6540Y17138*
X6521Y17164*
X6499Y17189*
X6462Y17220*
X6423Y17243*
X6381Y17258*
X6338Y17263*
X6295Y17260*
X6255Y17249*
X6219Y17230*
X6186Y17203*
X6170Y17185*
X6156Y17164*
X6144Y17142*
X6135Y17119*
X6129Y17094*
X6126Y17068*
X6127Y17041*
X6131Y17013*
X6130Y17013*
X6096Y17050*
X6096Y17050*
X6068Y17085*
X6068Y17085*
X6046Y17118*
X6046Y17118*
X6031Y17148*
X6031Y17148*
X6020Y17176*
X6020Y17176*
X6014Y17204*
X6014Y17204*
X6012Y17231*
X6012Y17231*
X6014Y17257*
X6014Y17257*
X6019Y17276*
X6019Y17276*
X6026Y17294*
X6026Y17294*
X6037Y17310*
X6037Y17310*
X6050Y17326*
X6050Y17326*
X6069Y17342*
X6069Y17342*
X6091Y17353*
X6091Y17353*
X6114Y17360*
X6114Y17360*
X6139Y17361*
X6139Y17361*
X6156Y17359*
X6156Y17359*
X6174Y17353*
X6174Y17353*
X6194Y17344*
X6194Y17344*
X6216Y17332*
X6272Y17398*
X6239Y17420*
X6205Y17435*
X6170Y17443*
X6134Y17444*
X6099Y17438*
X6066Y17426*
X6034Y17406*
X6003Y17380*
X5969Y17338*
X5946Y17294*
X5934Y17246*
X5934Y17195*
X5949Y17133*
X5980Y17068*
X6028Y16999*
X6093Y16928*
X6157Y16870*
X6218Y16827*
X6276Y16800*
X6330Y16789*
X6381Y16790*
X6429Y16802*
X6473Y16825*
X6514Y16858*
X6534Y16881*
X6237Y16926D02*
X6237Y16926D01*
X6254Y16911*
X6272Y16898*
X6291Y16887*
X6312Y16878*
X6334Y16872*
X6354Y16869*
X6375Y16869*
X6395Y16872*
X6414Y16877*
X6432Y16885*
X6448Y16895*
X6462Y16908*
X6479Y16929*
X6491Y16952*
X6497Y16978*
X6498Y17007*
X6493Y17037*
X6482Y17066*
X6464Y17094*
X6440Y17122*
X6413Y17145*
X6386Y17162*
X6358Y17172*
X6329Y17176*
X6301Y17175*
X6275Y17167*
X6251Y17155*
X6228Y17136*
X6210Y17114*
X6197Y17090*
X6189Y17063*
X6187Y17035*
X6191Y17005*
X6200Y16978*
X6216Y16951*
X6237Y16926*
D16*
X7184Y14368D03*
%LNtop silkscreen component b4e2aa1a051a6d91*%
D10*
X2134Y-6474D02*
X1236Y-6474D01*
X2134Y-8076D02*
X1236Y-8076D01*
D11*
X-1082Y-6967D02*
X-1082Y-6967D01*
X-1131Y-6979*
X-1176Y-6998*
X-1217Y-7024*
X-1253Y-7059*
X-1283Y-7099*
X-1306Y-7147*
X-1324Y-7202*
X-1230Y-7225*
X-1218Y-7183*
X-1218Y-7183*
X-1202Y-7147*
X-1202Y-7146*
X-1181Y-7115*
X-1181Y-7115*
X-1156Y-7089*
X-1156Y-7089*
X-1126Y-7069*
X-1126Y-7069*
X-1094Y-7055*
X-1094Y-7055*
X-1059Y-7046*
X-1059Y-7046*
X-1021Y-7043*
X-1020Y-7043*
X-0988Y-7045*
X-0988Y-7045*
X-0957Y-7052*
X-0957Y-7052*
X-0927Y-7062*
X-0927Y-7062*
X-0899Y-7077*
X-0899Y-7077*
X-0872Y-7096*
X-0872Y-7096*
X-0850Y-7119*
X-0850Y-7120*
X-0831Y-7147*
X-0831Y-7147*
X-0816Y-7179*
X-0816Y-7179*
X-0804Y-7215*
X-0804Y-7215*
X-0796Y-7253*
X-0796Y-7253*
X-0791Y-7295*
X-0791Y-7295*
X-0789Y-7339*
X-0789Y-7339*
X-0790Y-7374*
X-0790Y-7374*
X-0795Y-7409*
X-0795Y-7409*
X-0802Y-7443*
X-0802Y-7443*
X-0812Y-7476*
X-0812Y-7476*
X-0825Y-7508*
X-0825Y-7508*
X-0842Y-7536*
X-0842Y-7536*
X-0864Y-7561*
X-0864Y-7561*
X-0890Y-7583*
X-0890Y-7583*
X-0919Y-7600*
X-0919Y-7600*
X-0952Y-7613*
X-0952Y-7613*
X-0988Y-7620*
X-0988Y-7620*
X-1028Y-7622*
X-1028Y-7622*
X-1062Y-7620*
X-1062Y-7620*
X-1094Y-7614*
X-1094Y-7614*
X-1122Y-7602*
X-1122Y-7602*
X-1147Y-7587*
X-1147Y-7587*
X-1170Y-7566*
X-1170Y-7566*
X-1189Y-7540*
X-1189Y-7540*
X-1206Y-7509*
X-1206Y-7509*
X-1220Y-7473*
X-1312Y-7495*
X-1295Y-7541*
X-1272Y-7582*
X-1244Y-7618*
X-1210Y-7648*
X-1171Y-7672*
X-1128Y-7689*
X-1081Y-7699*
X-1030Y-7703*
X-0983Y-7700*
X-0939Y-7692*
X-0897Y-7678*
X-0856Y-7659*
X-0819Y-7635*
X-0787Y-7606*
X-0759Y-7572*
X-0735Y-7533*
X-0716Y-7490*
X-0703Y-7443*
X-0695Y-7392*
X-0692Y-7338*
X-0695Y-7288*
X-0702Y-7239*
X-0714Y-7192*
X-0730Y-7147*
X-0751Y-7105*
X-0777Y-7068*
X-0806Y-7036*
X-0840Y-7010*
X-0879Y-6990*
X-0924Y-6975*
X-0973Y-6966*
X-1028Y-6963*
X-1082Y-6967*
X-1736Y-7693D02*
X-1736Y-7693D01*
X-1680Y-7693*
X-1667Y-7670*
X-1667Y-7670*
X-1650Y-7646*
X-1650Y-7646*
X-1628Y-7622*
X-1628Y-7622*
X-1602Y-7598*
X-1602Y-7598*
X-1574Y-7574*
X-1574Y-7574*
X-1543Y-7552*
X-1542Y-7552*
X-1509Y-7532*
X-1509Y-7532*
X-1474Y-7514*
X-1474Y-7430*
X-1494Y-7438*
X-1517Y-7448*
X-1540Y-7461*
X-1565Y-7475*
X-1590Y-7490*
X-1612Y-7505*
X-1631Y-7520*
X-1649Y-7536*
X-1649Y-7535*
X-1649Y-6976*
X-1736Y-6976*
X-1736Y-7693*
%LNtop silkscreen component f05bc982b390cfb7*%
X-8989Y15323D02*
X-8989Y15323D01*
X-8965Y15306*
X-8941Y15293*
X-8916Y15284*
X-8890Y15278*
X-8865Y15277*
X-8839Y15280*
X-8814Y15288*
X-8788Y15301*
X-8761Y15318*
X-8731Y15342*
X-8700Y15371*
X-8356Y15716*
X-8422Y15782*
X-8771Y15433*
X-8771Y15433*
X-8791Y15414*
X-8791Y15414*
X-8810Y15398*
X-8810Y15398*
X-8826Y15385*
X-8826Y15385*
X-8841Y15377*
X-8841Y15377*
X-8855Y15372*
X-8855Y15372*
X-8869Y15369*
X-8869Y15369*
X-8883Y15368*
X-8883Y15368*
X-8898Y15371*
X-8898Y15371*
X-8913Y15375*
X-8913Y15375*
X-8927Y15382*
X-8927Y15382*
X-8940Y15391*
X-8940Y15391*
X-8953Y15403*
X-8953Y15403*
X-8968Y15420*
X-8968Y15420*
X-8978Y15439*
X-8978Y15439*
X-8984Y15458*
X-8984Y15458*
X-8985Y15478*
X-8985Y15478*
X-8981Y15500*
X-8981Y15500*
X-8970Y15524*
X-8970Y15524*
X-8952Y15550*
X-8952Y15550*
X-8928Y15579*
X-8996Y15631*
X-9030Y15594*
X-9054Y15557*
X-9069Y15520*
X-9075Y15483*
X-9073Y15447*
X-9061Y15412*
X-9041Y15377*
X-9012Y15343*
X-8989Y15323*
X-8036Y15399D02*
X-8036Y15399D01*
X-8075Y15439*
X-8101Y15432*
X-8101Y15432*
X-8130Y15427*
X-8130Y15427*
X-8162Y15426*
X-8162Y15426*
X-8198Y15426*
X-8198Y15426*
X-8235Y15430*
X-8235Y15430*
X-8272Y15436*
X-8272Y15436*
X-8310Y15446*
X-8310Y15446*
X-8348Y15458*
X-8407Y15399*
X-8387Y15390*
X-8364Y15382*
X-8338Y15373*
X-8311Y15366*
X-8283Y15359*
X-8256Y15354*
X-8232Y15351*
X-8209Y15350*
X-8209Y15349*
X-8604Y14953*
X-8543Y14892*
X-8036Y15399*
D10*
X-13365Y9552D02*
X-7977Y14940D01*
X-4385Y11348*
X-9773Y5960*
X-13365Y9552*
D15*
X-7838Y13083D03*
M02*