%FSLAX33Y33*%
%MOMM*%
%AMRR-H1300000-W4000000-R120000-RO0.500*
21,1,3.76,1.3,0.,0.,270*
21,1,4.,1.06,0.,0.,270*
1,1,0.24,0.53,1.88*
1,1,0.24,0.53,-1.88*
1,1,0.24,-0.53,-1.88*
1,1,0.24,-0.53,1.88*%
%AMRect-W1300000-H1300000-RO1.750*
21,1,1.3,1.3,0.,0.,45*%
%AMRect-W1800000-H1800000-RO1.750*
21,1,1.8,1.8,0.,0.,45*%
%ADD10C,0.0508*%
%ADD11C,0.508*%
%ADD12C,2.1*%
%ADD13RR-H1300000-W4000000-R120000-RO0.500*%
%ADD14C,1.3*%
%ADD15Rect-W1300000-H1300000-RO1.750*%
%ADD16C,1.8*%
%ADD17Rect-W1800000-H1800000-RO1.750*%
D10*
%LNpour fill*%
G01*
X-6492Y-20000D02*
X-6492Y-20000D01*
X-6492Y-20000*
X-6482Y-19904*
X-6482Y-19904*
X-6454Y-19812*
X-6454Y-19812*
X-6409Y-19727*
X-6409Y-19727*
X-6348Y-19652*
X-6348Y-19652*
X-6273Y-19591*
X-6273Y-19591*
X-6188Y-19546*
X-6188Y-19546*
X-6096Y-19518*
X-6096Y-19518*
X-6000Y-19508*
X-6000Y-19508*
X6000Y-19508*
X6000Y-19508*
X6096Y-19518*
X6096Y-19518*
X6188Y-19546*
X6188Y-19546*
X6273Y-19591*
X6273Y-19591*
X6348Y-19652*
X6348Y-19652*
X6409Y-19727*
X6409Y-19727*
X6454Y-19812*
X6454Y-19812*
X6482Y-19904*
X6482Y-19904*
X6492Y-20000*
X6492Y-20000*
X6492Y-21018*
X7235Y-20786*
X8571Y-20272*
X9871Y-19672*
X11128Y-18988*
X12339Y-18225*
X13497Y-17384*
X14599Y-16470*
X15639Y-15487*
X16612Y-14437*
X17515Y-13327*
X18345Y-12161*
X19096Y-10942*
X19767Y-9678*
X20354Y-8373*
X20855Y-7032*
X21268Y-5662*
X21591Y-4267*
X21823Y-2855*
X21950Y-1561*
X21950Y1561*
X21823Y2855*
X21591Y4267*
X21268Y5662*
X20855Y7032*
X20354Y8373*
X19767Y9678*
X19096Y10942*
X18345Y12161*
X17515Y13327*
X16612Y14437*
X15639Y15487*
X14599Y16470*
X13497Y17384*
X12339Y18225*
X11128Y18988*
X9871Y19672*
X8571Y20272*
X7235Y20786*
X6492Y21018*
X6492Y20000*
X6492Y20000*
X6482Y19904*
X6482Y19904*
X6454Y19812*
X6454Y19812*
X6409Y19727*
X6409Y19727*
X6348Y19652*
X6348Y19652*
X6273Y19591*
X6273Y19591*
X6188Y19546*
X6188Y19546*
X6096Y19518*
X6096Y19518*
X6030Y19511*
X6030Y18300*
X6030Y18300*
X5655Y18300*
X5655Y17700*
X6030Y17700*
X6030Y17700*
X6030Y16121*
X6030Y16121*
X6025Y16055*
X6025Y16055*
X6010Y15991*
X6010Y15991*
X5984Y15930*
X5984Y15930*
X5950Y15873*
X5950Y15873*
X5907Y15823*
X5907Y15823*
X5857Y15780*
X5857Y15780*
X5800Y15746*
X5800Y15746*
X5739Y15720*
X5739Y15720*
X5675Y15705*
X5675Y15705*
X5609Y15700*
X5609Y15700*
X5380Y15700*
X5380Y15700*
X5380Y16075*
X4780Y16075*
X4780Y15700*
X4780Y15700*
X4551Y15700*
X4551Y15700*
X4485Y15705*
X4485Y15705*
X4421Y15720*
X4421Y15720*
X4360Y15746*
X4360Y15746*
X4303Y15780*
X4303Y15780*
X4253Y15823*
X4253Y15823*
X4210Y15873*
X4210Y15873*
X4176Y15930*
X4176Y15930*
X4150Y15991*
X4150Y15991*
X4135Y16055*
X4135Y16055*
X4130Y16121*
X4130Y16121*
X4130Y17700*
X4130Y17700*
X4505Y17700*
X4505Y18300*
X4130Y18300*
X4130Y18300*
X4130Y19508*
X3490Y19508*
X3490Y16121*
X3490Y16121*
X3485Y16055*
X3485Y16055*
X3470Y15991*
X3470Y15991*
X3444Y15930*
X3444Y15930*
X3410Y15873*
X3410Y15873*
X3367Y15823*
X3367Y15823*
X3317Y15780*
X3317Y15780*
X3260Y15746*
X3260Y15746*
X3199Y15720*
X3199Y15720*
X3095Y15695*
X3095Y-4310*
X3095Y-4310*
X3085Y-4418*
X3085Y-4418*
X3053Y-4522*
X3053Y-4522*
X3002Y-4618*
X3002Y-4618*
X2933Y-4703*
X2933Y-4703*
X-3318Y-10953*
X-3258Y-11124*
X-3258Y-11124*
X-3224Y-11425*
X-3224Y-11425*
X-3258Y-11726*
X-3258Y-11726*
X-3358Y-12011*
X-3358Y-12011*
X-3519Y-12267*
X-3519Y-12268*
X-3732Y-12481*
X-3733Y-12481*
X-3989Y-12642*
X-3989Y-12642*
X-4274Y-12742*
X-4274Y-12742*
X-4567Y-12775*
X-4560Y-12895*
X-2305Y-12895*
X6268Y-4322*
X6208Y-4151*
X6208Y-4151*
X6174Y-3850*
X6174Y-3850*
X6208Y-3549*
X6208Y-3549*
X6308Y-3264*
X6308Y-3264*
X6469Y-3008*
X6469Y-3007*
X6682Y-2794*
X6683Y-2794*
X6970Y-2613*
X6970Y10763*
X6683Y10944*
X6682Y10944*
X6469Y11157*
X6469Y11158*
X6308Y11414*
X6308Y11414*
X6208Y11699*
X6208Y11699*
X6174Y12000*
X6174Y12000*
X6208Y12301*
X6208Y12301*
X6308Y12586*
X6308Y12586*
X6469Y12842*
X6469Y12843*
X6682Y13056*
X6683Y13056*
X6939Y13217*
X6939Y13217*
X7224Y13317*
X7224Y13317*
X7525Y13351*
X7525Y13351*
X7826Y13317*
X7826Y13317*
X8111Y13217*
X8111Y13217*
X8367Y13056*
X8368Y13056*
X8581Y12843*
X8581Y12842*
X8742Y12586*
X8742Y12586*
X8842Y12301*
X8842Y12301*
X8876Y12000*
X8876Y12000*
X8842Y11699*
X8842Y11699*
X8742Y11414*
X8742Y11414*
X8581Y11158*
X8581Y11157*
X8368Y10944*
X8367Y10944*
X8080Y10763*
X8080Y-2613*
X8367Y-2794*
X8368Y-2794*
X8581Y-3007*
X8581Y-3008*
X8742Y-3264*
X8742Y-3264*
X8842Y-3549*
X8842Y-3549*
X8876Y-3850*
X8876Y-3850*
X8842Y-4151*
X8842Y-4151*
X8742Y-4436*
X8742Y-4436*
X8581Y-4692*
X8581Y-4693*
X8368Y-4906*
X8367Y-4906*
X8111Y-5067*
X8111Y-5067*
X7826Y-5167*
X7826Y-5167*
X7525Y-5201*
X7525Y-5201*
X7224Y-5167*
X7224Y-5167*
X7053Y-5107*
X-1682Y-13843*
X-1682Y-13843*
X-1767Y-13912*
X-1767Y-13912*
X-1863Y-13963*
X-1863Y-13963*
X-1967Y-13995*
X-1967Y-13995*
X-2075Y-14005*
X-2075Y-14005*
X-5917Y-14005*
X-5917Y-14005*
X-6025Y-13995*
X-6025Y-13995*
X-6129Y-13963*
X-6129Y-13963*
X-6225Y-13912*
X-6225Y-13912*
X-6310Y-13843*
X-6310Y-13843*
X-7068Y-13085*
X-7068Y-13085*
X-7137Y-13000*
X-7137Y-13000*
X-7188Y-12904*
X-7188Y-12904*
X-7220Y-12800*
X-7220Y-12800*
X-7230Y-12692*
X-7230Y-12692*
X-7230Y-5500*
X-7230Y-5500*
X-7220Y-5392*
X-7220Y-5392*
X-7188Y-5288*
X-7188Y-5288*
X-7137Y-5192*
X-7137Y-5192*
X-7068Y-5107*
X-7068Y-5107*
X-5635Y-3675*
X-5635Y15695*
X-5739Y15720*
X-5739Y15720*
X-5800Y15746*
X-5800Y15746*
X-5857Y15780*
X-5857Y15780*
X-5907Y15823*
X-5907Y15823*
X-5950Y15873*
X-5950Y15873*
X-5984Y15930*
X-5984Y15930*
X-6010Y15991*
X-6010Y15991*
X-6025Y16055*
X-6025Y16055*
X-6030Y16121*
X-6030Y16121*
X-6030Y19511*
X-6096Y19518*
X-6096Y19518*
X-6188Y19546*
X-6188Y19546*
X-6273Y19591*
X-6273Y19591*
X-6348Y19652*
X-6348Y19652*
X-6409Y19727*
X-6409Y19727*
X-6454Y19812*
X-6454Y19812*
X-6482Y19904*
X-6482Y19904*
X-6492Y20000*
X-6492Y20000*
X-6492Y21018*
X-7235Y20786*
X-8571Y20272*
X-9871Y19672*
X-11128Y18988*
X-12339Y18225*
X-13497Y17384*
X-14599Y16470*
X-15639Y15487*
X-16612Y14437*
X-17515Y13327*
X-18345Y12161*
X-19096Y10942*
X-19767Y9678*
X-20354Y8373*
X-20855Y7032*
X-21268Y5662*
X-21591Y4267*
X-21823Y2855*
X-21963Y1431*
X-22009Y0*
X-21963Y-1431*
X-21823Y-2855*
X-21591Y-4267*
X-21268Y-5662*
X-20855Y-7032*
X-20354Y-8373*
X-19767Y-9678*
X-19096Y-10942*
X-18345Y-12161*
X-17515Y-13327*
X-16612Y-14437*
X-15639Y-15487*
X-14599Y-16470*
X-13497Y-17384*
X-12339Y-18225*
X-11128Y-18988*
X-9871Y-19672*
X-8571Y-20272*
X-7235Y-20786*
X-6492Y-21018*
X-6492Y-20000*
X8808Y14418D02*
X8761Y14422D01*
X8715Y14433*
X8671Y14451*
X8631Y14476*
X8595Y14506*
X7322Y15779*
X7292Y15815*
X7267Y15855*
X7249Y15899*
X7238Y15945*
X7234Y15992*
X7238Y16039*
X7249Y16085*
X7267Y16129*
X7292Y16169*
X7322Y16205*
X8595Y17478*
X8631Y17508*
X8671Y17533*
X8715Y17551*
X8761Y17562*
X8808Y17566*
X8855Y17562*
X8901Y17551*
X8945Y17533*
X8985Y17508*
X9021Y17478*
X10294Y16205*
X10324Y16169*
X10349Y16129*
X10367Y16085*
X10378Y16039*
X10382Y15992*
X10378Y15945*
X10367Y15899*
X10349Y15855*
X10324Y15815*
X10294Y15779*
X9021Y14506*
X8985Y14476*
X8945Y14451*
X8901Y14433*
X8855Y14422*
X8808Y14418*
X10749Y13004D02*
X10459Y13004D01*
X10178Y13073*
X9922Y13208*
X9705Y13400*
X9541Y13638*
X9438Y13909*
X9403Y14196*
X9438Y14483*
X9541Y14754*
X9705Y14992*
X9922Y15184*
X10178Y15319*
X10459Y15388*
X10749Y15388*
X11030Y15319*
X11286Y15184*
X11503Y14992*
X11667Y14754*
X11770Y14483*
X11805Y14196*
X11770Y13909*
X11667Y13638*
X11503Y13400*
X11286Y13208*
X11030Y13073*
X10749Y13004*
X12545Y11208D02*
X12255Y11208D01*
X11974Y11277*
X11718Y11412*
X11501Y11604*
X11337Y11842*
X11234Y12113*
X11199Y12400*
X11234Y12687*
X11337Y12958*
X11501Y13196*
X11718Y13388*
X11974Y13523*
X12255Y13592*
X12545Y13592*
X12826Y13523*
X13082Y13388*
X13299Y13196*
X13463Y12958*
X13566Y12687*
X13601Y12400*
X13566Y12113*
X13463Y11842*
X13299Y11604*
X13082Y11412*
X12826Y11277*
X12545Y11208*
X14341Y9412D02*
X14051Y9412D01*
X13770Y9481*
X13514Y9616*
X13297Y9808*
X13133Y10046*
X13030Y10317*
X12995Y10604*
X13030Y10891*
X13133Y11162*
X13297Y11400*
X13514Y11592*
X13770Y11727*
X14051Y11796*
X14341Y11796*
X14622Y11727*
X14878Y11592*
X15095Y11400*
X15259Y11162*
X15362Y10891*
X15397Y10604*
X15362Y10317*
X15259Y10046*
X15095Y9808*
X14878Y9616*
X14622Y9481*
X14341Y9412*
X16292Y7654D02*
X16292Y7989D01*
X15692Y7989*
X15692Y7654*
X15566Y7685*
X15310Y7819*
X15093Y8011*
X14929Y8250*
X14826Y8520*
X14791Y8808*
X14826Y9095*
X14929Y9366*
X15093Y9604*
X15310Y9796*
X15566Y9931*
X15692Y9962*
X15692Y9626*
X16292Y9626*
X16292Y9962*
X16418Y9931*
X16674Y9796*
X16891Y9604*
X17056Y9366*
X17158Y9095*
X17193Y8808*
X17158Y8520*
X17056Y8250*
X16891Y8011*
X16674Y7819*
X16418Y7685*
X16292Y7654*
X-16386Y-12056D02*
X-16615Y-12056D01*
X-16838Y-12001*
X-17041Y-11895*
X-17212Y-11743*
X-17342Y-11554*
X-17424Y-11340*
X-17451Y-11112*
X-17424Y-10885*
X-17342Y-10670*
X-17212Y-10482*
X-17041Y-10330*
X-16838Y-10223*
X-16615Y-10168*
X-16386Y-10168*
X-16163Y-10223*
X-15960Y-10330*
X-15789Y-10482*
X-15658Y-10670*
X-15577Y-10885*
X-15549Y-11112*
X-15577Y-11340*
X-15658Y-11554*
X-15789Y-11743*
X-15960Y-11895*
X-16163Y-12001*
X-16386Y-12056*
X-14404Y-13807D02*
X-14404Y-13479D01*
X-15004Y-13479*
X-15004Y-13807*
X-15042Y-13798*
X-15245Y-13691*
X-15416Y-13539*
X-15546Y-13350*
X-15628Y-13136*
X-15655Y-12908*
X-15628Y-12681*
X-15546Y-12466*
X-15416Y-12278*
X-15245Y-12126*
X-15042Y-12019*
X-15004Y-12010*
X-15004Y-12338*
X-14404Y-12338*
X-14404Y-12010*
X-14367Y-12019*
X-14164Y-12126*
X-13993Y-12278*
X-13862Y-12466*
X-13781Y-12681*
X-13753Y-12908*
X-13781Y-13136*
X-13862Y-13350*
X-13993Y-13539*
X-14164Y-13691*
X-14367Y-13798*
X-14404Y-13807*
X-12794Y-15648D02*
X-13023Y-15648D01*
X-13246Y-15594*
X-13449Y-15487*
X-13620Y-15335*
X-13750Y-15146*
X-13832Y-14932*
X-13859Y-14704*
X-13832Y-14477*
X-13750Y-14262*
X-13620Y-14074*
X-13449Y-13922*
X-13246Y-13815*
X-13023Y-13760*
X-12794Y-13760*
X-12571Y-13815*
X-12368Y-13922*
X-12196Y-14074*
X-12066Y-14262*
X-11985Y-14477*
X-11957Y-14704*
X-11985Y-14932*
X-12066Y-15146*
X-12196Y-15335*
X-12368Y-15487*
X-12571Y-15594*
X-12794Y-15648*
X-11112Y-17721D02*
X-11159Y-17717D01*
X-11205Y-17706*
X-11249Y-17688*
X-11289Y-17663*
X-11325Y-17632*
X-12244Y-16713*
X-12275Y-16677*
X-12300Y-16637*
X-12318Y-16593*
X-12329Y-16547*
X-12332Y-16500*
X-12329Y-16453*
X-12318Y-16407*
X-12300Y-16364*
X-12275Y-16323*
X-12244Y-16288*
X-11325Y-15368*
X-11289Y-15338*
X-11249Y-15313*
X-11205Y-15295*
X-11159Y-15284*
X-11112Y-15280*
X-11065Y-15284*
X-11019Y-15295*
X-10976Y-15313*
X-10935Y-15338*
X-10899Y-15368*
X-9980Y-16288*
X-9950Y-16323*
X-9925Y-16364*
X-9907Y-16407*
X-9896Y-16453*
X-9892Y-16500*
X-9896Y-16547*
X-9907Y-16593*
X-9925Y-16637*
X-9950Y-16677*
X-9980Y-16713*
X-10899Y-17632*
X-10935Y-17663*
X-10976Y-17688*
X-11019Y-17706*
X-11065Y-17717*
X-11112Y-17721*
X-6650Y-20969D02*
X-6491Y-20969D01*
X6491Y-20969D02*
X6650Y-20969D01*
X-6809Y-20919D02*
X-6491Y-20919D01*
X6491Y-20919D02*
X6809Y-20919D01*
X-6968Y-20870D02*
X-6491Y-20870D01*
X6491Y-20870D02*
X6968Y-20870D01*
X-7126Y-20820D02*
X-6491Y-20820D01*
X6491Y-20820D02*
X7126Y-20820D01*
X-7276Y-20771D02*
X-6491Y-20771D01*
X6491Y-20771D02*
X7276Y-20771D01*
X-7404Y-20721D02*
X-6491Y-20721D01*
X6491Y-20721D02*
X7404Y-20721D01*
X-7533Y-20671D02*
X-6491Y-20671D01*
X6492Y-20671D02*
X7533Y-20671D01*
X-7662Y-20622D02*
X-6491Y-20622D01*
X6492Y-20622D02*
X7662Y-20622D01*
X-7790Y-20572D02*
X-6491Y-20572D01*
X6492Y-20572D02*
X7790Y-20572D01*
X-7919Y-20523D02*
X-6491Y-20523D01*
X6492Y-20523D02*
X7919Y-20523D01*
X-8048Y-20473D02*
X-6492Y-20473D01*
X6492Y-20473D02*
X8048Y-20473D01*
X-8176Y-20424D02*
X-6492Y-20424D01*
X6492Y-20424D02*
X8176Y-20424D01*
X-8305Y-20374D02*
X-6492Y-20374D01*
X6492Y-20374D02*
X8305Y-20374D01*
X-8434Y-20325D02*
X-6492Y-20325D01*
X6492Y-20325D02*
X8434Y-20325D01*
X-8562Y-20275D02*
X-6492Y-20275D01*
X6492Y-20275D02*
X8562Y-20275D01*
X-8671Y-20226D02*
X-6492Y-20226D01*
X6492Y-20226D02*
X8671Y-20226D01*
X-8778Y-20176D02*
X-6492Y-20176D01*
X6492Y-20176D02*
X8778Y-20176D01*
X-8886Y-20127D02*
X-6492Y-20127D01*
X6492Y-20127D02*
X8886Y-20127D01*
X-8993Y-20077D02*
X-6492Y-20077D01*
X6492Y-20077D02*
X8993Y-20077D01*
X-9100Y-20028D02*
X-6492Y-20028D01*
X6492Y-20028D02*
X9100Y-20028D01*
X-9207Y-19978D02*
X-6489Y-19978D01*
X6489Y-19978D02*
X9207Y-19978D01*
X-9315Y-19929D02*
X-6484Y-19929D01*
X6484Y-19929D02*
X9315Y-19929D01*
X-9422Y-19879D02*
X-6474Y-19879D01*
X6474Y-19879D02*
X9422Y-19879D01*
X-9529Y-19829D02*
X-6459Y-19829D01*
X6459Y-19829D02*
X9529Y-19829D01*
X-9637Y-19780D02*
X-6437Y-19780D01*
X6437Y-19780D02*
X9637Y-19780D01*
X-9744Y-19730D02*
X-6411Y-19730D01*
X6411Y-19730D02*
X9744Y-19730D01*
X-9851Y-19681D02*
X-6371Y-19681D01*
X6371Y-19681D02*
X9851Y-19681D01*
X-9945Y-19631D02*
X-6322Y-19631D01*
X6322Y-19631D02*
X9945Y-19631D01*
X-10036Y-19582D02*
X-6255Y-19582D01*
X6255Y-19582D02*
X10036Y-19582D01*
X-10128Y-19532D02*
X-6143Y-19532D01*
X6143Y-19532D02*
X10128Y-19532D01*
X-10219Y-19483D02*
X10219Y-19483D01*
X-10310Y-19433D02*
X10310Y-19433D01*
X-10401Y-19384D02*
X10401Y-19384D01*
X-10492Y-19334D02*
X10492Y-19334D01*
X-10584Y-19285D02*
X10584Y-19285D01*
X-10675Y-19235D02*
X10675Y-19235D01*
X-10766Y-19186D02*
X10766Y-19186D01*
X-10857Y-19136D02*
X10857Y-19136D01*
X-10948Y-19087D02*
X10948Y-19087D01*
X-11039Y-19037D02*
X11039Y-19037D01*
X-11130Y-18987D02*
X11130Y-18987D01*
X-11209Y-18938D02*
X11209Y-18938D01*
X-11287Y-18888D02*
X11287Y-18888D01*
X-11366Y-18839D02*
X11366Y-18839D01*
X-11445Y-18789D02*
X11445Y-18789D01*
X-11523Y-18740D02*
X11523Y-18740D01*
X-11602Y-18690D02*
X11602Y-18690D01*
X-11680Y-18641D02*
X11680Y-18641D01*
X-11759Y-18591D02*
X11759Y-18591D01*
X-11837Y-18542D02*
X11837Y-18542D01*
X-11916Y-18492D02*
X11916Y-18492D01*
X-11994Y-18443D02*
X11994Y-18443D01*
X-12073Y-18393D02*
X12073Y-18393D01*
X-12151Y-18344D02*
X12151Y-18344D01*
X-12230Y-18294D02*
X12230Y-18294D01*
X-12308Y-18244D02*
X12308Y-18244D01*
X-12381Y-18195D02*
X12381Y-18195D01*
X-12449Y-18145D02*
X12449Y-18145D01*
X-12517Y-18096D02*
X12517Y-18096D01*
X-12586Y-18046D02*
X12586Y-18046D01*
X-12654Y-17997D02*
X12654Y-17997D01*
X-12722Y-17947D02*
X12722Y-17947D01*
X-12790Y-17898D02*
X12790Y-17898D01*
X-12859Y-17848D02*
X12859Y-17848D01*
X-12927Y-17799D02*
X12927Y-17799D01*
X-12995Y-17749D02*
X12995Y-17749D01*
X-13063Y-17700D02*
X-11221Y-17700D01*
X-11003Y-17700D02*
X13063Y-17700D01*
X-13132Y-17650D02*
X-11305Y-17650D01*
X-10920Y-17650D02*
X13132Y-17650D01*
X-13200Y-17601D02*
X-11357Y-17601D01*
X-10867Y-17601D02*
X13200Y-17601D01*
X-13268Y-17551D02*
X-11407Y-17551D01*
X-10818Y-17551D02*
X13268Y-17551D01*
X-13336Y-17502D02*
X-11456Y-17502D01*
X-10768Y-17502D02*
X13336Y-17502D01*
X-13405Y-17452D02*
X-11506Y-17452D01*
X-10719Y-17452D02*
X13405Y-17452D01*
X-13473Y-17402D02*
X-11555Y-17402D01*
X-10669Y-17402D02*
X13473Y-17402D01*
X-13536Y-17353D02*
X-11605Y-17353D01*
X-10620Y-17353D02*
X13536Y-17353D01*
X-13595Y-17303D02*
X-11655Y-17303D01*
X-10570Y-17303D02*
X13595Y-17303D01*
X-13655Y-17254D02*
X-11704Y-17254D01*
X-10520Y-17254D02*
X13655Y-17254D01*
X-13715Y-17204D02*
X-11754Y-17204D01*
X-10471Y-17204D02*
X13715Y-17204D01*
X-13775Y-17155D02*
X-11803Y-17155D01*
X-10421Y-17155D02*
X13775Y-17155D01*
X-13834Y-17105D02*
X-11853Y-17105D01*
X-10372Y-17105D02*
X13834Y-17105D01*
X-13894Y-17056D02*
X-11902Y-17056D01*
X-10322Y-17056D02*
X13894Y-17056D01*
X-13954Y-17006D02*
X-11952Y-17006D01*
X-10273Y-17006D02*
X13954Y-17006D01*
X-14013Y-16957D02*
X-12001Y-16957D01*
X-10223Y-16957D02*
X14013Y-16957D01*
X-14073Y-16907D02*
X-12051Y-16907D01*
X-10174Y-16907D02*
X14073Y-16907D01*
X-14133Y-16858D02*
X-12100Y-16858D01*
X-10124Y-16858D02*
X14133Y-16858D01*
X-14192Y-16808D02*
X-12150Y-16808D01*
X-10075Y-16808D02*
X14192Y-16808D01*
X-14252Y-16759D02*
X-12199Y-16759D01*
X-10025Y-16759D02*
X14252Y-16759D01*
X-14312Y-16709D02*
X-12248Y-16709D01*
X-9976Y-16709D02*
X14312Y-16709D01*
X-14371Y-16660D02*
X-12286Y-16660D01*
X-9938Y-16660D02*
X14371Y-16660D01*
X-14431Y-16610D02*
X-12311Y-16610D01*
X-9913Y-16610D02*
X14431Y-16610D01*
X-14491Y-16560D02*
X-12326Y-16560D01*
X-9899Y-16560D02*
X14491Y-16560D01*
X-14550Y-16511D02*
X-12332Y-16511D01*
X-9893Y-16511D02*
X14550Y-16511D01*
X-14609Y-16461D02*
X-12330Y-16461D01*
X-9895Y-16461D02*
X14609Y-16461D01*
X-14661Y-16412D02*
X-12319Y-16412D01*
X-9905Y-16412D02*
X14661Y-16412D01*
X-14713Y-16362D02*
X-12299Y-16362D01*
X-9925Y-16362D02*
X14713Y-16362D01*
X-14766Y-16313D02*
X-12266Y-16313D01*
X-9958Y-16313D02*
X14766Y-16313D01*
X-14818Y-16263D02*
X-12220Y-16263D01*
X-10004Y-16263D02*
X14818Y-16263D01*
X-14870Y-16214D02*
X-12171Y-16214D01*
X-10054Y-16214D02*
X14870Y-16214D01*
X-14923Y-16164D02*
X-12121Y-16164D01*
X-10103Y-16164D02*
X14923Y-16164D01*
X-14975Y-16115D02*
X-12072Y-16115D01*
X-10153Y-16115D02*
X14975Y-16115D01*
X-15027Y-16065D02*
X-12022Y-16065D01*
X-10202Y-16065D02*
X15027Y-16065D01*
X-15080Y-16016D02*
X-11973Y-16016D01*
X-10252Y-16016D02*
X15080Y-16016D01*
X-15132Y-15966D02*
X-11923Y-15966D01*
X-10301Y-15966D02*
X15132Y-15966D01*
X-15185Y-15917D02*
X-11874Y-15917D01*
X-10351Y-15917D02*
X15185Y-15917D01*
X-15237Y-15867D02*
X-11824Y-15867D01*
X-10400Y-15867D02*
X15237Y-15867D01*
X-15289Y-15818D02*
X-11775Y-15818D01*
X-10450Y-15818D02*
X15289Y-15818D01*
X-15342Y-15768D02*
X-11725Y-15768D01*
X-10499Y-15768D02*
X15342Y-15768D01*
X-15394Y-15718D02*
X-11676Y-15718D01*
X-10549Y-15718D02*
X15394Y-15718D01*
X-15446Y-15669D02*
X-11626Y-15669D01*
X-10598Y-15669D02*
X15446Y-15669D01*
X-15499Y-15619D02*
X-13142Y-15619D01*
X-12675Y-15619D02*
X-11577Y-15619D01*
X-10648Y-15619D02*
X15499Y-15619D01*
X-15551Y-15570D02*
X-13291Y-15570D01*
X-12525Y-15570D02*
X-11527Y-15570D01*
X-10698Y-15570D02*
X15551Y-15570D01*
X-15603Y-15520D02*
X-13386Y-15520D01*
X-12431Y-15520D02*
X-11477Y-15520D01*
X-10747Y-15520D02*
X15603Y-15520D01*
X-15654Y-15471D02*
X-13467Y-15471D01*
X-12349Y-15471D02*
X-11428Y-15471D01*
X-10797Y-15471D02*
X15654Y-15471D01*
X-15700Y-15421D02*
X-13523Y-15421D01*
X-12293Y-15421D02*
X-11378Y-15421D01*
X-10846Y-15421D02*
X15700Y-15421D01*
X-15745Y-15372D02*
X-13579Y-15372D01*
X-12238Y-15372D02*
X-11329Y-15372D01*
X-10896Y-15372D02*
X15745Y-15372D01*
X-15791Y-15322D02*
X-13629Y-15322D01*
X-12187Y-15322D02*
X-11264Y-15322D01*
X-10960Y-15322D02*
X15791Y-15322D01*
X-15837Y-15273D02*
X-13663Y-15273D01*
X-12153Y-15273D02*
X15837Y-15273D01*
X-15883Y-15223D02*
X-13698Y-15223D01*
X-12119Y-15223D02*
X15883Y-15223D01*
X-15929Y-15174D02*
X-13732Y-15174D01*
X-12085Y-15174D02*
X15929Y-15174D01*
X-15975Y-15124D02*
X-13759Y-15124D01*
X-12058Y-15124D02*
X15975Y-15124D01*
X-16021Y-15075D02*
X-13778Y-15075D01*
X-12039Y-15075D02*
X16021Y-15075D01*
X-16067Y-15025D02*
X-13797Y-15025D01*
X-12020Y-15025D02*
X16067Y-15025D01*
X-16113Y-14976D02*
X-13815Y-14976D01*
X-12001Y-14976D02*
X16113Y-14976D01*
X-16159Y-14926D02*
X-13833Y-14926D01*
X-11984Y-14926D02*
X16159Y-14926D01*
X-16205Y-14876D02*
X-13839Y-14876D01*
X-11978Y-14876D02*
X16205Y-14876D01*
X-16251Y-14827D02*
X-13845Y-14827D01*
X-11972Y-14827D02*
X16251Y-14827D01*
X-16297Y-14777D02*
X-13851Y-14777D01*
X-11966Y-14777D02*
X16297Y-14777D01*
X-16343Y-14728D02*
X-13857Y-14728D01*
X-11960Y-14728D02*
X16343Y-14728D01*
X-16389Y-14678D02*
X-13856Y-14678D01*
X-11960Y-14678D02*
X16389Y-14678D01*
X-16435Y-14629D02*
X-13850Y-14629D01*
X-11966Y-14629D02*
X16435Y-14629D01*
X-16481Y-14579D02*
X-13844Y-14579D01*
X-11972Y-14579D02*
X16481Y-14579D01*
X-16527Y-14530D02*
X-13838Y-14530D01*
X-11978Y-14530D02*
X16527Y-14530D01*
X-16573Y-14480D02*
X-13832Y-14480D01*
X-11984Y-14480D02*
X16573Y-14480D01*
X-16618Y-14431D02*
X-13814Y-14431D01*
X-12002Y-14431D02*
X16618Y-14431D01*
X-16658Y-14381D02*
X-13796Y-14381D01*
X-12021Y-14381D02*
X16658Y-14381D01*
X-16698Y-14332D02*
X-13777Y-14332D01*
X-12040Y-14332D02*
X16698Y-14332D01*
X-16739Y-14282D02*
X-13758Y-14282D01*
X-12058Y-14282D02*
X16739Y-14282D01*
X-16779Y-14233D02*
X-13730Y-14233D01*
X-12087Y-14233D02*
X16779Y-14233D01*
X-16819Y-14183D02*
X-13696Y-14183D01*
X-12121Y-14183D02*
X16819Y-14183D01*
X-16860Y-14133D02*
X-13662Y-14133D01*
X-12155Y-14133D02*
X16860Y-14133D01*
X-16900Y-14084D02*
X-13628Y-14084D01*
X-12189Y-14084D02*
X16900Y-14084D01*
X-16940Y-14034D02*
X-13576Y-14034D01*
X-12240Y-14034D02*
X16940Y-14034D01*
X-16981Y-13985D02*
X-13520Y-13985D01*
X-12296Y-13985D02*
X-6056Y-13985D01*
X-1936Y-13985D02*
X16981Y-13985D01*
X-17021Y-13935D02*
X-13464Y-13935D01*
X-12352Y-13935D02*
X-6181Y-13935D01*
X-1811Y-13935D02*
X17021Y-13935D01*
X-17061Y-13886D02*
X-13381Y-13886D01*
X-12436Y-13886D02*
X-6257Y-13886D01*
X-1735Y-13886D02*
X17061Y-13886D01*
X-17101Y-13836D02*
X-13286Y-13836D01*
X-12530Y-13836D02*
X-6316Y-13836D01*
X-1676Y-13836D02*
X17101Y-13836D01*
X-17142Y-13787D02*
X-15063Y-13787D01*
X-15004Y-13787D02*
X-14405Y-13787D01*
X-14346Y-13787D02*
X-13132Y-13787D01*
X-12685Y-13787D02*
X-6365Y-13787D01*
X-1627Y-13787D02*
X17142Y-13787D01*
X-17182Y-13737D02*
X-15157Y-13737D01*
X-15004Y-13737D02*
X-14405Y-13737D01*
X-14252Y-13737D02*
X-6415Y-13737D01*
X-1577Y-13737D02*
X17182Y-13737D01*
X-17222Y-13688D02*
X-15249Y-13688D01*
X-15004Y-13688D02*
X-14405Y-13688D01*
X-14160Y-13688D02*
X-6464Y-13688D01*
X-1528Y-13688D02*
X17222Y-13688D01*
X-17263Y-13638D02*
X-15305Y-13638D01*
X-15004Y-13638D02*
X-14405Y-13638D01*
X-14104Y-13638D02*
X-6514Y-13638D01*
X-1478Y-13638D02*
X17263Y-13638D01*
X-17303Y-13589D02*
X-15360Y-13589D01*
X-15004Y-13589D02*
X-14405Y-13589D01*
X-14048Y-13589D02*
X-6563Y-13589D01*
X-1429Y-13589D02*
X17303Y-13589D01*
X-17343Y-13539D02*
X-15416Y-13539D01*
X-15004Y-13539D02*
X-14405Y-13539D01*
X-13992Y-13539D02*
X-6613Y-13539D01*
X-1379Y-13539D02*
X17343Y-13539D01*
X-17383Y-13490D02*
X-15451Y-13490D01*
X-15004Y-13490D02*
X-14405Y-13490D01*
X-13958Y-13490D02*
X-6662Y-13490D01*
X-1330Y-13490D02*
X17383Y-13490D01*
X-17424Y-13440D02*
X-15485Y-13440D01*
X-13924Y-13440D02*
X-6712Y-13440D01*
X-1280Y-13440D02*
X17424Y-13440D01*
X-17464Y-13391D02*
X-15519Y-13391D01*
X-13890Y-13391D02*
X-6761Y-13391D01*
X-1231Y-13391D02*
X17464Y-13391D01*
X-17504Y-13341D02*
X-15550Y-13341D01*
X-13859Y-13341D02*
X-6811Y-13341D01*
X-1181Y-13341D02*
X17504Y-13341D01*
X-17541Y-13291D02*
X-15569Y-13291D01*
X-13840Y-13291D02*
X-6860Y-13291D01*
X-1132Y-13291D02*
X17541Y-13291D01*
X-17576Y-13242D02*
X-15588Y-13242D01*
X-13821Y-13242D02*
X-6910Y-13242D01*
X-1082Y-13242D02*
X17576Y-13242D01*
X-17611Y-13192D02*
X-15607Y-13192D01*
X-13802Y-13192D02*
X-6959Y-13192D01*
X-1033Y-13192D02*
X17611Y-13192D01*
X-17647Y-13143D02*
X-15625Y-13143D01*
X-13783Y-13143D02*
X-7009Y-13143D01*
X-0983Y-13143D02*
X17647Y-13143D01*
X-17682Y-13093D02*
X-15633Y-13093D01*
X-13776Y-13093D02*
X-7059Y-13093D01*
X-0933Y-13093D02*
X17682Y-13093D01*
X-17717Y-13044D02*
X-15639Y-13044D01*
X-13770Y-13044D02*
X-7101Y-13044D01*
X-0884Y-13044D02*
X17717Y-13044D01*
X-17752Y-12994D02*
X-15645Y-12994D01*
X-13764Y-12994D02*
X-7140Y-12994D01*
X-0834Y-12994D02*
X17752Y-12994D01*
X-17787Y-12945D02*
X-15651Y-12945D01*
X-13758Y-12945D02*
X-7166Y-12945D01*
X-0785Y-12945D02*
X17787Y-12945D01*
X-17823Y-12895D02*
X-15654Y-12895D01*
X-13755Y-12895D02*
X-7191Y-12895D01*
X-0735Y-12895D02*
X17823Y-12895D01*
X-17858Y-12846D02*
X-15648Y-12846D01*
X-13761Y-12846D02*
X-7206Y-12846D01*
X-4563Y-12846D02*
X-2256Y-12846D01*
X-0686Y-12846D02*
X17858Y-12846D01*
X-17893Y-12796D02*
X-15642Y-12796D01*
X-13767Y-12796D02*
X-7220Y-12796D01*
X-4566Y-12796D02*
X-2206Y-12796D01*
X-0636Y-12796D02*
X17893Y-12796D01*
X-17928Y-12747D02*
X-15636Y-12747D01*
X-13773Y-12747D02*
X-7225Y-12747D01*
X-4315Y-12747D02*
X-2157Y-12747D01*
X-0587Y-12747D02*
X17928Y-12747D01*
X-17963Y-12697D02*
X-15630Y-12697D01*
X-13779Y-12697D02*
X-7229Y-12697D01*
X-4146Y-12697D02*
X-2107Y-12697D01*
X-0537Y-12697D02*
X17963Y-12697D01*
X-17999Y-12648D02*
X-15615Y-12648D01*
X-13793Y-12648D02*
X-7230Y-12648D01*
X-4004Y-12648D02*
X-2057Y-12648D01*
X-0488Y-12648D02*
X17999Y-12648D01*
X-18034Y-12598D02*
X-15597Y-12598D01*
X-13812Y-12598D02*
X-7230Y-12598D01*
X-3919Y-12598D02*
X-2008Y-12598D01*
X-0438Y-12598D02*
X18034Y-12598D01*
X-18069Y-12549D02*
X-15578Y-12549D01*
X-13831Y-12549D02*
X-7230Y-12549D01*
X-3840Y-12549D02*
X-1958Y-12549D01*
X-0389Y-12549D02*
X18069Y-12549D01*
X-18104Y-12499D02*
X-15559Y-12499D01*
X-13850Y-12499D02*
X-7230Y-12499D01*
X-3761Y-12499D02*
X-1909Y-12499D01*
X-0339Y-12499D02*
X18104Y-12499D01*
X-18139Y-12449D02*
X-15535Y-12449D01*
X-13874Y-12449D02*
X-7230Y-12449D01*
X-3701Y-12449D02*
X-1859Y-12449D01*
X-0290Y-12449D02*
X18139Y-12449D01*
X-18175Y-12400D02*
X-15501Y-12400D01*
X-13908Y-12400D02*
X-7230Y-12400D01*
X-3651Y-12400D02*
X-1810Y-12400D01*
X-0240Y-12400D02*
X18175Y-12400D01*
X-18210Y-12350D02*
X-15467Y-12350D01*
X-13942Y-12350D02*
X-7230Y-12350D01*
X-3602Y-12350D02*
X-1760Y-12350D01*
X-0191Y-12350D02*
X18210Y-12350D01*
X-18245Y-12301D02*
X-15433Y-12301D01*
X-15004Y-12301D02*
X-14405Y-12301D01*
X-13976Y-12301D02*
X-7230Y-12301D01*
X-3552Y-12301D02*
X-1711Y-12301D01*
X-0141Y-12301D02*
X18245Y-12301D01*
X-18280Y-12251D02*
X-15387Y-12251D01*
X-15004Y-12251D02*
X-14405Y-12251D01*
X-14022Y-12251D02*
X-7230Y-12251D01*
X-3509Y-12251D02*
X-1661Y-12251D01*
X-0091Y-12251D02*
X18280Y-12251D01*
X-18315Y-12202D02*
X-15331Y-12202D01*
X-15004Y-12202D02*
X-14405Y-12202D01*
X-14078Y-12202D02*
X-7230Y-12202D01*
X-3478Y-12202D02*
X-1612Y-12202D01*
X-0042Y-12202D02*
X18315Y-12202D01*
X-18350Y-12152D02*
X-15275Y-12152D01*
X-15004Y-12152D02*
X-14405Y-12152D01*
X-14134Y-12152D02*
X-7230Y-12152D01*
X-3446Y-12152D02*
X-1562Y-12152D01*
X0008Y-12152D02*
X18350Y-12152D01*
X-18380Y-12103D02*
X-15202Y-12103D01*
X-15004Y-12103D02*
X-14405Y-12103D01*
X-14207Y-12103D02*
X-7230Y-12103D01*
X-3415Y-12103D02*
X-1513Y-12103D01*
X0057Y-12103D02*
X18380Y-12103D01*
X-18411Y-12053D02*
X-16629Y-12053D01*
X-16372Y-12053D02*
X-15107Y-12053D01*
X-15004Y-12053D02*
X-14405Y-12053D01*
X-14302Y-12053D02*
X-7230Y-12053D01*
X-3384Y-12053D02*
X-1463Y-12053D01*
X0107Y-12053D02*
X18411Y-12053D01*
X-18442Y-12004D02*
X-16830Y-12004D01*
X-16171Y-12004D02*
X-7230Y-12004D01*
X-3355Y-12004D02*
X-1414Y-12004D01*
X0156Y-12004D02*
X18442Y-12004D01*
X-18472Y-11954D02*
X-16928Y-11954D01*
X-16073Y-11954D02*
X-7230Y-11954D01*
X-3338Y-11954D02*
X-1364Y-11954D01*
X0206Y-11954D02*
X18472Y-11954D01*
X-18503Y-11905D02*
X-17023Y-11905D01*
X-15978Y-11905D02*
X-7230Y-11905D01*
X-3321Y-11905D02*
X-1315Y-11905D01*
X0255Y-11905D02*
X18503Y-11905D01*
X-18533Y-11855D02*
X-17086Y-11855D01*
X-15915Y-11855D02*
X-7230Y-11855D01*
X-3303Y-11855D02*
X-1265Y-11855D01*
X0305Y-11855D02*
X18533Y-11855D01*
X-18564Y-11806D02*
X-17142Y-11806D01*
X-15859Y-11806D02*
X-7230Y-11806D01*
X-3286Y-11806D02*
X-1215Y-11806D01*
X0354Y-11806D02*
X18564Y-11806D01*
X-18594Y-11756D02*
X-17198Y-11756D01*
X-15803Y-11756D02*
X-7230Y-11756D01*
X-3269Y-11756D02*
X-1166Y-11756D01*
X0404Y-11756D02*
X18594Y-11756D01*
X-18625Y-11707D02*
X-17238Y-11707D01*
X-15763Y-11707D02*
X-7230Y-11707D01*
X-3256Y-11707D02*
X-1116Y-11707D01*
X0453Y-11707D02*
X18625Y-11707D01*
X-18656Y-11657D02*
X-17272Y-11657D01*
X-15729Y-11657D02*
X-7230Y-11657D01*
X-3250Y-11657D02*
X-1067Y-11657D01*
X0503Y-11657D02*
X18656Y-11657D01*
X-18686Y-11607D02*
X-17306Y-11607D01*
X-15695Y-11607D02*
X-7230Y-11607D01*
X-3245Y-11607D02*
X-1017Y-11607D01*
X0552Y-11607D02*
X18686Y-11607D01*
X-18717Y-11558D02*
X-17340Y-11558D01*
X-15661Y-11558D02*
X-7230Y-11558D01*
X-3239Y-11558D02*
X-0968Y-11558D01*
X0602Y-11558D02*
X18717Y-11558D01*
X-18747Y-11508D02*
X-17360Y-11508D01*
X-15641Y-11508D02*
X-7230Y-11508D01*
X-3233Y-11508D02*
X-0918Y-11508D01*
X0651Y-11508D02*
X18747Y-11508D01*
X-18778Y-11459D02*
X-17379Y-11459D01*
X-15622Y-11459D02*
X-7230Y-11459D01*
X-3228Y-11459D02*
X-0869Y-11459D01*
X0701Y-11459D02*
X18778Y-11459D01*
X-18808Y-11409D02*
X-17398Y-11409D01*
X-15603Y-11409D02*
X-7230Y-11409D01*
X-3226Y-11409D02*
X-0819Y-11409D01*
X0751Y-11409D02*
X18808Y-11409D01*
X-18839Y-11360D02*
X-17416Y-11360D01*
X-15584Y-11360D02*
X-7230Y-11360D01*
X-3231Y-11360D02*
X-0770Y-11360D01*
X0800Y-11360D02*
X18839Y-11360D01*
X-18869Y-11310D02*
X-17428Y-11310D01*
X-15573Y-11310D02*
X-7230Y-11310D01*
X-3237Y-11310D02*
X-0720Y-11310D01*
X0850Y-11310D02*
X18869Y-11310D01*
X-18900Y-11261D02*
X-17434Y-11261D01*
X-15567Y-11261D02*
X-7230Y-11261D01*
X-3243Y-11261D02*
X-0671Y-11261D01*
X0899Y-11261D02*
X18900Y-11261D01*
X-18931Y-11211D02*
X-17440Y-11211D01*
X-15561Y-11211D02*
X-7230Y-11211D01*
X-3248Y-11211D02*
X-0621Y-11211D01*
X0949Y-11211D02*
X18931Y-11211D01*
X-18961Y-11162D02*
X-17446Y-11162D01*
X-15555Y-11162D02*
X-7230Y-11162D01*
X-3254Y-11162D02*
X-0572Y-11162D01*
X0998Y-11162D02*
X18961Y-11162D01*
X-18992Y-11112D02*
X-17452Y-11112D01*
X-15549Y-11112D02*
X-7230Y-11112D01*
X-3262Y-11112D02*
X-0522Y-11112D01*
X1048Y-11112D02*
X18992Y-11112D01*
X-19022Y-11063D02*
X-17446Y-11063D01*
X-15555Y-11063D02*
X-7230Y-11063D01*
X-3279Y-11063D02*
X-0473Y-11063D01*
X1097Y-11063D02*
X19022Y-11063D01*
X-19053Y-11013D02*
X-17440Y-11013D01*
X-15561Y-11013D02*
X-7230Y-11013D01*
X-3297Y-11013D02*
X-0423Y-11013D01*
X1147Y-11013D02*
X19053Y-11013D01*
X-19083Y-10964D02*
X-17434Y-10964D01*
X-15567Y-10964D02*
X-7230Y-10964D01*
X-3314Y-10964D02*
X-0373Y-10964D01*
X1196Y-10964D02*
X19083Y-10964D01*
X-19111Y-10914D02*
X-17428Y-10914D01*
X-15573Y-10914D02*
X-7230Y-10914D01*
X-3279Y-10914D02*
X-0324Y-10914D01*
X1246Y-10914D02*
X19111Y-10914D01*
X-19138Y-10865D02*
X-17416Y-10865D01*
X-15584Y-10865D02*
X-7230Y-10865D01*
X-3230Y-10865D02*
X-0274Y-10865D01*
X1295Y-10865D02*
X19138Y-10865D01*
X-19164Y-10815D02*
X-17398Y-10815D01*
X-15603Y-10815D02*
X-7230Y-10815D01*
X-3180Y-10815D02*
X-0225Y-10815D01*
X1345Y-10815D02*
X19164Y-10815D01*
X-19190Y-10765D02*
X-17379Y-10765D01*
X-15622Y-10765D02*
X-7230Y-10765D01*
X-3131Y-10765D02*
X-0175Y-10765D01*
X1394Y-10765D02*
X19190Y-10765D01*
X-19217Y-10716D02*
X-17360Y-10716D01*
X-15641Y-10716D02*
X-7230Y-10716D01*
X-3081Y-10716D02*
X-0126Y-10716D01*
X1444Y-10716D02*
X19217Y-10716D01*
X-19243Y-10666D02*
X-17340Y-10666D01*
X-15661Y-10666D02*
X-7230Y-10666D01*
X-3032Y-10666D02*
X-0076Y-10666D01*
X1493Y-10666D02*
X19243Y-10666D01*
X-19269Y-10617D02*
X-17306Y-10617D01*
X-15695Y-10617D02*
X-7230Y-10617D01*
X-2982Y-10617D02*
X-0027Y-10617D01*
X1543Y-10617D02*
X19269Y-10617D01*
X-19295Y-10567D02*
X-17272Y-10567D01*
X-15729Y-10567D02*
X-7230Y-10567D01*
X-2932Y-10567D02*
X0023Y-10567D01*
X1593Y-10567D02*
X19295Y-10567D01*
X-19322Y-10518D02*
X-17238Y-10518D01*
X-15763Y-10518D02*
X-7230Y-10518D01*
X-2883Y-10518D02*
X0072Y-10518D01*
X1642Y-10518D02*
X19322Y-10518D01*
X-19348Y-10468D02*
X-17198Y-10468D01*
X-15803Y-10468D02*
X-7230Y-10468D01*
X-2833Y-10468D02*
X0122Y-10468D01*
X1692Y-10468D02*
X19348Y-10468D01*
X-19374Y-10419D02*
X-17142Y-10419D01*
X-15859Y-10419D02*
X-7230Y-10419D01*
X-2784Y-10419D02*
X0171Y-10419D01*
X1741Y-10419D02*
X19374Y-10419D01*
X-19401Y-10369D02*
X-17086Y-10369D01*
X-15915Y-10369D02*
X-7230Y-10369D01*
X-2734Y-10369D02*
X0221Y-10369D01*
X1791Y-10369D02*
X19401Y-10369D01*
X-19427Y-10320D02*
X-17022Y-10320D01*
X-15979Y-10320D02*
X-7230Y-10320D01*
X-2685Y-10320D02*
X0270Y-10320D01*
X1840Y-10320D02*
X19427Y-10320D01*
X-19453Y-10270D02*
X-16928Y-10270D01*
X-16073Y-10270D02*
X-7230Y-10270D01*
X-2635Y-10270D02*
X0320Y-10270D01*
X1890Y-10270D02*
X19453Y-10270D01*
X-19479Y-10221D02*
X-16829Y-10221D01*
X-16172Y-10221D02*
X-7230Y-10221D01*
X-2586Y-10221D02*
X0369Y-10221D01*
X1939Y-10221D02*
X19479Y-10221D01*
X-19506Y-10171D02*
X-16628Y-10171D01*
X-16373Y-10171D02*
X-7230Y-10171D01*
X-2536Y-10171D02*
X0419Y-10171D01*
X1989Y-10171D02*
X19506Y-10171D01*
X-19532Y-10122D02*
X-7230Y-10122D01*
X-2487Y-10122D02*
X0469Y-10122D01*
X2038Y-10122D02*
X19532Y-10122D01*
X-19558Y-10072D02*
X-7230Y-10072D01*
X-2437Y-10072D02*
X0518Y-10072D01*
X2088Y-10072D02*
X19558Y-10072D01*
X-19585Y-10023D02*
X-7230Y-10023D01*
X-2388Y-10023D02*
X0568Y-10023D01*
X2137Y-10023D02*
X19585Y-10023D01*
X-19611Y-9973D02*
X-7230Y-9973D01*
X-2338Y-9973D02*
X0617Y-9973D01*
X2187Y-9973D02*
X19611Y-9973D01*
X-19637Y-9923D02*
X-7230Y-9923D01*
X-2289Y-9923D02*
X0667Y-9923D01*
X2236Y-9923D02*
X19637Y-9923D01*
X-19663Y-9874D02*
X-7230Y-9874D01*
X-2239Y-9874D02*
X0716Y-9874D01*
X2286Y-9874D02*
X19663Y-9874D01*
X-19690Y-9824D02*
X-7230Y-9824D01*
X-2189Y-9824D02*
X0766Y-9824D01*
X2336Y-9824D02*
X19690Y-9824D01*
X-19716Y-9775D02*
X-7230Y-9775D01*
X-2140Y-9775D02*
X0815Y-9775D01*
X2385Y-9775D02*
X19716Y-9775D01*
X-19742Y-9725D02*
X-7230Y-9725D01*
X-2090Y-9725D02*
X0865Y-9725D01*
X2435Y-9725D02*
X19742Y-9725D01*
X-19768Y-9676D02*
X-7230Y-9676D01*
X-2041Y-9676D02*
X0914Y-9676D01*
X2484Y-9676D02*
X19768Y-9676D01*
X-19791Y-9626D02*
X-7230Y-9626D01*
X-1991Y-9626D02*
X0964Y-9626D01*
X2534Y-9626D02*
X19791Y-9626D01*
X-19813Y-9577D02*
X-7230Y-9577D01*
X-1942Y-9577D02*
X1013Y-9577D01*
X2583Y-9577D02*
X19813Y-9577D01*
X-19835Y-9527D02*
X-7230Y-9527D01*
X-1892Y-9527D02*
X1063Y-9527D01*
X2633Y-9527D02*
X19835Y-9527D01*
X-19857Y-9478D02*
X-7230Y-9478D01*
X-1843Y-9478D02*
X1112Y-9478D01*
X2682Y-9478D02*
X19857Y-9478D01*
X-19880Y-9428D02*
X-7230Y-9428D01*
X-1793Y-9428D02*
X1162Y-9428D01*
X2732Y-9428D02*
X19880Y-9428D01*
X-19902Y-9379D02*
X-7230Y-9379D01*
X-1744Y-9379D02*
X1211Y-9379D01*
X2781Y-9379D02*
X19902Y-9379D01*
X-19924Y-9329D02*
X-7230Y-9329D01*
X-1694Y-9329D02*
X1261Y-9329D01*
X2831Y-9329D02*
X19924Y-9329D01*
X-19947Y-9280D02*
X-7230Y-9280D01*
X-1645Y-9280D02*
X1311Y-9280D01*
X2880Y-9280D02*
X19947Y-9280D01*
X-19969Y-9230D02*
X-7230Y-9230D01*
X-1595Y-9230D02*
X1360Y-9230D01*
X2930Y-9230D02*
X19969Y-9230D01*
X-19991Y-9181D02*
X-7230Y-9181D01*
X-1546Y-9181D02*
X1410Y-9181D01*
X2979Y-9181D02*
X19991Y-9181D01*
X-20013Y-9131D02*
X-7230Y-9131D01*
X-1496Y-9131D02*
X1459Y-9131D01*
X3029Y-9131D02*
X20013Y-9131D01*
X-20036Y-9081D02*
X-7230Y-9081D01*
X-1447Y-9081D02*
X1509Y-9081D01*
X3078Y-9081D02*
X20036Y-9081D01*
X-20058Y-9032D02*
X-7230Y-9032D01*
X-1397Y-9032D02*
X1558Y-9032D01*
X3128Y-9032D02*
X20058Y-9032D01*
X-20080Y-8982D02*
X-7230Y-8982D01*
X-1347Y-8982D02*
X1608Y-8982D01*
X3178Y-8982D02*
X20080Y-8982D01*
X-20103Y-8933D02*
X-7230Y-8933D01*
X-1298Y-8933D02*
X1657Y-8933D01*
X3227Y-8933D02*
X20103Y-8933D01*
X-20125Y-8883D02*
X-7230Y-8883D01*
X-1248Y-8883D02*
X1707Y-8883D01*
X3277Y-8883D02*
X20125Y-8883D01*
X-20147Y-8834D02*
X-7230Y-8834D01*
X-1199Y-8834D02*
X1756Y-8834D01*
X3326Y-8834D02*
X20147Y-8834D01*
X-20169Y-8784D02*
X-7230Y-8784D01*
X-1149Y-8784D02*
X1806Y-8784D01*
X3376Y-8784D02*
X20169Y-8784D01*
X-20192Y-8735D02*
X-7230Y-8735D01*
X-1100Y-8735D02*
X1855Y-8735D01*
X3425Y-8735D02*
X20192Y-8735D01*
X-20214Y-8685D02*
X-7230Y-8685D01*
X-1050Y-8685D02*
X1905Y-8685D01*
X3475Y-8685D02*
X20214Y-8685D01*
X-20236Y-8636D02*
X-7230Y-8636D01*
X-1001Y-8636D02*
X1954Y-8636D01*
X3524Y-8636D02*
X20236Y-8636D01*
X-20259Y-8586D02*
X-7230Y-8586D01*
X-0951Y-8586D02*
X2004Y-8586D01*
X3574Y-8586D02*
X20259Y-8586D01*
X-20281Y-8537D02*
X-7230Y-8537D01*
X-0902Y-8537D02*
X2054Y-8537D01*
X3623Y-8537D02*
X20281Y-8537D01*
X-20303Y-8487D02*
X-7230Y-8487D01*
X-0852Y-8487D02*
X2103Y-8487D01*
X3673Y-8487D02*
X20303Y-8487D01*
X-20325Y-8438D02*
X-7230Y-8438D01*
X-0803Y-8438D02*
X2153Y-8438D01*
X3722Y-8438D02*
X20325Y-8438D01*
X-20348Y-8388D02*
X-7230Y-8388D01*
X-0753Y-8388D02*
X2202Y-8388D01*
X3772Y-8388D02*
X20348Y-8388D01*
X-20367Y-8338D02*
X-7230Y-8338D01*
X-0704Y-8338D02*
X2252Y-8338D01*
X3821Y-8338D02*
X20367Y-8338D01*
X-20386Y-8289D02*
X-7230Y-8289D01*
X-0654Y-8289D02*
X2301Y-8289D01*
X3871Y-8289D02*
X20386Y-8289D01*
X-20404Y-8239D02*
X-7230Y-8239D01*
X-0605Y-8239D02*
X2351Y-8239D01*
X3920Y-8239D02*
X20404Y-8239D01*
X-20423Y-8190D02*
X-7230Y-8190D01*
X-0555Y-8190D02*
X2400Y-8190D01*
X3970Y-8190D02*
X20423Y-8190D01*
X-20441Y-8140D02*
X-7230Y-8140D01*
X-0505Y-8140D02*
X2450Y-8140D01*
X4020Y-8140D02*
X20441Y-8140D01*
X-20460Y-8091D02*
X-7230Y-8091D01*
X-0456Y-8091D02*
X2499Y-8091D01*
X4069Y-8091D02*
X20460Y-8091D01*
X-20478Y-8041D02*
X-7230Y-8041D01*
X-0406Y-8041D02*
X2549Y-8041D01*
X4119Y-8041D02*
X20478Y-8041D01*
X-20497Y-7992D02*
X-7230Y-7992D01*
X-0357Y-7992D02*
X2598Y-7992D01*
X4168Y-7992D02*
X20497Y-7992D01*
X-20515Y-7942D02*
X-7230Y-7942D01*
X-0307Y-7942D02*
X2648Y-7942D01*
X4218Y-7942D02*
X20515Y-7942D01*
X-20534Y-7893D02*
X-7230Y-7893D01*
X-0258Y-7893D02*
X2697Y-7893D01*
X4267Y-7893D02*
X20534Y-7893D01*
X-20553Y-7843D02*
X-7230Y-7843D01*
X-0208Y-7843D02*
X2747Y-7843D01*
X4317Y-7843D02*
X20553Y-7843D01*
X-20571Y-7794D02*
X-7230Y-7794D01*
X-0159Y-7794D02*
X2796Y-7794D01*
X4366Y-7794D02*
X20571Y-7794D01*
X-20590Y-7744D02*
X-7230Y-7744D01*
X-0109Y-7744D02*
X2846Y-7744D01*
X4416Y-7744D02*
X20590Y-7744D01*
X-20608Y-7695D02*
X-7230Y-7695D01*
X-0060Y-7695D02*
X2896Y-7695D01*
X4465Y-7695D02*
X20608Y-7695D01*
X-20627Y-7645D02*
X-7230Y-7645D01*
X-0010Y-7645D02*
X2945Y-7645D01*
X4515Y-7645D02*
X20627Y-7645D01*
X-20645Y-7596D02*
X-7230Y-7596D01*
X0039Y-7596D02*
X2995Y-7596D01*
X4564Y-7596D02*
X20645Y-7596D01*
X-20664Y-7546D02*
X-7230Y-7546D01*
X0089Y-7546D02*
X3044Y-7546D01*
X4614Y-7546D02*
X20664Y-7546D01*
X-20682Y-7496D02*
X-7230Y-7496D01*
X0138Y-7496D02*
X3094Y-7496D01*
X4663Y-7496D02*
X20682Y-7496D01*
X-20701Y-7447D02*
X-7230Y-7447D01*
X0188Y-7447D02*
X3143Y-7447D01*
X4713Y-7447D02*
X20701Y-7447D01*
X-20719Y-7397D02*
X-7230Y-7397D01*
X0237Y-7397D02*
X3193Y-7397D01*
X4762Y-7397D02*
X20719Y-7397D01*
X-20738Y-7348D02*
X-7230Y-7348D01*
X0287Y-7348D02*
X3242Y-7348D01*
X4812Y-7348D02*
X20738Y-7348D01*
X-20756Y-7298D02*
X-7230Y-7298D01*
X0337Y-7298D02*
X3292Y-7298D01*
X4862Y-7298D02*
X20756Y-7298D01*
X-20775Y-7249D02*
X-7230Y-7249D01*
X0386Y-7249D02*
X3341Y-7249D01*
X4911Y-7249D02*
X20775Y-7249D01*
X-20793Y-7199D02*
X-7230Y-7199D01*
X0436Y-7199D02*
X3391Y-7199D01*
X4961Y-7199D02*
X20793Y-7199D01*
X-20812Y-7150D02*
X-7230Y-7150D01*
X0485Y-7150D02*
X3440Y-7150D01*
X5010Y-7150D02*
X20812Y-7150D01*
X-20830Y-7100D02*
X-7230Y-7100D01*
X0535Y-7100D02*
X3490Y-7100D01*
X5060Y-7100D02*
X20830Y-7100D01*
X-20849Y-7051D02*
X-7230Y-7051D01*
X0584Y-7051D02*
X3539Y-7051D01*
X5109Y-7051D02*
X20849Y-7051D01*
X-20865Y-7001D02*
X-7230Y-7001D01*
X0634Y-7001D02*
X3589Y-7001D01*
X5159Y-7001D02*
X20865Y-7001D01*
X-20880Y-6952D02*
X-7230Y-6952D01*
X0683Y-6952D02*
X3638Y-6952D01*
X5208Y-6952D02*
X20880Y-6952D01*
X-20895Y-6902D02*
X-7230Y-6902D01*
X0733Y-6902D02*
X3688Y-6902D01*
X5258Y-6902D02*
X20895Y-6902D01*
X-20910Y-6853D02*
X-7230Y-6853D01*
X0782Y-6853D02*
X3738Y-6853D01*
X5307Y-6853D02*
X20910Y-6853D01*
X-20925Y-6803D02*
X-7230Y-6803D01*
X0832Y-6803D02*
X3787Y-6803D01*
X5357Y-6803D02*
X20925Y-6803D01*
X-20940Y-6754D02*
X-7230Y-6754D01*
X0881Y-6754D02*
X3837Y-6754D01*
X5406Y-6754D02*
X20940Y-6754D01*
X-20955Y-6704D02*
X-7230Y-6704D01*
X0931Y-6704D02*
X3886Y-6704D01*
X5456Y-6704D02*
X20955Y-6704D01*
X-20969Y-6654D02*
X-7230Y-6654D01*
X0980Y-6654D02*
X3936Y-6654D01*
X5505Y-6654D02*
X20970Y-6654D01*
X-20984Y-6605D02*
X-7230Y-6605D01*
X1030Y-6605D02*
X3985Y-6605D01*
X5555Y-6605D02*
X20984Y-6605D01*
X-20999Y-6555D02*
X-7230Y-6555D01*
X1079Y-6555D02*
X4035Y-6555D01*
X5604Y-6555D02*
X20999Y-6555D01*
X-21014Y-6506D02*
X-7230Y-6506D01*
X1129Y-6506D02*
X4084Y-6506D01*
X5654Y-6506D02*
X21014Y-6506D01*
X-21029Y-6456D02*
X-7230Y-6456D01*
X1179Y-6456D02*
X4134Y-6456D01*
X5704Y-6456D02*
X21029Y-6456D01*
X-21044Y-6407D02*
X-7230Y-6407D01*
X1228Y-6407D02*
X4183Y-6407D01*
X5753Y-6407D02*
X21044Y-6407D01*
X-21059Y-6357D02*
X-7230Y-6357D01*
X1278Y-6357D02*
X4233Y-6357D01*
X5803Y-6357D02*
X21059Y-6357D01*
X-21074Y-6308D02*
X-7230Y-6308D01*
X1327Y-6308D02*
X4282Y-6308D01*
X5852Y-6308D02*
X21074Y-6308D01*
X-21089Y-6258D02*
X-7230Y-6258D01*
X1377Y-6258D02*
X4332Y-6258D01*
X5902Y-6258D02*
X21089Y-6258D01*
X-21104Y-6209D02*
X-7230Y-6209D01*
X1426Y-6209D02*
X4381Y-6209D01*
X5951Y-6209D02*
X21104Y-6209D01*
X-21119Y-6159D02*
X-7230Y-6159D01*
X1476Y-6159D02*
X4431Y-6159D01*
X6001Y-6159D02*
X21119Y-6159D01*
X-21134Y-6110D02*
X-7230Y-6110D01*
X1525Y-6110D02*
X4480Y-6110D01*
X6050Y-6110D02*
X21134Y-6110D01*
X-21149Y-6060D02*
X-7230Y-6060D01*
X1575Y-6060D02*
X4530Y-6060D01*
X6100Y-6060D02*
X21149Y-6060D01*
X-21164Y-6011D02*
X-7230Y-6011D01*
X1624Y-6011D02*
X4580Y-6011D01*
X6149Y-6011D02*
X21164Y-6011D01*
X-21178Y-5961D02*
X-7230Y-5961D01*
X1674Y-5961D02*
X4629Y-5961D01*
X6199Y-5961D02*
X21178Y-5961D01*
X-21193Y-5912D02*
X-7230Y-5912D01*
X1723Y-5912D02*
X4679Y-5912D01*
X6248Y-5912D02*
X21193Y-5912D01*
X-21208Y-5862D02*
X-7230Y-5862D01*
X1773Y-5862D02*
X4728Y-5862D01*
X6298Y-5862D02*
X21208Y-5862D01*
X-21223Y-5812D02*
X-7230Y-5812D01*
X1822Y-5812D02*
X4778Y-5812D01*
X6347Y-5812D02*
X21223Y-5812D01*
X-21238Y-5763D02*
X-7230Y-5763D01*
X1872Y-5763D02*
X4827Y-5763D01*
X6397Y-5763D02*
X21238Y-5763D01*
X-21253Y-5713D02*
X-7230Y-5713D01*
X1921Y-5713D02*
X4877Y-5713D01*
X6446Y-5713D02*
X21253Y-5713D01*
X-21268Y-5664D02*
X-7230Y-5664D01*
X1971Y-5664D02*
X4926Y-5664D01*
X6496Y-5664D02*
X21268Y-5664D01*
X-21280Y-5614D02*
X-7230Y-5614D01*
X2021Y-5614D02*
X4976Y-5614D01*
X6546Y-5614D02*
X21280Y-5614D01*
X-21291Y-5565D02*
X-7230Y-5565D01*
X2070Y-5565D02*
X5025Y-5565D01*
X6595Y-5565D02*
X21291Y-5565D01*
X-21303Y-5515D02*
X-7230Y-5515D01*
X2120Y-5515D02*
X5075Y-5515D01*
X6645Y-5515D02*
X21303Y-5515D01*
X-21314Y-5466D02*
X-7227Y-5466D01*
X2169Y-5466D02*
X5124Y-5466D01*
X6694Y-5466D02*
X21314Y-5466D01*
X-21326Y-5416D02*
X-7222Y-5416D01*
X2219Y-5416D02*
X5174Y-5416D01*
X6744Y-5416D02*
X21326Y-5416D01*
X-21337Y-5367D02*
X-7212Y-5367D01*
X2268Y-5367D02*
X5223Y-5367D01*
X6793Y-5367D02*
X21337Y-5367D01*
X-21348Y-5317D02*
X-7197Y-5317D01*
X2318Y-5317D02*
X5273Y-5317D01*
X6843Y-5317D02*
X21348Y-5317D01*
X-21360Y-5268D02*
X-7177Y-5268D01*
X2367Y-5268D02*
X5322Y-5268D01*
X6892Y-5268D02*
X21360Y-5268D01*
X-21371Y-5218D02*
X-7151Y-5218D01*
X2417Y-5218D02*
X5372Y-5218D01*
X6942Y-5218D02*
X21371Y-5218D01*
X-21383Y-5169D02*
X-7118Y-5169D01*
X2466Y-5169D02*
X5422Y-5169D01*
X6991Y-5169D02*
X7237Y-5169D01*
X7813Y-5169D02*
X21383Y-5169D01*
X-21394Y-5119D02*
X-7077Y-5119D01*
X2516Y-5119D02*
X5471Y-5119D01*
X7041Y-5119D02*
X7087Y-5119D01*
X7963Y-5119D02*
X21394Y-5119D01*
X-21406Y-5070D02*
X-7029Y-5070D01*
X2565Y-5070D02*
X5521Y-5070D01*
X8105Y-5070D02*
X21406Y-5070D01*
X-21417Y-5020D02*
X-6980Y-5020D01*
X2615Y-5020D02*
X5570Y-5020D01*
X8186Y-5020D02*
X21417Y-5020D01*
X-21429Y-4970D02*
X-6930Y-4970D01*
X2664Y-4970D02*
X5620Y-4970D01*
X8265Y-4970D02*
X21429Y-4970D01*
X-21440Y-4921D02*
X-6881Y-4921D01*
X2714Y-4921D02*
X5669Y-4921D01*
X8344Y-4921D02*
X21440Y-4921D01*
X-21452Y-4871D02*
X-6831Y-4871D01*
X2764Y-4871D02*
X5719Y-4871D01*
X8402Y-4871D02*
X21452Y-4871D01*
X-21463Y-4822D02*
X-6782Y-4822D01*
X2813Y-4822D02*
X5768Y-4822D01*
X8452Y-4822D02*
X21463Y-4822D01*
X-21475Y-4772D02*
X-6732Y-4772D01*
X2863Y-4772D02*
X5818Y-4772D01*
X8501Y-4772D02*
X21475Y-4772D01*
X-21486Y-4723D02*
X-6683Y-4723D01*
X2912Y-4723D02*
X5867Y-4723D01*
X8551Y-4723D02*
X21486Y-4723D01*
X-21498Y-4673D02*
X-6633Y-4673D01*
X2956Y-4673D02*
X5917Y-4673D01*
X8593Y-4673D02*
X21498Y-4673D01*
X-21509Y-4624D02*
X-6584Y-4624D01*
X2997Y-4624D02*
X5966Y-4624D01*
X8624Y-4624D02*
X21509Y-4624D01*
X-21521Y-4574D02*
X-6534Y-4574D01*
X3025Y-4574D02*
X6016Y-4574D01*
X8655Y-4574D02*
X21521Y-4574D01*
X-21532Y-4525D02*
X-6485Y-4525D01*
X3052Y-4525D02*
X6065Y-4525D01*
X8687Y-4525D02*
X21532Y-4525D01*
X-21544Y-4475D02*
X-6435Y-4475D01*
X3067Y-4475D02*
X6115Y-4475D01*
X8718Y-4475D02*
X21544Y-4475D01*
X-21555Y-4426D02*
X-6386Y-4426D01*
X3082Y-4426D02*
X6164Y-4426D01*
X8746Y-4426D02*
X21555Y-4426D01*
X-21566Y-4376D02*
X-6336Y-4376D01*
X3088Y-4376D02*
X6214Y-4376D01*
X8763Y-4376D02*
X21566Y-4376D01*
X-21578Y-4327D02*
X-6286Y-4327D01*
X3093Y-4327D02*
X6264Y-4327D01*
X8781Y-4327D02*
X21578Y-4327D01*
X-21589Y-4277D02*
X-6237Y-4277D01*
X3095Y-4277D02*
X6252Y-4277D01*
X8798Y-4277D02*
X21589Y-4277D01*
X-21598Y-4228D02*
X-6187Y-4228D01*
X3095Y-4228D02*
X6235Y-4228D01*
X8815Y-4228D02*
X21598Y-4228D01*
X-21606Y-4178D02*
X-6138Y-4178D01*
X3095Y-4178D02*
X6217Y-4178D01*
X8833Y-4178D02*
X21606Y-4178D01*
X-21614Y-4128D02*
X-6088Y-4128D01*
X3095Y-4128D02*
X6205Y-4128D01*
X8845Y-4128D02*
X21614Y-4128D01*
X-21623Y-4079D02*
X-6039Y-4079D01*
X3095Y-4079D02*
X6200Y-4079D01*
X8850Y-4079D02*
X21623Y-4079D01*
X-21631Y-4029D02*
X-5989Y-4029D01*
X3095Y-4029D02*
X6194Y-4029D01*
X8856Y-4029D02*
X21631Y-4029D01*
X-21639Y-3980D02*
X-5940Y-3980D01*
X3095Y-3980D02*
X6189Y-3980D01*
X8861Y-3980D02*
X21639Y-3980D01*
X-21647Y-3930D02*
X-5890Y-3930D01*
X3095Y-3930D02*
X6183Y-3930D01*
X8867Y-3930D02*
X21647Y-3930D01*
X-21655Y-3881D02*
X-5841Y-3881D01*
X3095Y-3881D02*
X6177Y-3881D01*
X8873Y-3881D02*
X21655Y-3881D01*
X-21663Y-3831D02*
X-5791Y-3831D01*
X3095Y-3831D02*
X6176Y-3831D01*
X8874Y-3831D02*
X21663Y-3831D01*
X-21671Y-3782D02*
X-5742Y-3782D01*
X3095Y-3782D02*
X6182Y-3782D01*
X8868Y-3782D02*
X21671Y-3782D01*
X-21679Y-3732D02*
X-5692Y-3732D01*
X3095Y-3732D02*
X6187Y-3732D01*
X8863Y-3732D02*
X21679Y-3732D01*
X-21688Y-3683D02*
X-5643Y-3683D01*
X3095Y-3683D02*
X6193Y-3683D01*
X8857Y-3683D02*
X21688Y-3683D01*
X-21696Y-3633D02*
X-5635Y-3633D01*
X3095Y-3633D02*
X6198Y-3633D01*
X8852Y-3633D02*
X21696Y-3633D01*
X-21704Y-3584D02*
X-5635Y-3584D01*
X3095Y-3584D02*
X6204Y-3584D01*
X8846Y-3584D02*
X21704Y-3584D01*
X-21712Y-3534D02*
X-5635Y-3534D01*
X3095Y-3534D02*
X6213Y-3534D01*
X8837Y-3534D02*
X21712Y-3534D01*
X-21720Y-3485D02*
X-5635Y-3485D01*
X3095Y-3485D02*
X6231Y-3485D01*
X8819Y-3485D02*
X21720Y-3485D01*
X-21728Y-3435D02*
X-5635Y-3435D01*
X3095Y-3435D02*
X6248Y-3435D01*
X8802Y-3435D02*
X21728Y-3435D01*
X-21736Y-3385D02*
X-5635Y-3385D01*
X3095Y-3385D02*
X6265Y-3385D01*
X8785Y-3385D02*
X21736Y-3385D01*
X-21744Y-3336D02*
X-5635Y-3336D01*
X3095Y-3336D02*
X6283Y-3336D01*
X8767Y-3336D02*
X21744Y-3336D01*
X-21753Y-3286D02*
X-5635Y-3286D01*
X3095Y-3286D02*
X6300Y-3286D01*
X8750Y-3286D02*
X21753Y-3286D01*
X-21761Y-3237D02*
X-5635Y-3237D01*
X3095Y-3237D02*
X6325Y-3237D01*
X8725Y-3237D02*
X21761Y-3237D01*
X-21769Y-3187D02*
X-5635Y-3187D01*
X3095Y-3187D02*
X6356Y-3187D01*
X8694Y-3187D02*
X21769Y-3187D01*
X-21777Y-3138D02*
X-5635Y-3138D01*
X3095Y-3138D02*
X6387Y-3138D01*
X8663Y-3138D02*
X21777Y-3138D01*
X-21785Y-3088D02*
X-5635Y-3088D01*
X3095Y-3088D02*
X6418Y-3088D01*
X8632Y-3088D02*
X21785Y-3088D01*
X-21793Y-3039D02*
X-5635Y-3039D01*
X3095Y-3039D02*
X6449Y-3039D01*
X8601Y-3039D02*
X21793Y-3039D01*
X-21801Y-2989D02*
X-5635Y-2989D01*
X3095Y-2989D02*
X6487Y-2989D01*
X8563Y-2989D02*
X21801Y-2989D01*
X-21809Y-2940D02*
X-5635Y-2940D01*
X3095Y-2940D02*
X6537Y-2940D01*
X8513Y-2940D02*
X21809Y-2940D01*
X-21818Y-2890D02*
X-5635Y-2890D01*
X3095Y-2890D02*
X6586Y-2890D01*
X8464Y-2890D02*
X21818Y-2890D01*
X-21825Y-2841D02*
X-5635Y-2841D01*
X3095Y-2841D02*
X6636Y-2841D01*
X8414Y-2841D02*
X21825Y-2841D01*
X-21830Y-2791D02*
X-5635Y-2791D01*
X3095Y-2791D02*
X6687Y-2791D01*
X8363Y-2791D02*
X21830Y-2791D01*
X-21834Y-2742D02*
X-5635Y-2742D01*
X3095Y-2742D02*
X6766Y-2742D01*
X8284Y-2742D02*
X21834Y-2742D01*
X-21839Y-2692D02*
X-5635Y-2692D01*
X3095Y-2692D02*
X6844Y-2692D01*
X8206Y-2692D02*
X21839Y-2692D01*
X-21844Y-2643D02*
X-5635Y-2643D01*
X3095Y-2643D02*
X6923Y-2643D01*
X8127Y-2643D02*
X21844Y-2643D01*
X-21849Y-2593D02*
X-5635Y-2593D01*
X3095Y-2593D02*
X6970Y-2593D01*
X8080Y-2593D02*
X21849Y-2593D01*
X-21854Y-2543D02*
X-5635Y-2543D01*
X3095Y-2543D02*
X6970Y-2543D01*
X8080Y-2543D02*
X21854Y-2543D01*
X-21859Y-2494D02*
X-5635Y-2494D01*
X3095Y-2494D02*
X6970Y-2494D01*
X8080Y-2494D02*
X21859Y-2494D01*
X-21864Y-2444D02*
X-5635Y-2444D01*
X3095Y-2444D02*
X6970Y-2444D01*
X8080Y-2444D02*
X21864Y-2444D01*
X-21868Y-2395D02*
X-5635Y-2395D01*
X3095Y-2395D02*
X6970Y-2395D01*
X8080Y-2395D02*
X21868Y-2395D01*
X-21873Y-2345D02*
X-5635Y-2345D01*
X3095Y-2345D02*
X6970Y-2345D01*
X8080Y-2345D02*
X21873Y-2345D01*
X-21878Y-2296D02*
X-5635Y-2296D01*
X3095Y-2296D02*
X6970Y-2296D01*
X8080Y-2296D02*
X21878Y-2296D01*
X-21883Y-2246D02*
X-5635Y-2246D01*
X3095Y-2246D02*
X6970Y-2246D01*
X8080Y-2246D02*
X21883Y-2246D01*
X-21888Y-2197D02*
X-5635Y-2197D01*
X3095Y-2197D02*
X6970Y-2197D01*
X8080Y-2197D02*
X21888Y-2197D01*
X-21893Y-2147D02*
X-5635Y-2147D01*
X3095Y-2147D02*
X6970Y-2147D01*
X8080Y-2147D02*
X21893Y-2147D01*
X-21897Y-2098D02*
X-5635Y-2098D01*
X3095Y-2098D02*
X6970Y-2098D01*
X8080Y-2098D02*
X21897Y-2098D01*
X-21902Y-2048D02*
X-5635Y-2048D01*
X3095Y-2048D02*
X6970Y-2048D01*
X8080Y-2048D02*
X21902Y-2048D01*
X-21907Y-1999D02*
X-5635Y-1999D01*
X3095Y-1999D02*
X6970Y-1999D01*
X8080Y-1999D02*
X21907Y-1999D01*
X-21912Y-1949D02*
X-5635Y-1949D01*
X3095Y-1949D02*
X6970Y-1949D01*
X8080Y-1949D02*
X21912Y-1949D01*
X-21917Y-1900D02*
X-5635Y-1900D01*
X3095Y-1900D02*
X6970Y-1900D01*
X8080Y-1900D02*
X21917Y-1900D01*
X-21922Y-1850D02*
X-5635Y-1850D01*
X3095Y-1850D02*
X6970Y-1850D01*
X8080Y-1850D02*
X21922Y-1850D01*
X-21927Y-1801D02*
X-5635Y-1801D01*
X3095Y-1801D02*
X6970Y-1801D01*
X8080Y-1801D02*
X21927Y-1801D01*
X-21931Y-1751D02*
X-5635Y-1751D01*
X3095Y-1751D02*
X6970Y-1751D01*
X8080Y-1751D02*
X21931Y-1751D01*
X-21936Y-1701D02*
X-5635Y-1701D01*
X3095Y-1701D02*
X6970Y-1701D01*
X8080Y-1701D02*
X21936Y-1701D01*
X-21941Y-1652D02*
X-5635Y-1652D01*
X3095Y-1652D02*
X6970Y-1652D01*
X8080Y-1652D02*
X21941Y-1652D01*
X-21946Y-1602D02*
X-5635Y-1602D01*
X3095Y-1602D02*
X6970Y-1602D01*
X8080Y-1602D02*
X21946Y-1602D01*
X-21951Y-1553D02*
X-5635Y-1553D01*
X3095Y-1553D02*
X6970Y-1553D01*
X8080Y-1553D02*
X21950Y-1553D01*
X-21956Y-1503D02*
X-5635Y-1503D01*
X3095Y-1503D02*
X6970Y-1503D01*
X8080Y-1503D02*
X21950Y-1503D01*
X-21961Y-1454D02*
X-5635Y-1454D01*
X3095Y-1454D02*
X6970Y-1454D01*
X8080Y-1454D02*
X21950Y-1454D01*
X-21964Y-1404D02*
X-5635Y-1404D01*
X3095Y-1404D02*
X6970Y-1404D01*
X8080Y-1404D02*
X21950Y-1404D01*
X-21965Y-1355D02*
X-5635Y-1355D01*
X3095Y-1355D02*
X6970Y-1355D01*
X8080Y-1355D02*
X21950Y-1355D01*
X-21967Y-1305D02*
X-5635Y-1305D01*
X3095Y-1305D02*
X6970Y-1305D01*
X8080Y-1305D02*
X21950Y-1305D01*
X-21968Y-1256D02*
X-5635Y-1256D01*
X3095Y-1256D02*
X6970Y-1256D01*
X8080Y-1256D02*
X21950Y-1256D01*
X-21970Y-1206D02*
X-5635Y-1206D01*
X3095Y-1206D02*
X6970Y-1206D01*
X8080Y-1206D02*
X21950Y-1206D01*
X-21972Y-1157D02*
X-5635Y-1157D01*
X3095Y-1157D02*
X6970Y-1157D01*
X8080Y-1157D02*
X21950Y-1157D01*
X-21973Y-1107D02*
X-5635Y-1107D01*
X3095Y-1107D02*
X6970Y-1107D01*
X8080Y-1107D02*
X21950Y-1107D01*
X-21975Y-1058D02*
X-5635Y-1058D01*
X3095Y-1058D02*
X6970Y-1058D01*
X8080Y-1058D02*
X21950Y-1058D01*
X-21977Y-1008D02*
X-5635Y-1008D01*
X3095Y-1008D02*
X6970Y-1008D01*
X8080Y-1008D02*
X21950Y-1008D01*
X-21978Y-0959D02*
X-5635Y-0959D01*
X3095Y-0959D02*
X6970Y-0959D01*
X8080Y-0959D02*
X21950Y-0959D01*
X-21980Y-0909D02*
X-5635Y-0909D01*
X3095Y-0909D02*
X6970Y-0909D01*
X8080Y-0909D02*
X21950Y-0909D01*
X-21981Y-0859D02*
X-5635Y-0859D01*
X3095Y-0859D02*
X6970Y-0859D01*
X8080Y-0859D02*
X21950Y-0859D01*
X-21983Y-0810D02*
X-5635Y-0810D01*
X3095Y-0810D02*
X6970Y-0810D01*
X8080Y-0810D02*
X21950Y-0810D01*
X-21985Y-0760D02*
X-5635Y-0760D01*
X3095Y-0760D02*
X6970Y-0760D01*
X8080Y-0760D02*
X21950Y-0760D01*
X-21986Y-0711D02*
X-5635Y-0711D01*
X3095Y-0711D02*
X6970Y-0711D01*
X8080Y-0711D02*
X21950Y-0711D01*
X-21988Y-0661D02*
X-5635Y-0661D01*
X3095Y-0661D02*
X6970Y-0661D01*
X8080Y-0661D02*
X21950Y-0661D01*
X-21989Y-0612D02*
X-5635Y-0612D01*
X3095Y-0612D02*
X6970Y-0612D01*
X8080Y-0612D02*
X21950Y-0612D01*
X-21991Y-0562D02*
X-5635Y-0562D01*
X3095Y-0562D02*
X6970Y-0562D01*
X8080Y-0562D02*
X21950Y-0562D01*
X-21993Y-0513D02*
X-5635Y-0513D01*
X3095Y-0513D02*
X6970Y-0513D01*
X8080Y-0513D02*
X21950Y-0513D01*
X-21994Y-0463D02*
X-5635Y-0463D01*
X3095Y-0463D02*
X6970Y-0463D01*
X8080Y-0463D02*
X21950Y-0463D01*
X-21996Y-0414D02*
X-5635Y-0414D01*
X3095Y-0414D02*
X6970Y-0414D01*
X8080Y-0414D02*
X21950Y-0414D01*
X-21997Y-0364D02*
X-5635Y-0364D01*
X3095Y-0364D02*
X6970Y-0364D01*
X8080Y-0364D02*
X21950Y-0364D01*
X-21999Y-0315D02*
X-5635Y-0315D01*
X3095Y-0315D02*
X6970Y-0315D01*
X8080Y-0315D02*
X21950Y-0315D01*
X-22001Y-0265D02*
X-5635Y-0265D01*
X3095Y-0265D02*
X6970Y-0265D01*
X8080Y-0265D02*
X21950Y-0265D01*
X-22002Y-0216D02*
X-5635Y-0216D01*
X3095Y-0216D02*
X6970Y-0216D01*
X8080Y-0216D02*
X21950Y-0216D01*
X-22004Y-0166D02*
X-5635Y-0166D01*
X3095Y-0166D02*
X6970Y-0166D01*
X8080Y-0166D02*
X21950Y-0166D01*
X-22006Y-0117D02*
X-5635Y-0117D01*
X3095Y-0117D02*
X6970Y-0117D01*
X8080Y-0117D02*
X21950Y-0117D01*
X-22007Y-0067D02*
X-5635Y-0067D01*
X3095Y-0067D02*
X6970Y-0067D01*
X8080Y-0067D02*
X21950Y-0067D01*
X-22009Y-0017D02*
X-5635Y-0017D01*
X3095Y-0017D02*
X6970Y-0017D01*
X8080Y-0017D02*
X21950Y-0017D01*
X-22008Y0032D02*
X-5635Y0032D01*
X3095Y0032D02*
X6970Y0032D01*
X8080Y0032D02*
X21950Y0032D01*
X-22007Y0082D02*
X-5635Y0082D01*
X3095Y0082D02*
X6970Y0082D01*
X8080Y0082D02*
X21950Y0082D01*
X-22005Y0131D02*
X-5635Y0131D01*
X3095Y0131D02*
X6970Y0131D01*
X8080Y0131D02*
X21950Y0131D01*
X-22003Y0181D02*
X-5635Y0181D01*
X3095Y0181D02*
X6970Y0181D01*
X8080Y0181D02*
X21950Y0181D01*
X-22002Y0230D02*
X-5635Y0230D01*
X3095Y0230D02*
X6970Y0230D01*
X8080Y0230D02*
X21950Y0230D01*
X-22000Y0280D02*
X-5635Y0280D01*
X3095Y0280D02*
X6970Y0280D01*
X8080Y0280D02*
X21950Y0280D01*
X-21999Y0329D02*
X-5635Y0329D01*
X3095Y0329D02*
X6970Y0329D01*
X8080Y0329D02*
X21950Y0329D01*
X-21997Y0379D02*
X-5635Y0379D01*
X3095Y0379D02*
X6970Y0379D01*
X8080Y0379D02*
X21950Y0379D01*
X-21995Y0428D02*
X-5635Y0428D01*
X3095Y0428D02*
X6970Y0428D01*
X8080Y0428D02*
X21950Y0428D01*
X-21994Y0478D02*
X-5635Y0478D01*
X3095Y0478D02*
X6970Y0478D01*
X8080Y0478D02*
X21950Y0478D01*
X-21992Y0527D02*
X-5635Y0527D01*
X3095Y0527D02*
X6970Y0527D01*
X8080Y0527D02*
X21950Y0527D01*
X-21991Y0577D02*
X-5635Y0577D01*
X3095Y0577D02*
X6970Y0577D01*
X8080Y0577D02*
X21950Y0577D01*
X-21989Y0626D02*
X-5635Y0626D01*
X3095Y0626D02*
X6970Y0626D01*
X8080Y0626D02*
X21950Y0626D01*
X-21987Y0676D02*
X-5635Y0676D01*
X3095Y0676D02*
X6970Y0676D01*
X8080Y0676D02*
X21950Y0676D01*
X-21986Y0726D02*
X-5635Y0726D01*
X3095Y0726D02*
X6970Y0726D01*
X8080Y0726D02*
X21950Y0726D01*
X-21984Y0775D02*
X-5635Y0775D01*
X3095Y0775D02*
X6970Y0775D01*
X8080Y0775D02*
X21950Y0775D01*
X-21983Y0825D02*
X-5635Y0825D01*
X3095Y0825D02*
X6970Y0825D01*
X8080Y0825D02*
X21950Y0825D01*
X-21981Y0874D02*
X-5635Y0874D01*
X3095Y0874D02*
X6970Y0874D01*
X8080Y0874D02*
X21950Y0874D01*
X-21979Y0924D02*
X-5635Y0924D01*
X3095Y0924D02*
X6970Y0924D01*
X8080Y0924D02*
X21950Y0924D01*
X-21978Y0973D02*
X-5635Y0973D01*
X3095Y0973D02*
X6970Y0973D01*
X8080Y0973D02*
X21950Y0973D01*
X-21976Y1023D02*
X-5635Y1023D01*
X3095Y1023D02*
X6970Y1023D01*
X8080Y1023D02*
X21950Y1023D01*
X-21974Y1072D02*
X-5635Y1072D01*
X3095Y1072D02*
X6970Y1072D01*
X8080Y1072D02*
X21950Y1072D01*
X-21973Y1122D02*
X-5635Y1122D01*
X3095Y1122D02*
X6970Y1122D01*
X8080Y1122D02*
X21950Y1122D01*
X-21971Y1171D02*
X-5635Y1171D01*
X3095Y1171D02*
X6970Y1171D01*
X8080Y1171D02*
X21950Y1171D01*
X-21970Y1221D02*
X-5635Y1221D01*
X3095Y1221D02*
X6970Y1221D01*
X8080Y1221D02*
X21950Y1221D01*
X-21968Y1270D02*
X-5635Y1270D01*
X3095Y1270D02*
X6970Y1270D01*
X8080Y1270D02*
X21950Y1270D01*
X-21966Y1320D02*
X-5635Y1320D01*
X3095Y1320D02*
X6970Y1320D01*
X8080Y1320D02*
X21950Y1320D01*
X-21965Y1369D02*
X-5635Y1369D01*
X3095Y1369D02*
X6970Y1369D01*
X8080Y1369D02*
X21950Y1369D01*
X-21963Y1419D02*
X-5635Y1419D01*
X3095Y1419D02*
X6970Y1419D01*
X8080Y1419D02*
X21950Y1419D01*
X-21959Y1468D02*
X-5635Y1468D01*
X3095Y1468D02*
X6970Y1468D01*
X8080Y1468D02*
X21950Y1468D01*
X-21954Y1518D02*
X-5635Y1518D01*
X3095Y1518D02*
X6970Y1518D01*
X8080Y1518D02*
X21950Y1518D01*
X-21949Y1568D02*
X-5635Y1568D01*
X3095Y1568D02*
X6970Y1568D01*
X8080Y1568D02*
X21949Y1568D01*
X-21945Y1617D02*
X-5635Y1617D01*
X3095Y1617D02*
X6970Y1617D01*
X8080Y1617D02*
X21945Y1617D01*
X-21940Y1667D02*
X-5635Y1667D01*
X3095Y1667D02*
X6970Y1667D01*
X8080Y1667D02*
X21940Y1667D01*
X-21935Y1716D02*
X-5635Y1716D01*
X3095Y1716D02*
X6970Y1716D01*
X8080Y1716D02*
X21935Y1716D01*
X-21930Y1766D02*
X-5635Y1766D01*
X3095Y1766D02*
X6970Y1766D01*
X8080Y1766D02*
X21930Y1766D01*
X-21925Y1815D02*
X-5635Y1815D01*
X3095Y1815D02*
X6970Y1815D01*
X8080Y1815D02*
X21925Y1815D01*
X-21920Y1865D02*
X-5635Y1865D01*
X3095Y1865D02*
X6970Y1865D01*
X8080Y1865D02*
X21920Y1865D01*
X-21915Y1914D02*
X-5635Y1914D01*
X3095Y1914D02*
X6970Y1914D01*
X8080Y1914D02*
X21915Y1914D01*
X-21911Y1964D02*
X-5635Y1964D01*
X3095Y1964D02*
X6970Y1964D01*
X8080Y1964D02*
X21911Y1964D01*
X-21906Y2013D02*
X-5635Y2013D01*
X3095Y2013D02*
X6970Y2013D01*
X8080Y2013D02*
X21906Y2013D01*
X-21901Y2063D02*
X-5635Y2063D01*
X3095Y2063D02*
X6970Y2063D01*
X8080Y2063D02*
X21901Y2063D01*
X-21896Y2112D02*
X-5635Y2112D01*
X3095Y2112D02*
X6970Y2112D01*
X8080Y2112D02*
X21896Y2112D01*
X-21891Y2162D02*
X-5635Y2162D01*
X3095Y2162D02*
X6970Y2162D01*
X8080Y2162D02*
X21891Y2162D01*
X-21886Y2211D02*
X-5635Y2211D01*
X3095Y2211D02*
X6970Y2211D01*
X8080Y2211D02*
X21886Y2211D01*
X-21882Y2261D02*
X-5635Y2261D01*
X3095Y2261D02*
X6970Y2261D01*
X8080Y2261D02*
X21882Y2261D01*
X-21877Y2310D02*
X-5635Y2310D01*
X3095Y2310D02*
X6970Y2310D01*
X8080Y2310D02*
X21877Y2310D01*
X-21872Y2360D02*
X-5635Y2360D01*
X3095Y2360D02*
X6970Y2360D01*
X8080Y2360D02*
X21872Y2360D01*
X-21867Y2410D02*
X-5635Y2410D01*
X3095Y2410D02*
X6970Y2410D01*
X8080Y2410D02*
X21867Y2410D01*
X-21862Y2459D02*
X-5635Y2459D01*
X3095Y2459D02*
X6970Y2459D01*
X8080Y2459D02*
X21862Y2459D01*
X-21857Y2509D02*
X-5635Y2509D01*
X3095Y2509D02*
X6970Y2509D01*
X8080Y2509D02*
X21857Y2509D01*
X-21852Y2558D02*
X-5635Y2558D01*
X3095Y2558D02*
X6970Y2558D01*
X8080Y2558D02*
X21852Y2558D01*
X-21848Y2608D02*
X-5635Y2608D01*
X3095Y2608D02*
X6970Y2608D01*
X8080Y2608D02*
X21848Y2608D01*
X-21843Y2657D02*
X-5635Y2657D01*
X3095Y2657D02*
X6970Y2657D01*
X8080Y2657D02*
X21843Y2657D01*
X-21838Y2707D02*
X-5635Y2707D01*
X3095Y2707D02*
X6970Y2707D01*
X8080Y2707D02*
X21838Y2707D01*
X-21833Y2756D02*
X-5635Y2756D01*
X3095Y2756D02*
X6970Y2756D01*
X8080Y2756D02*
X21833Y2756D01*
X-21828Y2806D02*
X-5635Y2806D01*
X3095Y2806D02*
X6970Y2806D01*
X8080Y2806D02*
X21828Y2806D01*
X-21823Y2855D02*
X-5635Y2855D01*
X3095Y2855D02*
X6970Y2855D01*
X8080Y2855D02*
X21823Y2855D01*
X-21815Y2905D02*
X-5635Y2905D01*
X3095Y2905D02*
X6970Y2905D01*
X8080Y2905D02*
X21815Y2905D01*
X-21807Y2954D02*
X-5635Y2954D01*
X3095Y2954D02*
X6970Y2954D01*
X8080Y2954D02*
X21807Y2954D01*
X-21799Y3004D02*
X-5635Y3004D01*
X3095Y3004D02*
X6970Y3004D01*
X8080Y3004D02*
X21799Y3004D01*
X-21791Y3053D02*
X-5635Y3053D01*
X3095Y3053D02*
X6970Y3053D01*
X8080Y3053D02*
X21791Y3053D01*
X-21783Y3103D02*
X-5635Y3103D01*
X3095Y3103D02*
X6970Y3103D01*
X8080Y3103D02*
X21783Y3103D01*
X-21775Y3152D02*
X-5635Y3152D01*
X3095Y3152D02*
X6970Y3152D01*
X8080Y3152D02*
X21775Y3152D01*
X-21766Y3202D02*
X-5635Y3202D01*
X3095Y3202D02*
X6970Y3202D01*
X8080Y3202D02*
X21766Y3202D01*
X-21758Y3252D02*
X-5635Y3252D01*
X3095Y3252D02*
X6970Y3252D01*
X8080Y3252D02*
X21758Y3252D01*
X-21750Y3301D02*
X-5635Y3301D01*
X3095Y3301D02*
X6970Y3301D01*
X8080Y3301D02*
X21750Y3301D01*
X-21742Y3351D02*
X-5635Y3351D01*
X3095Y3351D02*
X6970Y3351D01*
X8080Y3351D02*
X21742Y3351D01*
X-21734Y3400D02*
X-5635Y3400D01*
X3095Y3400D02*
X6970Y3400D01*
X8080Y3400D02*
X21734Y3400D01*
X-21726Y3450D02*
X-5635Y3450D01*
X3095Y3450D02*
X6970Y3450D01*
X8080Y3450D02*
X21726Y3450D01*
X-21718Y3499D02*
X-5635Y3499D01*
X3095Y3499D02*
X6970Y3499D01*
X8080Y3499D02*
X21718Y3499D01*
X-21710Y3549D02*
X-5635Y3549D01*
X3095Y3549D02*
X6970Y3549D01*
X8080Y3549D02*
X21710Y3549D01*
X-21701Y3598D02*
X-5635Y3598D01*
X3095Y3598D02*
X6970Y3598D01*
X8080Y3598D02*
X21701Y3598D01*
X-21693Y3648D02*
X-5635Y3648D01*
X3095Y3648D02*
X6970Y3648D01*
X8080Y3648D02*
X21693Y3648D01*
X-21685Y3697D02*
X-5635Y3697D01*
X3095Y3697D02*
X6970Y3697D01*
X8080Y3697D02*
X21685Y3697D01*
X-21677Y3747D02*
X-5635Y3747D01*
X3095Y3747D02*
X6970Y3747D01*
X8080Y3747D02*
X21677Y3747D01*
X-21669Y3796D02*
X-5635Y3796D01*
X3095Y3796D02*
X6970Y3796D01*
X8080Y3796D02*
X21669Y3796D01*
X-21661Y3846D02*
X-5635Y3846D01*
X3095Y3846D02*
X6970Y3846D01*
X8080Y3846D02*
X21661Y3846D01*
X-21653Y3895D02*
X-5635Y3895D01*
X3095Y3895D02*
X6970Y3895D01*
X8080Y3895D02*
X21653Y3895D01*
X-21645Y3945D02*
X-5635Y3945D01*
X3095Y3945D02*
X6970Y3945D01*
X8080Y3945D02*
X21645Y3945D01*
X-21636Y3994D02*
X-5635Y3994D01*
X3095Y3994D02*
X6970Y3994D01*
X8080Y3994D02*
X21636Y3994D01*
X-21628Y4044D02*
X-5635Y4044D01*
X3095Y4044D02*
X6970Y4044D01*
X8080Y4044D02*
X21628Y4044D01*
X-21620Y4094D02*
X-5635Y4094D01*
X3095Y4094D02*
X6970Y4094D01*
X8080Y4094D02*
X21620Y4094D01*
X-21612Y4143D02*
X-5635Y4143D01*
X3095Y4143D02*
X6970Y4143D01*
X8080Y4143D02*
X21612Y4143D01*
X-21604Y4193D02*
X-5635Y4193D01*
X3095Y4193D02*
X6970Y4193D01*
X8080Y4193D02*
X21604Y4193D01*
X-21596Y4242D02*
X-5635Y4242D01*
X3095Y4242D02*
X6970Y4242D01*
X8080Y4242D02*
X21596Y4242D01*
X-21586Y4292D02*
X-5635Y4292D01*
X3095Y4292D02*
X6970Y4292D01*
X8080Y4292D02*
X21586Y4292D01*
X-21575Y4341D02*
X-5635Y4341D01*
X3095Y4341D02*
X6970Y4341D01*
X8080Y4341D02*
X21575Y4341D01*
X-21563Y4391D02*
X-5635Y4391D01*
X3095Y4391D02*
X6970Y4391D01*
X8080Y4391D02*
X21563Y4391D01*
X-21552Y4440D02*
X-5635Y4440D01*
X3095Y4440D02*
X6970Y4440D01*
X8080Y4440D02*
X21552Y4440D01*
X-21540Y4490D02*
X-5635Y4490D01*
X3095Y4490D02*
X6970Y4490D01*
X8080Y4490D02*
X21540Y4490D01*
X-21529Y4539D02*
X-5635Y4539D01*
X3095Y4539D02*
X6970Y4539D01*
X8080Y4539D02*
X21529Y4539D01*
X-21517Y4589D02*
X-5635Y4589D01*
X3095Y4589D02*
X6970Y4589D01*
X8080Y4589D02*
X21517Y4589D01*
X-21506Y4638D02*
X-5635Y4638D01*
X3095Y4638D02*
X6970Y4638D01*
X8080Y4638D02*
X21506Y4638D01*
X-21494Y4688D02*
X-5635Y4688D01*
X3095Y4688D02*
X6970Y4688D01*
X8080Y4688D02*
X21494Y4688D01*
X-21483Y4737D02*
X-5635Y4737D01*
X3095Y4737D02*
X6970Y4737D01*
X8080Y4737D02*
X21483Y4737D01*
X-21471Y4787D02*
X-5635Y4787D01*
X3095Y4787D02*
X6970Y4787D01*
X8080Y4787D02*
X21471Y4787D01*
X-21460Y4836D02*
X-5635Y4836D01*
X3095Y4836D02*
X6970Y4836D01*
X8080Y4836D02*
X21460Y4836D01*
X-21448Y4886D02*
X-5635Y4886D01*
X3095Y4886D02*
X6970Y4886D01*
X8080Y4886D02*
X21448Y4886D01*
X-21437Y4936D02*
X-5635Y4936D01*
X3095Y4936D02*
X6970Y4936D01*
X8080Y4936D02*
X21437Y4936D01*
X-21425Y4985D02*
X-5635Y4985D01*
X3095Y4985D02*
X6970Y4985D01*
X8080Y4985D02*
X21425Y4985D01*
X-21414Y5035D02*
X-5635Y5035D01*
X3095Y5035D02*
X6970Y5035D01*
X8080Y5035D02*
X21414Y5035D01*
X-21402Y5084D02*
X-5635Y5084D01*
X3095Y5084D02*
X6970Y5084D01*
X8080Y5084D02*
X21402Y5084D01*
X-21391Y5134D02*
X-5635Y5134D01*
X3095Y5134D02*
X6970Y5134D01*
X8080Y5134D02*
X21391Y5134D01*
X-21380Y5183D02*
X-5635Y5183D01*
X3095Y5183D02*
X6970Y5183D01*
X8080Y5183D02*
X21380Y5183D01*
X-21368Y5233D02*
X-5635Y5233D01*
X3095Y5233D02*
X6970Y5233D01*
X8080Y5233D02*
X21368Y5233D01*
X-21357Y5282D02*
X-5635Y5282D01*
X3095Y5282D02*
X6970Y5282D01*
X8080Y5282D02*
X21357Y5282D01*
X-21345Y5332D02*
X-5635Y5332D01*
X3095Y5332D02*
X6970Y5332D01*
X8080Y5332D02*
X21345Y5332D01*
X-21334Y5381D02*
X-5635Y5381D01*
X3095Y5381D02*
X6970Y5381D01*
X8080Y5381D02*
X21334Y5381D01*
X-21322Y5431D02*
X-5635Y5431D01*
X3095Y5431D02*
X6970Y5431D01*
X8080Y5431D02*
X21322Y5431D01*
X-21311Y5480D02*
X-5635Y5480D01*
X3095Y5480D02*
X6970Y5480D01*
X8080Y5480D02*
X21311Y5480D01*
X-21299Y5530D02*
X-5635Y5530D01*
X3095Y5530D02*
X6970Y5530D01*
X8080Y5530D02*
X21299Y5530D01*
X-21288Y5579D02*
X-5635Y5579D01*
X3095Y5579D02*
X6970Y5579D01*
X8080Y5579D02*
X21288Y5579D01*
X-21276Y5629D02*
X-5635Y5629D01*
X3095Y5629D02*
X6970Y5629D01*
X8080Y5629D02*
X21276Y5629D01*
X-21264Y5678D02*
X-5635Y5678D01*
X3095Y5678D02*
X6970Y5678D01*
X8080Y5678D02*
X21264Y5678D01*
X-21249Y5728D02*
X-5635Y5728D01*
X3095Y5728D02*
X6970Y5728D01*
X8080Y5728D02*
X21249Y5728D01*
X-21234Y5778D02*
X-5635Y5778D01*
X3095Y5778D02*
X6970Y5778D01*
X8080Y5778D02*
X21234Y5778D01*
X-21219Y5827D02*
X-5635Y5827D01*
X3095Y5827D02*
X6970Y5827D01*
X8080Y5827D02*
X21219Y5827D01*
X-21204Y5877D02*
X-5635Y5877D01*
X3095Y5877D02*
X6970Y5877D01*
X8080Y5877D02*
X21204Y5877D01*
X-21189Y5926D02*
X-5635Y5926D01*
X3095Y5926D02*
X6970Y5926D01*
X8080Y5926D02*
X21189Y5926D01*
X-21174Y5976D02*
X-5635Y5976D01*
X3095Y5976D02*
X6970Y5976D01*
X8080Y5976D02*
X21174Y5976D01*
X-21159Y6025D02*
X-5635Y6025D01*
X3095Y6025D02*
X6970Y6025D01*
X8080Y6025D02*
X21159Y6025D01*
X-21144Y6075D02*
X-5635Y6075D01*
X3095Y6075D02*
X6970Y6075D01*
X8080Y6075D02*
X21144Y6075D01*
X-21129Y6124D02*
X-5635Y6124D01*
X3095Y6124D02*
X6970Y6124D01*
X8080Y6124D02*
X21129Y6124D01*
X-21114Y6174D02*
X-5635Y6174D01*
X3095Y6174D02*
X6970Y6174D01*
X8080Y6174D02*
X21114Y6174D01*
X-21099Y6223D02*
X-5635Y6223D01*
X3095Y6223D02*
X6970Y6223D01*
X8080Y6223D02*
X21099Y6223D01*
X-21084Y6273D02*
X-5635Y6273D01*
X3095Y6273D02*
X6970Y6273D01*
X8080Y6273D02*
X21084Y6273D01*
X-21070Y6322D02*
X-5635Y6322D01*
X3095Y6322D02*
X6970Y6322D01*
X8080Y6322D02*
X21070Y6322D01*
X-21055Y6372D02*
X-5635Y6372D01*
X3095Y6372D02*
X6970Y6372D01*
X8080Y6372D02*
X21055Y6372D01*
X-21040Y6421D02*
X-5635Y6421D01*
X3095Y6421D02*
X6970Y6421D01*
X8080Y6421D02*
X21040Y6421D01*
X-21025Y6471D02*
X-5635Y6471D01*
X3095Y6471D02*
X6970Y6471D01*
X8080Y6471D02*
X21025Y6471D01*
X-21010Y6521D02*
X-5635Y6521D01*
X3095Y6521D02*
X6970Y6521D01*
X8080Y6521D02*
X21010Y6521D01*
X-20995Y6570D02*
X-5635Y6570D01*
X3095Y6570D02*
X6970Y6570D01*
X8080Y6570D02*
X20995Y6570D01*
X-20980Y6620D02*
X-5635Y6620D01*
X3095Y6620D02*
X6970Y6620D01*
X8080Y6620D02*
X20980Y6620D01*
X-20965Y6669D02*
X-5635Y6669D01*
X3095Y6669D02*
X6970Y6669D01*
X8080Y6669D02*
X20965Y6669D01*
X-20950Y6719D02*
X-5635Y6719D01*
X3095Y6719D02*
X6970Y6719D01*
X8080Y6719D02*
X20950Y6719D01*
X-20935Y6768D02*
X-5635Y6768D01*
X3095Y6768D02*
X6970Y6768D01*
X8080Y6768D02*
X20935Y6768D01*
X-20920Y6818D02*
X-5635Y6818D01*
X3095Y6818D02*
X6970Y6818D01*
X8080Y6818D02*
X20920Y6818D01*
X-20905Y6867D02*
X-5635Y6867D01*
X3095Y6867D02*
X6970Y6867D01*
X8080Y6867D02*
X20905Y6867D01*
X-20890Y6917D02*
X-5635Y6917D01*
X3095Y6917D02*
X6970Y6917D01*
X8080Y6917D02*
X20890Y6917D01*
X-20876Y6966D02*
X-5635Y6966D01*
X3095Y6966D02*
X6970Y6966D01*
X8080Y6966D02*
X20876Y6966D01*
X-20861Y7016D02*
X-5635Y7016D01*
X3095Y7016D02*
X6970Y7016D01*
X8080Y7016D02*
X20861Y7016D01*
X-20843Y7065D02*
X-5635Y7065D01*
X3095Y7065D02*
X6970Y7065D01*
X8080Y7065D02*
X20843Y7065D01*
X-20825Y7115D02*
X-5635Y7115D01*
X3095Y7115D02*
X6970Y7115D01*
X8080Y7115D02*
X20825Y7115D01*
X-20806Y7164D02*
X-5635Y7164D01*
X3095Y7164D02*
X6970Y7164D01*
X8080Y7164D02*
X20806Y7164D01*
X-20788Y7214D02*
X-5635Y7214D01*
X3095Y7214D02*
X6970Y7214D01*
X8080Y7214D02*
X20788Y7214D01*
X-20769Y7263D02*
X-5635Y7263D01*
X3095Y7263D02*
X6970Y7263D01*
X8080Y7263D02*
X20769Y7263D01*
X-20751Y7313D02*
X-5635Y7313D01*
X3095Y7313D02*
X6970Y7313D01*
X8080Y7313D02*
X20751Y7313D01*
X-20732Y7363D02*
X-5635Y7363D01*
X3095Y7363D02*
X6970Y7363D01*
X8080Y7363D02*
X20732Y7363D01*
X-20714Y7412D02*
X-5635Y7412D01*
X3095Y7412D02*
X6970Y7412D01*
X8080Y7412D02*
X20714Y7412D01*
X-20695Y7462D02*
X-5635Y7462D01*
X3095Y7462D02*
X6970Y7462D01*
X8080Y7462D02*
X20695Y7462D01*
X-20677Y7511D02*
X-5635Y7511D01*
X3095Y7511D02*
X6970Y7511D01*
X8080Y7511D02*
X20677Y7511D01*
X-20658Y7561D02*
X-5635Y7561D01*
X3095Y7561D02*
X6970Y7561D01*
X8080Y7561D02*
X20658Y7561D01*
X-20640Y7610D02*
X-5635Y7610D01*
X3095Y7610D02*
X6970Y7610D01*
X8080Y7610D02*
X20640Y7610D01*
X-20621Y7660D02*
X-5635Y7660D01*
X3095Y7660D02*
X6970Y7660D01*
X8080Y7660D02*
X15668Y7660D01*
X15692Y7660D02*
X16292Y7660D01*
X16317Y7660D02*
X20621Y7660D01*
X-20603Y7709D02*
X-5635Y7709D01*
X3095Y7709D02*
X6970Y7709D01*
X8080Y7709D02*
X15519Y7709D01*
X15692Y7709D02*
X16292Y7709D01*
X16465Y7709D02*
X20603Y7709D01*
X-20584Y7759D02*
X-5635Y7759D01*
X3095Y7759D02*
X6970Y7759D01*
X8080Y7759D02*
X15425Y7759D01*
X15692Y7759D02*
X16292Y7759D01*
X16559Y7759D02*
X20584Y7759D01*
X-20566Y7808D02*
X-5635Y7808D01*
X3095Y7808D02*
X6970Y7808D01*
X8080Y7808D02*
X15331Y7808D01*
X15692Y7808D02*
X16292Y7808D01*
X16654Y7808D02*
X20566Y7808D01*
X-20547Y7858D02*
X-5635Y7858D01*
X3095Y7858D02*
X6970Y7858D01*
X8080Y7858D02*
X15266Y7858D01*
X15692Y7858D02*
X16292Y7858D01*
X16718Y7858D02*
X20547Y7858D01*
X-20529Y7907D02*
X-5635Y7907D01*
X3095Y7907D02*
X6970Y7907D01*
X8080Y7907D02*
X15210Y7907D01*
X15692Y7907D02*
X16292Y7907D01*
X16774Y7907D02*
X20529Y7907D01*
X-20510Y7957D02*
X-5635Y7957D01*
X3095Y7957D02*
X6970Y7957D01*
X8080Y7957D02*
X15154Y7957D01*
X15692Y7957D02*
X16292Y7957D01*
X16830Y7957D02*
X20510Y7957D01*
X-20491Y8006D02*
X-5635Y8006D01*
X3095Y8006D02*
X6970Y8006D01*
X8080Y8006D02*
X15098Y8006D01*
X16886Y8006D02*
X20491Y8006D01*
X-20473Y8056D02*
X-5635Y8056D01*
X3095Y8056D02*
X6970Y8056D01*
X8080Y8056D02*
X15062Y8056D01*
X16922Y8056D02*
X20473Y8056D01*
X-20454Y8105D02*
X-5635Y8105D01*
X3095Y8105D02*
X6970Y8105D01*
X8080Y8105D02*
X15028Y8105D01*
X16956Y8105D02*
X20454Y8105D01*
X-20436Y8155D02*
X-5635Y8155D01*
X3095Y8155D02*
X6970Y8155D01*
X8080Y8155D02*
X14994Y8155D01*
X16990Y8155D02*
X20436Y8155D01*
X-20417Y8205D02*
X-5635Y8205D01*
X3095Y8205D02*
X6970Y8205D01*
X8080Y8205D02*
X14960Y8205D01*
X17025Y8205D02*
X20417Y8205D01*
X-20399Y8254D02*
X-5635Y8254D01*
X3095Y8254D02*
X6970Y8254D01*
X8080Y8254D02*
X14927Y8254D01*
X17057Y8254D02*
X20399Y8254D01*
X-20380Y8304D02*
X-5635Y8304D01*
X3095Y8304D02*
X6970Y8304D01*
X8080Y8304D02*
X14908Y8304D01*
X17076Y8304D02*
X20380Y8304D01*
X-20362Y8353D02*
X-5635Y8353D01*
X3095Y8353D02*
X6970Y8353D01*
X8080Y8353D02*
X14889Y8353D01*
X17095Y8353D02*
X20362Y8353D01*
X-20341Y8403D02*
X-5635Y8403D01*
X3095Y8403D02*
X6970Y8403D01*
X8080Y8403D02*
X14870Y8403D01*
X17114Y8403D02*
X20341Y8403D01*
X-20319Y8452D02*
X-5635Y8452D01*
X3095Y8452D02*
X6970Y8452D01*
X8080Y8452D02*
X14852Y8452D01*
X17133Y8452D02*
X20319Y8452D01*
X-20297Y8502D02*
X-5635Y8502D01*
X3095Y8502D02*
X6970Y8502D01*
X8080Y8502D02*
X14833Y8502D01*
X17151Y8502D02*
X20297Y8502D01*
X-20274Y8551D02*
X-5635Y8551D01*
X3095Y8551D02*
X6970Y8551D01*
X8080Y8551D02*
X14822Y8551D01*
X17162Y8551D02*
X20274Y8551D01*
X-20252Y8601D02*
X-5635Y8601D01*
X3095Y8601D02*
X6970Y8601D01*
X8080Y8601D02*
X14816Y8601D01*
X17168Y8601D02*
X20252Y8601D01*
X-20230Y8650D02*
X-5635Y8650D01*
X3095Y8650D02*
X6970Y8650D01*
X8080Y8650D02*
X14810Y8650D01*
X17174Y8650D02*
X20230Y8650D01*
X-20207Y8700D02*
X-5635Y8700D01*
X3095Y8700D02*
X6970Y8700D01*
X8080Y8700D02*
X14804Y8700D01*
X17180Y8700D02*
X20207Y8700D01*
X-20185Y8749D02*
X-5635Y8749D01*
X3095Y8749D02*
X6970Y8749D01*
X8080Y8749D02*
X14798Y8749D01*
X17186Y8749D02*
X20185Y8749D01*
X-20163Y8799D02*
X-5635Y8799D01*
X3095Y8799D02*
X6970Y8799D01*
X8080Y8799D02*
X14792Y8799D01*
X17192Y8799D02*
X20163Y8799D01*
X-20141Y8848D02*
X-5635Y8848D01*
X3095Y8848D02*
X6970Y8848D01*
X8080Y8848D02*
X14796Y8848D01*
X17188Y8848D02*
X20141Y8848D01*
X-20118Y8898D02*
X-5635Y8898D01*
X3095Y8898D02*
X6970Y8898D01*
X8080Y8898D02*
X14802Y8898D01*
X17182Y8898D02*
X20118Y8898D01*
X-20096Y8947D02*
X-5635Y8947D01*
X3095Y8947D02*
X6970Y8947D01*
X8080Y8947D02*
X14808Y8947D01*
X17176Y8947D02*
X20096Y8947D01*
X-20074Y8997D02*
X-5635Y8997D01*
X3095Y8997D02*
X6970Y8997D01*
X8080Y8997D02*
X14814Y8997D01*
X17170Y8997D02*
X20074Y8997D01*
X-20051Y9047D02*
X-5635Y9047D01*
X3095Y9047D02*
X6970Y9047D01*
X8080Y9047D02*
X14820Y9047D01*
X17164Y9047D02*
X20051Y9047D01*
X-20029Y9096D02*
X-5635Y9096D01*
X3095Y9096D02*
X6970Y9096D01*
X8080Y9096D02*
X14826Y9096D01*
X17158Y9096D02*
X20029Y9096D01*
X-20007Y9146D02*
X-5635Y9146D01*
X3095Y9146D02*
X6970Y9146D01*
X8080Y9146D02*
X14845Y9146D01*
X17139Y9146D02*
X20007Y9146D01*
X-19985Y9195D02*
X-5635Y9195D01*
X3095Y9195D02*
X6970Y9195D01*
X8080Y9195D02*
X14864Y9195D01*
X17121Y9195D02*
X19985Y9195D01*
X-19962Y9245D02*
X-5635Y9245D01*
X3095Y9245D02*
X6970Y9245D01*
X8080Y9245D02*
X14882Y9245D01*
X17102Y9245D02*
X19962Y9245D01*
X-19940Y9294D02*
X-5635Y9294D01*
X3095Y9294D02*
X6970Y9294D01*
X8080Y9294D02*
X14901Y9294D01*
X17083Y9294D02*
X19940Y9294D01*
X-19918Y9344D02*
X-5635Y9344D01*
X3095Y9344D02*
X6970Y9344D01*
X8080Y9344D02*
X14920Y9344D01*
X17064Y9344D02*
X19918Y9344D01*
X-19895Y9393D02*
X-5635Y9393D01*
X3095Y9393D02*
X6970Y9393D01*
X8080Y9393D02*
X14947Y9393D01*
X17037Y9393D02*
X19895Y9393D01*
X-19873Y9443D02*
X-5635Y9443D01*
X3095Y9443D02*
X6970Y9443D01*
X8080Y9443D02*
X13924Y9443D01*
X14468Y9443D02*
X14981Y9443D01*
X17003Y9443D02*
X19873Y9443D01*
X-19851Y9492D02*
X-5635Y9492D01*
X3095Y9492D02*
X6970Y9492D01*
X8080Y9492D02*
X13748Y9492D01*
X14644Y9492D02*
X15016Y9492D01*
X16969Y9492D02*
X19851Y9492D01*
X-19829Y9542D02*
X-5635Y9542D01*
X3095Y9542D02*
X6970Y9542D01*
X8080Y9542D02*
X13654Y9542D01*
X14738Y9542D02*
X15050Y9542D01*
X16934Y9542D02*
X19829Y9542D01*
X-19806Y9591D02*
X-5635Y9591D01*
X3095Y9591D02*
X6970Y9591D01*
X8080Y9591D02*
X13559Y9591D01*
X14833Y9591D02*
X15084Y9591D01*
X16900Y9591D02*
X19806Y9591D01*
X-19784Y9641D02*
X-5635Y9641D01*
X3095Y9641D02*
X6970Y9641D01*
X8080Y9641D02*
X13485Y9641D01*
X14907Y9641D02*
X15134Y9641D01*
X15692Y9641D02*
X16292Y9641D01*
X16850Y9641D02*
X19784Y9641D01*
X-19761Y9690D02*
X-5635Y9690D01*
X3095Y9690D02*
X6970Y9690D01*
X8080Y9690D02*
X13429Y9690D01*
X14963Y9690D02*
X15190Y9690D01*
X15692Y9690D02*
X16292Y9690D01*
X16794Y9690D02*
X19761Y9690D01*
X-19734Y9740D02*
X-5635Y9740D01*
X3095Y9740D02*
X6970Y9740D01*
X8080Y9740D02*
X13373Y9740D01*
X15019Y9740D02*
X15246Y9740D01*
X15692Y9740D02*
X16292Y9740D01*
X16738Y9740D02*
X19734Y9740D01*
X-19708Y9789D02*
X-5635Y9789D01*
X3095Y9789D02*
X6970Y9789D01*
X8080Y9789D02*
X13317Y9789D01*
X15075Y9789D02*
X15302Y9789D01*
X15692Y9789D02*
X16292Y9789D01*
X16682Y9789D02*
X19708Y9789D01*
X-19682Y9839D02*
X-5635Y9839D01*
X3095Y9839D02*
X6970Y9839D01*
X8080Y9839D02*
X13275Y9839D01*
X15117Y9839D02*
X15391Y9839D01*
X15692Y9839D02*
X16292Y9839D01*
X16593Y9839D02*
X19682Y9839D01*
X-19656Y9889D02*
X-5635Y9889D01*
X3095Y9889D02*
X6970Y9889D01*
X8080Y9889D02*
X13241Y9889D01*
X15151Y9889D02*
X15485Y9889D01*
X15692Y9889D02*
X16292Y9889D01*
X16499Y9889D02*
X19656Y9889D01*
X-19629Y9938D02*
X-5635Y9938D01*
X3095Y9938D02*
X6970Y9938D01*
X8080Y9938D02*
X13207Y9938D01*
X15185Y9938D02*
X15594Y9938D01*
X15692Y9938D02*
X16292Y9938D01*
X16390Y9938D02*
X19629Y9938D01*
X-19603Y9988D02*
X-5635Y9988D01*
X3095Y9988D02*
X6970Y9988D01*
X8080Y9988D02*
X13172Y9988D01*
X15220Y9988D02*
X19603Y9988D01*
X-19577Y10037D02*
X-5635Y10037D01*
X3095Y10037D02*
X6970Y10037D01*
X8080Y10037D02*
X13138Y10037D01*
X15254Y10037D02*
X19577Y10037D01*
X-19550Y10087D02*
X-5635Y10087D01*
X3095Y10087D02*
X6970Y10087D01*
X8080Y10087D02*
X13117Y10087D01*
X15275Y10087D02*
X19551Y10087D01*
X-19524Y10136D02*
X-5635Y10136D01*
X3095Y10136D02*
X6970Y10136D01*
X8080Y10136D02*
X13098Y10136D01*
X15294Y10136D02*
X19524Y10136D01*
X-19498Y10186D02*
X-5635Y10186D01*
X3095Y10186D02*
X6970Y10186D01*
X8080Y10186D02*
X13079Y10186D01*
X15313Y10186D02*
X19498Y10186D01*
X-19472Y10235D02*
X-5635Y10235D01*
X3095Y10235D02*
X6970Y10235D01*
X8080Y10235D02*
X13060Y10235D01*
X15332Y10235D02*
X19472Y10235D01*
X-19445Y10285D02*
X-5635Y10285D01*
X3095Y10285D02*
X6970Y10285D01*
X8080Y10285D02*
X13042Y10285D01*
X15350Y10285D02*
X19445Y10285D01*
X-19419Y10334D02*
X-5635Y10334D01*
X3095Y10334D02*
X6970Y10334D01*
X8080Y10334D02*
X13028Y10334D01*
X15365Y10334D02*
X19419Y10334D01*
X-19393Y10384D02*
X-5635Y10384D01*
X3095Y10384D02*
X6970Y10384D01*
X8080Y10384D02*
X13022Y10384D01*
X15371Y10384D02*
X19393Y10384D01*
X-19367Y10433D02*
X-5635Y10433D01*
X3095Y10433D02*
X6970Y10433D01*
X8080Y10433D02*
X13016Y10433D01*
X15377Y10433D02*
X19367Y10433D01*
X-19340Y10483D02*
X-5635Y10483D01*
X3095Y10483D02*
X6970Y10483D01*
X8080Y10483D02*
X13009Y10483D01*
X15383Y10483D02*
X19340Y10483D01*
X-19314Y10532D02*
X-5635Y10532D01*
X3095Y10532D02*
X6970Y10532D01*
X8080Y10532D02*
X13003Y10532D01*
X15389Y10532D02*
X19314Y10532D01*
X-19288Y10582D02*
X-5635Y10582D01*
X3095Y10582D02*
X6970Y10582D01*
X8080Y10582D02*
X12997Y10582D01*
X15395Y10582D02*
X19288Y10582D01*
X-19261Y10632D02*
X-5635Y10632D01*
X3095Y10632D02*
X6970Y10632D01*
X8080Y10632D02*
X12998Y10632D01*
X15394Y10632D02*
X19261Y10632D01*
X-19235Y10681D02*
X-5635Y10681D01*
X3095Y10681D02*
X6970Y10681D01*
X8080Y10681D02*
X13004Y10681D01*
X15388Y10681D02*
X19235Y10681D01*
X-19209Y10731D02*
X-5635Y10731D01*
X3095Y10731D02*
X6970Y10731D01*
X8080Y10731D02*
X13010Y10731D01*
X15382Y10731D02*
X19209Y10731D01*
X-19183Y10780D02*
X-5635Y10780D01*
X3095Y10780D02*
X6943Y10780D01*
X8107Y10780D02*
X13016Y10780D01*
X15376Y10780D02*
X19183Y10780D01*
X-19156Y10830D02*
X-5635Y10830D01*
X3095Y10830D02*
X6864Y10830D01*
X8186Y10830D02*
X13022Y10830D01*
X15370Y10830D02*
X19156Y10830D01*
X-19130Y10879D02*
X-5635Y10879D01*
X3095Y10879D02*
X6785Y10879D01*
X8265Y10879D02*
X13028Y10879D01*
X15364Y10879D02*
X19130Y10879D01*
X-19104Y10929D02*
X-5635Y10929D01*
X3095Y10929D02*
X6707Y10929D01*
X8343Y10929D02*
X13044Y10929D01*
X15348Y10929D02*
X19104Y10929D01*
X-19074Y10978D02*
X-5635Y10978D01*
X3095Y10978D02*
X6648Y10978D01*
X8402Y10978D02*
X13063Y10978D01*
X15329Y10978D02*
X19074Y10978D01*
X-19044Y11028D02*
X-5635Y11028D01*
X3095Y11028D02*
X6599Y11028D01*
X8451Y11028D02*
X13081Y11028D01*
X15311Y11028D02*
X19044Y11028D01*
X-19013Y11077D02*
X-5635Y11077D01*
X3095Y11077D02*
X6549Y11077D01*
X8501Y11077D02*
X13100Y11077D01*
X15292Y11077D02*
X19013Y11077D01*
X-18983Y11127D02*
X-5635Y11127D01*
X3095Y11127D02*
X6500Y11127D01*
X8550Y11127D02*
X13119Y11127D01*
X15273Y11127D02*
X18983Y11127D01*
X-18952Y11176D02*
X-5635Y11176D01*
X3095Y11176D02*
X6457Y11176D01*
X8593Y11176D02*
X13142Y11176D01*
X15250Y11176D02*
X18952Y11176D01*
X-18922Y11226D02*
X-5635Y11226D01*
X3095Y11226D02*
X6426Y11226D01*
X8624Y11226D02*
X12181Y11226D01*
X12619Y11226D02*
X13176Y11226D01*
X15216Y11226D02*
X18922Y11226D01*
X-18891Y11275D02*
X-5635Y11275D01*
X3095Y11275D02*
X6395Y11275D01*
X8655Y11275D02*
X11980Y11275D01*
X12820Y11275D02*
X13211Y11275D01*
X15182Y11275D02*
X18891Y11275D01*
X-18860Y11325D02*
X-5635Y11325D01*
X3095Y11325D02*
X6364Y11325D01*
X8686Y11325D02*
X11882Y11325D01*
X12918Y11325D02*
X13245Y11325D01*
X15147Y11325D02*
X18860Y11325D01*
X-18830Y11374D02*
X-5635Y11374D01*
X3095Y11374D02*
X6333Y11374D01*
X8717Y11374D02*
X11788Y11374D01*
X13012Y11374D02*
X13279Y11374D01*
X15113Y11374D02*
X18830Y11374D01*
X-18799Y11424D02*
X-5635Y11424D01*
X3095Y11424D02*
X6304Y11424D01*
X8746Y11424D02*
X11703Y11424D01*
X13097Y11424D02*
X13323Y11424D01*
X15069Y11424D02*
X18799Y11424D01*
X-18769Y11474D02*
X-5635Y11474D01*
X3095Y11474D02*
X6287Y11474D01*
X8763Y11474D02*
X11647Y11474D01*
X13153Y11474D02*
X13379Y11474D01*
X15013Y11474D02*
X18769Y11474D01*
X-18738Y11523D02*
X-5635Y11523D01*
X3095Y11523D02*
X6270Y11523D01*
X8780Y11523D02*
X11592Y11523D01*
X13208Y11523D02*
X13435Y11523D01*
X14957Y11523D02*
X18738Y11523D01*
X-18708Y11573D02*
X-5635Y11573D01*
X3095Y11573D02*
X6252Y11573D01*
X8798Y11573D02*
X11536Y11573D01*
X13264Y11573D02*
X13491Y11573D01*
X14901Y11573D02*
X18708Y11573D01*
X-18677Y11622D02*
X-5635Y11622D01*
X3095Y11622D02*
X6235Y11622D01*
X8815Y11622D02*
X11488Y11622D01*
X13312Y11622D02*
X13570Y11622D01*
X14822Y11622D02*
X18677Y11622D01*
X-18646Y11672D02*
X-5635Y11672D01*
X3095Y11672D02*
X6218Y11672D01*
X8832Y11672D02*
X11454Y11672D01*
X13346Y11672D02*
X13664Y11672D01*
X14728Y11672D02*
X18646Y11672D01*
X-18616Y11721D02*
X-5635Y11721D01*
X3095Y11721D02*
X6205Y11721D01*
X8845Y11721D02*
X11420Y11721D01*
X13380Y11721D02*
X13759Y11721D01*
X14633Y11721D02*
X18616Y11721D01*
X-18585Y11771D02*
X-5635Y11771D01*
X3095Y11771D02*
X6200Y11771D01*
X8850Y11771D02*
X11385Y11771D01*
X13415Y11771D02*
X13947Y11771D01*
X14445Y11771D02*
X18585Y11771D01*
X-18555Y11820D02*
X-5635Y11820D01*
X3095Y11820D02*
X6194Y11820D01*
X8856Y11820D02*
X11351Y11820D01*
X13449Y11820D02*
X18555Y11820D01*
X-18524Y11870D02*
X-5635Y11870D01*
X3095Y11870D02*
X6189Y11870D01*
X8861Y11870D02*
X11326Y11870D01*
X13474Y11870D02*
X18524Y11870D01*
X-18494Y11919D02*
X-5635Y11919D01*
X3095Y11919D02*
X6183Y11919D01*
X8867Y11919D02*
X11307Y11919D01*
X13493Y11919D02*
X18494Y11919D01*
X-18463Y11969D02*
X-5635Y11969D01*
X3095Y11969D02*
X6178Y11969D01*
X8872Y11969D02*
X11288Y11969D01*
X13512Y11969D02*
X18463Y11969D01*
X-18433Y12018D02*
X-5635Y12018D01*
X3095Y12018D02*
X6176Y12018D01*
X8874Y12018D02*
X11269Y12018D01*
X13531Y12018D02*
X18433Y12018D01*
X-18402Y12068D02*
X-5635Y12068D01*
X3095Y12068D02*
X6182Y12068D01*
X8868Y12068D02*
X11251Y12068D01*
X13549Y12068D02*
X18402Y12068D01*
X-18371Y12117D02*
X-5635Y12117D01*
X3095Y12117D02*
X6187Y12117D01*
X8863Y12117D02*
X11233Y12117D01*
X13567Y12117D02*
X18371Y12117D01*
X-18340Y12167D02*
X-5635Y12167D01*
X3095Y12167D02*
X6193Y12167D01*
X8857Y12167D02*
X11227Y12167D01*
X13573Y12167D02*
X18340Y12167D01*
X-18305Y12216D02*
X-5635Y12216D01*
X3095Y12216D02*
X6198Y12216D01*
X8852Y12216D02*
X11221Y12216D01*
X13579Y12216D02*
X18305Y12216D01*
X-18270Y12266D02*
X-5635Y12266D01*
X3095Y12266D02*
X6204Y12266D01*
X8846Y12266D02*
X11215Y12266D01*
X13585Y12266D02*
X18270Y12266D01*
X-18235Y12316D02*
X-5635Y12316D01*
X3095Y12316D02*
X6213Y12316D01*
X8837Y12316D02*
X11209Y12316D01*
X13591Y12316D02*
X18235Y12316D01*
X-18199Y12365D02*
X-5635Y12365D01*
X3095Y12365D02*
X6230Y12365D01*
X8820Y12365D02*
X11203Y12365D01*
X13597Y12365D02*
X18199Y12365D01*
X-18164Y12415D02*
X-5635Y12415D01*
X3095Y12415D02*
X6248Y12415D01*
X8802Y12415D02*
X11201Y12415D01*
X13599Y12415D02*
X18164Y12415D01*
X-18129Y12464D02*
X-5635Y12464D01*
X3095Y12464D02*
X6265Y12464D01*
X8785Y12464D02*
X11207Y12464D01*
X13593Y12464D02*
X18129Y12464D01*
X-18094Y12514D02*
X-5635Y12514D01*
X3095Y12514D02*
X6282Y12514D01*
X8768Y12514D02*
X11213Y12514D01*
X13587Y12514D02*
X18094Y12514D01*
X-18059Y12563D02*
X-5635Y12563D01*
X3095Y12563D02*
X6300Y12563D01*
X8750Y12563D02*
X11219Y12563D01*
X13581Y12563D02*
X18059Y12563D01*
X-18023Y12613D02*
X-5635Y12613D01*
X3095Y12613D02*
X6324Y12613D01*
X8726Y12613D02*
X11225Y12613D01*
X13575Y12613D02*
X18023Y12613D01*
X-17988Y12662D02*
X-5635Y12662D01*
X3095Y12662D02*
X6356Y12662D01*
X8694Y12662D02*
X11231Y12662D01*
X13569Y12662D02*
X17988Y12662D01*
X-17953Y12712D02*
X-5635Y12712D01*
X3095Y12712D02*
X6387Y12712D01*
X8663Y12712D02*
X11243Y12712D01*
X13557Y12712D02*
X17953Y12712D01*
X-17918Y12761D02*
X-5635Y12761D01*
X3095Y12761D02*
X6418Y12761D01*
X8632Y12761D02*
X11262Y12761D01*
X13538Y12761D02*
X17918Y12761D01*
X-17883Y12811D02*
X-5635Y12811D01*
X3095Y12811D02*
X6449Y12811D01*
X8601Y12811D02*
X11280Y12811D01*
X13520Y12811D02*
X17883Y12811D01*
X-17847Y12860D02*
X-5635Y12860D01*
X3095Y12860D02*
X6487Y12860D01*
X8563Y12860D02*
X11299Y12860D01*
X13501Y12860D02*
X17847Y12860D01*
X-17812Y12910D02*
X-5635Y12910D01*
X3095Y12910D02*
X6536Y12910D01*
X8514Y12910D02*
X11318Y12910D01*
X13482Y12910D02*
X17812Y12910D01*
X-17777Y12959D02*
X-5635Y12959D01*
X3095Y12959D02*
X6586Y12959D01*
X8464Y12959D02*
X11337Y12959D01*
X13463Y12959D02*
X17777Y12959D01*
X-17742Y13009D02*
X-5635Y13009D01*
X3095Y13009D02*
X6635Y13009D01*
X8415Y13009D02*
X10437Y13009D01*
X10771Y13009D02*
X11371Y13009D01*
X13429Y13009D02*
X17742Y13009D01*
X-17707Y13058D02*
X-5635Y13058D01*
X3095Y13058D02*
X6686Y13058D01*
X8364Y13058D02*
X10236Y13058D01*
X10972Y13058D02*
X11406Y13058D01*
X13394Y13058D02*
X17707Y13058D01*
X-17671Y13108D02*
X-5635Y13108D01*
X3095Y13108D02*
X6765Y13108D01*
X8285Y13108D02*
X10111Y13108D01*
X11097Y13108D02*
X11440Y13108D01*
X13360Y13108D02*
X17671Y13108D01*
X-17636Y13158D02*
X-5635Y13158D01*
X3095Y13158D02*
X6844Y13158D01*
X8206Y13158D02*
X10017Y13158D01*
X11191Y13158D02*
X11474Y13158D01*
X13326Y13158D02*
X17636Y13158D01*
X-17601Y13207D02*
X-5635Y13207D01*
X3095Y13207D02*
X6923Y13207D01*
X8127Y13207D02*
X9922Y13207D01*
X11286Y13207D02*
X11513Y13207D01*
X13287Y13207D02*
X17601Y13207D01*
X-17566Y13257D02*
X-5635Y13257D01*
X3095Y13257D02*
X7051Y13257D01*
X7999Y13257D02*
X9866Y13257D01*
X11342Y13257D02*
X11569Y13257D01*
X13231Y13257D02*
X17566Y13257D01*
X-17531Y13306D02*
X-5635Y13306D01*
X3095Y13306D02*
X7193Y13306D01*
X7857Y13306D02*
X9810Y13306D01*
X11398Y13306D02*
X11624Y13306D01*
X13176Y13306D02*
X17531Y13306D01*
X-17492Y13356D02*
X-5635Y13356D01*
X3095Y13356D02*
X9754Y13356D01*
X11454Y13356D02*
X11680Y13356D01*
X13120Y13356D02*
X17492Y13356D01*
X-17452Y13405D02*
X-5635Y13405D01*
X3095Y13405D02*
X9701Y13405D01*
X11507Y13405D02*
X11749Y13405D01*
X13051Y13405D02*
X17452Y13405D01*
X-17412Y13455D02*
X-5635Y13455D01*
X3095Y13455D02*
X9667Y13455D01*
X11541Y13455D02*
X11844Y13455D01*
X12956Y13455D02*
X17412Y13455D01*
X-17372Y13504D02*
X-5635Y13504D01*
X3095Y13504D02*
X9632Y13504D01*
X11575Y13504D02*
X11938Y13504D01*
X12862Y13504D02*
X17372Y13504D01*
X-17331Y13554D02*
X-5635Y13554D01*
X3095Y13554D02*
X9598Y13554D01*
X11610Y13554D02*
X12098Y13554D01*
X12702Y13554D02*
X17331Y13554D01*
X-17291Y13603D02*
X-5635Y13603D01*
X3095Y13603D02*
X9564Y13603D01*
X11644Y13603D02*
X17291Y13603D01*
X-17251Y13653D02*
X-5635Y13653D01*
X3095Y13653D02*
X9535Y13653D01*
X11673Y13653D02*
X17251Y13653D01*
X-17210Y13702D02*
X-5635Y13702D01*
X3095Y13702D02*
X9516Y13702D01*
X11692Y13702D02*
X17210Y13702D01*
X-17170Y13752D02*
X-5635Y13752D01*
X3095Y13752D02*
X9497Y13752D01*
X11711Y13752D02*
X17170Y13752D01*
X-17130Y13801D02*
X-5635Y13801D01*
X3095Y13801D02*
X9478Y13801D01*
X11730Y13801D02*
X17130Y13801D01*
X-17090Y13851D02*
X-5635Y13851D01*
X3095Y13851D02*
X9459Y13851D01*
X11748Y13851D02*
X17090Y13851D01*
X-17049Y13900D02*
X-5635Y13900D01*
X3095Y13900D02*
X9441Y13900D01*
X11767Y13900D02*
X17049Y13900D01*
X-17009Y13950D02*
X-5635Y13950D01*
X3095Y13950D02*
X9433Y13950D01*
X11775Y13950D02*
X17009Y13950D01*
X-16969Y14000D02*
X-5635Y14000D01*
X3095Y14000D02*
X9427Y14000D01*
X11781Y14000D02*
X16969Y14000D01*
X-16928Y14049D02*
X-5635Y14049D01*
X3095Y14049D02*
X9421Y14049D01*
X11787Y14049D02*
X16928Y14049D01*
X-16888Y14099D02*
X-5635Y14099D01*
X3095Y14099D02*
X9415Y14099D01*
X11793Y14099D02*
X16888Y14099D01*
X-16848Y14148D02*
X-5635Y14148D01*
X3095Y14148D02*
X9409Y14148D01*
X11799Y14148D02*
X16848Y14148D01*
X-16807Y14198D02*
X-5635Y14198D01*
X3095Y14198D02*
X9403Y14198D01*
X11805Y14198D02*
X16807Y14198D01*
X-16767Y14247D02*
X-5635Y14247D01*
X3095Y14247D02*
X9409Y14247D01*
X11799Y14247D02*
X16767Y14247D01*
X-16727Y14297D02*
X-5635Y14297D01*
X3095Y14297D02*
X9415Y14297D01*
X11793Y14297D02*
X16727Y14297D01*
X-16687Y14346D02*
X-5635Y14346D01*
X3095Y14346D02*
X9421Y14346D01*
X11787Y14346D02*
X16687Y14346D01*
X-16646Y14396D02*
X-5635Y14396D01*
X3095Y14396D02*
X9427Y14396D01*
X11781Y14396D02*
X16646Y14396D01*
X-16605Y14445D02*
X-5635Y14445D01*
X3095Y14445D02*
X8685Y14445D01*
X8931Y14445D02*
X9433Y14445D01*
X11775Y14445D02*
X16605Y14445D01*
X-16559Y14495D02*
X-5635Y14495D01*
X3095Y14495D02*
X8608Y14495D01*
X9008Y14495D02*
X9442Y14495D01*
X11766Y14495D02*
X16559Y14495D01*
X-16513Y14544D02*
X-5635Y14544D01*
X3095Y14544D02*
X8557Y14544D01*
X9059Y14544D02*
X9461Y14544D01*
X11747Y14544D02*
X16513Y14544D01*
X-16467Y14594D02*
X-5635Y14594D01*
X3095Y14594D02*
X8507Y14594D01*
X9109Y14594D02*
X9479Y14594D01*
X11728Y14594D02*
X16467Y14594D01*
X-16421Y14643D02*
X-5635Y14643D01*
X3095Y14643D02*
X8458Y14643D01*
X9158Y14643D02*
X9498Y14643D01*
X11710Y14643D02*
X16421Y14643D01*
X-16375Y14693D02*
X-5635Y14693D01*
X3095Y14693D02*
X8408Y14693D01*
X9208Y14693D02*
X9517Y14693D01*
X11691Y14693D02*
X16375Y14693D01*
X-16329Y14742D02*
X-5635Y14742D01*
X3095Y14742D02*
X8359Y14742D01*
X9257Y14742D02*
X9536Y14742D01*
X11672Y14742D02*
X16329Y14742D01*
X-16283Y14792D02*
X-5635Y14792D01*
X3095Y14792D02*
X8309Y14792D01*
X9307Y14792D02*
X9566Y14792D01*
X11642Y14792D02*
X16283Y14792D01*
X-16237Y14842D02*
X-5635Y14842D01*
X3095Y14842D02*
X8260Y14842D01*
X9356Y14842D02*
X9601Y14842D01*
X11607Y14842D02*
X16237Y14842D01*
X-16191Y14891D02*
X-5635Y14891D01*
X3095Y14891D02*
X8210Y14891D01*
X9406Y14891D02*
X9635Y14891D01*
X11573Y14891D02*
X16191Y14891D01*
X-16146Y14941D02*
X-5635Y14941D01*
X3095Y14941D02*
X8161Y14941D01*
X9455Y14941D02*
X9669Y14941D01*
X11539Y14941D02*
X16146Y14941D01*
X-16100Y14990D02*
X-5635Y14990D01*
X3095Y14990D02*
X8111Y14990D01*
X9505Y14990D02*
X9703Y14990D01*
X11505Y14990D02*
X16100Y14990D01*
X-16054Y15040D02*
X-5635Y15040D01*
X3095Y15040D02*
X8061Y15040D01*
X9554Y15040D02*
X9758Y15040D01*
X11450Y15040D02*
X16054Y15040D01*
X-16008Y15089D02*
X-5635Y15089D01*
X3095Y15089D02*
X8012Y15089D01*
X9604Y15089D02*
X9814Y15089D01*
X11394Y15089D02*
X16008Y15089D01*
X-15962Y15139D02*
X-5635Y15139D01*
X3095Y15139D02*
X7962Y15139D01*
X9653Y15139D02*
X9870Y15139D01*
X11338Y15139D02*
X15962Y15139D01*
X-15916Y15188D02*
X-5635Y15188D01*
X3095Y15188D02*
X7913Y15188D01*
X9703Y15188D02*
X9928Y15188D01*
X11279Y15188D02*
X15916Y15188D01*
X-15870Y15238D02*
X-5635Y15238D01*
X3095Y15238D02*
X7863Y15238D01*
X9752Y15238D02*
X10023Y15238D01*
X11185Y15238D02*
X15870Y15238D01*
X-15824Y15287D02*
X-5635Y15287D01*
X3095Y15287D02*
X7814Y15287D01*
X9802Y15287D02*
X10117Y15287D01*
X11091Y15287D02*
X15824Y15287D01*
X-15778Y15337D02*
X-5635Y15337D01*
X3095Y15337D02*
X7764Y15337D01*
X9851Y15337D02*
X10249Y15337D01*
X10958Y15337D02*
X15778Y15337D01*
X-15732Y15386D02*
X-5635Y15386D01*
X3095Y15386D02*
X7715Y15386D01*
X9901Y15386D02*
X10450Y15386D01*
X10758Y15386D02*
X15732Y15386D01*
X-15686Y15436D02*
X-5635Y15436D01*
X3095Y15436D02*
X7665Y15436D01*
X9951Y15436D02*
X15686Y15436D01*
X-15640Y15485D02*
X-5635Y15485D01*
X3095Y15485D02*
X7616Y15485D01*
X10000Y15485D02*
X15640Y15485D01*
X-15588Y15535D02*
X-5635Y15535D01*
X3095Y15535D02*
X7566Y15535D01*
X10050Y15535D02*
X15588Y15535D01*
X-15535Y15585D02*
X-5635Y15585D01*
X3095Y15585D02*
X7517Y15585D01*
X10099Y15585D02*
X15535Y15585D01*
X-15483Y15634D02*
X-5635Y15634D01*
X3095Y15634D02*
X7467Y15634D01*
X10149Y15634D02*
X15483Y15634D01*
X-15431Y15684D02*
X-5635Y15684D01*
X3095Y15684D02*
X7418Y15684D01*
X10198Y15684D02*
X15431Y15684D01*
X-15378Y15733D02*
X-5769Y15733D01*
X3229Y15733D02*
X4391Y15733D01*
X4780Y15733D02*
X5380Y15733D01*
X5769Y15733D02*
X7368Y15733D01*
X10248Y15733D02*
X15378Y15733D01*
X-15326Y15783D02*
X-5859Y15783D01*
X3319Y15783D02*
X4301Y15783D01*
X4780Y15783D02*
X5380Y15783D01*
X5859Y15783D02*
X7319Y15783D01*
X10297Y15783D02*
X15326Y15783D01*
X-15274Y15832D02*
X-5914Y15832D01*
X3374Y15832D02*
X4246Y15832D01*
X4780Y15832D02*
X5380Y15832D01*
X5914Y15832D02*
X7281Y15832D01*
X10335Y15832D02*
X15274Y15832D01*
X-15221Y15882D02*
X-5955Y15882D01*
X3415Y15882D02*
X4205Y15882D01*
X4780Y15882D02*
X5380Y15882D01*
X5955Y15882D02*
X7256Y15882D01*
X10360Y15882D02*
X15221Y15882D01*
X-15169Y15931D02*
X-5985Y15931D01*
X3445Y15931D02*
X4175Y15931D01*
X4780Y15931D02*
X5380Y15931D01*
X5985Y15931D02*
X7241Y15931D01*
X10375Y15931D02*
X15169Y15931D01*
X-15117Y15981D02*
X-6005Y15981D01*
X3465Y15981D02*
X4155Y15981D01*
X4780Y15981D02*
X5380Y15981D01*
X6005Y15981D02*
X7235Y15981D01*
X10381Y15981D02*
X15117Y15981D01*
X-15064Y16030D02*
X-6019Y16030D01*
X3479Y16030D02*
X4141Y16030D01*
X4780Y16030D02*
X5380Y16030D01*
X6019Y16030D02*
X7237Y16030D01*
X10379Y16030D02*
X15064Y16030D01*
X-15012Y16080D02*
X-6027Y16080D01*
X3487Y16080D02*
X4133Y16080D01*
X6027Y16080D02*
X7247Y16080D01*
X10368Y16080D02*
X15012Y16080D01*
X-14960Y16129D02*
X-6030Y16129D01*
X3490Y16129D02*
X4130Y16129D01*
X6030Y16129D02*
X7267Y16129D01*
X10349Y16129D02*
X14960Y16129D01*
X-14907Y16179D02*
X-6030Y16179D01*
X3490Y16179D02*
X4130Y16179D01*
X6030Y16179D02*
X7300Y16179D01*
X10316Y16179D02*
X14907Y16179D01*
X-14855Y16228D02*
X-6030Y16228D01*
X3490Y16228D02*
X4130Y16228D01*
X6030Y16228D02*
X7345Y16228D01*
X10270Y16228D02*
X14855Y16228D01*
X-14803Y16278D02*
X-6030Y16278D01*
X3490Y16278D02*
X4130Y16278D01*
X6030Y16278D02*
X7395Y16278D01*
X10221Y16278D02*
X14803Y16278D01*
X-14750Y16327D02*
X-6030Y16327D01*
X3490Y16327D02*
X4130Y16327D01*
X6030Y16327D02*
X7444Y16327D01*
X10171Y16327D02*
X14750Y16327D01*
X-14698Y16377D02*
X-6030Y16377D01*
X3490Y16377D02*
X4130Y16377D01*
X6030Y16377D02*
X7494Y16377D01*
X10122Y16377D02*
X14698Y16377D01*
X-14646Y16427D02*
X-6030Y16427D01*
X3490Y16427D02*
X4130Y16427D01*
X6030Y16427D02*
X7543Y16427D01*
X10072Y16427D02*
X14646Y16427D01*
X-14592Y16476D02*
X-6030Y16476D01*
X3490Y16476D02*
X4130Y16476D01*
X6030Y16476D02*
X7593Y16476D01*
X10023Y16476D02*
X14592Y16476D01*
X-14533Y16526D02*
X-6030Y16526D01*
X3490Y16526D02*
X4130Y16526D01*
X6030Y16526D02*
X7643Y16526D01*
X9973Y16526D02*
X14533Y16526D01*
X-14473Y16575D02*
X-6030Y16575D01*
X3490Y16575D02*
X4130Y16575D01*
X6030Y16575D02*
X7692Y16575D01*
X9924Y16575D02*
X14473Y16575D01*
X-14413Y16625D02*
X-6030Y16625D01*
X3490Y16625D02*
X4130Y16625D01*
X6030Y16625D02*
X7742Y16625D01*
X9874Y16625D02*
X14413Y16625D01*
X-14354Y16674D02*
X-6030Y16674D01*
X3490Y16674D02*
X4130Y16674D01*
X6030Y16674D02*
X7791Y16674D01*
X9825Y16674D02*
X14354Y16674D01*
X-14294Y16724D02*
X-6030Y16724D01*
X3490Y16724D02*
X4130Y16724D01*
X6030Y16724D02*
X7841Y16724D01*
X9775Y16724D02*
X14294Y16724D01*
X-14234Y16773D02*
X-6030Y16773D01*
X3490Y16773D02*
X4130Y16773D01*
X6030Y16773D02*
X7890Y16773D01*
X9726Y16773D02*
X14234Y16773D01*
X-14175Y16823D02*
X-6030Y16823D01*
X3490Y16823D02*
X4130Y16823D01*
X6030Y16823D02*
X7940Y16823D01*
X9676Y16823D02*
X14175Y16823D01*
X-14115Y16872D02*
X-6030Y16872D01*
X3490Y16872D02*
X4130Y16872D01*
X6030Y16872D02*
X7989Y16872D01*
X9627Y16872D02*
X14115Y16872D01*
X-14055Y16922D02*
X-6030Y16922D01*
X3490Y16922D02*
X4130Y16922D01*
X6030Y16922D02*
X8039Y16922D01*
X9577Y16922D02*
X14055Y16922D01*
X-13996Y16971D02*
X-6030Y16971D01*
X3490Y16971D02*
X4130Y16971D01*
X6030Y16971D02*
X8088Y16971D01*
X9527Y16971D02*
X13996Y16971D01*
X-13936Y17021D02*
X-6030Y17021D01*
X3490Y17021D02*
X4130Y17021D01*
X6030Y17021D02*
X8138Y17021D01*
X9478Y17021D02*
X13936Y17021D01*
X-13876Y17070D02*
X-6030Y17070D01*
X3490Y17070D02*
X4130Y17070D01*
X6030Y17070D02*
X8187Y17070D01*
X9428Y17070D02*
X13876Y17070D01*
X-13817Y17120D02*
X-6030Y17120D01*
X3490Y17120D02*
X4130Y17120D01*
X6030Y17120D02*
X8237Y17120D01*
X9379Y17120D02*
X13817Y17120D01*
X-13757Y17169D02*
X-6030Y17169D01*
X3490Y17169D02*
X4130Y17169D01*
X6030Y17169D02*
X8286Y17169D01*
X9329Y17169D02*
X13757Y17169D01*
X-13697Y17219D02*
X-6030Y17219D01*
X3490Y17219D02*
X4130Y17219D01*
X6030Y17219D02*
X8336Y17219D01*
X9280Y17219D02*
X13697Y17219D01*
X-13638Y17269D02*
X-6030Y17269D01*
X3490Y17269D02*
X4130Y17269D01*
X6030Y17269D02*
X8385Y17269D01*
X9230Y17269D02*
X13638Y17269D01*
X-13578Y17318D02*
X-6030Y17318D01*
X3490Y17318D02*
X4130Y17318D01*
X6030Y17318D02*
X8435Y17318D01*
X9181Y17318D02*
X13578Y17318D01*
X-13518Y17368D02*
X-6030Y17368D01*
X3490Y17368D02*
X4130Y17368D01*
X6030Y17368D02*
X8485Y17368D01*
X9131Y17368D02*
X13518Y17368D01*
X-13453Y17417D02*
X-6030Y17417D01*
X3490Y17417D02*
X4130Y17417D01*
X6030Y17417D02*
X8534Y17417D01*
X9082Y17417D02*
X13453Y17417D01*
X-13385Y17467D02*
X-6030Y17467D01*
X3490Y17467D02*
X4130Y17467D01*
X6030Y17467D02*
X8584Y17467D01*
X9032Y17467D02*
X13385Y17467D01*
X-13316Y17516D02*
X-6030Y17516D01*
X3490Y17516D02*
X4130Y17516D01*
X6030Y17516D02*
X8643Y17516D01*
X8973Y17516D02*
X13316Y17516D01*
X-13248Y17566D02*
X-6030Y17566D01*
X3490Y17566D02*
X4130Y17566D01*
X6030Y17566D02*
X8802Y17566D01*
X8814Y17566D02*
X13248Y17566D01*
X-13180Y17615D02*
X-6030Y17615D01*
X3490Y17615D02*
X4130Y17615D01*
X6030Y17615D02*
X13180Y17615D01*
X-13112Y17665D02*
X-6030Y17665D01*
X3490Y17665D02*
X4130Y17665D01*
X6030Y17665D02*
X13112Y17665D01*
X-13043Y17714D02*
X-6030Y17714D01*
X3490Y17714D02*
X4505Y17714D01*
X5655Y17714D02*
X13043Y17714D01*
X-12975Y17764D02*
X-6030Y17764D01*
X3490Y17764D02*
X4505Y17764D01*
X5655Y17764D02*
X12975Y17764D01*
X-12907Y17813D02*
X-6030Y17813D01*
X3490Y17813D02*
X4505Y17813D01*
X5655Y17813D02*
X12907Y17813D01*
X-12838Y17863D02*
X-6030Y17863D01*
X3490Y17863D02*
X4505Y17863D01*
X5655Y17863D02*
X12838Y17863D01*
X-12770Y17912D02*
X-6030Y17912D01*
X3490Y17912D02*
X4505Y17912D01*
X5655Y17912D02*
X12770Y17912D01*
X-12702Y17962D02*
X-6030Y17962D01*
X3490Y17962D02*
X4505Y17962D01*
X5655Y17962D02*
X12702Y17962D01*
X-12634Y18011D02*
X-6030Y18011D01*
X3490Y18011D02*
X4505Y18011D01*
X5655Y18011D02*
X12634Y18011D01*
X-12565Y18061D02*
X-6030Y18061D01*
X3490Y18061D02*
X4505Y18061D01*
X5655Y18061D02*
X12565Y18061D01*
X-12497Y18111D02*
X-6030Y18111D01*
X3490Y18111D02*
X4505Y18111D01*
X5655Y18111D02*
X12497Y18111D01*
X-12429Y18160D02*
X-6030Y18160D01*
X3490Y18160D02*
X4505Y18160D01*
X5655Y18160D02*
X12429Y18160D01*
X-12361Y18210D02*
X-6030Y18210D01*
X3490Y18210D02*
X4505Y18210D01*
X5655Y18210D02*
X12361Y18210D01*
X-12285Y18259D02*
X-6030Y18259D01*
X3490Y18259D02*
X4505Y18259D01*
X5655Y18259D02*
X12285Y18259D01*
X-12207Y18309D02*
X-6030Y18309D01*
X3490Y18309D02*
X4130Y18309D01*
X6030Y18309D02*
X12207Y18309D01*
X-12128Y18358D02*
X-6030Y18358D01*
X3490Y18358D02*
X4130Y18358D01*
X6030Y18358D02*
X12128Y18358D01*
X-12050Y18408D02*
X-6030Y18408D01*
X3490Y18408D02*
X4130Y18408D01*
X6030Y18408D02*
X12050Y18408D01*
X-11971Y18457D02*
X-6030Y18457D01*
X3490Y18457D02*
X4130Y18457D01*
X6030Y18457D02*
X11971Y18457D01*
X-11893Y18507D02*
X-6030Y18507D01*
X3490Y18507D02*
X4130Y18507D01*
X6030Y18507D02*
X11893Y18507D01*
X-11814Y18556D02*
X-6030Y18556D01*
X3490Y18556D02*
X4130Y18556D01*
X6030Y18556D02*
X11814Y18556D01*
X-11735Y18606D02*
X-6030Y18606D01*
X3490Y18606D02*
X4130Y18606D01*
X6030Y18606D02*
X11735Y18606D01*
X-11657Y18655D02*
X-6030Y18655D01*
X3490Y18655D02*
X4130Y18655D01*
X6030Y18655D02*
X11657Y18655D01*
X-11578Y18705D02*
X-6030Y18705D01*
X3490Y18705D02*
X4130Y18705D01*
X6030Y18705D02*
X11578Y18705D01*
X-11500Y18754D02*
X-6030Y18754D01*
X3490Y18754D02*
X4130Y18754D01*
X6030Y18754D02*
X11500Y18754D01*
X-11421Y18804D02*
X-6030Y18804D01*
X3490Y18804D02*
X4130Y18804D01*
X6030Y18804D02*
X11421Y18804D01*
X-11343Y18853D02*
X-6030Y18853D01*
X3490Y18853D02*
X4130Y18853D01*
X6030Y18853D02*
X11343Y18853D01*
X-11264Y18903D02*
X-6030Y18903D01*
X3490Y18903D02*
X4130Y18903D01*
X6030Y18903D02*
X11264Y18903D01*
X-11186Y18953D02*
X-6030Y18953D01*
X3490Y18953D02*
X4130Y18953D01*
X6030Y18953D02*
X11186Y18953D01*
X-11104Y19002D02*
X-6030Y19002D01*
X3490Y19002D02*
X4130Y19002D01*
X6030Y19002D02*
X11104Y19002D01*
X-11013Y19052D02*
X-6030Y19052D01*
X3490Y19052D02*
X4130Y19052D01*
X6030Y19052D02*
X11013Y19052D01*
X-10921Y19101D02*
X-6030Y19101D01*
X3490Y19101D02*
X4130Y19101D01*
X6030Y19101D02*
X10921Y19101D01*
X-10830Y19151D02*
X-6030Y19151D01*
X3490Y19151D02*
X4130Y19151D01*
X6030Y19151D02*
X10830Y19151D01*
X-10739Y19200D02*
X-6030Y19200D01*
X3490Y19200D02*
X4130Y19200D01*
X6030Y19200D02*
X10739Y19200D01*
X-10648Y19250D02*
X-6030Y19250D01*
X3490Y19250D02*
X4130Y19250D01*
X6030Y19250D02*
X10648Y19250D01*
X-10557Y19299D02*
X-6030Y19299D01*
X3490Y19299D02*
X4130Y19299D01*
X6030Y19299D02*
X10557Y19299D01*
X-10465Y19349D02*
X-6030Y19349D01*
X3490Y19349D02*
X4130Y19349D01*
X6030Y19349D02*
X10465Y19349D01*
X-10374Y19398D02*
X-6030Y19398D01*
X3490Y19398D02*
X4130Y19398D01*
X6030Y19398D02*
X10374Y19398D01*
X-10283Y19448D02*
X-6030Y19448D01*
X3490Y19448D02*
X4130Y19448D01*
X6030Y19448D02*
X10283Y19448D01*
X-10192Y19497D02*
X-6030Y19497D01*
X3490Y19497D02*
X4130Y19497D01*
X6030Y19497D02*
X10192Y19497D01*
X-10101Y19547D02*
X-6190Y19547D01*
X6190Y19547D02*
X10101Y19547D01*
X-10009Y19596D02*
X-6279Y19596D01*
X6279Y19596D02*
X10009Y19596D01*
X-9918Y19646D02*
X-6340Y19646D01*
X6340Y19646D02*
X9918Y19646D01*
X-9819Y19695D02*
X-6383Y19695D01*
X6383Y19695D02*
X9819Y19695D01*
X-9712Y19745D02*
X-6418Y19745D01*
X6418Y19745D02*
X9712Y19745D01*
X-9605Y19795D02*
X-6445Y19795D01*
X6445Y19795D02*
X9605Y19795D01*
X-9498Y19844D02*
X-6464Y19844D01*
X6464Y19844D02*
X9498Y19844D01*
X-9390Y19894D02*
X-6479Y19894D01*
X6479Y19894D02*
X9390Y19894D01*
X-9283Y19943D02*
X-6486Y19943D01*
X6486Y19943D02*
X9283Y19943D01*
X-9176Y19993D02*
X-6491Y19993D01*
X6491Y19993D02*
X9176Y19993D01*
X-9068Y20042D02*
X-6492Y20042D01*
X6492Y20042D02*
X9068Y20042D01*
X-8961Y20092D02*
X-6492Y20092D01*
X6492Y20092D02*
X8961Y20092D01*
X-8854Y20141D02*
X-6492Y20141D01*
X6492Y20141D02*
X8854Y20141D01*
X-8747Y20191D02*
X-6492Y20191D01*
X6492Y20191D02*
X8747Y20191D01*
X-8639Y20240D02*
X-6492Y20240D01*
X6492Y20240D02*
X8639Y20240D01*
X-8524Y20290D02*
X-6492Y20290D01*
X6492Y20290D02*
X8524Y20290D01*
X-8396Y20339D02*
X-6492Y20339D01*
X6492Y20339D02*
X8396Y20339D01*
X-8267Y20389D02*
X-6492Y20389D01*
X6492Y20389D02*
X8267Y20389D01*
X-8138Y20438D02*
X-6492Y20438D01*
X6492Y20438D02*
X8138Y20438D01*
X-8010Y20488D02*
X-6492Y20488D01*
X6492Y20488D02*
X8010Y20488D01*
X-7881Y20538D02*
X-6492Y20538D01*
X6492Y20538D02*
X7881Y20538D01*
X-7752Y20587D02*
X-6492Y20587D01*
X6492Y20587D02*
X7752Y20587D01*
X-7624Y20637D02*
X-6492Y20637D01*
X6492Y20637D02*
X7624Y20637D01*
X-7495Y20686D02*
X-6491Y20686D01*
X6492Y20686D02*
X7495Y20686D01*
X-7366Y20736D02*
X-6491Y20736D01*
X6492Y20736D02*
X7366Y20736D01*
X-7238Y20785D02*
X-6491Y20785D01*
X6492Y20785D02*
X7238Y20785D01*
X-7080Y20835D02*
X-6491Y20835D01*
X6492Y20835D02*
X7080Y20835D01*
X-6921Y20884D02*
X-6491Y20884D01*
X6492Y20884D02*
X6921Y20884D01*
X-6762Y20934D02*
X-6491Y20934D01*
X6492Y20934D02*
X6762Y20934D01*
X-6603Y20983D02*
X-6491Y20983D01*
X6492Y20983D02*
X6603Y20983D01*
X1985Y-4080D02*
X1985Y-4080D01*
X1985Y15695*
X1881Y15720*
X1881Y15720*
X1820Y15746*
X1820Y15746*
X1763Y15780*
X1763Y15780*
X1713Y15823*
X1713Y15823*
X1670Y15873*
X1670Y15873*
X1636Y15930*
X1636Y15930*
X1610Y15991*
X1610Y15991*
X1595Y16055*
X1595Y16055*
X1590Y16121*
X1590Y16121*
X1590Y19508*
X0950Y19508*
X0950Y16121*
X0950Y16121*
X0945Y16055*
X0945Y16055*
X0930Y15991*
X0930Y15991*
X0904Y15930*
X0904Y15930*
X0870Y15873*
X0870Y15873*
X0827Y15823*
X0827Y15823*
X0777Y15780*
X0777Y15780*
X0720Y15746*
X0720Y15746*
X0659Y15720*
X0659Y15720*
X0555Y15695*
X0555Y-4396*
X0555Y-4396*
X0545Y-4504*
X0545Y-4504*
X0513Y-4609*
X0513Y-4609*
X0462Y-4705*
X0462Y-4705*
X0393Y-4789*
X0393Y-4789*
X-3318Y-8499*
X-3258Y-8670*
X-3258Y-8670*
X-3224Y-8971*
X-3224Y-8971*
X-3249Y-9194*
X-3168Y-9233*
X1985Y-4080*
X-3248Y-9184D02*
X-3118Y-9184D01*
X-3242Y-9134D02*
X-3069Y-9134D01*
X-3237Y-9084D02*
X-3019Y-9084D01*
X-3231Y-9035D02*
X-2970Y-9035D01*
X-3226Y-8985D02*
X-2920Y-8985D01*
X-3228Y-8936D02*
X-2871Y-8936D01*
X-3234Y-8886D02*
X-2821Y-8886D01*
X-3239Y-8837D02*
X-2772Y-8837D01*
X-3245Y-8787D02*
X-2722Y-8787D01*
X-3250Y-8738D02*
X-2673Y-8738D01*
X-3256Y-8688D02*
X-2623Y-8688D01*
X-3269Y-8639D02*
X-2574Y-8639D01*
X-3286Y-8589D02*
X-2524Y-8589D01*
X-3304Y-8540D02*
X-2475Y-8540D01*
X-3309Y-8490D02*
X-2425Y-8490D01*
X-3260Y-8441D02*
X-2375Y-8441D01*
X-3210Y-8391D02*
X-2326Y-8391D01*
X-3161Y-8341D02*
X-2276Y-8341D01*
X-3111Y-8292D02*
X-2227Y-8292D01*
X-3061Y-8242D02*
X-2177Y-8242D01*
X-3012Y-8193D02*
X-2128Y-8193D01*
X-2962Y-8143D02*
X-2078Y-8143D01*
X-2913Y-8094D02*
X-2029Y-8094D01*
X-2863Y-8044D02*
X-1979Y-8044D01*
X-2814Y-7995D02*
X-1930Y-7995D01*
X-2764Y-7945D02*
X-1880Y-7945D01*
X-2715Y-7896D02*
X-1831Y-7896D01*
X-2665Y-7846D02*
X-1781Y-7846D01*
X-2616Y-7797D02*
X-1732Y-7797D01*
X-2566Y-7747D02*
X-1682Y-7747D01*
X-2517Y-7698D02*
X-1632Y-7698D01*
X-2467Y-7648D02*
X-1583Y-7648D01*
X-2418Y-7599D02*
X-1533Y-7599D01*
X-2368Y-7549D02*
X-1484Y-7549D01*
X-2319Y-7499D02*
X-1434Y-7499D01*
X-2269Y-7450D02*
X-1385Y-7450D01*
X-2219Y-7400D02*
X-1335Y-7400D01*
X-2170Y-7351D02*
X-1286Y-7351D01*
X-2120Y-7301D02*
X-1236Y-7301D01*
X-2071Y-7252D02*
X-1187Y-7252D01*
X-2021Y-7202D02*
X-1137Y-7202D01*
X-1972Y-7153D02*
X-1088Y-7153D01*
X-1922Y-7103D02*
X-1038Y-7103D01*
X-1873Y-7054D02*
X-0989Y-7054D01*
X-1823Y-7004D02*
X-0939Y-7004D01*
X-1774Y-6955D02*
X-0890Y-6955D01*
X-1724Y-6905D02*
X-0840Y-6905D01*
X-1675Y-6856D02*
X-0790Y-6856D01*
X-1625Y-6806D02*
X-0741Y-6806D01*
X-1576Y-6757D02*
X-0691Y-6757D01*
X-1526Y-6707D02*
X-0642Y-6707D01*
X-1477Y-6657D02*
X-0592Y-6657D01*
X-1427Y-6608D02*
X-0543Y-6608D01*
X-1377Y-6558D02*
X-0493Y-6558D01*
X-1328Y-6509D02*
X-0444Y-6509D01*
X-1278Y-6459D02*
X-0394Y-6459D01*
X-1229Y-6410D02*
X-0345Y-6410D01*
X-1179Y-6360D02*
X-0295Y-6360D01*
X-1130Y-6311D02*
X-0246Y-6311D01*
X-1080Y-6261D02*
X-0196Y-6261D01*
X-1031Y-6212D02*
X-0147Y-6212D01*
X-0981Y-6162D02*
X-0097Y-6162D01*
X-0932Y-6113D02*
X-0048Y-6113D01*
X-0882Y-6063D02*
X0002Y-6063D01*
X-0833Y-6014D02*
X0052Y-6014D01*
X-0783Y-5964D02*
X0101Y-5964D01*
X-0734Y-5915D02*
X0151Y-5915D01*
X-0684Y-5865D02*
X0200Y-5865D01*
X-0635Y-5815D02*
X0250Y-5815D01*
X-0585Y-5766D02*
X0299Y-5766D01*
X-0535Y-5716D02*
X0349Y-5716D01*
X-0486Y-5667D02*
X0398Y-5667D01*
X-0436Y-5617D02*
X0448Y-5617D01*
X-0387Y-5568D02*
X0497Y-5568D01*
X-0337Y-5518D02*
X0547Y-5518D01*
X-0288Y-5469D02*
X0596Y-5469D01*
X-0238Y-5419D02*
X0646Y-5419D01*
X-0189Y-5370D02*
X0695Y-5370D01*
X-0139Y-5320D02*
X0745Y-5320D01*
X-0090Y-5271D02*
X0794Y-5271D01*
X-0040Y-5221D02*
X0844Y-5221D01*
X0009Y-5172D02*
X0894Y-5172D01*
X0059Y-5122D02*
X0943Y-5122D01*
X0108Y-5073D02*
X0993Y-5073D01*
X0158Y-5023D02*
X1042Y-5023D01*
X0207Y-4973D02*
X1092Y-4973D01*
X0257Y-4924D02*
X1141Y-4924D01*
X0307Y-4874D02*
X1191Y-4874D01*
X0356Y-4825D02*
X1240Y-4825D01*
X0403Y-4775D02*
X1290Y-4775D01*
X0444Y-4726D02*
X1339Y-4726D01*
X0476Y-4676D02*
X1389Y-4676D01*
X0503Y-4627D02*
X1438Y-4627D01*
X0522Y-4577D02*
X1488Y-4577D01*
X0537Y-4528D02*
X1537Y-4528D01*
X0547Y-4478D02*
X1587Y-4478D01*
X0552Y-4429D02*
X1636Y-4429D01*
X0555Y-4379D02*
X1686Y-4379D01*
X0555Y-4330D02*
X1736Y-4330D01*
X0555Y-4280D02*
X1785Y-4280D01*
X0555Y-4231D02*
X1835Y-4231D01*
X0555Y-4181D02*
X1884Y-4181D01*
X0555Y-4131D02*
X1934Y-4131D01*
X0555Y-4082D02*
X1983Y-4082D01*
X0555Y-4032D02*
X1985Y-4032D01*
X0555Y-3983D02*
X1985Y-3983D01*
X0555Y-3933D02*
X1985Y-3933D01*
X0555Y-3884D02*
X1985Y-3884D01*
X0555Y-3834D02*
X1985Y-3834D01*
X0555Y-3785D02*
X1985Y-3785D01*
X0555Y-3735D02*
X1985Y-3735D01*
X0555Y-3686D02*
X1985Y-3686D01*
X0555Y-3636D02*
X1985Y-3636D01*
X0555Y-3587D02*
X1985Y-3587D01*
X0555Y-3537D02*
X1985Y-3537D01*
X0555Y-3488D02*
X1985Y-3488D01*
X0555Y-3438D02*
X1985Y-3438D01*
X0555Y-3388D02*
X1985Y-3388D01*
X0555Y-3339D02*
X1985Y-3339D01*
X0555Y-3289D02*
X1985Y-3289D01*
X0555Y-3240D02*
X1985Y-3240D01*
X0555Y-3190D02*
X1985Y-3190D01*
X0555Y-3141D02*
X1985Y-3141D01*
X0555Y-3091D02*
X1985Y-3091D01*
X0555Y-3042D02*
X1985Y-3042D01*
X0555Y-2992D02*
X1985Y-2992D01*
X0555Y-2943D02*
X1985Y-2943D01*
X0555Y-2893D02*
X1985Y-2893D01*
X0555Y-2844D02*
X1985Y-2844D01*
X0555Y-2794D02*
X1985Y-2794D01*
X0555Y-2745D02*
X1985Y-2745D01*
X0555Y-2695D02*
X1985Y-2695D01*
X0555Y-2646D02*
X1985Y-2646D01*
X0555Y-2596D02*
X1985Y-2596D01*
X0555Y-2546D02*
X1985Y-2546D01*
X0555Y-2497D02*
X1985Y-2497D01*
X0555Y-2447D02*
X1985Y-2447D01*
X0555Y-2398D02*
X1985Y-2398D01*
X0555Y-2348D02*
X1985Y-2348D01*
X0555Y-2299D02*
X1985Y-2299D01*
X0555Y-2249D02*
X1985Y-2249D01*
X0555Y-2200D02*
X1985Y-2200D01*
X0555Y-2150D02*
X1985Y-2150D01*
X0555Y-2101D02*
X1985Y-2101D01*
X0555Y-2051D02*
X1985Y-2051D01*
X0555Y-2002D02*
X1985Y-2002D01*
X0555Y-1952D02*
X1985Y-1952D01*
X0555Y-1903D02*
X1985Y-1903D01*
X0555Y-1853D02*
X1985Y-1853D01*
X0555Y-1804D02*
X1985Y-1804D01*
X0555Y-1754D02*
X1985Y-1754D01*
X0555Y-1704D02*
X1985Y-1704D01*
X0555Y-1655D02*
X1985Y-1655D01*
X0555Y-1605D02*
X1985Y-1605D01*
X0555Y-1556D02*
X1985Y-1556D01*
X0555Y-1506D02*
X1985Y-1506D01*
X0555Y-1457D02*
X1985Y-1457D01*
X0555Y-1407D02*
X1985Y-1407D01*
X0555Y-1358D02*
X1985Y-1358D01*
X0555Y-1308D02*
X1985Y-1308D01*
X0555Y-1259D02*
X1985Y-1259D01*
X0555Y-1209D02*
X1985Y-1209D01*
X0555Y-1160D02*
X1985Y-1160D01*
X0555Y-1110D02*
X1985Y-1110D01*
X0555Y-1061D02*
X1985Y-1061D01*
X0555Y-1011D02*
X1985Y-1011D01*
X0555Y-0962D02*
X1985Y-0962D01*
X0555Y-0912D02*
X1985Y-0912D01*
X0555Y-0862D02*
X1985Y-0862D01*
X0555Y-0813D02*
X1985Y-0813D01*
X0555Y-0763D02*
X1985Y-0763D01*
X0555Y-0714D02*
X1985Y-0714D01*
X0555Y-0664D02*
X1985Y-0664D01*
X0555Y-0615D02*
X1985Y-0615D01*
X0555Y-0565D02*
X1985Y-0565D01*
X0555Y-0516D02*
X1985Y-0516D01*
X0555Y-0466D02*
X1985Y-0466D01*
X0555Y-0417D02*
X1985Y-0417D01*
X0555Y-0367D02*
X1985Y-0367D01*
X0555Y-0318D02*
X1985Y-0318D01*
X0555Y-0268D02*
X1985Y-0268D01*
X0555Y-0219D02*
X1985Y-0219D01*
X0555Y-0169D02*
X1985Y-0169D01*
X0555Y-0120D02*
X1985Y-0120D01*
X0555Y-0070D02*
X1985Y-0070D01*
X0555Y-0020D02*
X1985Y-0020D01*
X0555Y0029D02*
X1985Y0029D01*
X0555Y0079D02*
X1985Y0079D01*
X0555Y0128D02*
X1985Y0128D01*
X0555Y0178D02*
X1985Y0178D01*
X0555Y0227D02*
X1985Y0227D01*
X0555Y0277D02*
X1985Y0277D01*
X0555Y0326D02*
X1985Y0326D01*
X0555Y0376D02*
X1985Y0376D01*
X0555Y0425D02*
X1985Y0425D01*
X0555Y0475D02*
X1985Y0475D01*
X0555Y0524D02*
X1985Y0524D01*
X0555Y0574D02*
X1985Y0574D01*
X0555Y0623D02*
X1985Y0623D01*
X0555Y0673D02*
X1985Y0673D01*
X0555Y0722D02*
X1985Y0722D01*
X0555Y0772D02*
X1985Y0772D01*
X0555Y0822D02*
X1985Y0822D01*
X0555Y0871D02*
X1985Y0871D01*
X0555Y0921D02*
X1985Y0921D01*
X0555Y0970D02*
X1985Y0970D01*
X0555Y1020D02*
X1985Y1020D01*
X0555Y1069D02*
X1985Y1069D01*
X0555Y1119D02*
X1985Y1119D01*
X0555Y1168D02*
X1985Y1168D01*
X0555Y1218D02*
X1985Y1218D01*
X0555Y1267D02*
X1985Y1267D01*
X0555Y1317D02*
X1985Y1317D01*
X0555Y1366D02*
X1985Y1366D01*
X0555Y1416D02*
X1985Y1416D01*
X0555Y1465D02*
X1985Y1465D01*
X0555Y1515D02*
X1985Y1515D01*
X0555Y1565D02*
X1985Y1565D01*
X0555Y1614D02*
X1985Y1614D01*
X0555Y1664D02*
X1985Y1664D01*
X0555Y1713D02*
X1985Y1713D01*
X0555Y1763D02*
X1985Y1763D01*
X0555Y1812D02*
X1985Y1812D01*
X0555Y1862D02*
X1985Y1862D01*
X0555Y1911D02*
X1985Y1911D01*
X0555Y1961D02*
X1985Y1961D01*
X0555Y2010D02*
X1985Y2010D01*
X0555Y2060D02*
X1985Y2060D01*
X0555Y2109D02*
X1985Y2109D01*
X0555Y2159D02*
X1985Y2159D01*
X0555Y2208D02*
X1985Y2208D01*
X0555Y2258D02*
X1985Y2258D01*
X0555Y2307D02*
X1985Y2307D01*
X0555Y2357D02*
X1985Y2357D01*
X0555Y2407D02*
X1985Y2407D01*
X0555Y2456D02*
X1985Y2456D01*
X0555Y2506D02*
X1985Y2506D01*
X0555Y2555D02*
X1985Y2555D01*
X0555Y2605D02*
X1985Y2605D01*
X0555Y2654D02*
X1985Y2654D01*
X0555Y2704D02*
X1985Y2704D01*
X0555Y2753D02*
X1985Y2753D01*
X0555Y2803D02*
X1985Y2803D01*
X0555Y2852D02*
X1985Y2852D01*
X0555Y2902D02*
X1985Y2902D01*
X0555Y2951D02*
X1985Y2951D01*
X0555Y3001D02*
X1985Y3001D01*
X0555Y3050D02*
X1985Y3050D01*
X0555Y3100D02*
X1985Y3100D01*
X0555Y3149D02*
X1985Y3149D01*
X0555Y3199D02*
X1985Y3199D01*
X0555Y3249D02*
X1985Y3249D01*
X0555Y3298D02*
X1985Y3298D01*
X0555Y3348D02*
X1985Y3348D01*
X0555Y3397D02*
X1985Y3397D01*
X0555Y3447D02*
X1985Y3447D01*
X0555Y3496D02*
X1985Y3496D01*
X0555Y3546D02*
X1985Y3546D01*
X0555Y3595D02*
X1985Y3595D01*
X0555Y3645D02*
X1985Y3645D01*
X0555Y3694D02*
X1985Y3694D01*
X0555Y3744D02*
X1985Y3744D01*
X0555Y3793D02*
X1985Y3793D01*
X0555Y3843D02*
X1985Y3843D01*
X0555Y3892D02*
X1985Y3892D01*
X0555Y3942D02*
X1985Y3942D01*
X0555Y3991D02*
X1985Y3991D01*
X0555Y4041D02*
X1985Y4041D01*
X0555Y4091D02*
X1985Y4091D01*
X0555Y4140D02*
X1985Y4140D01*
X0555Y4190D02*
X1985Y4190D01*
X0555Y4239D02*
X1985Y4239D01*
X0555Y4289D02*
X1985Y4289D01*
X0555Y4338D02*
X1985Y4338D01*
X0555Y4388D02*
X1985Y4388D01*
X0555Y4437D02*
X1985Y4437D01*
X0555Y4487D02*
X1985Y4487D01*
X0555Y4536D02*
X1985Y4536D01*
X0555Y4586D02*
X1985Y4586D01*
X0555Y4635D02*
X1985Y4635D01*
X0555Y4685D02*
X1985Y4685D01*
X0555Y4734D02*
X1985Y4734D01*
X0555Y4784D02*
X1985Y4784D01*
X0555Y4833D02*
X1985Y4833D01*
X0555Y4883D02*
X1985Y4883D01*
X0555Y4933D02*
X1985Y4933D01*
X0555Y4982D02*
X1985Y4982D01*
X0555Y5032D02*
X1985Y5032D01*
X0555Y5081D02*
X1985Y5081D01*
X0555Y5131D02*
X1985Y5131D01*
X0555Y5180D02*
X1985Y5180D01*
X0555Y5230D02*
X1985Y5230D01*
X0555Y5279D02*
X1985Y5279D01*
X0555Y5329D02*
X1985Y5329D01*
X0555Y5378D02*
X1985Y5378D01*
X0555Y5428D02*
X1985Y5428D01*
X0555Y5477D02*
X1985Y5477D01*
X0555Y5527D02*
X1985Y5527D01*
X0555Y5576D02*
X1985Y5576D01*
X0555Y5626D02*
X1985Y5626D01*
X0555Y5675D02*
X1985Y5675D01*
X0555Y5725D02*
X1985Y5725D01*
X0555Y5775D02*
X1985Y5775D01*
X0555Y5824D02*
X1985Y5824D01*
X0555Y5874D02*
X1985Y5874D01*
X0555Y5923D02*
X1985Y5923D01*
X0555Y5973D02*
X1985Y5973D01*
X0555Y6022D02*
X1985Y6022D01*
X0555Y6072D02*
X1985Y6072D01*
X0555Y6121D02*
X1985Y6121D01*
X0555Y6171D02*
X1985Y6171D01*
X0555Y6220D02*
X1985Y6220D01*
X0555Y6270D02*
X1985Y6270D01*
X0555Y6319D02*
X1985Y6319D01*
X0555Y6369D02*
X1985Y6369D01*
X0555Y6418D02*
X1985Y6418D01*
X0555Y6468D02*
X1985Y6468D01*
X0555Y6518D02*
X1985Y6518D01*
X0555Y6567D02*
X1985Y6567D01*
X0555Y6617D02*
X1985Y6617D01*
X0555Y6666D02*
X1985Y6666D01*
X0555Y6716D02*
X1985Y6716D01*
X0555Y6765D02*
X1985Y6765D01*
X0555Y6815D02*
X1985Y6815D01*
X0555Y6864D02*
X1985Y6864D01*
X0555Y6914D02*
X1985Y6914D01*
X0555Y6963D02*
X1985Y6963D01*
X0555Y7013D02*
X1985Y7013D01*
X0555Y7062D02*
X1985Y7062D01*
X0555Y7112D02*
X1985Y7112D01*
X0555Y7161D02*
X1985Y7161D01*
X0555Y7211D02*
X1985Y7211D01*
X0555Y7260D02*
X1985Y7260D01*
X0555Y7310D02*
X1985Y7310D01*
X0555Y7360D02*
X1985Y7360D01*
X0555Y7409D02*
X1985Y7409D01*
X0555Y7459D02*
X1985Y7459D01*
X0555Y7508D02*
X1985Y7508D01*
X0555Y7558D02*
X1985Y7558D01*
X0555Y7607D02*
X1985Y7607D01*
X0555Y7657D02*
X1985Y7657D01*
X0555Y7706D02*
X1985Y7706D01*
X0555Y7756D02*
X1985Y7756D01*
X0555Y7805D02*
X1985Y7805D01*
X0555Y7855D02*
X1985Y7855D01*
X0555Y7904D02*
X1985Y7904D01*
X0555Y7954D02*
X1985Y7954D01*
X0555Y8003D02*
X1985Y8003D01*
X0555Y8053D02*
X1985Y8053D01*
X0555Y8102D02*
X1985Y8102D01*
X0555Y8152D02*
X1985Y8152D01*
X0555Y8202D02*
X1985Y8202D01*
X0555Y8251D02*
X1985Y8251D01*
X0555Y8301D02*
X1985Y8301D01*
X0555Y8350D02*
X1985Y8350D01*
X0555Y8400D02*
X1985Y8400D01*
X0555Y8449D02*
X1985Y8449D01*
X0555Y8499D02*
X1985Y8499D01*
X0555Y8548D02*
X1985Y8548D01*
X0555Y8598D02*
X1985Y8598D01*
X0555Y8647D02*
X1985Y8647D01*
X0555Y8697D02*
X1985Y8697D01*
X0555Y8746D02*
X1985Y8746D01*
X0555Y8796D02*
X1985Y8796D01*
X0555Y8845D02*
X1985Y8845D01*
X0555Y8895D02*
X1985Y8895D01*
X0555Y8944D02*
X1985Y8944D01*
X0555Y8994D02*
X1985Y8994D01*
X0555Y9044D02*
X1985Y9044D01*
X0555Y9093D02*
X1985Y9093D01*
X0555Y9143D02*
X1985Y9143D01*
X0555Y9192D02*
X1985Y9192D01*
X0555Y9242D02*
X1985Y9242D01*
X0555Y9291D02*
X1985Y9291D01*
X0555Y9341D02*
X1985Y9341D01*
X0555Y9390D02*
X1985Y9390D01*
X0555Y9440D02*
X1985Y9440D01*
X0555Y9489D02*
X1985Y9489D01*
X0555Y9539D02*
X1985Y9539D01*
X0555Y9588D02*
X1985Y9588D01*
X0555Y9638D02*
X1985Y9638D01*
X0555Y9687D02*
X1985Y9687D01*
X0555Y9737D02*
X1985Y9737D01*
X0555Y9786D02*
X1985Y9786D01*
X0555Y9836D02*
X1985Y9836D01*
X0555Y9886D02*
X1985Y9886D01*
X0555Y9935D02*
X1985Y9935D01*
X0555Y9985D02*
X1985Y9985D01*
X0555Y10034D02*
X1985Y10034D01*
X0555Y10084D02*
X1985Y10084D01*
X0555Y10133D02*
X1985Y10133D01*
X0555Y10183D02*
X1985Y10183D01*
X0555Y10232D02*
X1985Y10232D01*
X0555Y10282D02*
X1985Y10282D01*
X0555Y10331D02*
X1985Y10331D01*
X0555Y10381D02*
X1985Y10381D01*
X0555Y10430D02*
X1985Y10430D01*
X0555Y10480D02*
X1985Y10480D01*
X0555Y10529D02*
X1985Y10529D01*
X0555Y10579D02*
X1985Y10579D01*
X0555Y10628D02*
X1985Y10628D01*
X0555Y10678D02*
X1985Y10678D01*
X0555Y10728D02*
X1985Y10728D01*
X0555Y10777D02*
X1985Y10777D01*
X0555Y10827D02*
X1985Y10827D01*
X0555Y10876D02*
X1985Y10876D01*
X0555Y10926D02*
X1985Y10926D01*
X0555Y10975D02*
X1985Y10975D01*
X0555Y11025D02*
X1985Y11025D01*
X0555Y11074D02*
X1985Y11074D01*
X0555Y11124D02*
X1985Y11124D01*
X0555Y11173D02*
X1985Y11173D01*
X0555Y11223D02*
X1985Y11223D01*
X0555Y11272D02*
X1985Y11272D01*
X0555Y11322D02*
X1985Y11322D01*
X0555Y11371D02*
X1985Y11371D01*
X0555Y11421D02*
X1985Y11421D01*
X0555Y11471D02*
X1985Y11471D01*
X0555Y11520D02*
X1985Y11520D01*
X0555Y11570D02*
X1985Y11570D01*
X0555Y11619D02*
X1985Y11619D01*
X0555Y11669D02*
X1985Y11669D01*
X0555Y11718D02*
X1985Y11718D01*
X0555Y11768D02*
X1985Y11768D01*
X0555Y11817D02*
X1985Y11817D01*
X0555Y11867D02*
X1985Y11867D01*
X0555Y11916D02*
X1985Y11916D01*
X0555Y11966D02*
X1985Y11966D01*
X0555Y12015D02*
X1985Y12015D01*
X0555Y12065D02*
X1985Y12065D01*
X0555Y12114D02*
X1985Y12114D01*
X0555Y12164D02*
X1985Y12164D01*
X0555Y12213D02*
X1985Y12213D01*
X0555Y12263D02*
X1985Y12263D01*
X0555Y12313D02*
X1985Y12313D01*
X0555Y12362D02*
X1985Y12362D01*
X0555Y12412D02*
X1985Y12412D01*
X0555Y12461D02*
X1985Y12461D01*
X0555Y12511D02*
X1985Y12511D01*
X0555Y12560D02*
X1985Y12560D01*
X0555Y12610D02*
X1985Y12610D01*
X0555Y12659D02*
X1985Y12659D01*
X0555Y12709D02*
X1985Y12709D01*
X0555Y12758D02*
X1985Y12758D01*
X0555Y12808D02*
X1985Y12808D01*
X0555Y12857D02*
X1985Y12857D01*
X0555Y12907D02*
X1985Y12907D01*
X0555Y12956D02*
X1985Y12956D01*
X0555Y13006D02*
X1985Y13006D01*
X0555Y13055D02*
X1985Y13055D01*
X0555Y13105D02*
X1985Y13105D01*
X0555Y13155D02*
X1985Y13155D01*
X0555Y13204D02*
X1985Y13204D01*
X0555Y13254D02*
X1985Y13254D01*
X0555Y13303D02*
X1985Y13303D01*
X0555Y13353D02*
X1985Y13353D01*
X0555Y13402D02*
X1985Y13402D01*
X0555Y13452D02*
X1985Y13452D01*
X0555Y13501D02*
X1985Y13501D01*
X0555Y13551D02*
X1985Y13551D01*
X0555Y13600D02*
X1985Y13600D01*
X0555Y13650D02*
X1985Y13650D01*
X0555Y13699D02*
X1985Y13699D01*
X0555Y13749D02*
X1985Y13749D01*
X0555Y13798D02*
X1985Y13798D01*
X0555Y13848D02*
X1985Y13848D01*
X0555Y13897D02*
X1985Y13897D01*
X0555Y13947D02*
X1985Y13947D01*
X0555Y13997D02*
X1985Y13997D01*
X0555Y14046D02*
X1985Y14046D01*
X0555Y14096D02*
X1985Y14096D01*
X0555Y14145D02*
X1985Y14145D01*
X0555Y14195D02*
X1985Y14195D01*
X0555Y14244D02*
X1985Y14244D01*
X0555Y14294D02*
X1985Y14294D01*
X0555Y14343D02*
X1985Y14343D01*
X0555Y14393D02*
X1985Y14393D01*
X0555Y14442D02*
X1985Y14442D01*
X0555Y14492D02*
X1985Y14492D01*
X0555Y14541D02*
X1985Y14541D01*
X0555Y14591D02*
X1985Y14591D01*
X0555Y14640D02*
X1985Y14640D01*
X0555Y14690D02*
X1985Y14690D01*
X0555Y14739D02*
X1985Y14739D01*
X0555Y14789D02*
X1985Y14789D01*
X0555Y14839D02*
X1985Y14839D01*
X0555Y14888D02*
X1985Y14888D01*
X0555Y14938D02*
X1985Y14938D01*
X0555Y14987D02*
X1985Y14987D01*
X0555Y15037D02*
X1985Y15037D01*
X0555Y15086D02*
X1985Y15086D01*
X0555Y15136D02*
X1985Y15136D01*
X0555Y15185D02*
X1985Y15185D01*
X0555Y15235D02*
X1985Y15235D01*
X0555Y15284D02*
X1985Y15284D01*
X0555Y15334D02*
X1985Y15334D01*
X0555Y15383D02*
X1985Y15383D01*
X0555Y15433D02*
X1985Y15433D01*
X0555Y15482D02*
X1985Y15482D01*
X0555Y15532D02*
X1985Y15532D01*
X0555Y15581D02*
X1985Y15581D01*
X0555Y15631D02*
X1985Y15631D01*
X0555Y15681D02*
X1985Y15681D01*
X0682Y15730D02*
X1858Y15730D01*
X0775Y15780D02*
X1765Y15780D01*
X0832Y15829D02*
X1708Y15829D01*
X0873Y15879D02*
X1667Y15879D01*
X0903Y15928D02*
X1637Y15928D01*
X0924Y15978D02*
X1616Y15978D01*
X0938Y16027D02*
X1602Y16027D01*
X0947Y16077D02*
X1593Y16077D01*
X0950Y16126D02*
X1590Y16126D01*
X0950Y16176D02*
X1590Y16176D01*
X0950Y16225D02*
X1590Y16225D01*
X0950Y16275D02*
X1590Y16275D01*
X0950Y16324D02*
X1590Y16324D01*
X0950Y16374D02*
X1590Y16374D01*
X0950Y16424D02*
X1590Y16424D01*
X0950Y16473D02*
X1590Y16473D01*
X0950Y16523D02*
X1590Y16523D01*
X0950Y16572D02*
X1590Y16572D01*
X0950Y16622D02*
X1590Y16622D01*
X0950Y16671D02*
X1590Y16671D01*
X0950Y16721D02*
X1590Y16721D01*
X0950Y16770D02*
X1590Y16770D01*
X0950Y16820D02*
X1590Y16820D01*
X0950Y16869D02*
X1590Y16869D01*
X0950Y16919D02*
X1590Y16919D01*
X0950Y16968D02*
X1590Y16968D01*
X0950Y17018D02*
X1590Y17018D01*
X0950Y17067D02*
X1590Y17067D01*
X0950Y17117D02*
X1590Y17117D01*
X0950Y17166D02*
X1590Y17166D01*
X0950Y17216D02*
X1590Y17216D01*
X0950Y17266D02*
X1590Y17266D01*
X0950Y17315D02*
X1590Y17315D01*
X0950Y17365D02*
X1590Y17365D01*
X0950Y17414D02*
X1590Y17414D01*
X0950Y17464D02*
X1590Y17464D01*
X0950Y17513D02*
X1590Y17513D01*
X0950Y17563D02*
X1590Y17563D01*
X0950Y17612D02*
X1590Y17612D01*
X0950Y17662D02*
X1590Y17662D01*
X0950Y17711D02*
X1590Y17711D01*
X0950Y17761D02*
X1590Y17761D01*
X0950Y17810D02*
X1590Y17810D01*
X0950Y17860D02*
X1590Y17860D01*
X0950Y17909D02*
X1590Y17909D01*
X0950Y17959D02*
X1590Y17959D01*
X0950Y18008D02*
X1590Y18008D01*
X0950Y18058D02*
X1590Y18058D01*
X0950Y18108D02*
X1590Y18108D01*
X0950Y18157D02*
X1590Y18157D01*
X0950Y18207D02*
X1590Y18207D01*
X0950Y18256D02*
X1590Y18256D01*
X0950Y18306D02*
X1590Y18306D01*
X0950Y18355D02*
X1590Y18355D01*
X0950Y18405D02*
X1590Y18405D01*
X0950Y18454D02*
X1590Y18454D01*
X0950Y18504D02*
X1590Y18504D01*
X0950Y18553D02*
X1590Y18553D01*
X0950Y18603D02*
X1590Y18603D01*
X0950Y18652D02*
X1590Y18652D01*
X0950Y18702D02*
X1590Y18702D01*
X0950Y18751D02*
X1590Y18751D01*
X0950Y18801D02*
X1590Y18801D01*
X0950Y18850D02*
X1590Y18850D01*
X0950Y18900D02*
X1590Y18900D01*
X0950Y18950D02*
X1590Y18950D01*
X0950Y18999D02*
X1590Y18999D01*
X0950Y19049D02*
X1590Y19049D01*
X0950Y19098D02*
X1590Y19098D01*
X0950Y19148D02*
X1590Y19148D01*
X0950Y19197D02*
X1590Y19197D01*
X0950Y19247D02*
X1590Y19247D01*
X0950Y19296D02*
X1590Y19296D01*
X0950Y19346D02*
X1590Y19346D01*
X0950Y19395D02*
X1590Y19395D01*
X0950Y19445D02*
X1590Y19445D01*
X0950Y19494D02*
X1590Y19494D01*
X-0555Y-4166D02*
X-0555Y-4166D01*
X-0555Y15695*
X-0659Y15720*
X-0659Y15720*
X-0720Y15746*
X-0720Y15746*
X-0777Y15780*
X-0777Y15780*
X-0827Y15823*
X-0827Y15823*
X-0870Y15873*
X-0870Y15873*
X-0904Y15930*
X-0904Y15930*
X-0930Y15991*
X-0930Y15991*
X-0945Y16055*
X-0945Y16055*
X-0950Y16121*
X-0950Y16121*
X-0950Y19508*
X-1590Y19508*
X-1590Y16121*
X-1590Y16121*
X-1595Y16055*
X-1595Y16055*
X-1610Y15991*
X-1610Y15991*
X-1636Y15930*
X-1636Y15930*
X-1670Y15873*
X-1670Y15873*
X-1713Y15823*
X-1713Y15823*
X-1763Y15780*
X-1763Y15780*
X-1820Y15746*
X-1820Y15746*
X-1881Y15720*
X-1881Y15720*
X-1985Y15695*
X-1985Y-4415*
X-1985Y-4415*
X-1995Y-4523*
X-1995Y-4523*
X-2027Y-4627*
X-2027Y-4627*
X-2078Y-4723*
X-2078Y-4723*
X-2147Y-4808*
X-2147Y-4808*
X-3318Y-5978*
X-3258Y-6149*
X-3258Y-6149*
X-3224Y-6450*
X-3224Y-6450*
X-3257Y-6748*
X-3176Y-6787*
X-0555Y-4166*
X-3256Y-6738D02*
X-3127Y-6738D01*
X-3251Y-6689D02*
X-3077Y-6689D01*
X-3245Y-6639D02*
X-3028Y-6639D01*
X-3240Y-6589D02*
X-2978Y-6589D01*
X-3234Y-6540D02*
X-2929Y-6540D01*
X-3229Y-6490D02*
X-2879Y-6490D01*
X-3225Y-6441D02*
X-2830Y-6441D01*
X-3231Y-6391D02*
X-2780Y-6391D01*
X-3236Y-6342D02*
X-2731Y-6342D01*
X-3242Y-6292D02*
X-2681Y-6292D01*
X-3247Y-6243D02*
X-2632Y-6243D01*
X-3253Y-6193D02*
X-2582Y-6193D01*
X-3260Y-6144D02*
X-2533Y-6144D01*
X-3277Y-6094D02*
X-2483Y-6094D01*
X-3295Y-6045D02*
X-2433Y-6045D01*
X-3312Y-5995D02*
X-2384Y-5995D01*
X-3286Y-5946D02*
X-2334Y-5946D01*
X-3236Y-5896D02*
X-2285Y-5896D01*
X-3187Y-5847D02*
X-2235Y-5847D01*
X-3137Y-5797D02*
X-2186Y-5797D01*
X-3088Y-5747D02*
X-2136Y-5747D01*
X-3038Y-5698D02*
X-2087Y-5698D01*
X-2989Y-5648D02*
X-2037Y-5648D01*
X-2939Y-5599D02*
X-1988Y-5599D01*
X-2889Y-5549D02*
X-1938Y-5549D01*
X-2840Y-5500D02*
X-1889Y-5500D01*
X-2790Y-5450D02*
X-1839Y-5450D01*
X-2741Y-5401D02*
X-1790Y-5401D01*
X-2691Y-5351D02*
X-1740Y-5351D01*
X-2642Y-5302D02*
X-1691Y-5302D01*
X-2592Y-5252D02*
X-1641Y-5252D01*
X-2543Y-5203D02*
X-1591Y-5203D01*
X-2493Y-5153D02*
X-1542Y-5153D01*
X-2444Y-5104D02*
X-1492Y-5104D01*
X-2394Y-5054D02*
X-1443Y-5054D01*
X-2345Y-5005D02*
X-1393Y-5005D01*
X-2295Y-4955D02*
X-1344Y-4955D01*
X-2246Y-4905D02*
X-1294Y-4905D01*
X-2196Y-4856D02*
X-1245Y-4856D01*
X-2147Y-4806D02*
X-1195Y-4806D01*
X-2106Y-4757D02*
X-1146Y-4757D01*
X-2070Y-4707D02*
X-1096Y-4707D01*
X-2044Y-4658D02*
X-1047Y-4658D01*
X-2021Y-4608D02*
X-0997Y-4608D01*
X-2006Y-4559D02*
X-0948Y-4559D01*
X-1994Y-4509D02*
X-0898Y-4509D01*
X-1989Y-4460D02*
X-0849Y-4460D01*
X-1985Y-4410D02*
X-0799Y-4410D01*
X-1985Y-4361D02*
X-0749Y-4361D01*
X-1985Y-4311D02*
X-0700Y-4311D01*
X-1985Y-4262D02*
X-0650Y-4262D01*
X-1985Y-4212D02*
X-0601Y-4212D01*
X-1985Y-4163D02*
X-0555Y-4163D01*
X-1985Y-4113D02*
X-0555Y-4113D01*
X-1985Y-4063D02*
X-0555Y-4063D01*
X-1985Y-4014D02*
X-0555Y-4014D01*
X-1985Y-3964D02*
X-0555Y-3964D01*
X-1985Y-3915D02*
X-0555Y-3915D01*
X-1985Y-3865D02*
X-0555Y-3865D01*
X-1985Y-3816D02*
X-0555Y-3816D01*
X-1985Y-3766D02*
X-0555Y-3766D01*
X-1985Y-3717D02*
X-0555Y-3717D01*
X-1985Y-3667D02*
X-0555Y-3667D01*
X-1985Y-3618D02*
X-0555Y-3618D01*
X-1985Y-3568D02*
X-0555Y-3568D01*
X-1985Y-3519D02*
X-0555Y-3519D01*
X-1985Y-3469D02*
X-0555Y-3469D01*
X-1985Y-3420D02*
X-0555Y-3420D01*
X-1985Y-3370D02*
X-0555Y-3370D01*
X-1985Y-3321D02*
X-0555Y-3321D01*
X-1985Y-3271D02*
X-0555Y-3271D01*
X-1985Y-3221D02*
X-0555Y-3221D01*
X-1985Y-3172D02*
X-0555Y-3172D01*
X-1985Y-3122D02*
X-0555Y-3122D01*
X-1985Y-3073D02*
X-0555Y-3073D01*
X-1985Y-3023D02*
X-0555Y-3023D01*
X-1985Y-2974D02*
X-0555Y-2974D01*
X-1985Y-2924D02*
X-0555Y-2924D01*
X-1985Y-2875D02*
X-0555Y-2875D01*
X-1985Y-2825D02*
X-0555Y-2825D01*
X-1985Y-2776D02*
X-0555Y-2776D01*
X-1985Y-2726D02*
X-0555Y-2726D01*
X-1985Y-2677D02*
X-0555Y-2677D01*
X-1985Y-2627D02*
X-0555Y-2627D01*
X-1985Y-2578D02*
X-0555Y-2578D01*
X-1985Y-2528D02*
X-0555Y-2528D01*
X-1985Y-2478D02*
X-0555Y-2478D01*
X-1985Y-2429D02*
X-0555Y-2429D01*
X-1985Y-2379D02*
X-0555Y-2379D01*
X-1985Y-2330D02*
X-0555Y-2330D01*
X-1985Y-2280D02*
X-0555Y-2280D01*
X-1985Y-2231D02*
X-0555Y-2231D01*
X-1985Y-2181D02*
X-0555Y-2181D01*
X-1985Y-2132D02*
X-0555Y-2132D01*
X-1985Y-2082D02*
X-0555Y-2082D01*
X-1985Y-2033D02*
X-0555Y-2033D01*
X-1985Y-1983D02*
X-0555Y-1983D01*
X-1985Y-1934D02*
X-0555Y-1934D01*
X-1985Y-1884D02*
X-0555Y-1884D01*
X-1985Y-1835D02*
X-0555Y-1835D01*
X-1985Y-1785D02*
X-0555Y-1785D01*
X-1985Y-1736D02*
X-0555Y-1736D01*
X-1985Y-1686D02*
X-0555Y-1686D01*
X-1985Y-1636D02*
X-0555Y-1636D01*
X-1985Y-1587D02*
X-0555Y-1587D01*
X-1985Y-1537D02*
X-0555Y-1537D01*
X-1985Y-1488D02*
X-0555Y-1488D01*
X-1985Y-1438D02*
X-0555Y-1438D01*
X-1985Y-1389D02*
X-0555Y-1389D01*
X-1985Y-1339D02*
X-0555Y-1339D01*
X-1985Y-1290D02*
X-0555Y-1290D01*
X-1985Y-1240D02*
X-0555Y-1240D01*
X-1985Y-1191D02*
X-0555Y-1191D01*
X-1985Y-1141D02*
X-0555Y-1141D01*
X-1985Y-1092D02*
X-0555Y-1092D01*
X-1985Y-1042D02*
X-0555Y-1042D01*
X-1985Y-0993D02*
X-0555Y-0993D01*
X-1985Y-0943D02*
X-0555Y-0943D01*
X-1985Y-0894D02*
X-0555Y-0894D01*
X-1985Y-0844D02*
X-0555Y-0844D01*
X-1985Y-0794D02*
X-0555Y-0794D01*
X-1985Y-0745D02*
X-0555Y-0745D01*
X-1985Y-0695D02*
X-0555Y-0695D01*
X-1985Y-0646D02*
X-0555Y-0646D01*
X-1985Y-0596D02*
X-0555Y-0596D01*
X-1985Y-0547D02*
X-0555Y-0547D01*
X-1985Y-0497D02*
X-0555Y-0497D01*
X-1985Y-0448D02*
X-0555Y-0448D01*
X-1985Y-0398D02*
X-0555Y-0398D01*
X-1985Y-0349D02*
X-0555Y-0349D01*
X-1985Y-0299D02*
X-0555Y-0299D01*
X-1985Y-0250D02*
X-0555Y-0250D01*
X-1985Y-0200D02*
X-0555Y-0200D01*
X-1985Y-0151D02*
X-0555Y-0151D01*
X-1985Y-0101D02*
X-0555Y-0101D01*
X-1985Y-0052D02*
X-0555Y-0052D01*
X-1985Y-0002D02*
X-0555Y-0002D01*
X-1985Y0048D02*
X-0555Y0048D01*
X-1985Y0097D02*
X-0555Y0097D01*
X-1985Y0147D02*
X-0555Y0147D01*
X-1985Y0196D02*
X-0555Y0196D01*
X-1985Y0246D02*
X-0555Y0246D01*
X-1985Y0295D02*
X-0555Y0295D01*
X-1985Y0345D02*
X-0555Y0345D01*
X-1985Y0394D02*
X-0555Y0394D01*
X-1985Y0444D02*
X-0555Y0444D01*
X-1985Y0493D02*
X-0555Y0493D01*
X-1985Y0543D02*
X-0555Y0543D01*
X-1985Y0592D02*
X-0555Y0592D01*
X-1985Y0642D02*
X-0555Y0642D01*
X-1985Y0691D02*
X-0555Y0691D01*
X-1985Y0741D02*
X-0555Y0741D01*
X-1985Y0790D02*
X-0555Y0790D01*
X-1985Y0840D02*
X-0555Y0840D01*
X-1985Y0890D02*
X-0555Y0890D01*
X-1985Y0939D02*
X-0555Y0939D01*
X-1985Y0989D02*
X-0555Y0989D01*
X-1985Y1038D02*
X-0555Y1038D01*
X-1985Y1088D02*
X-0555Y1088D01*
X-1985Y1137D02*
X-0555Y1137D01*
X-1985Y1187D02*
X-0555Y1187D01*
X-1985Y1236D02*
X-0555Y1236D01*
X-1985Y1286D02*
X-0555Y1286D01*
X-1985Y1335D02*
X-0555Y1335D01*
X-1985Y1385D02*
X-0555Y1385D01*
X-1985Y1434D02*
X-0555Y1434D01*
X-1985Y1484D02*
X-0555Y1484D01*
X-1985Y1533D02*
X-0555Y1533D01*
X-1985Y1583D02*
X-0555Y1583D01*
X-1985Y1632D02*
X-0555Y1632D01*
X-1985Y1682D02*
X-0555Y1682D01*
X-1985Y1732D02*
X-0555Y1732D01*
X-1985Y1781D02*
X-0555Y1781D01*
X-1985Y1831D02*
X-0555Y1831D01*
X-1985Y1880D02*
X-0555Y1880D01*
X-1985Y1930D02*
X-0555Y1930D01*
X-1985Y1979D02*
X-0555Y1979D01*
X-1985Y2029D02*
X-0555Y2029D01*
X-1985Y2078D02*
X-0555Y2078D01*
X-1985Y2128D02*
X-0555Y2128D01*
X-1985Y2177D02*
X-0555Y2177D01*
X-1985Y2227D02*
X-0555Y2227D01*
X-1985Y2276D02*
X-0555Y2276D01*
X-1985Y2326D02*
X-0555Y2326D01*
X-1985Y2375D02*
X-0555Y2375D01*
X-1985Y2425D02*
X-0555Y2425D01*
X-1985Y2475D02*
X-0555Y2475D01*
X-1985Y2524D02*
X-0555Y2524D01*
X-1985Y2574D02*
X-0555Y2574D01*
X-1985Y2623D02*
X-0555Y2623D01*
X-1985Y2673D02*
X-0555Y2673D01*
X-1985Y2722D02*
X-0555Y2722D01*
X-1985Y2772D02*
X-0555Y2772D01*
X-1985Y2821D02*
X-0555Y2821D01*
X-1985Y2871D02*
X-0555Y2871D01*
X-1985Y2920D02*
X-0555Y2920D01*
X-1985Y2970D02*
X-0555Y2970D01*
X-1985Y3019D02*
X-0555Y3019D01*
X-1985Y3069D02*
X-0555Y3069D01*
X-1985Y3118D02*
X-0555Y3118D01*
X-1985Y3168D02*
X-0555Y3168D01*
X-1985Y3217D02*
X-0555Y3217D01*
X-1985Y3267D02*
X-0555Y3267D01*
X-1985Y3317D02*
X-0555Y3317D01*
X-1985Y3366D02*
X-0555Y3366D01*
X-1985Y3416D02*
X-0555Y3416D01*
X-1985Y3465D02*
X-0555Y3465D01*
X-1985Y3515D02*
X-0555Y3515D01*
X-1985Y3564D02*
X-0555Y3564D01*
X-1985Y3614D02*
X-0555Y3614D01*
X-1985Y3663D02*
X-0555Y3663D01*
X-1985Y3713D02*
X-0555Y3713D01*
X-1985Y3762D02*
X-0555Y3762D01*
X-1985Y3812D02*
X-0555Y3812D01*
X-1985Y3861D02*
X-0555Y3861D01*
X-1985Y3911D02*
X-0555Y3911D01*
X-1985Y3960D02*
X-0555Y3960D01*
X-1985Y4010D02*
X-0555Y4010D01*
X-1985Y4059D02*
X-0555Y4059D01*
X-1985Y4109D02*
X-0555Y4109D01*
X-1985Y4159D02*
X-0555Y4159D01*
X-1985Y4208D02*
X-0555Y4208D01*
X-1985Y4258D02*
X-0555Y4258D01*
X-1985Y4307D02*
X-0555Y4307D01*
X-1985Y4357D02*
X-0555Y4357D01*
X-1985Y4406D02*
X-0555Y4406D01*
X-1985Y4456D02*
X-0555Y4456D01*
X-1985Y4505D02*
X-0555Y4505D01*
X-1985Y4555D02*
X-0555Y4555D01*
X-1985Y4604D02*
X-0555Y4604D01*
X-1985Y4654D02*
X-0555Y4654D01*
X-1985Y4703D02*
X-0555Y4703D01*
X-1985Y4753D02*
X-0555Y4753D01*
X-1985Y4802D02*
X-0555Y4802D01*
X-1985Y4852D02*
X-0555Y4852D01*
X-1985Y4901D02*
X-0555Y4901D01*
X-1985Y4951D02*
X-0555Y4951D01*
X-1985Y5001D02*
X-0555Y5001D01*
X-1985Y5050D02*
X-0555Y5050D01*
X-1985Y5100D02*
X-0555Y5100D01*
X-1985Y5149D02*
X-0555Y5149D01*
X-1985Y5199D02*
X-0555Y5199D01*
X-1985Y5248D02*
X-0555Y5248D01*
X-1985Y5298D02*
X-0555Y5298D01*
X-1985Y5347D02*
X-0555Y5347D01*
X-1985Y5397D02*
X-0555Y5397D01*
X-1985Y5446D02*
X-0555Y5446D01*
X-1985Y5496D02*
X-0555Y5496D01*
X-1985Y5545D02*
X-0555Y5545D01*
X-1985Y5595D02*
X-0555Y5595D01*
X-1985Y5644D02*
X-0555Y5644D01*
X-1985Y5694D02*
X-0555Y5694D01*
X-1985Y5743D02*
X-0555Y5743D01*
X-1985Y5793D02*
X-0555Y5793D01*
X-1985Y5843D02*
X-0555Y5843D01*
X-1985Y5892D02*
X-0555Y5892D01*
X-1985Y5942D02*
X-0555Y5942D01*
X-1985Y5991D02*
X-0555Y5991D01*
X-1985Y6041D02*
X-0555Y6041D01*
X-1985Y6090D02*
X-0555Y6090D01*
X-1985Y6140D02*
X-0555Y6140D01*
X-1985Y6189D02*
X-0555Y6189D01*
X-1985Y6239D02*
X-0555Y6239D01*
X-1985Y6288D02*
X-0555Y6288D01*
X-1985Y6338D02*
X-0555Y6338D01*
X-1985Y6387D02*
X-0555Y6387D01*
X-1985Y6437D02*
X-0555Y6437D01*
X-1985Y6486D02*
X-0555Y6486D01*
X-1985Y6536D02*
X-0555Y6536D01*
X-1985Y6585D02*
X-0555Y6585D01*
X-1985Y6635D02*
X-0555Y6635D01*
X-1985Y6685D02*
X-0555Y6685D01*
X-1985Y6734D02*
X-0555Y6734D01*
X-1985Y6784D02*
X-0555Y6784D01*
X-1985Y6833D02*
X-0555Y6833D01*
X-1985Y6883D02*
X-0555Y6883D01*
X-1985Y6932D02*
X-0555Y6932D01*
X-1985Y6982D02*
X-0555Y6982D01*
X-1985Y7031D02*
X-0555Y7031D01*
X-1985Y7081D02*
X-0555Y7081D01*
X-1985Y7130D02*
X-0555Y7130D01*
X-1985Y7180D02*
X-0555Y7180D01*
X-1985Y7229D02*
X-0555Y7229D01*
X-1985Y7279D02*
X-0555Y7279D01*
X-1985Y7328D02*
X-0555Y7328D01*
X-1985Y7378D02*
X-0555Y7378D01*
X-1985Y7428D02*
X-0555Y7428D01*
X-1985Y7477D02*
X-0555Y7477D01*
X-1985Y7527D02*
X-0555Y7527D01*
X-1985Y7576D02*
X-0555Y7576D01*
X-1985Y7626D02*
X-0555Y7626D01*
X-1985Y7675D02*
X-0555Y7675D01*
X-1985Y7725D02*
X-0555Y7725D01*
X-1985Y7774D02*
X-0555Y7774D01*
X-1985Y7824D02*
X-0555Y7824D01*
X-1985Y7873D02*
X-0555Y7873D01*
X-1985Y7923D02*
X-0555Y7923D01*
X-1985Y7972D02*
X-0555Y7972D01*
X-1985Y8022D02*
X-0555Y8022D01*
X-1985Y8071D02*
X-0555Y8071D01*
X-1985Y8121D02*
X-0555Y8121D01*
X-1985Y8170D02*
X-0555Y8170D01*
X-1985Y8220D02*
X-0555Y8220D01*
X-1985Y8270D02*
X-0555Y8270D01*
X-1985Y8319D02*
X-0555Y8319D01*
X-1985Y8369D02*
X-0555Y8369D01*
X-1985Y8418D02*
X-0555Y8418D01*
X-1985Y8468D02*
X-0555Y8468D01*
X-1985Y8517D02*
X-0555Y8517D01*
X-1985Y8567D02*
X-0555Y8567D01*
X-1985Y8616D02*
X-0555Y8616D01*
X-1985Y8666D02*
X-0555Y8666D01*
X-1985Y8715D02*
X-0555Y8715D01*
X-1985Y8765D02*
X-0555Y8765D01*
X-1985Y8814D02*
X-0555Y8814D01*
X-1985Y8864D02*
X-0555Y8864D01*
X-1985Y8913D02*
X-0555Y8913D01*
X-1985Y8963D02*
X-0555Y8963D01*
X-1985Y9012D02*
X-0555Y9012D01*
X-1985Y9062D02*
X-0555Y9062D01*
X-1985Y9112D02*
X-0555Y9112D01*
X-1985Y9161D02*
X-0555Y9161D01*
X-1985Y9211D02*
X-0555Y9211D01*
X-1985Y9260D02*
X-0555Y9260D01*
X-1985Y9310D02*
X-0555Y9310D01*
X-1985Y9359D02*
X-0555Y9359D01*
X-1985Y9409D02*
X-0555Y9409D01*
X-1985Y9458D02*
X-0555Y9458D01*
X-1985Y9508D02*
X-0555Y9508D01*
X-1985Y9557D02*
X-0555Y9557D01*
X-1985Y9607D02*
X-0555Y9607D01*
X-1985Y9656D02*
X-0555Y9656D01*
X-1985Y9706D02*
X-0555Y9706D01*
X-1985Y9755D02*
X-0555Y9755D01*
X-1985Y9805D02*
X-0555Y9805D01*
X-1985Y9854D02*
X-0555Y9854D01*
X-1985Y9904D02*
X-0555Y9904D01*
X-1985Y9954D02*
X-0555Y9954D01*
X-1985Y10003D02*
X-0555Y10003D01*
X-1985Y10053D02*
X-0555Y10053D01*
X-1985Y10102D02*
X-0555Y10102D01*
X-1985Y10152D02*
X-0555Y10152D01*
X-1985Y10201D02*
X-0555Y10201D01*
X-1985Y10251D02*
X-0555Y10251D01*
X-1985Y10300D02*
X-0555Y10300D01*
X-1985Y10350D02*
X-0555Y10350D01*
X-1985Y10399D02*
X-0555Y10399D01*
X-1985Y10449D02*
X-0555Y10449D01*
X-1985Y10498D02*
X-0555Y10498D01*
X-1985Y10548D02*
X-0555Y10548D01*
X-1985Y10597D02*
X-0555Y10597D01*
X-1985Y10647D02*
X-0555Y10647D01*
X-1985Y10696D02*
X-0555Y10696D01*
X-1985Y10746D02*
X-0555Y10746D01*
X-1985Y10796D02*
X-0555Y10796D01*
X-1985Y10845D02*
X-0555Y10845D01*
X-1985Y10895D02*
X-0555Y10895D01*
X-1985Y10944D02*
X-0555Y10944D01*
X-1985Y10994D02*
X-0555Y10994D01*
X-1985Y11043D02*
X-0555Y11043D01*
X-1985Y11093D02*
X-0555Y11093D01*
X-1985Y11142D02*
X-0555Y11142D01*
X-1985Y11192D02*
X-0555Y11192D01*
X-1985Y11241D02*
X-0555Y11241D01*
X-1985Y11291D02*
X-0555Y11291D01*
X-1985Y11340D02*
X-0555Y11340D01*
X-1985Y11390D02*
X-0555Y11390D01*
X-1985Y11439D02*
X-0555Y11439D01*
X-1985Y11489D02*
X-0555Y11489D01*
X-1985Y11538D02*
X-0555Y11538D01*
X-1985Y11588D02*
X-0555Y11588D01*
X-1985Y11638D02*
X-0555Y11638D01*
X-1985Y11687D02*
X-0555Y11687D01*
X-1985Y11737D02*
X-0555Y11737D01*
X-1985Y11786D02*
X-0555Y11786D01*
X-1985Y11836D02*
X-0555Y11836D01*
X-1985Y11885D02*
X-0555Y11885D01*
X-1985Y11935D02*
X-0555Y11935D01*
X-1985Y11984D02*
X-0555Y11984D01*
X-1985Y12034D02*
X-0555Y12034D01*
X-1985Y12083D02*
X-0555Y12083D01*
X-1985Y12133D02*
X-0555Y12133D01*
X-1985Y12182D02*
X-0555Y12182D01*
X-1985Y12232D02*
X-0555Y12232D01*
X-1985Y12281D02*
X-0555Y12281D01*
X-1985Y12331D02*
X-0555Y12331D01*
X-1985Y12381D02*
X-0555Y12381D01*
X-1985Y12430D02*
X-0555Y12430D01*
X-1985Y12480D02*
X-0555Y12480D01*
X-1985Y12529D02*
X-0555Y12529D01*
X-1985Y12579D02*
X-0555Y12579D01*
X-1985Y12628D02*
X-0555Y12628D01*
X-1985Y12678D02*
X-0555Y12678D01*
X-1985Y12727D02*
X-0555Y12727D01*
X-1985Y12777D02*
X-0555Y12777D01*
X-1985Y12826D02*
X-0555Y12826D01*
X-1985Y12876D02*
X-0555Y12876D01*
X-1985Y12925D02*
X-0555Y12925D01*
X-1985Y12975D02*
X-0555Y12975D01*
X-1985Y13024D02*
X-0555Y13024D01*
X-1985Y13074D02*
X-0555Y13074D01*
X-1985Y13123D02*
X-0555Y13123D01*
X-1985Y13173D02*
X-0555Y13173D01*
X-1985Y13223D02*
X-0555Y13223D01*
X-1985Y13272D02*
X-0555Y13272D01*
X-1985Y13322D02*
X-0555Y13322D01*
X-1985Y13371D02*
X-0555Y13371D01*
X-1985Y13421D02*
X-0555Y13421D01*
X-1985Y13470D02*
X-0555Y13470D01*
X-1985Y13520D02*
X-0555Y13520D01*
X-1985Y13569D02*
X-0555Y13569D01*
X-1985Y13619D02*
X-0555Y13619D01*
X-1985Y13668D02*
X-0555Y13668D01*
X-1985Y13718D02*
X-0555Y13718D01*
X-1985Y13767D02*
X-0555Y13767D01*
X-1985Y13817D02*
X-0555Y13817D01*
X-1985Y13866D02*
X-0555Y13866D01*
X-1985Y13916D02*
X-0555Y13916D01*
X-1985Y13965D02*
X-0555Y13965D01*
X-1985Y14015D02*
X-0555Y14015D01*
X-1985Y14065D02*
X-0555Y14065D01*
X-1985Y14114D02*
X-0555Y14114D01*
X-1985Y14164D02*
X-0555Y14164D01*
X-1985Y14213D02*
X-0555Y14213D01*
X-1985Y14263D02*
X-0555Y14263D01*
X-1985Y14312D02*
X-0555Y14312D01*
X-1985Y14362D02*
X-0555Y14362D01*
X-1985Y14411D02*
X-0555Y14411D01*
X-1985Y14461D02*
X-0555Y14461D01*
X-1985Y14510D02*
X-0555Y14510D01*
X-1985Y14560D02*
X-0555Y14560D01*
X-1985Y14609D02*
X-0555Y14609D01*
X-1985Y14659D02*
X-0555Y14659D01*
X-1985Y14708D02*
X-0555Y14708D01*
X-1985Y14758D02*
X-0555Y14758D01*
X-1985Y14807D02*
X-0555Y14807D01*
X-1985Y14857D02*
X-0555Y14857D01*
X-1985Y14907D02*
X-0555Y14907D01*
X-1985Y14956D02*
X-0555Y14956D01*
X-1985Y15006D02*
X-0555Y15006D01*
X-1985Y15055D02*
X-0555Y15055D01*
X-1985Y15105D02*
X-0555Y15105D01*
X-1985Y15154D02*
X-0555Y15154D01*
X-1985Y15204D02*
X-0555Y15204D01*
X-1985Y15253D02*
X-0555Y15253D01*
X-1985Y15303D02*
X-0555Y15303D01*
X-1985Y15352D02*
X-0555Y15352D01*
X-1985Y15402D02*
X-0555Y15402D01*
X-1985Y15451D02*
X-0555Y15451D01*
X-1985Y15501D02*
X-0555Y15501D01*
X-1985Y15550D02*
X-0555Y15550D01*
X-1985Y15600D02*
X-0555Y15600D01*
X-1985Y15649D02*
X-0555Y15649D01*
X-1971Y15699D02*
X-0569Y15699D01*
X-1816Y15749D02*
X-0724Y15749D01*
X-1743Y15798D02*
X-0797Y15798D01*
X-1693Y15848D02*
X-0847Y15848D01*
X-1656Y15897D02*
X-0884Y15897D01*
X-1629Y15947D02*
X-0911Y15947D01*
X-1609Y15996D02*
X-0931Y15996D01*
X-1597Y16046D02*
X-0943Y16046D01*
X-1592Y16095D02*
X-0948Y16095D01*
X-1590Y16145D02*
X-0950Y16145D01*
X-1590Y16194D02*
X-0950Y16194D01*
X-1590Y16244D02*
X-0950Y16244D01*
X-1590Y16293D02*
X-0950Y16293D01*
X-1590Y16343D02*
X-0950Y16343D01*
X-1590Y16392D02*
X-0950Y16392D01*
X-1590Y16442D02*
X-0950Y16442D01*
X-1590Y16491D02*
X-0950Y16491D01*
X-1590Y16541D02*
X-0950Y16541D01*
X-1590Y16591D02*
X-0950Y16591D01*
X-1590Y16640D02*
X-0950Y16640D01*
X-1590Y16690D02*
X-0950Y16690D01*
X-1590Y16739D02*
X-0950Y16739D01*
X-1590Y16789D02*
X-0950Y16789D01*
X-1590Y16838D02*
X-0950Y16838D01*
X-1590Y16888D02*
X-0950Y16888D01*
X-1590Y16937D02*
X-0950Y16937D01*
X-1590Y16987D02*
X-0950Y16987D01*
X-1590Y17036D02*
X-0950Y17036D01*
X-1590Y17086D02*
X-0950Y17086D01*
X-1590Y17135D02*
X-0950Y17135D01*
X-1590Y17185D02*
X-0950Y17185D01*
X-1590Y17234D02*
X-0950Y17234D01*
X-1590Y17284D02*
X-0950Y17284D01*
X-1590Y17334D02*
X-0950Y17334D01*
X-1590Y17383D02*
X-0950Y17383D01*
X-1590Y17433D02*
X-0950Y17433D01*
X-1590Y17482D02*
X-0950Y17482D01*
X-1590Y17532D02*
X-0950Y17532D01*
X-1590Y17581D02*
X-0950Y17581D01*
X-1590Y17631D02*
X-0950Y17631D01*
X-1590Y17680D02*
X-0950Y17680D01*
X-1590Y17730D02*
X-0950Y17730D01*
X-1590Y17779D02*
X-0950Y17779D01*
X-1590Y17829D02*
X-0950Y17829D01*
X-1590Y17878D02*
X-0950Y17878D01*
X-1590Y17928D02*
X-0950Y17928D01*
X-1590Y17977D02*
X-0950Y17977D01*
X-1590Y18027D02*
X-0950Y18027D01*
X-1590Y18076D02*
X-0950Y18076D01*
X-1590Y18126D02*
X-0950Y18126D01*
X-1590Y18176D02*
X-0950Y18176D01*
X-1590Y18225D02*
X-0950Y18225D01*
X-1590Y18275D02*
X-0950Y18275D01*
X-1590Y18324D02*
X-0950Y18324D01*
X-1590Y18374D02*
X-0950Y18374D01*
X-1590Y18423D02*
X-0950Y18423D01*
X-1590Y18473D02*
X-0950Y18473D01*
X-1590Y18522D02*
X-0950Y18522D01*
X-1590Y18572D02*
X-0950Y18572D01*
X-1590Y18621D02*
X-0950Y18621D01*
X-1590Y18671D02*
X-0950Y18671D01*
X-1590Y18720D02*
X-0950Y18720D01*
X-1590Y18770D02*
X-0950Y18770D01*
X-1590Y18819D02*
X-0950Y18819D01*
X-1590Y18869D02*
X-0950Y18869D01*
X-1590Y18918D02*
X-0950Y18918D01*
X-1590Y18968D02*
X-0950Y18968D01*
X-1590Y19018D02*
X-0950Y19018D01*
X-1590Y19067D02*
X-0950Y19067D01*
X-1590Y19117D02*
X-0950Y19117D01*
X-1590Y19166D02*
X-0950Y19166D01*
X-1590Y19216D02*
X-0950Y19216D01*
X-1590Y19265D02*
X-0950Y19265D01*
X-1590Y19315D02*
X-0950Y19315D01*
X-1590Y19364D02*
X-0950Y19364D01*
X-1590Y19414D02*
X-0950Y19414D01*
X-1590Y19463D02*
X-0950Y19463D01*
X-4583Y-12775D02*
X-4583Y-12775D01*
X-4876Y-12742*
X-4876Y-12742*
X-5161Y-12642*
X-5161Y-12642*
X-5417Y-12481*
X-5418Y-12481*
X-5631Y-12268*
X-5631Y-12267*
X-5792Y-12011*
X-5792Y-12011*
X-5892Y-11726*
X-5892Y-11726*
X-5926Y-11425*
X-5926Y-11425*
X-5892Y-11124*
X-5892Y-11124*
X-5792Y-10839*
X-5792Y-10839*
X-5631Y-10583*
X-5631Y-10582*
X-5418Y-10369*
X-5417Y-10369*
X-5146Y-10198*
X-5417Y-10028*
X-5418Y-10027*
X-5631Y-9814*
X-5631Y-9814*
X-5792Y-9557*
X-5792Y-9557*
X-5892Y-9272*
X-5892Y-9272*
X-5926Y-8971*
X-5926Y-8971*
X-5892Y-8670*
X-5892Y-8670*
X-5792Y-8385*
X-5792Y-8385*
X-5631Y-8129*
X-5631Y-8129*
X-5418Y-7915*
X-5417Y-7915*
X-5093Y-7711*
X-5417Y-7506*
X-5418Y-7506*
X-5631Y-7293*
X-5631Y-7292*
X-5792Y-7036*
X-5792Y-7036*
X-5892Y-6751*
X-5892Y-6751*
X-5926Y-6450*
X-5926Y-6450*
X-5892Y-6149*
X-5892Y-6149*
X-5792Y-5864*
X-5792Y-5864*
X-5631Y-5608*
X-5631Y-5607*
X-5418Y-5394*
X-5417Y-5394*
X-5161Y-5233*
X-5161Y-5233*
X-4876Y-5133*
X-4876Y-5133*
X-4575Y-5099*
X-4575Y-5099*
X-4274Y-5133*
X-4274Y-5133*
X-4103Y-5193*
X-3095Y-4185*
X-3095Y15695*
X-3199Y15720*
X-3199Y15720*
X-3260Y15746*
X-3260Y15746*
X-3317Y15780*
X-3317Y15780*
X-3367Y15823*
X-3367Y15823*
X-3410Y15873*
X-3410Y15873*
X-3444Y15930*
X-3444Y15930*
X-3470Y15991*
X-3470Y15991*
X-3485Y16055*
X-3485Y16055*
X-3490Y16121*
X-3490Y16121*
X-3490Y19508*
X-4130Y19508*
X-4130Y16121*
X-4130Y16121*
X-4135Y16055*
X-4135Y16055*
X-4150Y15991*
X-4150Y15991*
X-4176Y15930*
X-4176Y15930*
X-4210Y15873*
X-4210Y15873*
X-4253Y15823*
X-4253Y15823*
X-4303Y15780*
X-4303Y15780*
X-4360Y15746*
X-4360Y15746*
X-4421Y15720*
X-4421Y15720*
X-4525Y15695*
X-4525Y-3905*
X-4525Y-3905*
X-4535Y-4013*
X-4535Y-4013*
X-4567Y-4117*
X-4567Y-4117*
X-4618Y-4213*
X-4618Y-4213*
X-4687Y-4298*
X-4687Y-4298*
X-6120Y-5730*
X-6120Y-12462*
X-5687Y-12895*
X-4590Y-12895*
X-4583Y-12775*
X-5737Y-12845D02*
X-4587Y-12845D01*
X-5786Y-12796D02*
X-4584Y-12796D01*
X-5836Y-12746D02*
X-4838Y-12746D01*
X-5885Y-12697D02*
X-5005Y-12697D01*
X-5935Y-12647D02*
X-5146Y-12647D01*
X-5984Y-12598D02*
X-5232Y-12598D01*
X-6034Y-12548D02*
X-5311Y-12548D01*
X-6083Y-12499D02*
X-5389Y-12499D01*
X-6120Y-12449D02*
X-5449Y-12449D01*
X-6120Y-12400D02*
X-5499Y-12400D01*
X-6120Y-12350D02*
X-5548Y-12350D01*
X-6120Y-12301D02*
X-5598Y-12301D01*
X-6120Y-12251D02*
X-5641Y-12251D01*
X-6120Y-12202D02*
X-5673Y-12202D01*
X-6120Y-12152D02*
X-5704Y-12152D01*
X-6120Y-12103D02*
X-5735Y-12103D01*
X-6120Y-12053D02*
X-5766Y-12053D01*
X-6120Y-12003D02*
X-5795Y-12003D01*
X-6120Y-11954D02*
X-5812Y-11954D01*
X-6120Y-11904D02*
X-5830Y-11904D01*
X-6120Y-11855D02*
X-5847Y-11855D01*
X-6120Y-11805D02*
X-5864Y-11805D01*
X-6120Y-11756D02*
X-5882Y-11756D01*
X-6120Y-11706D02*
X-5894Y-11706D01*
X-6120Y-11657D02*
X-5900Y-11657D01*
X-6120Y-11607D02*
X-5905Y-11607D01*
X-6120Y-11558D02*
X-5911Y-11558D01*
X-6120Y-11508D02*
X-5917Y-11508D01*
X-6120Y-11459D02*
X-5922Y-11459D01*
X-6120Y-11409D02*
X-5924Y-11409D01*
X-6120Y-11360D02*
X-5919Y-11360D01*
X-6120Y-11310D02*
X-5913Y-11310D01*
X-6120Y-11261D02*
X-5907Y-11261D01*
X-6120Y-11211D02*
X-5902Y-11211D01*
X-6120Y-11161D02*
X-5896Y-11161D01*
X-6120Y-11112D02*
X-5888Y-11112D01*
X-6120Y-11062D02*
X-5870Y-11062D01*
X-6120Y-11013D02*
X-5853Y-11013D01*
X-6120Y-10963D02*
X-5836Y-10963D01*
X-6120Y-10914D02*
X-5818Y-10914D01*
X-6120Y-10864D02*
X-5801Y-10864D01*
X-6120Y-10815D02*
X-5777Y-10815D01*
X-6120Y-10765D02*
X-5746Y-10765D01*
X-6120Y-10716D02*
X-5715Y-10716D01*
X-6120Y-10666D02*
X-5684Y-10666D01*
X-6120Y-10617D02*
X-5653Y-10617D01*
X-6120Y-10567D02*
X-5616Y-10567D01*
X-6120Y-10518D02*
X-5566Y-10518D01*
X-6120Y-10468D02*
X-5517Y-10468D01*
X-6120Y-10419D02*
X-5467Y-10419D01*
X-6120Y-10369D02*
X-5418Y-10369D01*
X-6120Y-10319D02*
X-5339Y-10319D01*
X-6120Y-10270D02*
X-5260Y-10270D01*
X-6120Y-10220D02*
X-5181Y-10220D01*
X-6120Y-10171D02*
X-5189Y-10171D01*
X-6120Y-10121D02*
X-5268Y-10121D01*
X-6120Y-10072D02*
X-5347Y-10072D01*
X-6120Y-10022D02*
X-5422Y-10022D01*
X-6120Y-9973D02*
X-5472Y-9973D01*
X-6120Y-9923D02*
X-5521Y-9923D01*
X-6120Y-9874D02*
X-5571Y-9874D01*
X-6120Y-9824D02*
X-5620Y-9824D01*
X-6120Y-9775D02*
X-5656Y-9775D01*
X-6120Y-9725D02*
X-5687Y-9725D01*
X-6120Y-9676D02*
X-5718Y-9676D01*
X-6120Y-9626D02*
X-5749Y-9626D01*
X-6120Y-9576D02*
X-5780Y-9576D01*
X-6120Y-9527D02*
X-5803Y-9527D01*
X-6120Y-9477D02*
X-5820Y-9477D01*
X-6120Y-9428D02*
X-5837Y-9428D01*
X-6120Y-9378D02*
X-5855Y-9378D01*
X-6120Y-9329D02*
X-5872Y-9329D01*
X-6120Y-9279D02*
X-5889Y-9279D01*
X-6120Y-9230D02*
X-5897Y-9230D01*
X-6120Y-9180D02*
X-5902Y-9180D01*
X-6120Y-9131D02*
X-5908Y-9131D01*
X-6120Y-9081D02*
X-5914Y-9081D01*
X-6120Y-9032D02*
X-5919Y-9032D01*
X-6120Y-8982D02*
X-5925Y-8982D01*
X-6120Y-8933D02*
X-5922Y-8933D01*
X-6120Y-8883D02*
X-5916Y-8883D01*
X-6120Y-8834D02*
X-5911Y-8834D01*
X-6120Y-8784D02*
X-5905Y-8784D01*
X-6120Y-8734D02*
X-5899Y-8734D01*
X-6120Y-8685D02*
X-5894Y-8685D01*
X-6120Y-8635D02*
X-5880Y-8635D01*
X-6120Y-8586D02*
X-5863Y-8586D01*
X-6120Y-8536D02*
X-5845Y-8536D01*
X-6120Y-8487D02*
X-5828Y-8487D01*
X-6120Y-8437D02*
X-5811Y-8437D01*
X-6120Y-8388D02*
X-5793Y-8388D01*
X-6120Y-8338D02*
X-5763Y-8338D01*
X-6120Y-8289D02*
X-5732Y-8289D01*
X-6120Y-8239D02*
X-5701Y-8239D01*
X-6120Y-8190D02*
X-5670Y-8190D01*
X-6120Y-8140D02*
X-5638Y-8140D01*
X-6120Y-8091D02*
X-5593Y-8091D01*
X-6120Y-8041D02*
X-5544Y-8041D01*
X-6120Y-7992D02*
X-5494Y-7992D01*
X-6120Y-7942D02*
X-5445Y-7942D01*
X-6120Y-7892D02*
X-5382Y-7892D01*
X-6120Y-7843D02*
X-5303Y-7843D01*
X-6120Y-7793D02*
X-5224Y-7793D01*
X-6120Y-7744D02*
X-5145Y-7744D01*
X-6120Y-7694D02*
X-5118Y-7694D01*
X-6120Y-7645D02*
X-5197Y-7645D01*
X-6120Y-7595D02*
X-5276Y-7595D01*
X-6120Y-7546D02*
X-5354Y-7546D01*
X-6120Y-7496D02*
X-5427Y-7496D01*
X-6120Y-7447D02*
X-5477Y-7447D01*
X-6120Y-7397D02*
X-5526Y-7397D01*
X-6120Y-7348D02*
X-5576Y-7348D01*
X-6120Y-7298D02*
X-5625Y-7298D01*
X-6120Y-7249D02*
X-5659Y-7249D01*
X-6120Y-7199D02*
X-5690Y-7199D01*
X-6120Y-7150D02*
X-5721Y-7150D01*
X-6120Y-7100D02*
X-5752Y-7100D01*
X-6120Y-7050D02*
X-5783Y-7050D01*
X-6120Y-7001D02*
X-5805Y-7001D01*
X-6120Y-6951D02*
X-5822Y-6951D01*
X-6120Y-6902D02*
X-5839Y-6902D01*
X-6120Y-6852D02*
X-5857Y-6852D01*
X-6120Y-6803D02*
X-5874Y-6803D01*
X-6120Y-6753D02*
X-5891Y-6753D01*
X-6120Y-6704D02*
X-5897Y-6704D01*
X-6120Y-6654D02*
X-5903Y-6654D01*
X-6120Y-6605D02*
X-5909Y-6605D01*
X-6120Y-6555D02*
X-5914Y-6555D01*
X-6120Y-6506D02*
X-5920Y-6506D01*
X-6120Y-6456D02*
X-5925Y-6456D01*
X-6120Y-6407D02*
X-5921Y-6407D01*
X-6120Y-6357D02*
X-5916Y-6357D01*
X-6120Y-6308D02*
X-5910Y-6308D01*
X-6120Y-6258D02*
X-5904Y-6258D01*
X-6120Y-6208D02*
X-5899Y-6208D01*
X-6120Y-6159D02*
X-5893Y-6159D01*
X-6120Y-6109D02*
X-5878Y-6109D01*
X-6120Y-6060D02*
X-5861Y-6060D01*
X-6120Y-6010D02*
X-5843Y-6010D01*
X-6120Y-5961D02*
X-5826Y-5961D01*
X-6120Y-5911D02*
X-5809Y-5911D01*
X-6120Y-5862D02*
X-5791Y-5862D01*
X-6120Y-5812D02*
X-5760Y-5812D01*
X-6120Y-5763D02*
X-5729Y-5763D01*
X-6103Y-5713D02*
X-5698Y-5713D01*
X-6054Y-5664D02*
X-5666Y-5664D01*
X-6004Y-5614D02*
X-5635Y-5614D01*
X-5955Y-5565D02*
X-5588Y-5565D01*
X-5905Y-5515D02*
X-5539Y-5515D01*
X-5856Y-5466D02*
X-5489Y-5466D01*
X-5806Y-5416D02*
X-5440Y-5416D01*
X-5757Y-5366D02*
X-5374Y-5366D01*
X-5707Y-5317D02*
X-5295Y-5317D01*
X-5657Y-5267D02*
X-5216Y-5267D01*
X-5608Y-5218D02*
X-5118Y-5218D01*
X-5558Y-5168D02*
X-4977Y-5168D01*
X-4173Y-5168D02*
X-4078Y-5168D01*
X-5509Y-5119D02*
X-4751Y-5119D01*
X-4399Y-5119D02*
X-4029Y-5119D01*
X-5459Y-5069D02*
X-3979Y-5069D01*
X-5410Y-5020D02*
X-3930Y-5020D01*
X-5360Y-4970D02*
X-3880Y-4970D01*
X-5311Y-4921D02*
X-3831Y-4921D01*
X-5261Y-4871D02*
X-3781Y-4871D01*
X-5212Y-4822D02*
X-3732Y-4822D01*
X-5162Y-4772D02*
X-3682Y-4772D01*
X-5113Y-4723D02*
X-3632Y-4723D01*
X-5063Y-4673D02*
X-3583Y-4673D01*
X-5014Y-4623D02*
X-3533Y-4623D01*
X-4964Y-4574D02*
X-3484Y-4574D01*
X-4915Y-4524D02*
X-3434Y-4524D01*
X-4865Y-4475D02*
X-3385Y-4475D01*
X-4815Y-4425D02*
X-3335Y-4425D01*
X-4766Y-4376D02*
X-3286Y-4376D01*
X-4716Y-4326D02*
X-3236Y-4326D01*
X-4671Y-4277D02*
X-3187Y-4277D01*
X-4630Y-4227D02*
X-3137Y-4227D01*
X-4599Y-4178D02*
X-3095Y-4178D01*
X-4573Y-4128D02*
X-3095Y-4128D01*
X-4555Y-4079D02*
X-3095Y-4079D01*
X-4540Y-4029D02*
X-3095Y-4029D01*
X-4532Y-3980D02*
X-3095Y-3980D01*
X-4527Y-3930D02*
X-3095Y-3930D01*
X-4525Y-3881D02*
X-3095Y-3881D01*
X-4525Y-3831D02*
X-3095Y-3831D01*
X-4525Y-3781D02*
X-3095Y-3781D01*
X-4525Y-3732D02*
X-3095Y-3732D01*
X-4525Y-3682D02*
X-3095Y-3682D01*
X-4525Y-3633D02*
X-3095Y-3633D01*
X-4525Y-3583D02*
X-3095Y-3583D01*
X-4525Y-3534D02*
X-3095Y-3534D01*
X-4525Y-3484D02*
X-3095Y-3484D01*
X-4525Y-3435D02*
X-3095Y-3435D01*
X-4525Y-3385D02*
X-3095Y-3385D01*
X-4525Y-3336D02*
X-3095Y-3336D01*
X-4525Y-3286D02*
X-3095Y-3286D01*
X-4525Y-3237D02*
X-3095Y-3237D01*
X-4525Y-3187D02*
X-3095Y-3187D01*
X-4525Y-3138D02*
X-3095Y-3138D01*
X-4525Y-3088D02*
X-3095Y-3088D01*
X-4525Y-3039D02*
X-3095Y-3039D01*
X-4525Y-2989D02*
X-3095Y-2989D01*
X-4525Y-2939D02*
X-3095Y-2939D01*
X-4525Y-2890D02*
X-3095Y-2890D01*
X-4525Y-2840D02*
X-3095Y-2840D01*
X-4525Y-2791D02*
X-3095Y-2791D01*
X-4525Y-2741D02*
X-3095Y-2741D01*
X-4525Y-2692D02*
X-3095Y-2692D01*
X-4525Y-2642D02*
X-3095Y-2642D01*
X-4525Y-2593D02*
X-3095Y-2593D01*
X-4525Y-2543D02*
X-3095Y-2543D01*
X-4525Y-2494D02*
X-3095Y-2494D01*
X-4525Y-2444D02*
X-3095Y-2444D01*
X-4525Y-2395D02*
X-3095Y-2395D01*
X-4525Y-2345D02*
X-3095Y-2345D01*
X-4525Y-2296D02*
X-3095Y-2296D01*
X-4525Y-2246D02*
X-3095Y-2246D01*
X-4525Y-2197D02*
X-3095Y-2197D01*
X-4525Y-2147D02*
X-3095Y-2147D01*
X-4525Y-2097D02*
X-3095Y-2097D01*
X-4525Y-2048D02*
X-3095Y-2048D01*
X-4525Y-1998D02*
X-3095Y-1998D01*
X-4525Y-1949D02*
X-3095Y-1949D01*
X-4525Y-1899D02*
X-3095Y-1899D01*
X-4525Y-1850D02*
X-3095Y-1850D01*
X-4525Y-1800D02*
X-3095Y-1800D01*
X-4525Y-1751D02*
X-3095Y-1751D01*
X-4525Y-1701D02*
X-3095Y-1701D01*
X-4525Y-1652D02*
X-3095Y-1652D01*
X-4525Y-1602D02*
X-3095Y-1602D01*
X-4525Y-1553D02*
X-3095Y-1553D01*
X-4525Y-1503D02*
X-3095Y-1503D01*
X-4525Y-1454D02*
X-3095Y-1454D01*
X-4525Y-1404D02*
X-3095Y-1404D01*
X-4525Y-1355D02*
X-3095Y-1355D01*
X-4525Y-1305D02*
X-3095Y-1305D01*
X-4525Y-1255D02*
X-3095Y-1255D01*
X-4525Y-1206D02*
X-3095Y-1206D01*
X-4525Y-1156D02*
X-3095Y-1156D01*
X-4525Y-1107D02*
X-3095Y-1107D01*
X-4525Y-1057D02*
X-3095Y-1057D01*
X-4525Y-1008D02*
X-3095Y-1008D01*
X-4525Y-0958D02*
X-3095Y-0958D01*
X-4525Y-0909D02*
X-3095Y-0909D01*
X-4525Y-0859D02*
X-3095Y-0859D01*
X-4525Y-0810D02*
X-3095Y-0810D01*
X-4525Y-0760D02*
X-3095Y-0760D01*
X-4525Y-0711D02*
X-3095Y-0711D01*
X-4525Y-0661D02*
X-3095Y-0661D01*
X-4525Y-0612D02*
X-3095Y-0612D01*
X-4525Y-0562D02*
X-3095Y-0562D01*
X-4525Y-0513D02*
X-3095Y-0513D01*
X-4525Y-0463D02*
X-3095Y-0463D01*
X-4525Y-0413D02*
X-3095Y-0413D01*
X-4525Y-0364D02*
X-3095Y-0364D01*
X-4525Y-0314D02*
X-3095Y-0314D01*
X-4525Y-0265D02*
X-3095Y-0265D01*
X-4525Y-0215D02*
X-3095Y-0215D01*
X-4525Y-0166D02*
X-3095Y-0166D01*
X-4525Y-0116D02*
X-3095Y-0116D01*
X-4525Y-0067D02*
X-3095Y-0067D01*
X-4525Y-0017D02*
X-3095Y-0017D01*
X-4525Y0032D02*
X-3095Y0032D01*
X-4525Y0082D02*
X-3095Y0082D01*
X-4525Y0131D02*
X-3095Y0131D01*
X-4525Y0181D02*
X-3095Y0181D01*
X-4525Y0230D02*
X-3095Y0230D01*
X-4525Y0280D02*
X-3095Y0280D01*
X-4525Y0330D02*
X-3095Y0330D01*
X-4525Y0379D02*
X-3095Y0379D01*
X-4525Y0429D02*
X-3095Y0429D01*
X-4525Y0478D02*
X-3095Y0478D01*
X-4525Y0528D02*
X-3095Y0528D01*
X-4525Y0577D02*
X-3095Y0577D01*
X-4525Y0627D02*
X-3095Y0627D01*
X-4525Y0676D02*
X-3095Y0676D01*
X-4525Y0726D02*
X-3095Y0726D01*
X-4525Y0775D02*
X-3095Y0775D01*
X-4525Y0825D02*
X-3095Y0825D01*
X-4525Y0874D02*
X-3095Y0874D01*
X-4525Y0924D02*
X-3095Y0924D01*
X-4525Y0973D02*
X-3095Y0973D01*
X-4525Y1023D02*
X-3095Y1023D01*
X-4525Y1072D02*
X-3095Y1072D01*
X-4525Y1122D02*
X-3095Y1122D01*
X-4525Y1172D02*
X-3095Y1172D01*
X-4525Y1221D02*
X-3095Y1221D01*
X-4525Y1271D02*
X-3095Y1271D01*
X-4525Y1320D02*
X-3095Y1320D01*
X-4525Y1370D02*
X-3095Y1370D01*
X-4525Y1419D02*
X-3095Y1419D01*
X-4525Y1469D02*
X-3095Y1469D01*
X-4525Y1518D02*
X-3095Y1518D01*
X-4525Y1568D02*
X-3095Y1568D01*
X-4525Y1617D02*
X-3095Y1617D01*
X-4525Y1667D02*
X-3095Y1667D01*
X-4525Y1716D02*
X-3095Y1716D01*
X-4525Y1766D02*
X-3095Y1766D01*
X-4525Y1815D02*
X-3095Y1815D01*
X-4525Y1865D02*
X-3095Y1865D01*
X-4525Y1914D02*
X-3095Y1914D01*
X-4525Y1964D02*
X-3095Y1964D01*
X-4525Y2014D02*
X-3095Y2014D01*
X-4525Y2063D02*
X-3095Y2063D01*
X-4525Y2113D02*
X-3095Y2113D01*
X-4525Y2162D02*
X-3095Y2162D01*
X-4525Y2212D02*
X-3095Y2212D01*
X-4525Y2261D02*
X-3095Y2261D01*
X-4525Y2311D02*
X-3095Y2311D01*
X-4525Y2360D02*
X-3095Y2360D01*
X-4525Y2410D02*
X-3095Y2410D01*
X-4525Y2459D02*
X-3095Y2459D01*
X-4525Y2509D02*
X-3095Y2509D01*
X-4525Y2558D02*
X-3095Y2558D01*
X-4525Y2608D02*
X-3095Y2608D01*
X-4525Y2657D02*
X-3095Y2657D01*
X-4525Y2707D02*
X-3095Y2707D01*
X-4525Y2756D02*
X-3095Y2756D01*
X-4525Y2806D02*
X-3095Y2806D01*
X-4525Y2856D02*
X-3095Y2856D01*
X-4525Y2905D02*
X-3095Y2905D01*
X-4525Y2955D02*
X-3095Y2955D01*
X-4525Y3004D02*
X-3095Y3004D01*
X-4525Y3054D02*
X-3095Y3054D01*
X-4525Y3103D02*
X-3095Y3103D01*
X-4525Y3153D02*
X-3095Y3153D01*
X-4525Y3202D02*
X-3095Y3202D01*
X-4525Y3252D02*
X-3095Y3252D01*
X-4525Y3301D02*
X-3095Y3301D01*
X-4525Y3351D02*
X-3095Y3351D01*
X-4525Y3400D02*
X-3095Y3400D01*
X-4525Y3450D02*
X-3095Y3450D01*
X-4525Y3499D02*
X-3095Y3499D01*
X-4525Y3549D02*
X-3095Y3549D01*
X-4525Y3598D02*
X-3095Y3598D01*
X-4525Y3648D02*
X-3095Y3648D01*
X-4525Y3698D02*
X-3095Y3698D01*
X-4525Y3747D02*
X-3095Y3747D01*
X-4525Y3797D02*
X-3095Y3797D01*
X-4525Y3846D02*
X-3095Y3846D01*
X-4525Y3896D02*
X-3095Y3896D01*
X-4525Y3945D02*
X-3095Y3945D01*
X-4525Y3995D02*
X-3095Y3995D01*
X-4525Y4044D02*
X-3095Y4044D01*
X-4525Y4094D02*
X-3095Y4094D01*
X-4525Y4143D02*
X-3095Y4143D01*
X-4525Y4193D02*
X-3095Y4193D01*
X-4525Y4242D02*
X-3095Y4242D01*
X-4525Y4292D02*
X-3095Y4292D01*
X-4525Y4341D02*
X-3095Y4341D01*
X-4525Y4391D02*
X-3095Y4391D01*
X-4525Y4440D02*
X-3095Y4440D01*
X-4525Y4490D02*
X-3095Y4490D01*
X-4525Y4540D02*
X-3095Y4540D01*
X-4525Y4589D02*
X-3095Y4589D01*
X-4525Y4639D02*
X-3095Y4639D01*
X-4525Y4688D02*
X-3095Y4688D01*
X-4525Y4738D02*
X-3095Y4738D01*
X-4525Y4787D02*
X-3095Y4787D01*
X-4525Y4837D02*
X-3095Y4837D01*
X-4525Y4886D02*
X-3095Y4886D01*
X-4525Y4936D02*
X-3095Y4936D01*
X-4525Y4985D02*
X-3095Y4985D01*
X-4525Y5035D02*
X-3095Y5035D01*
X-4525Y5084D02*
X-3095Y5084D01*
X-4525Y5134D02*
X-3095Y5134D01*
X-4525Y5183D02*
X-3095Y5183D01*
X-4525Y5233D02*
X-3095Y5233D01*
X-4525Y5283D02*
X-3095Y5283D01*
X-4525Y5332D02*
X-3095Y5332D01*
X-4525Y5382D02*
X-3095Y5382D01*
X-4525Y5431D02*
X-3095Y5431D01*
X-4525Y5481D02*
X-3095Y5481D01*
X-4525Y5530D02*
X-3095Y5530D01*
X-4525Y5580D02*
X-3095Y5580D01*
X-4525Y5629D02*
X-3095Y5629D01*
X-4525Y5679D02*
X-3095Y5679D01*
X-4525Y5728D02*
X-3095Y5728D01*
X-4525Y5778D02*
X-3095Y5778D01*
X-4525Y5827D02*
X-3095Y5827D01*
X-4525Y5877D02*
X-3095Y5877D01*
X-4525Y5926D02*
X-3095Y5926D01*
X-4525Y5976D02*
X-3095Y5976D01*
X-4525Y6025D02*
X-3095Y6025D01*
X-4525Y6075D02*
X-3095Y6075D01*
X-4525Y6125D02*
X-3095Y6125D01*
X-4525Y6174D02*
X-3095Y6174D01*
X-4525Y6224D02*
X-3095Y6224D01*
X-4525Y6273D02*
X-3095Y6273D01*
X-4525Y6323D02*
X-3095Y6323D01*
X-4525Y6372D02*
X-3095Y6372D01*
X-4525Y6422D02*
X-3095Y6422D01*
X-4525Y6471D02*
X-3095Y6471D01*
X-4525Y6521D02*
X-3095Y6521D01*
X-4525Y6570D02*
X-3095Y6570D01*
X-4525Y6620D02*
X-3095Y6620D01*
X-4525Y6669D02*
X-3095Y6669D01*
X-4525Y6719D02*
X-3095Y6719D01*
X-4525Y6768D02*
X-3095Y6768D01*
X-4525Y6818D02*
X-3095Y6818D01*
X-4525Y6867D02*
X-3095Y6867D01*
X-4525Y6917D02*
X-3095Y6917D01*
X-4525Y6967D02*
X-3095Y6967D01*
X-4525Y7016D02*
X-3095Y7016D01*
X-4525Y7066D02*
X-3095Y7066D01*
X-4525Y7115D02*
X-3095Y7115D01*
X-4525Y7165D02*
X-3095Y7165D01*
X-4525Y7214D02*
X-3095Y7214D01*
X-4525Y7264D02*
X-3095Y7264D01*
X-4525Y7313D02*
X-3095Y7313D01*
X-4525Y7363D02*
X-3095Y7363D01*
X-4525Y7412D02*
X-3095Y7412D01*
X-4525Y7462D02*
X-3095Y7462D01*
X-4525Y7511D02*
X-3095Y7511D01*
X-4525Y7561D02*
X-3095Y7561D01*
X-4525Y7610D02*
X-3095Y7610D01*
X-4525Y7660D02*
X-3095Y7660D01*
X-4525Y7709D02*
X-3095Y7709D01*
X-4525Y7759D02*
X-3095Y7759D01*
X-4525Y7809D02*
X-3095Y7809D01*
X-4525Y7858D02*
X-3095Y7858D01*
X-4525Y7908D02*
X-3095Y7908D01*
X-4525Y7957D02*
X-3095Y7957D01*
X-4525Y8007D02*
X-3095Y8007D01*
X-4525Y8056D02*
X-3095Y8056D01*
X-4525Y8106D02*
X-3095Y8106D01*
X-4525Y8155D02*
X-3095Y8155D01*
X-4525Y8205D02*
X-3095Y8205D01*
X-4525Y8254D02*
X-3095Y8254D01*
X-4525Y8304D02*
X-3095Y8304D01*
X-4525Y8353D02*
X-3095Y8353D01*
X-4525Y8403D02*
X-3095Y8403D01*
X-4525Y8452D02*
X-3095Y8452D01*
X-4525Y8502D02*
X-3095Y8502D01*
X-4525Y8551D02*
X-3095Y8551D01*
X-4525Y8601D02*
X-3095Y8601D01*
X-4525Y8651D02*
X-3095Y8651D01*
X-4525Y8700D02*
X-3095Y8700D01*
X-4525Y8750D02*
X-3095Y8750D01*
X-4525Y8799D02*
X-3095Y8799D01*
X-4525Y8849D02*
X-3095Y8849D01*
X-4525Y8898D02*
X-3095Y8898D01*
X-4525Y8948D02*
X-3095Y8948D01*
X-4525Y8997D02*
X-3095Y8997D01*
X-4525Y9047D02*
X-3095Y9047D01*
X-4525Y9096D02*
X-3095Y9096D01*
X-4525Y9146D02*
X-3095Y9146D01*
X-4525Y9195D02*
X-3095Y9195D01*
X-4525Y9245D02*
X-3095Y9245D01*
X-4525Y9294D02*
X-3095Y9294D01*
X-4525Y9344D02*
X-3095Y9344D01*
X-4525Y9393D02*
X-3095Y9393D01*
X-4525Y9443D02*
X-3095Y9443D01*
X-4525Y9493D02*
X-3095Y9493D01*
X-4525Y9542D02*
X-3095Y9542D01*
X-4525Y9592D02*
X-3095Y9592D01*
X-4525Y9641D02*
X-3095Y9641D01*
X-4525Y9691D02*
X-3095Y9691D01*
X-4525Y9740D02*
X-3095Y9740D01*
X-4525Y9790D02*
X-3095Y9790D01*
X-4525Y9839D02*
X-3095Y9839D01*
X-4525Y9889D02*
X-3095Y9889D01*
X-4525Y9938D02*
X-3095Y9938D01*
X-4525Y9988D02*
X-3095Y9988D01*
X-4525Y10037D02*
X-3095Y10037D01*
X-4525Y10087D02*
X-3095Y10087D01*
X-4525Y10136D02*
X-3095Y10136D01*
X-4525Y10186D02*
X-3095Y10186D01*
X-4525Y10236D02*
X-3095Y10236D01*
X-4525Y10285D02*
X-3095Y10285D01*
X-4525Y10335D02*
X-3095Y10335D01*
X-4525Y10384D02*
X-3095Y10384D01*
X-4525Y10434D02*
X-3095Y10434D01*
X-4525Y10483D02*
X-3095Y10483D01*
X-4525Y10533D02*
X-3095Y10533D01*
X-4525Y10582D02*
X-3095Y10582D01*
X-4525Y10632D02*
X-3095Y10632D01*
X-4525Y10681D02*
X-3095Y10681D01*
X-4525Y10731D02*
X-3095Y10731D01*
X-4525Y10780D02*
X-3095Y10780D01*
X-4525Y10830D02*
X-3095Y10830D01*
X-4525Y10879D02*
X-3095Y10879D01*
X-4525Y10929D02*
X-3095Y10929D01*
X-4525Y10978D02*
X-3095Y10978D01*
X-4525Y11028D02*
X-3095Y11028D01*
X-4525Y11078D02*
X-3095Y11078D01*
X-4525Y11127D02*
X-3095Y11127D01*
X-4525Y11177D02*
X-3095Y11177D01*
X-4525Y11226D02*
X-3095Y11226D01*
X-4525Y11276D02*
X-3095Y11276D01*
X-4525Y11325D02*
X-3095Y11325D01*
X-4525Y11375D02*
X-3095Y11375D01*
X-4525Y11424D02*
X-3095Y11424D01*
X-4525Y11474D02*
X-3095Y11474D01*
X-4525Y11523D02*
X-3095Y11523D01*
X-4525Y11573D02*
X-3095Y11573D01*
X-4525Y11622D02*
X-3095Y11622D01*
X-4525Y11672D02*
X-3095Y11672D01*
X-4525Y11721D02*
X-3095Y11721D01*
X-4525Y11771D02*
X-3095Y11771D01*
X-4525Y11820D02*
X-3095Y11820D01*
X-4525Y11870D02*
X-3095Y11870D01*
X-4525Y11920D02*
X-3095Y11920D01*
X-4525Y11969D02*
X-3095Y11969D01*
X-4525Y12019D02*
X-3095Y12019D01*
X-4525Y12068D02*
X-3095Y12068D01*
X-4525Y12118D02*
X-3095Y12118D01*
X-4525Y12167D02*
X-3095Y12167D01*
X-4525Y12217D02*
X-3095Y12217D01*
X-4525Y12266D02*
X-3095Y12266D01*
X-4525Y12316D02*
X-3095Y12316D01*
X-4525Y12365D02*
X-3095Y12365D01*
X-4525Y12415D02*
X-3095Y12415D01*
X-4525Y12464D02*
X-3095Y12464D01*
X-4525Y12514D02*
X-3095Y12514D01*
X-4525Y12563D02*
X-3095Y12563D01*
X-4525Y12613D02*
X-3095Y12613D01*
X-4525Y12662D02*
X-3095Y12662D01*
X-4525Y12712D02*
X-3095Y12712D01*
X-4525Y12762D02*
X-3095Y12762D01*
X-4525Y12811D02*
X-3095Y12811D01*
X-4525Y12861D02*
X-3095Y12861D01*
X-4525Y12910D02*
X-3095Y12910D01*
X-4525Y12960D02*
X-3095Y12960D01*
X-4525Y13009D02*
X-3095Y13009D01*
X-4525Y13059D02*
X-3095Y13059D01*
X-4525Y13108D02*
X-3095Y13108D01*
X-4525Y13158D02*
X-3095Y13158D01*
X-4525Y13207D02*
X-3095Y13207D01*
X-4525Y13257D02*
X-3095Y13257D01*
X-4525Y13306D02*
X-3095Y13306D01*
X-4525Y13356D02*
X-3095Y13356D01*
X-4525Y13405D02*
X-3095Y13405D01*
X-4525Y13455D02*
X-3095Y13455D01*
X-4525Y13504D02*
X-3095Y13504D01*
X-4525Y13554D02*
X-3095Y13554D01*
X-4525Y13604D02*
X-3095Y13604D01*
X-4525Y13653D02*
X-3095Y13653D01*
X-4525Y13703D02*
X-3095Y13703D01*
X-4525Y13752D02*
X-3095Y13752D01*
X-4525Y13802D02*
X-3095Y13802D01*
X-4525Y13851D02*
X-3095Y13851D01*
X-4525Y13901D02*
X-3095Y13901D01*
X-4525Y13950D02*
X-3095Y13950D01*
X-4525Y14000D02*
X-3095Y14000D01*
X-4525Y14049D02*
X-3095Y14049D01*
X-4525Y14099D02*
X-3095Y14099D01*
X-4525Y14148D02*
X-3095Y14148D01*
X-4525Y14198D02*
X-3095Y14198D01*
X-4525Y14247D02*
X-3095Y14247D01*
X-4525Y14297D02*
X-3095Y14297D01*
X-4525Y14346D02*
X-3095Y14346D01*
X-4525Y14396D02*
X-3095Y14396D01*
X-4525Y14446D02*
X-3095Y14446D01*
X-4525Y14495D02*
X-3095Y14495D01*
X-4525Y14545D02*
X-3095Y14545D01*
X-4525Y14594D02*
X-3095Y14594D01*
X-4525Y14644D02*
X-3095Y14644D01*
X-4525Y14693D02*
X-3095Y14693D01*
X-4525Y14743D02*
X-3095Y14743D01*
X-4525Y14792D02*
X-3095Y14792D01*
X-4525Y14842D02*
X-3095Y14842D01*
X-4525Y14891D02*
X-3095Y14891D01*
X-4525Y14941D02*
X-3095Y14941D01*
X-4525Y14990D02*
X-3095Y14990D01*
X-4525Y15040D02*
X-3095Y15040D01*
X-4525Y15089D02*
X-3095Y15089D01*
X-4525Y15139D02*
X-3095Y15139D01*
X-4525Y15189D02*
X-3095Y15189D01*
X-4525Y15238D02*
X-3095Y15238D01*
X-4525Y15288D02*
X-3095Y15288D01*
X-4525Y15337D02*
X-3095Y15337D01*
X-4525Y15387D02*
X-3095Y15387D01*
X-4525Y15436D02*
X-3095Y15436D01*
X-4525Y15486D02*
X-3095Y15486D01*
X-4525Y15535D02*
X-3095Y15535D01*
X-4525Y15585D02*
X-3095Y15585D01*
X-4525Y15634D02*
X-3095Y15634D01*
X-4525Y15684D02*
X-3095Y15684D01*
X-4390Y15733D02*
X-3230Y15733D01*
X-4301Y15783D02*
X-3319Y15783D01*
X-4246Y15832D02*
X-3374Y15832D01*
X-4205Y15882D02*
X-3415Y15882D01*
X-4175Y15931D02*
X-3445Y15931D01*
X-4155Y15981D02*
X-3465Y15981D01*
X-4141Y16031D02*
X-3479Y16031D01*
X-4133Y16080D02*
X-3487Y16080D01*
X-4130Y16130D02*
X-3490Y16130D01*
X-4130Y16179D02*
X-3490Y16179D01*
X-4130Y16229D02*
X-3490Y16229D01*
X-4130Y16278D02*
X-3490Y16278D01*
X-4130Y16328D02*
X-3490Y16328D01*
X-4130Y16377D02*
X-3490Y16377D01*
X-4130Y16427D02*
X-3490Y16427D01*
X-4130Y16476D02*
X-3490Y16476D01*
X-4130Y16526D02*
X-3490Y16526D01*
X-4130Y16575D02*
X-3490Y16575D01*
X-4130Y16625D02*
X-3490Y16625D01*
X-4130Y16674D02*
X-3490Y16674D01*
X-4130Y16724D02*
X-3490Y16724D01*
X-4130Y16773D02*
X-3490Y16773D01*
X-4130Y16823D02*
X-3490Y16823D01*
X-4130Y16873D02*
X-3490Y16873D01*
X-4130Y16922D02*
X-3490Y16922D01*
X-4130Y16972D02*
X-3490Y16972D01*
X-4130Y17021D02*
X-3490Y17021D01*
X-4130Y17071D02*
X-3490Y17071D01*
X-4130Y17120D02*
X-3490Y17120D01*
X-4130Y17170D02*
X-3490Y17170D01*
X-4130Y17219D02*
X-3490Y17219D01*
X-4130Y17269D02*
X-3490Y17269D01*
X-4130Y17318D02*
X-3490Y17318D01*
X-4130Y17368D02*
X-3490Y17368D01*
X-4130Y17417D02*
X-3490Y17417D01*
X-4130Y17467D02*
X-3490Y17467D01*
X-4130Y17516D02*
X-3490Y17516D01*
X-4130Y17566D02*
X-3490Y17566D01*
X-4130Y17615D02*
X-3490Y17615D01*
X-4130Y17665D02*
X-3490Y17665D01*
X-4130Y17715D02*
X-3490Y17715D01*
X-4130Y17764D02*
X-3490Y17764D01*
X-4130Y17814D02*
X-3490Y17814D01*
X-4130Y17863D02*
X-3490Y17863D01*
X-4130Y17913D02*
X-3490Y17913D01*
X-4130Y17962D02*
X-3490Y17962D01*
X-4130Y18012D02*
X-3490Y18012D01*
X-4130Y18061D02*
X-3490Y18061D01*
X-4130Y18111D02*
X-3490Y18111D01*
X-4130Y18160D02*
X-3490Y18160D01*
X-4130Y18210D02*
X-3490Y18210D01*
X-4130Y18259D02*
X-3490Y18259D01*
X-4130Y18309D02*
X-3490Y18309D01*
X-4130Y18358D02*
X-3490Y18358D01*
X-4130Y18408D02*
X-3490Y18408D01*
X-4130Y18457D02*
X-3490Y18457D01*
X-4130Y18507D02*
X-3490Y18507D01*
X-4130Y18557D02*
X-3490Y18557D01*
X-4130Y18606D02*
X-3490Y18606D01*
X-4130Y18656D02*
X-3490Y18656D01*
X-4130Y18705D02*
X-3490Y18705D01*
X-4130Y18755D02*
X-3490Y18755D01*
X-4130Y18804D02*
X-3490Y18804D01*
X-4130Y18854D02*
X-3490Y18854D01*
X-4130Y18903D02*
X-3490Y18903D01*
X-4130Y18953D02*
X-3490Y18953D01*
X-4130Y19002D02*
X-3490Y19002D01*
X-4130Y19052D02*
X-3490Y19052D01*
X-4130Y19101D02*
X-3490Y19101D01*
X-4130Y19151D02*
X-3490Y19151D01*
X-4130Y19200D02*
X-3490Y19200D01*
X-4130Y19250D02*
X-3490Y19250D01*
X-4130Y19299D02*
X-3490Y19299D01*
X-4130Y19349D02*
X-3490Y19349D01*
X-4130Y19399D02*
X-3490Y19399D01*
X-4130Y19448D02*
X-3490Y19448D01*
X-4130Y19498D02*
X-3490Y19498D01*
%LNbottom copper_traces*%
D11*
X-4575Y-8971D02*
X0Y-4396D01*
X7525Y-3850D02*
X7525Y-3850D01*
X-2075Y-13450*
X-6675Y-12692D02*
X-5917Y-13450D01*
X-6675Y-12692D02*
X-6675Y-5500D01*
X-4575Y-6450D02*
X-2540Y-4415D01*
X-5917Y-13450D02*
X-2075Y-13450D01*
X-6675Y-5500D02*
X-5080Y-3905D01*
X2540Y-4310D02*
X2540Y18000D01*
X-4575Y-11425D02*
X2540Y-4310D01*
X-5080Y-3905D02*
X-5080Y18000D01*
X7525Y12000D02*
X7525Y-3850D01*
X0Y-4396D02*
X0Y18000D01*
X-2540Y-4415D02*
X-2540Y18000D01*
D12*
X15000Y0D03*
X7525Y-3850D03*
X-4575Y-6450D03*
X-15000Y0D03*
X7525Y12000D03*
X-4575Y-11425D03*
X-4575Y-8971D03*
%LNbottom copper component 78b70137abdd44bd*%
D13*
X5080Y18000D03*
X2540Y18000D03*
X0Y18000D03*
X-2540Y18000D03*
X-5080Y18000D03*
%LNbottom copper component 7315b2cb7b9903fe*%
D14*
X-12908Y-14704D03*
X-14704Y-12908D03*
X-16500Y-11112D03*
D15*
X-11112Y-16500D03*
%LNbottom copper component 9deb23392e05f969*%
D16*
X10604Y14196D03*
X12400Y12400D03*
X14196Y10604D03*
X15992Y8808D03*
D17*
X8808Y15992D03*
M02*