%FSLAX33Y33*%
%MOMM*%
%AMRect-W820710-H1670710-RO0.500*
21,1,0.82071,1.67071,0.,0.,270*%
%AMRect-W1500000-H550000-RO1.500*
21,1,1.5,0.55,0.,0.,90*%
%AMRect-W550000-H1500000-RO1.500*
21,1,0.55,1.5,0.,0.,90*%
%AMRect-W820710-H1670710-RO0.750*
21,1,0.82071,1.67071,0.,0.,225*%
%AMRR-H1300000-W4000000-R120000-RO1.500*
21,1,3.76,1.3,0.,0.,90*
21,1,4.,1.06,0.,0.,90*
1,1,0.24,-0.53,-1.88*
1,1,0.24,-0.53,1.88*
1,1,0.24,0.53,1.88*
1,1,0.24,0.53,-1.88*%
%AMRect-W1000000-H3000000-RO1.750*
21,1,1.,3.,0.,0.,45*%
%AMRect-W820710-H1670710-RO1.750*
21,1,0.82071,1.67071,0.,0.,45*%
%AMRect-W1000000-H3000000-RO1.600*
21,1,1.,3.,0.,0.,71*%
%AMRect-W2540000-H1270000-RO0.250*
21,1,2.54,1.27,0.,0.,315*%
%ADD10Rect-W820710-H1670710-RO0.500*%
%ADD11Rect-W1500000-H550000-RO1.500*%
%ADD12Rect-W550000-H1500000-RO1.500*%
%ADD13Rect-W820710-H1670710-RO0.750*%
%ADD14R,1.X0.66*%
%ADD15RR-H1300000-W4000000-R120000-RO1.500*%
%ADD16Rect-W1000000-H3000000-RO1.750*%
%ADD17R,0.82071X1.67071*%
%ADD18Rect-W820710-H1670710-RO1.750*%
%ADD19Rect-W1000000-H3000000-RO1.600*%
%ADD20Rect-W2540000-H1270000-RO0.250*%
D10*
%LNtop paste_traces*%
%LNtop paste component 70a06d2615890944*%
G01*
X-0610Y-10630D03*
X-0610Y-13780D03*
%LNtop paste component 315c781489eea96b*%
D11*
X-2800Y-4200D03*
X-2000Y-4200D03*
X-1200Y-4200D03*
X-0400Y-4200D03*
X0400Y-4200D03*
X1200Y-4200D03*
X2000Y-4200D03*
X2800Y-4200D03*
X2800Y4200D03*
X2000Y4200D03*
X1200Y4200D03*
X0400Y4200D03*
X-0400Y4200D03*
X-1200Y4200D03*
X-2000Y4200D03*
X-2800Y4200D03*
D12*
X4200Y-2800D03*
X4200Y-2000D03*
X4200Y-1200D03*
X4200Y-0400D03*
X4200Y0400D03*
X4200Y1200D03*
X4200Y2000D03*
X4200Y2800D03*
X-4200Y2800D03*
X-4200Y2000D03*
X-4200Y1200D03*
X-4200Y0400D03*
X-4200Y-0400D03*
X-4200Y-1200D03*
X-4200Y-2000D03*
X-4200Y-2800D03*
%LNtop paste component 525862a972a7dcfc*%
D13*
X15111Y5314D03*
X12884Y3086D03*
%LNtop paste component c0c249d9fb733c24*%
D14*
X1548Y-11880D03*
X1548Y-12830D03*
X1548Y-13780D03*
X4178Y-13780D03*
X4178Y-11880D03*
%LNtop paste component bc8831d1917e43a4*%
D15*
X3810Y-17522D03*
X1270Y-17522D03*
X-1270Y-17522D03*
X-3810Y-17522D03*
%LNtop paste component d76f67c5665ae18d*%
D16*
X10376Y-10432D03*
X13911Y-13968D03*
%LNtop paste component 2765b29b619f0f72*%
D17*
X0125Y-7275D03*
X3275Y-7275D03*
%LNtop paste component ed86c8aca3bfac96*%
D18*
X9475Y-0322D03*
X11702Y1905D03*
%LNtop paste component e0be6c5e092cf7dd*%
D19*
X14022Y-4527D03*
X18778Y-6073D03*
%LNtop paste component f05bc982b390cfb7*%
D20*
X-9144Y14311D03*
X-10940Y12515D03*
X-12736Y10719D03*
X-8606Y6589D03*
X-6810Y8385D03*
X-5014Y10181D03*
M02*