<?xml version="1.0" encoding="UTF-8" standalone="no"?>
<!-- Generator: Adobe Illustrator 16.0.0, SVG Export Plug-In . SVG Version: 6.00 Build 0)  -->

<svg
   xmlns:dc="http://purl.org/dc/elements/1.1/"
   xmlns:cc="http://creativecommons.org/ns#"
   xmlns:rdf="http://www.w3.org/1999/02/22-rdf-syntax-ns#"
   xmlns:svg="http://www.w3.org/2000/svg"
   xmlns="http://www.w3.org/2000/svg"
   xmlns:xlink="http://www.w3.org/1999/xlink"
   xmlns:sodipodi="http://sodipodi.sourceforge.net/DTD/sodipodi-0.dtd"
   xmlns:inkscape="http://www.inkscape.org/namespaces/inkscape"
   version="1.1"
   id="Default"
   x="0px"
   y="0px"
   width="426.16306"
   height="410.78125"
   viewBox="0 0 426.16303 410.78124"
   enable-background="new 0 0 595.28 841.89"
   xml:space="preserve"
   inkscape:version="0.91 r13725"
   sodipodi:docname="mainboard-engraving.svg.2017_06_20_02_16_46.0.svg"><metadata
     id="metadata5756"><rdf:RDF><cc:Work
         rdf:about=""><dc:format>image/svg+xml</dc:format><dc:type
           rdf:resource="http://purl.org/dc/dcmitype/StillImage" /><dc:title /></cc:Work></rdf:RDF></metadata><defs
     id="defs5754" /><sodipodi:namedview
     pagecolor="#ffffff"
     bordercolor="#666666"
     borderopacity="1"
     objecttolerance="10"
     gridtolerance="10"
     guidetolerance="10"
     inkscape:pageopacity="0"
     inkscape:pageshadow="2"
     inkscape:window-width="1467"
     inkscape:window-height="877"
     id="namedview5752"
     showgrid="false"
     fit-margin-top="0"
     fit-margin-left="0"
     fit-margin-right="0"
     fit-margin-bottom="0"
     inkscape:zoom="0.97740586"
     inkscape:cx="225.79622"
     inkscape:cy="282.60336"
     inkscape:window-x="0"
     inkscape:window-y="0"
     inkscape:window-maximized="0"
     inkscape:current-layer="Default" /><g
     id="g6299"
     transform="translate(-47.185,-62.674878)"><path
       id="line5726"
       style="fill:none;stroke:#000000;stroke-linecap:round;stroke-linejoin:round"
       d="m 316.95499,79.103996 0,-15.921997 M 472.848,268.065 c 0,-95.573 -63.781,-179.397 -155.893,-204.884 m 0,409.768 C 409.067,447.463 472.848,363.638 472.848,268.065 m -155.89301,204.88401 0,-15.922 m 0,0 -113.37699,0 m 0,0 0,15.922 m 0,-409.76701 C 111.465,88.668 47.685,172.492 47.685,268.065 c 0,95.573 63.781,179.397 155.893,204.884 m 0,-409.767001 0,15.921997 m 0,0 113.37699,0" /><g
       transform="matrix(-0.6553791,1.1351499,-1.1351499,-0.6553791,918.92426,-218.53858)"
       id="g6665"><text
         transform="translate(5.4337842,0.75158182)"
         sodipodi:linespacing="125%"
         id="text6649"
         style="font-style:normal;font-weight:normal;font-size:40px;line-height:125%;font-family:sans-serif;letter-spacing:0px;word-spacing:0px;fill:#000000;fill-opacity:1;stroke:none;stroke-width:1px;stroke-linecap:butt;stroke-linejoin:miter;stroke-opacity:1"
         xml:space="preserve"><textPath
           id="textPath6656"
           xlink:href="#path6640"></textPath></text>
</g></g><g
     transform="matrix(-0.43246545,0.9016505,-0.9016505,-0.43246545,553.05258,-206.05163)"
     style="font-style:normal;font-weight:normal;font-size:40px;line-height:125%;font-family:sans-serif;letter-spacing:0px;word-spacing:0px;fill:#000000;fill-opacity:1;stroke:none;stroke-width:1px;stroke-linecap:butt;stroke-linejoin:miter;stroke-opacity:1"
     id="text5757"><path
       d="m 349.74918,151.13052 0.69373,2.54722 -19.97254,5.43946 -0.69373,-2.54722 19.97254,-5.43946 z"
       style="font-style:normal;font-variant:normal;font-weight:normal;font-stretch:normal;font-size:30px;line-height:125%;font-family:'Exo 2';-inkscape-font-specification:'Exo 2, Normal';text-align:start;writing-mode:lr-tb;text-anchor:start;opacity:0.41000001"
       id="path5770" /><path
       d="m 327.47879,147.81755 16.65647,-3.29884 q 0.94754,-0.15708 1.34874,-0.75645 0.37177,-0.59353 0.17944,-1.56467 l -0.27393,-1.38314 1.85456,-0.67312 q 0.53993,0.7188 0.90129,2.54336 0.32056,1.61856 -0.43464,2.74677 -0.78463,1.13405 -2.52091,1.47792 l -17.21561,3.40958 -0.49541,-2.50141 z"
       style="font-style:normal;font-variant:normal;font-weight:normal;font-stretch:normal;font-size:30px;line-height:125%;font-family:'Exo 2';-inkscape-font-specification:'Exo 2, Normal';text-align:start;writing-mode:lr-tb;text-anchor:start;opacity:0.41000001"
       id="path5772" /><path
       d="m 325.86055,137.52425 16.85099,-2.08914 q 0.9564,-0.0884 1.39978,-0.65722 0.4136,-0.56518 0.2918,-1.54766 l -0.17349,-1.39929 1.89828,-0.53764 q 0.48669,0.75586 0.71554,2.60173 0.20301,1.63746 -0.63158,2.70829 -0.86437,1.07451 -2.62092,1.29228 l -17.41666,2.15928 -0.31374,-2.53063 z"
       style="font-style:normal;font-variant:normal;font-weight:normal;font-stretch:normal;font-size:30px;line-height:125%;font-family:'Exo 2';-inkscape-font-specification:'Exo 2, Normal';text-align:start;writing-mode:lr-tb;text-anchor:start;opacity:0.41000001"
       id="path5774" /><path
       d="m 331.07247,116.56205 14.60627,-0.33023 0.0461,2.03948 -2.0954,0.22742 q 2.56396,3.24288 2.63177,6.24211 0.0902,3.98898 -3.92879,4.07985 l -10.97719,0.24818 -0.0576,-2.54935 10.25738,-0.23191 q 1.38032,-0.001 1.93797,-0.55394 0.55765,-0.55275 0.52917,-1.81243 -0.0251,-1.10971 -0.53073,-2.23857 -0.53564,-1.12818 -1.68401,-2.81266 l -10.67727,0.2414 -0.0576,-2.54935 z"
       style="font-style:normal;font-variant:normal;font-weight:normal;font-stretch:normal;font-size:30px;line-height:125%;font-family:'Exo 2';-inkscape-font-specification:'Exo 2, Normal';text-align:start;writing-mode:lr-tb;text-anchor:start;opacity:0.41000001"
       id="path5776" /><path
       d="m 331.42222,107.46134 2.30925,0.16113 q -2.23151,-3.42014 -1.8453,-6.27413 0.41035,-3.032357 3.05153,-3.310684 -2.15841,-3.289156 -1.76818,-6.172872 0.25346,-1.872929 1.397,-2.717203 1.14758,-0.874003 3.10969,-0.608481 l 10.8511,1.468415 -0.33794,2.497238 -10.1376,-1.371862 q -1.34183,-0.151308 -2.00882,0.303353 -0.6927,0.42091 -0.85363,1.610071 -0.1408,1.040516 0.2021,2.085943 0.34693,1.015697 1.41362,2.976453 l 10.43489,1.412092 -0.32989,2.437777 -10.1376,-1.37186 q -1.36753,-0.18506 -2.03855,0.29933 -0.667,0.45466 -0.8239,1.6141 -0.1408,1.04051 0.2021,2.08594 0.34693,1.0157 1.38389,2.97243 l 10.46462,1.41611 -0.34196,2.52697 -14.47804,-1.95923 0.28162,-2.08103 z"
       style="font-style:normal;font-variant:normal;font-weight:normal;font-stretch:normal;font-size:30px;line-height:125%;font-family:'Exo 2';-inkscape-font-specification:'Exo 2, Normal';text-align:start;writing-mode:lr-tb;text-anchor:start;opacity:0.41000001"
       id="path5778" /><path
       d="m 329.96712,79.734543 0.29609,-1.162897 q 0.19246,-0.755883 0.94834,-0.563423 l 1.65713,0.421933 q 0.75588,0.19246 0.56342,0.948343 l -0.29609,1.162897 q -0.19246,0.755883 -0.94834,0.563422 l -1.65713,-0.421932 q -0.75588,-0.19246 -0.56342,-0.948343 z m 20.6352,3.334722 -0.62179,2.442083 -14.15827,-3.604931 0.62179,-2.442084 14.15827,3.604932 z"
       style="font-style:normal;font-variant:normal;font-weight:normal;font-stretch:normal;font-size:30px;line-height:125%;font-family:'Exo 2';-inkscape-font-specification:'Exo 2, Normal';text-align:start;writing-mode:lr-tb;text-anchor:start;opacity:0.41000001"
       id="path5780" /><path
       d="m 337.61717,56.184795 18.51643,6.577535 q 0.98943,0.351472 0.648,1.31263 l -0.86361,2.431166 q -0.27114,0.763273 -1.18318,0.821329 l -16.16352,1.676207 q -2.43337,0.218048 -2.96415,0.18868 l -0.16068,0.45231 q 1.17095,0.288604 2.61268,0.800748 l 14.61527,5.191734 -0.8837,2.487705 -18.51644,-6.577535 q -0.98943,-0.351471 -0.63796,-1.3409 l 0.83349,-2.346358 q 0.27114,-0.763273 1.18319,-0.821328 l 15.75399,-1.598826 q 1.63625,-0.214675 3.29891,-0.324457 l 0.17071,-0.480579 q -1.55667,-0.457462 -2.99841,-0.969606 l -14.13468,-5.021019 0.87366,-2.459436 z"
       style="font-style:normal;font-variant:normal;font-weight:normal;font-stretch:normal;font-size:30px;line-height:125%;font-family:'Exo 2';-inkscape-font-specification:'Exo 2, Normal';text-align:start;writing-mode:lr-tb;text-anchor:start;opacity:0.41000001"
       id="path5782" /><path
       d="m 348.09329,52.973458 -1.80183,-0.618956 q 1.18234,-3.898469 2.51988,-6.617272 1.12565,-2.288102 2.63769,-2.915027 1.48512,-0.640169 3.77322,0.485483 l 9.23317,4.542336 -0.88728,1.803562 -2.28594,-0.790249 q 0.47866,1.405664 0.50359,3.189922 0.0382,1.75734 -0.76965,3.399389 -0.88728,1.803562 -2.35915,2.416812 -1.48556,0.573088 -3.23528,-0.287704 l -1.4267,-0.701877 q -1.53438,-0.754849 -1.90536,-2.10754 -0.38465,-1.392853 0.4629,-3.115659 l 2.68832,-5.464525 -1.15751,-0.569447 q -1.23827,-0.609176 -2.02783,-0.295497 -0.78956,0.313679 -1.54441,1.848053 -0.95349,1.938157 -2.41783,5.798196 z m 7.37688,1.723395 0.83449,0.410532 q 1.02291,0.503233 1.74582,0.257067 0.696,-0.259409 1.22572,-1.336163 0.53015,-1.009673 0.65435,-2.553393 0.13745,-1.57064 -0.30191,-3.12414 l -2.63805,-1.29781 -2.48967,5.060742 q -0.42335,0.928483 -0.16437,1.557396 0.27222,0.601994 1.13362,1.025769 z"
       style="font-style:normal;font-variant:normal;font-weight:normal;font-stretch:normal;font-size:30px;line-height:125%;font-family:'Exo 2';-inkscape-font-specification:'Exo 2, Normal';text-align:start;writing-mode:lr-tb;text-anchor:start;opacity:0.41000001"
       id="path5784" /><path
       d="m 357.80227,34.288355 7.36203,4.406467 q 0.90095,0.539253 1.51818,0.384241 0.61723,-0.155012 1.17189,-1.081701 l 1.14013,-1.90486 1.82726,0.744057 q -0.37409,1.384396 -1.36016,3.031842 -0.93984,1.570223 -2.30808,1.870101 -1.36823,0.299877 -3.01568,-0.686185 l -7.64518,-4.575947 -1.35584,2.265239 -1.59596,-0.955248 1.25287,-2.326868 -3.7325,-2.234048 1.30962,-2.188015 3.70675,2.21864 2.38812,-3.989909 1.72467,1.032284 -2.38812,3.98991 z"
       style="font-style:normal;font-variant:normal;font-weight:normal;font-stretch:normal;font-size:30px;line-height:125%;font-family:'Exo 2';-inkscape-font-specification:'Exo 2, Normal';text-align:start;writing-mode:lr-tb;text-anchor:start;opacity:0.41000001"
       id="path5786" /><path
       d="m 355.93101,21.903769 0.67096,-0.994897 q 0.43612,-0.646683 1.0828,-0.210563 l 1.41773,0.95611 q 0.64668,0.43612 0.21056,1.082803 l -0.67095,0.994897 q -0.43612,0.646684 -1.08281,0.210563 l -1.41772,-0.956109 q -0.64669,-0.436121 -0.21057,-1.082804 z m 18.30145,10.098965 -1.40901,2.089284 -12.11287,-8.168867 1.409,-2.089284 12.11288,8.168867 z"
       style="font-style:normal;font-variant:normal;font-weight:normal;font-stretch:normal;font-size:30px;line-height:125%;font-family:'Exo 2';-inkscape-font-specification:'Exo 2, Normal';text-align:start;writing-mode:lr-tb;text-anchor:start;opacity:0.41000001"
       id="path5788" /><path
       d="m 373.3161,8.8188555 7.79826,12.7727465 q 0.35182,0.575087 -0.0517,1.097374 l -1.41227,1.828004 q -0.40351,0.522287 -1.04878,0.327046 l -14.32771,-4.321194 1.66904,-2.160369 10.29638,3.40549 q 0.84814,0.276149 2.54982,0.870528 l 0.23844,-0.308624 -1.46769,-2.271207 -5.89451,-9.103166 1.6507,-2.1366285 z"
       style="font-style:normal;font-variant:normal;font-weight:normal;font-stretch:normal;font-size:30px;line-height:125%;font-family:'Exo 2';-inkscape-font-specification:'Exo 2, Normal';text-align:start;writing-mode:lr-tb;text-anchor:start;opacity:0.41000001"
       id="path5790" /><path
       d="m 388.18599,5.1528464 -4.61076,5.0116826 q 1.99673,1.55164 3.32758,1.390032 1.33086,-0.161608 2.93549,-1.9057623 1.68587,-1.8324656 3.16775,-3.9749057 l 1.44124,0.9590676 q -0.72416,1.9834801 -3.24281,4.7211394 -2.55928,2.781815 -4.93663,2.795942 -2.37912,-0.02826 -5.47002,-2.871906 -3.11299,-2.8639541 -3.29314,-5.1494618 -0.20223,-2.3058193 2.23518,-4.9551672 2.21398,-2.4064909 4.11268,-2.6979166 1.87662,-0.3117375 3.64285,1.31320093 3.08738,2.75886297 0.69059,5.36405507 z m -6.08821,3.6931867 4.18421,-4.5480472 q 1.07653,-1.1701286 -0.51308,-2.6325732 -1.05798,-0.93257341 -2.04795,-0.74270475 -0.98998,0.18986865 -2.31024,1.62493205 -1.564,1.6999982 -1.4227,3.052934 0.11921,1.3326241 2.10976,3.2454591 z"
       style="font-style:normal;font-variant:normal;font-weight:normal;font-stretch:normal;font-size:30px;line-height:125%;font-family:'Exo 2';-inkscape-font-specification:'Exo 2, Normal';text-align:start;writing-mode:lr-tb;text-anchor:start;opacity:0.41000001"
       id="path5792" /><path
       d="m 402.47119,-27.432475 2.30166,-1.877045 q 0.83696,-0.682561 1.53848,0.177652 l 13.05513,14.631765 -2.04591,1.668484 -12.27957,-13.87064 -0.48823,0.398161 6.07031,14.753595 q 0.38281,0.849151 -0.31466,1.417952 l -1.83667,1.4978436 q -0.72072,0.5877614 -1.49876,0.060931 l -13.23102,-8.913901 -0.46498,0.379201 11.14038,14.7996827 -2.04592,1.668484 -11.75318,-15.6935277 q -0.65503,-0.898133 0.15869,-1.561735 l 2.3249,-1.896005 q 0.65097,-0.530881 1.42901,-0.0041 l 10.98131,7.341989 q 0.48077,0.304722 1.37257,0.971046 0.8961,0.624115 0.99519,0.698151 l 0.41848,-0.341281 q -0.13882,-0.312619 -0.55954,-1.208268 -0.41645,-0.937858 -0.63719,-1.493349 l -4.94514,-12.187183 q -0.38281,-0.849151 0.31466,-1.417952 z"
       style="font-style:normal;font-variant:normal;font-weight:normal;font-stretch:normal;font-size:30px;line-height:125%;font-family:'Exo 2';-inkscape-font-specification:'Exo 2, Normal';text-align:start;writing-mode:lr-tb;text-anchor:start;opacity:0.41000001"
       id="path5794" /><path
       d="m 426.00262,-31.698041 0.0653,0.100654 q 2.00159,-1.048915 3.53302,-0.397757 1.54027,0.609661 2.945,2.773713 1.69875,2.616993 1.08644,4.373574 -0.61231,1.756581 -3.68224,3.749344 -4.17713,2.711464 -6.54734,3.963894 l -11.27055,-17.362743 q 1.85724,-1.491703 5.50593,-3.86015 3.24608,-2.107102 5.12495,-1.967599 1.88769,0.09801 3.60277,2.740162 1.22506,1.887254 1.15752,3.325982 -0.0839,1.413565 -1.52084,2.560926 z m -6.82237,3.3198 3.72418,-2.41745 q 1.92125,-1.282891 2.25897,-2.360502 0.33772,-1.077611 -0.773,-2.788722 -1.12706,-1.736274 -2.30797,-1.79234 -1.15575,-0.0724 -3.3198,1.332334 l -3.3719,2.188772 3.78952,5.837908 z m 1.09438,1.685947 4.18154,6.441829 q 1.04803,-0.644535 3.91666,-2.506625 2.11373,-1.372066 2.47661,-2.466011 0.38805,-1.11028 -0.78801,-2.922044 -1.2904,-1.987908 -2.57814,-2.153457 -1.26259,-0.181884 -3.45931,1.172524 l -3.74935,2.433784 z"
       style="font-style:normal;font-variant:normal;font-weight:normal;font-stretch:normal;font-size:30px;line-height:125%;font-family:'Exo 2';-inkscape-font-specification:'Exo 2, Normal';text-align:start;writing-mode:lr-tb;text-anchor:start;opacity:0.41000001"
       id="path5796" /><path
       d="m 437.50815,-47.359388 q 0.31074,-2.937966 3.82713,-4.69293 3.51639,-1.754963 6.05098,-0.237045 2.56142,1.504522 5.13358,6.658316 2.57216,5.153794 2.23458,8.105156 -0.31073,2.937966 -3.82713,4.69293 -3.51639,1.754963 -6.05097,0.237044 -2.53459,-1.517918 -5.10675,-6.671712 -2.57216,-5.153794 -2.26142,-8.091759 z m 8.8701,-2.515762 q -1.7298,-1.248998 -4.01143,-0.110282 -2.28162,1.138717 -2.32344,3.271896 -0.0418,2.133179 2.03466,6.293793 2.07649,4.160615 3.80629,5.409614 1.72979,1.248998 4.01142,0.110281 2.28163,-1.138716 2.32345,-3.271895 0.0687,-2.146575 -2.00783,-6.30719 -2.07648,-4.160615 -3.83312,-5.396217 z"
       style="font-style:normal;font-variant:normal;font-weight:normal;font-stretch:normal;font-size:30px;line-height:125%;font-family:'Exo 2';-inkscape-font-specification:'Exo 2, Normal';text-align:start;writing-mode:lr-tb;text-anchor:start;opacity:0.41000001"
       id="path5798" /><path
       d="m 460.28259,-41.538985 0.77049,-0.334581 q 0.49531,-0.215088 0.77158,-0.106111 0.27627,0.108978 0.49136,0.604293 l 0.64526,1.485945 q 0.21509,0.495316 0.10611,0.771583 -0.10898,0.276268 -0.60429,0.491356 l -0.77049,0.334582 q -0.4678,0.203138 -0.77159,0.106111 -0.27626,-0.108978 -0.49135,-0.604293 l -0.64527,-1.485946 q -0.21508,-0.495315 -0.10611,-0.771583 0.1365,-0.288217 0.6043,-0.491356 z"
       style="font-style:normal;font-variant:normal;font-weight:normal;font-stretch:normal;font-size:30px;line-height:125%;font-family:'Exo 2';-inkscape-font-specification:'Exo 2, Normal';text-align:start;writing-mode:lr-tb;text-anchor:start;opacity:0.41000001"
       id="path5800" /><path
       d="m 460.6332,-58.003464 -0.91793,-1.833877 q 2.67123,-1.587353 5.25285,-2.563503 3.25508,-1.230799 4.97337,-0.757959 1.74635,0.462229 2.70128,2.987721 1.63399,4.321397 -0.98797,5.954261 l 0.0424,0.112244 q 1.91262,-0.37039 3.12652,0.549755 1.21389,0.920144 2.07639,3.031561 1.19143,2.981309 0.28023,4.897426 -0.88315,1.905506 -4.25047,3.178746 -2.60968,0.986761 -6.33635,1.818565 l -0.58497,-2.055994 q 3.277,-0.918358 5.46576,-1.745964 2.35713,-0.891268 3.02095,-2.10446 0.66383,-1.213192 -0.13195,-3.317769 -0.66845,-1.767844 -1.82175,-2.358097 -1.12524,-0.600863 -3.37012,0.247963 l -3.59181,1.358123 -0.73211,-1.93621 3.59181,-1.358123 q 2.0659,-0.813226 2.36117,-1.983277 0.32332,-1.180662 -0.30269,-2.836262 -0.69651,-1.757234 -1.71188,-1.982693 -1.02598,-0.253521 -3.32698,0.616526 -2.32906,0.880658 -4.82579,2.081297 z"
       style="font-style:normal;font-variant:normal;font-weight:normal;font-stretch:normal;font-size:30px;line-height:125%;font-family:'Exo 2';-inkscape-font-specification:'Exo 2, Normal';text-align:start;writing-mode:lr-tb;text-anchor:start;opacity:0.41000001"
       id="path5802" /></g></svg>