%FSLAX33Y33*%
%MOMM*%
%AMRect-W1193800-H3352800-RO1.000*
21,1,1.1938,3.3528,0.,0.,180*%
%AMRect-W891421-H1741421-RO1.500*
21,1,0.891421,1.741421,0.,0.,90*%
%AMRect-W891421-H1741421-RO1.000*
21,1,0.891421,1.741421,0.,0.,180*%
%AMRect-W820710-H1670710-RO1.500*
21,1,0.82071,1.67071,0.,0.,90*%
%AMRect-W1620000-H1620000-RO1.750*
21,1,1.62,1.62,0.,0.,45*%
%AMRect-W820710-H1670710-RO0.500*
21,1,0.82071,1.67071,0.,0.,270*%
%AMRect-W891421-H1741421-RO0.500*
21,1,0.891421,1.741421,0.,0.,270*%
%AMRect-W1038281-H532132-RO0.500*
21,1,1.038281,0.532132,0.,0.,270*%
%AMRR-H532132-W1038281-R266066-RO0.500*
21,1,0.506149,0.532132,0.,0.,270*
1,1,0.532132,0.,0.2530745*
1,1,0.532132,0.,-0.2530745*
1,1,0.532132,-0.,-0.2530745*
1,1,0.532132,-0.,0.2530745*%
%AMRect-W1103201-H2103199-RO1.000*
21,1,1.103201,2.103199,0.,0.,180*%
%AMRect-W5653199-H6603200-RO1.000*
21,1,5.653199,6.6032,0.,0.,180*%
%AMRect-W820710-H1670710-RO1.000*
21,1,0.82071,1.67071,0.,0.,180*%
%AMRR-H1300000-W4000000-R120000-RO0.500*
21,1,3.76,1.3,0.,0.,270*
21,1,4.,1.06,0.,0.,270*
1,1,0.24,0.53,1.88*
1,1,0.24,0.53,-1.88*
1,1,0.24,-0.53,-1.88*
1,1,0.24,-0.53,1.88*%
%AMRect-W1038281-H532132-RO1.500*
21,1,1.038281,0.532132,0.,0.,90*%
%AMRR-H532132-W1038281-R266066-RO1.500*
21,1,0.506149,0.532132,0.,0.,90*
1,1,0.532132,-0.,-0.2530745*
1,1,0.532132,-0.,0.2530745*
1,1,0.532132,0.,0.2530745*
1,1,0.532132,0.,-0.2530745*%
%ADD10Rect-W1193800-H3352800-RO1.000*%
%ADD11R,0.82071X1.67071*%
%ADD12R,1.103201X2.103199*%
%ADD13R,5.653199X6.6032*%
%ADD14Rect-W891421-H1741421-RO1.500*%
%ADD15Rect-W891421-H1741421-RO1.000*%
%ADD16Rect-W820710-H1670710-RO1.500*%
%ADD17C,1.62*%
%ADD18Rect-W1620000-H1620000-RO1.750*%
%ADD19Rect-W820710-H1670710-RO0.500*%
%ADD20Rect-W891421-H1741421-RO0.500*%
%ADD21Rect-W1038281-H532132-RO0.500*%
%ADD22RR-H532132-W1038281-R266066-RO0.500*%
%ADD23Rect-W1103201-H2103199-RO1.000*%
%ADD24Rect-W5653199-H6603200-RO1.000*%
%ADD25R,1.1938X3.3528*%
%ADD26Rect-W820710-H1670710-RO1.000*%
%ADD27RR-H1300000-W4000000-R120000-RO0.500*%
%ADD28R,0.891421X1.741421*%
%ADD29Rect-W1038281-H532132-RO1.500*%
%ADD30RR-H532132-W1038281-R266066-RO1.500*%
D10*
%LNtop solder mask_traces*%
%LNtop solder mask component 0a7e6818b65e6dd9*%
G01*
X-10410Y9946D03*
X-16354Y9946D03*
%LNtop solder mask component 029324719d14e7d5*%
D11*
X6725Y4250D03*
X9875Y4250D03*
%LNtop solder mask component 569398cfd6ecd067*%
D12*
X-13335Y4106D03*
X-17895Y4106D03*
D13*
X-15615Y-2344D03*
%LNtop solder mask component c945c83012794e35*%
D14*
X-2842Y4128D03*
X-2842Y7278D03*
%LNtop solder mask component a6b2d28b852c13d9*%
X-2842Y-7193D03*
X-2842Y-4043D03*
%LNtop solder mask component 340490009263b90c*%
D15*
X-6967Y0682D03*
X-10117Y0682D03*
%LNtop solder mask component 22f6c69524f717e3*%
D16*
X-9575Y3600D03*
X-9575Y6750D03*
%LNtop solder mask component bc75c30b6c7d063b*%
D17*
X9454Y13271D03*
X11250Y11475D03*
X13046Y9679D03*
X14842Y7883D03*
D18*
X7658Y15067D03*
%LNtop solder mask component b886e87fa9d37edc*%
D19*
X9369Y-4068D03*
X9369Y-7218D03*
%LNtop solder mask component c5b2b2479887bfab*%
D20*
X2635Y-4596D03*
X2635Y-7746D03*
%LNtop solder mask component b6b4f001557663a9*%
D19*
X7135Y-9350D03*
X7135Y-12500D03*
%LNtop solder mask component 24bd484f3a95cba4*%
D14*
X-2842Y-1457D03*
X-2842Y1693D03*
%LNtop solder mask component 837c47f0b27a0203*%
D19*
X7035Y-4068D03*
X7035Y-7218D03*
%LNtop solder mask component 09184801b1f854ea*%
D21*
X4085Y-10476D03*
D22*
X3135Y-10476D03*
X2185Y-10476D03*
X2185Y-12609D03*
X4085Y-12609D03*
%LNtop solder mask component 734641277c24eadc*%
D23*
X13129Y-4573D03*
X17689Y-4573D03*
D24*
X15409Y1877D03*
%LNtop solder mask component 2425b04f1e77f18b*%
D16*
X-7342Y8882D03*
X-7342Y12032D03*
%LNtop solder mask component 0fa6ba69303cb1a7*%
D25*
X10204Y-10413D03*
X16148Y-10413D03*
%LNtop solder mask component c7600c8b42ba537d*%
D26*
X-6931Y-2043D03*
X-10081Y-2043D03*
%LNtop solder mask component 740283b4dc41e593*%
D20*
X2635Y0990D03*
X2635Y-2160D03*
%LNtop solder mask component 4c3f625346e047de*%
D27*
X-3860Y18000D03*
X-1320Y18000D03*
X1220Y18000D03*
X3760Y18000D03*
%LNtop solder mask component 98fceb1916874034*%
D16*
X-7242Y3600D03*
X-7242Y6750D03*
%LNtop solder mask component 653adfa57058f3dc*%
D20*
X2635Y6725D03*
X2635Y3575D03*
%LNtop solder mask component e114f8f1ca8e31a3*%
D28*
X6760Y-1150D03*
X9910Y-1150D03*
%LNtop solder mask component 574ec748705bcd73*%
D26*
X-6931Y-4718D03*
X-10081Y-4718D03*
%LNtop solder mask component eb33270756c13b50*%
D29*
X-4292Y10009D03*
D30*
X-3342Y10009D03*
X-2392Y10009D03*
X-2392Y12141D03*
X-4292Y12141D03*
%LNtop solder mask component a01485a67c24aa87*%
D11*
X6725Y1575D03*
X9875Y1575D03*
M02*